<?xml version="1.0" encoding="UTF-8" standalone="no"?>
<!DOCTYPE svg PUBLIC "-//W3C//DTD SVG 1.1//EN"
 "http://www.w3.org/Graphics/SVG/1.1/DTD/svg11.dtd">
<!-- Generated by graphviz version 2.38.0 (20140413.2041)
 -->
<!-- Title: %3 Pages: 1 -->
<svg width="1638pt" height="565pt"
 viewBox="0.00 0.00 1637.50 565.00" xmlns="http://www.w3.org/2000/svg" xmlns:xlink="http://www.w3.org/1999/xlink">
<g id="graph0" class="graph" transform="scale(1 1) rotate(0) translate(4 561)">
<title>%3</title>
<polygon fill="white" stroke="none" points="-4,4 -4,-561 1633.5,-561 1633.5,4 -4,4"/>
<!-- fopen -->
<g id="node1" class="node"><title>fopen</title>
<ellipse fill="#eeeeee" stroke="black" cx="139.5" cy="-82.5" rx="30.5947" ry="18"/>
<text text-anchor="middle" x="139.5" y="-78.8" font-family="Times,serif" font-size="14.00">fopen</text>
</g>
<!-- fclose -->
<g id="node2" class="node"><title>fclose</title>
<ellipse fill="#eeeeee" stroke="black" cx="219.5" cy="-82.5" rx="31.6951" ry="18"/>
<text text-anchor="middle" x="219.5" y="-78.8" font-family="Times,serif" font-size="14.00">fclose</text>
</g>
<!-- malloc -->
<g id="node3" class="node"><title>malloc</title>
<ellipse fill="#eeeeee" stroke="black" cx="865.5" cy="-82.5" rx="35.194" ry="18"/>
<text text-anchor="middle" x="865.5" y="-78.8" font-family="Times,serif" font-size="14.00">malloc</text>
</g>
<!-- free -->
<g id="node4" class="node"><title>free</title>
<ellipse fill="#eeeeee" stroke="black" cx="699.5" cy="-82.5" rx="27" ry="18"/>
<text text-anchor="middle" x="699.5" y="-78.8" font-family="Times,serif" font-size="14.00">free</text>
</g>
<!-- exit -->
<g id="node5" class="node"><title>exit</title>
<ellipse fill="#eeeeee" stroke="black" cx="1106.5" cy="-287" rx="27" ry="18"/>
<text text-anchor="middle" x="1106.5" y="-283.3" font-family="Times,serif" font-size="14.00">exit</text>
</g>
<!-- menu_dics_lista -->
<g id="node6" class="node"><title>menu_dics_lista</title>
<polygon fill="#8dd3c7" stroke="black" points="105,-195.5 0,-195.5 0,-150.5 105,-150.5 105,-195.5"/>
<text text-anchor="middle" x="52.5" y="-169.3" font-family="Times,serif" font-size="14.00">menu_highscore</text>
</g>
<!-- menu_dics_lista&#45;&gt;fopen -->
<g id="edge1" class="edge"><title>menu_dics_lista&#45;&gt;fopen</title>
<path fill="none" stroke="black" d="M74.0056,-150.124C87.2135,-136.688 104.093,-119.518 117.407,-105.974"/>
<polygon fill="black" stroke="black" points="120.266,-108.059 124.78,-98.4737 115.274,-103.151 120.266,-108.059"/>
</g>
<!-- menu_dics_lista&#45;&gt;fclose -->
<g id="edge2" class="edge"><title>menu_dics_lista&#45;&gt;fclose</title>
<path fill="none" stroke="black" d="M93.7237,-150.355C118.593,-137.272 150.896,-120.232 179.5,-105 182.264,-103.528 185.133,-101.995 188.008,-100.456"/>
<polygon fill="black" stroke="black" points="189.934,-103.395 197.091,-95.5841 186.625,-97.2268 189.934,-103.395"/>
</g>
<!-- dics_lista_beolvas -->
<g id="node7" class="node"><title>dics_lista_beolvas</title>
<polygon fill="#8dd3c7" stroke="black" points="369.5,-201.5 253.5,-201.5 253.5,-144.5 369.5,-144.5 369.5,-201.5"/>
<text text-anchor="middle" x="311.5" y="-169.3" font-family="Times,serif" font-size="14.00">read_highscore</text>
</g>
<!-- dics_lista_beolvas&#45;&gt;fopen -->
<g id="edge3" class="edge"><title>dics_lista_beolvas&#45;&gt;fopen</title>
<path fill="none" stroke="black" d="M255.613,-144.424C231.751,-132.501 203.657,-118.265 178.5,-105 175.628,-103.485 172.648,-101.889 169.674,-100.279"/>
<polygon fill="black" stroke="black" points="171.332,-97.1966 160.879,-95.4724 167.975,-103.339 171.332,-97.1966"/>
</g>
<!-- dics_lista_beolvas&#45;&gt;fclose -->
<g id="edge5" class="edge"><title>dics_lista_beolvas&#45;&gt;fclose</title>
<path fill="none" stroke="black" d="M282.895,-144.483C269.79,-131.877 254.477,-117.146 242.184,-105.321"/>
<polygon fill="black" stroke="black" points="244.6,-102.789 234.967,-98.3784 239.747,-107.833 244.6,-102.789"/>
</g>
<!-- dics_lista_beolvas&#45;&gt;malloc -->
<g id="edge4" class="edge"><title>dics_lista_beolvas&#45;&gt;malloc</title>
<path fill="none" stroke="black" d="M367.659,-144.416C371.282,-143.136 374.915,-141.98 378.5,-141 532.324,-98.9364 577.42,-126.021 735.5,-105 764.798,-101.104 797.635,-95.6644 822.977,-91.2315"/>
<polygon fill="black" stroke="black" points="823.756,-94.6481 832.996,-89.4632 822.54,-87.7546 823.756,-94.6481"/>
</g>
<!-- dics_lista_beszur -->
<g id="node8" class="node"><title>dics_lista_beszur</title>
<polygon fill="#8dd3c7" stroke="black" points="837.5,-200.5 727.5,-200.5 727.5,-145.5 837.5,-145.5 837.5,-200.5"/>
<text text-anchor="middle" x="782.5" y="-169.3" font-family="Times,serif" font-size="14.00">append_highscore</text>
</g>
<!-- dics_lista_beszur&#45;&gt;malloc -->
<g id="edge6" class="edge"><title>dics_lista_beszur&#45;&gt;malloc</title>
<path fill="none" stroke="black" d="M807.403,-145.447C819.075,-133.001 832.846,-118.318 844.049,-106.372"/>
<polygon fill="black" stroke="black" points="846.706,-108.656 850.994,-98.9677 841.6,-103.868 846.706,-108.656"/>
</g>
<!-- dics_lista_beszur&#45;&gt;free -->
<g id="edge7" class="edge"><title>dics_lista_beszur&#45;&gt;free</title>
<path fill="none" stroke="black" d="M757.597,-145.447C745.69,-132.75 731.599,-117.726 720.277,-105.654"/>
<polygon fill="black" stroke="black" points="722.681,-103.101 713.287,-98.2009 717.575,-107.889 722.681,-103.101"/>
</g>
<!-- dics_lista_megjelenit -->
<g id="node9" class="node"><title>dics_lista_megjelenit</title>
<polygon fill="#8dd3c7" stroke="black" points="519.5,-188 387.5,-188 387.5,-158 519.5,-158 519.5,-188"/>
<text text-anchor="middle" x="453.5" y="-169.3" font-family="Times,serif" font-size="14.00">show_highscore</text>
</g>
<!-- dics_lista_elment -->
<g id="node10" class="node"><title>dics_lista_elment</title>
<polygon fill="#8dd3c7" stroke="black" points="235.5,-190.5 123.5,-190.5 123.5,-155.5 235.5,-155.5 235.5,-190.5"/>
<text text-anchor="middle" x="179.5" y="-169.3" font-family="Times,serif" font-size="14.00">save_highscore</text>
</g>
<!-- dics_lista_elment&#45;&gt;fopen -->
<g id="edge8" class="edge"><title>dics_lista_elment&#45;&gt;fopen</title>
<path fill="none" stroke="black" d="M171.976,-155.354C166.11,-142.375 157.859,-124.12 151.142,-109.258"/>
<polygon fill="black" stroke="black" points="154.298,-107.742 146.99,-100.072 147.919,-110.626 154.298,-107.742"/>
</g>
<!-- dics_lista_elment&#45;&gt;fclose -->
<g id="edge9" class="edge"><title>dics_lista_elment&#45;&gt;fclose</title>
<path fill="none" stroke="black" d="M187.024,-155.354C192.89,-142.375 201.141,-124.12 207.858,-109.258"/>
<polygon fill="black" stroke="black" points="211.081,-110.626 212.01,-100.072 204.702,-107.742 211.081,-110.626"/>
</g>
<!-- dics_lista_felszabadit -->
<g id="node11" class="node"><title>dics_lista_felszabadit</title>
<polygon fill="#8dd3c7" stroke="black" points="671,-188 538,-188 538,-158 671,-158 671,-188"/>
<text text-anchor="middle" x="604.5" y="-169.3" font-family="Times,serif" font-size="14.00">free_highscore</text>
</g>
<!-- dics_lista_felszabadit&#45;&gt;free -->
<g id="edge10" class="edge"><title>dics_lista_felszabadit&#45;&gt;free</title>
<path fill="none" stroke="black" d="M619.763,-157.781C635.137,-143.459 659.041,-121.191 676.669,-104.768"/>
<polygon fill="black" stroke="black" points="679.343,-107.061 684.274,-97.6838 674.572,-101.939 679.343,-107.061"/>
</g>
<!-- dicsoseglista -->
<g id="node12" class="node"><title>dicsoseglista</title>
<polygon fill="#8dd3c7" stroke="black" points="647.5,-302.5 561.5,-302.5 561.5,-271.5 647.5,-271.5 647.5,-302.5"/>
<text text-anchor="middle" x="604.5" y="-283.3" font-family="Times,serif" font-size="14.00">highscore</text>
</g>
<!-- dicsoseglista&#45;&gt;dics_lista_beolvas -->
<g id="edge11" class="edge"><title>dicsoseglista&#45;&gt;dics_lista_beolvas</title>
<path fill="none" stroke="black" d="M591.377,-271.213C581.633,-261.165 567.487,-248.401 552.5,-241 481.692,-206.034 453.495,-229.743 378.5,-205 378.401,-204.967 378.302,-204.935 378.203,-204.902"/>
<polygon fill="black" stroke="black" points="379.499,-201.648 368.904,-201.577 377.142,-208.239 379.499,-201.648"/>
</g>
<!-- dicsoseglista&#45;&gt;dics_lista_beszur -->
<g id="edge12" class="edge"><title>dicsoseglista&#45;&gt;dics_lista_beszur</title>
<path fill="none" stroke="black" d="M627.77,-271.358C654.006,-254.85 697.46,-227.508 731.65,-205.996"/>
<polygon fill="black" stroke="black" points="733.526,-208.95 740.126,-200.662 729.798,-203.026 733.526,-208.95"/>
</g>
<!-- dicsoseglista&#45;&gt;dics_lista_megjelenit -->
<g id="edge13" class="edge"><title>dicsoseglista&#45;&gt;dics_lista_megjelenit</title>
<path fill="none" stroke="black" d="M588.521,-271.304C578.44,-262.254 565.006,-250.589 552.5,-241 530.506,-224.135 504.517,-206.633 484.687,-193.748"/>
<polygon fill="black" stroke="black" points="486.346,-190.653 476.046,-188.171 482.551,-196.534 486.346,-190.653"/>
</g>
<!-- dicsoseglista&#45;&gt;dics_lista_elment -->
<g id="edge14" class="edge"><title>dicsoseglista&#45;&gt;dics_lista_elment</title>
<path fill="none" stroke="black" d="M591.979,-271.242C582.317,-260.931 568.015,-247.833 552.5,-241 426.37,-185.45 376.927,-243.178 244.5,-205 235.772,-202.484 226.762,-198.899 218.334,-195.054"/>
<polygon fill="black" stroke="black" points="219.643,-191.801 209.111,-190.647 216.625,-198.117 219.643,-191.801"/>
</g>
<!-- dicsoseglista&#45;&gt;dics_lista_felszabadit -->
<g id="edge15" class="edge"><title>dicsoseglista&#45;&gt;dics_lista_felszabadit</title>
<path fill="none" stroke="black" d="M604.5,-271.358C604.5,-252.81 604.5,-220.585 604.5,-198.319"/>
<polygon fill="black" stroke="black" points="608,-198.291 604.5,-188.292 601,-198.292 608,-198.291"/>
</g>
<!-- egyjatekos -->
<g id="node13" class="node"><title>egyjatekos</title>
<polygon fill="#ffffb3" stroke="black" points="1014.5,-456.5 940.5,-456.5 940.5,-375.5 1014.5,-375.5 1014.5,-456.5"/>
<text text-anchor="middle" x="977.5" y="-412.3" font-family="Times,serif" font-size="14.00">oneplayer</text>
</g>
<!-- egyjatekos&#45;&gt;malloc -->
<g id="edge16" class="edge"><title>egyjatekos&#45;&gt;malloc</title>
<path fill="none" stroke="black" d="M940.125,-390.251C921.622,-375.865 900.864,-356.035 889.5,-333 853.153,-259.322 857.363,-158.62 862.079,-110.824"/>
<polygon fill="black" stroke="black" points="865.583,-110.972 863.171,-100.656 858.623,-110.225 865.583,-110.972"/>
</g>
<!-- egyjatekos&#45;&gt;exit -->
<g id="edge17" class="edge"><title>egyjatekos&#45;&gt;exit</title>
<path fill="none" stroke="black" d="M1014.53,-381.743C1030.49,-367.087 1049.2,-349.482 1065.5,-333 1072.59,-325.825 1080.1,-317.744 1086.72,-310.429"/>
<polygon fill="black" stroke="black" points="1089.43,-312.654 1093.5,-302.873 1084.22,-307.979 1089.43,-312.654"/>
</g>
<!-- egyjatekos&#45;&gt;dicsoseglista -->
<g id="edge23" class="edge"><title>egyjatekos&#45;&gt;dicsoseglista</title>
<path fill="none" stroke="black" d="M940.346,-404.121C889.807,-389.123 796.723,-360.784 718.5,-333 695.288,-324.755 669.756,-314.765 648.749,-306.293"/>
<polygon fill="black" stroke="black" points="650.023,-303.033 639.441,-302.52 647.393,-309.52 650.023,-303.033"/>
</g>
<!-- palyaLetrehoz -->
<g id="node18" class="node"><title>palyaLetrehoz</title>
<polygon fill="#bebada" stroke="black" points="1501.5,-326 1407.5,-326 1407.5,-248 1501.5,-248 1501.5,-326"/>
<text text-anchor="middle" x="1454.5" y="-283.3" font-family="Times,serif" font-size="14.00">createField</text>
</g>
<!-- egyjatekos&#45;&gt;palyaLetrehoz -->
<g id="edge18" class="edge"><title>egyjatekos&#45;&gt;palyaLetrehoz</title>
<path fill="none" stroke="black" d="M1014.58,-402.685C1046.18,-392.544 1092.94,-378.359 1134.5,-369 1233.73,-346.656 1263.4,-363.274 1360.5,-333 1373.03,-329.095 1386,-323.791 1398.16,-318.195"/>
<polygon fill="black" stroke="black" points="1399.74,-321.32 1407.28,-313.877 1396.74,-314.993 1399.74,-321.32"/>
</g>
<!-- idozit -->
<g id="node19" class="node"><title>idozit</title>
<polygon fill="#bebada" stroke="black" points="1205.5,-299 1151.5,-299 1151.5,-275 1205.5,-275 1205.5,-299"/>
<text text-anchor="middle" x="1178.5" y="-283.3" font-family="Times,serif" font-size="14.00">timer</text>
</g>
<!-- egyjatekos&#45;&gt;idozit -->
<g id="edge20" class="edge"><title>egyjatekos&#45;&gt;idozit</title>
<path fill="none" stroke="black" stroke-dasharray="5,2" d="M1014.57,-401.969C1049.87,-388.375 1103.28,-364.626 1142.5,-333 1151.4,-325.822 1159.53,-316.083 1165.8,-307.501"/>
<polygon fill="black" stroke="black" points="1168.79,-309.341 1171.62,-299.133 1163.04,-305.345 1168.79,-309.341"/>
</g>
<!-- kajaLetrehoz -->
<g id="node20" class="node"><title>kajaLetrehoz</title>
<polygon fill="#fb8072" stroke="black" points="1262,-205 1175,-205 1175,-141 1262,-141 1262,-205"/>
<text text-anchor="middle" x="1218.5" y="-169.3" font-family="Times,serif" font-size="14.00">createFood</text>
</g>
<!-- egyjatekos&#45;&gt;kajaLetrehoz -->
<g id="edge19" class="edge"><title>egyjatekos&#45;&gt;kajaLetrehoz</title>
<path fill="none" stroke="black" d="M1006.57,-375.117C1015.46,-362.038 1024.9,-347.208 1032.5,-333 1053.37,-293.992 1038.71,-271.763 1070.5,-241 1101.14,-211.356 1122.53,-222.952 1165.61,-204.947"/>
<polygon fill="black" stroke="black" points="1167.16,-208.088 1174.83,-200.781 1164.28,-201.708 1167.16,-208.088"/>
</g>
<!-- kigyoKirajzol -->
<g id="node23" class="node"><title>kigyoKirajzol</title>
<polygon fill="#fb8072" stroke="black" points="1023.5,-333 931.5,-333 931.5,-241 1023.5,-241 1023.5,-333"/>
<text text-anchor="middle" x="977.5" y="-283.3" font-family="Times,serif" font-size="14.00">drawSnake</text>
</g>
<!-- egyjatekos&#45;&gt;kigyoKirajzol -->
<g id="edge21" class="edge"><title>egyjatekos&#45;&gt;kigyoKirajzol</title>
<path fill="none" stroke="black" d="M977.5,-375.165C977.5,-365.022 977.5,-353.938 977.5,-343.179"/>
<polygon fill="black" stroke="black" points="981,-343.004 977.5,-333.004 974,-343.004 981,-343.004"/>
</g>
<!-- fejUtkozik -->
<g id="node25" class="node"><title>fejUtkozik</title>
<polygon fill="#fb8072" stroke="black" points="543.5,-308 469.5,-308 469.5,-266 543.5,-266 543.5,-308"/>
<text text-anchor="middle" x="506.5" y="-283.3" font-family="Times,serif" font-size="14.00">headHit</text>
</g>
<!-- egyjatekos&#45;&gt;fejUtkozik -->
<g id="edge22" class="edge"><title>egyjatekos&#45;&gt;fejUtkozik</title>
<path fill="none" stroke="black" d="M940.495,-414.874C863.703,-413.161 683.303,-401.515 552.5,-333 544.249,-328.678 536.493,-322.398 529.785,-315.894"/>
<polygon fill="black" stroke="black" points="531.885,-313.03 522.425,-308.26 526.846,-317.888 531.885,-313.03"/>
</g>
<!-- kigyoFelszabadit -->
<g id="node27" class="node"><title>kigyoFelszabadit</title>
<polygon fill="#fb8072" stroke="black" points="837,-302 728,-302 728,-272 837,-272 837,-302"/>
<text text-anchor="middle" x="782.5" y="-283.3" font-family="Times,serif" font-size="14.00">freeSnake</text>
</g>
<!-- egyjatekos&#45;&gt;kigyoFelszabadit -->
<g id="edge24" class="edge"><title>egyjatekos&#45;&gt;kigyoFelszabadit</title>
<path fill="none" stroke="black" d="M940.279,-390.79C915.19,-374.468 881.35,-352.447 851.5,-333 838.772,-324.708 824.727,-315.55 812.65,-307.672"/>
<polygon fill="black" stroke="black" points="814.538,-304.725 804.25,-302.193 810.713,-310.588 814.538,-304.725"/>
</g>
<!-- ketjatekos -->
<g id="node14" class="node"><title>ketjatekos</title>
<polygon fill="#ffffb3" stroke="black" points="1214,-463 1143,-463 1143,-369 1214,-369 1214,-463"/>
<text text-anchor="middle" x="1178.5" y="-412.3" font-family="Times,serif" font-size="14.00">twoplayer</text>
</g>
<!-- ketjatekos&#45;&gt;malloc -->
<g id="edge25" class="edge"><title>ketjatekos&#45;&gt;malloc</title>
<path fill="none" stroke="black" d="M1142.87,-404.601C1074.33,-384.46 930.183,-341.369 922.5,-333 907.405,-316.558 880.89,-172.216 870.182,-110.882"/>
<polygon fill="black" stroke="black" points="873.587,-110.033 868.43,-100.778 866.69,-111.229 873.587,-110.033"/>
</g>
<!-- ketjatekos&#45;&gt;exit -->
<g id="edge26" class="edge"><title>ketjatekos&#45;&gt;exit</title>
<path fill="none" stroke="black" d="M1152.3,-368.791C1141.55,-349.819 1129.53,-328.618 1120.5,-312.696"/>
<polygon fill="black" stroke="black" points="1123.54,-310.961 1115.56,-303.988 1117.45,-314.414 1123.54,-310.961"/>
</g>
<!-- ketjatekos&#45;&gt;palyaLetrehoz -->
<g id="edge27" class="edge"><title>ketjatekos&#45;&gt;palyaLetrehoz</title>
<path fill="none" stroke="black" d="M1214.04,-404.714C1257.76,-391.335 1333.55,-365.749 1393.5,-333 1395.23,-332.054 1396.97,-331.064 1398.71,-330.039"/>
<polygon fill="black" stroke="black" points="1400.72,-332.909 1407.37,-324.658 1397.03,-326.963 1400.72,-332.909"/>
</g>
<!-- ketjatekos&#45;&gt;idozit -->
<g id="edge29" class="edge"><title>ketjatekos&#45;&gt;idozit</title>
<path fill="none" stroke="black" stroke-dasharray="5,2" d="M1178.5,-368.791C1178.5,-348.392 1178.5,-325.415 1178.5,-309.195"/>
<polygon fill="black" stroke="black" points="1182,-309.16 1178.5,-299.16 1175,-309.16 1182,-309.16"/>
</g>
<!-- ketjatekos&#45;&gt;kajaLetrehoz -->
<g id="edge28" class="edge"><title>ketjatekos&#45;&gt;kajaLetrehoz</title>
<path fill="none" stroke="black" d="M1214.35,-410.412C1257.52,-402.755 1328.24,-382.918 1360.5,-333 1382.69,-298.658 1382.39,-275.535 1360.5,-241 1341.14,-210.461 1303.72,-193.581 1272.15,-184.405"/>
<polygon fill="black" stroke="black" points="1272.71,-180.929 1262.14,-181.689 1270.87,-187.685 1272.71,-180.929"/>
</g>
<!-- kigyoKirajzol_multi -->
<g id="node24" class="node"><title>kigyoKirajzol_multi</title>
<polygon fill="#fb8072" stroke="black" points="1351.5,-332.5 1223.5,-332.5 1223.5,-241.5 1351.5,-241.5 1351.5,-332.5"/>
<text text-anchor="middle" x="1287.5" y="-283.3" font-family="Times,serif" font-size="14.00">drawSnake_multi</text>
</g>
<!-- ketjatekos&#45;&gt;kigyoKirajzol_multi -->
<g id="edge30" class="edge"><title>ketjatekos&#45;&gt;kigyoKirajzol_multi</title>
<path fill="none" stroke="black" d="M1214.19,-373.415C1223.18,-362.937 1232.96,-351.552 1242.35,-340.611"/>
<polygon fill="black" stroke="black" points="1245.24,-342.61 1249.1,-332.742 1239.93,-338.051 1245.24,-342.61"/>
</g>
<!-- fejUtkozik_multi -->
<g id="node26" class="node"><title>fejUtkozik_multi</title>
<polygon fill="#fb8072" stroke="black" points="1629.5,-317.5 1519.5,-317.5 1519.5,-256.5 1629.5,-256.5 1629.5,-317.5"/>
<text text-anchor="middle" x="1574.5" y="-283.3" font-family="Times,serif" font-size="14.00">headHit_multi</text>
</g>
<!-- ketjatekos&#45;&gt;fejUtkozik_multi -->
<g id="edge31" class="edge"><title>ketjatekos&#45;&gt;fejUtkozik_multi</title>
<path fill="none" stroke="black" d="M1214.33,-410.581C1276.79,-401.926 1408.66,-379.397 1510.5,-333 1516.65,-330.2 1522.82,-326.791 1528.78,-323.114"/>
<polygon fill="black" stroke="black" points="1530.83,-325.951 1537.32,-317.575 1527.03,-320.077 1530.83,-325.951"/>
</g>
<!-- ketjatekos&#45;&gt;kigyoFelszabadit -->
<g id="edge32" class="edge"><title>ketjatekos&#45;&gt;kigyoFelszabadit</title>
<path fill="none" stroke="black" d="M1142.87,-404.139C1111.5,-394.646 1064.56,-380.605 1023.5,-369 964.158,-352.226 947.834,-352.999 889.5,-333 866.892,-325.249 842.268,-315.022 822.347,-306.277"/>
<polygon fill="black" stroke="black" points="823.536,-302.975 812.975,-302.12 820.697,-309.374 823.536,-302.975"/>
</g>
<!-- main -->
<g id="node15" class="node"><title>main</title>
<polygon fill="#ffffb3" stroke="black" points="1004.5,-557 950.5,-557 950.5,-499 1004.5,-499 1004.5,-557"/>
<text text-anchor="middle" x="977.5" y="-524.3" font-family="Times,serif" font-size="14.00">main</text>
</g>
<!-- main&#45;&gt;menu_dics_lista -->
<g id="edge35" class="edge"><title>main&#45;&gt;menu_dics_lista</title>
<path fill="none" stroke="black" stroke-dasharray="5,2" d="M950.24,-518.015C842.579,-482.282 437.103,-345.36 114.5,-205 110.879,-203.425 107.168,-201.744 103.449,-200.01"/>
<polygon fill="black" stroke="black" points="104.769,-196.763 94.2357,-195.624 101.76,-203.083 104.769,-196.763"/>
</g>
<!-- main&#45;&gt;egyjatekos -->
<g id="edge33" class="edge"><title>main&#45;&gt;egyjatekos</title>
<path fill="none" stroke="black" stroke-dasharray="5,2" d="M977.5,-498.958C977.5,-489.113 977.5,-477.738 977.5,-466.655"/>
<polygon fill="black" stroke="black" points="981,-466.612 977.5,-456.612 974,-466.612 981,-466.612"/>
</g>
<!-- main&#45;&gt;ketjatekos -->
<g id="edge34" class="edge"><title>main&#45;&gt;ketjatekos</title>
<path fill="none" stroke="black" stroke-dasharray="5,2" d="M1004.61,-512.165C1037.64,-494.086 1093.94,-463.277 1133.51,-441.622"/>
<polygon fill="black" stroke="black" points="1135.59,-444.472 1142.68,-436.601 1132.23,-438.332 1135.59,-444.472"/>
</g>
<!-- poz -->
<g id="node16" class="node"><title>poz</title>
<polygon fill="#bebada" stroke="black" points="1245.5,-24 1191.5,-24 1191.5,-0 1245.5,-0 1245.5,-24"/>
<text text-anchor="middle" x="1218.5" y="-8.3" font-family="Times,serif" font-size="14.00">pos</text>
</g>
<!-- pixel -->
<g id="node17" class="node"><title>pixel</title>
<polygon fill="#bebada" stroke="black" points="1245.5,-105 1191.5,-105 1191.5,-60 1245.5,-60 1245.5,-105"/>
<text text-anchor="middle" x="1218.5" y="-78.8" font-family="Times,serif" font-size="14.00">pixel</text>
</g>
<!-- pixel&#45;&gt;poz -->
<g id="edge36" class="edge"><title>pixel&#45;&gt;poz</title>
<path fill="none" stroke="black" d="M1218.5,-59.8262C1218.5,-51.6342 1218.5,-42.3276 1218.5,-34.1813"/>
<polygon fill="black" stroke="black" points="1222,-34.0057 1218.5,-24.0057 1215,-34.0057 1222,-34.0057"/>
</g>
<!-- palyaLetrehoz&#45;&gt;pixel -->
<g id="edge37" class="edge"><title>palyaLetrehoz&#45;&gt;pixel</title>
<path fill="none" stroke="black" d="M1413.58,-247.941C1381.24,-218.213 1334.67,-176.184 1292.5,-141 1280.12,-130.668 1266.23,-119.717 1253.86,-110.174"/>
<polygon fill="black" stroke="black" points="1255.64,-107.128 1245.57,-103.818 1251.38,-112.682 1255.64,-107.128"/>
</g>
<!-- kajaLetrehoz&#45;&gt;pixel -->
<g id="edge38" class="edge"><title>kajaLetrehoz&#45;&gt;pixel</title>
<path fill="none" stroke="black" d="M1218.5,-140.549C1218.5,-132.305 1218.5,-123.412 1218.5,-115.157"/>
<polygon fill="black" stroke="black" points="1222,-115.139 1218.5,-105.139 1215,-115.139 1222,-115.139"/>
</g>
<!-- novel -->
<g id="node21" class="node"><title>novel</title>
<polygon fill="#fb8072" stroke="black" points="1055.5,-185.5 1001.5,-185.5 1001.5,-160.5 1055.5,-160.5 1055.5,-185.5"/>
<text text-anchor="middle" x="1028.5" y="-169.3" font-family="Times,serif" font-size="14.00">incr</text>
</g>
<!-- novel&#45;&gt;malloc -->
<g id="edge39" class="edge"><title>novel&#45;&gt;malloc</title>
<path fill="none" stroke="black" d="M1007.19,-160.43C979.308,-145.292 930.19,-118.623 897.742,-101.005"/>
<polygon fill="black" stroke="black" points="899.115,-97.7684 888.657,-96.0727 895.775,-103.92 899.115,-97.7684"/>
</g>
<!-- mezoUresre -->
<g id="node22" class="node"><title>mezoUresre</title>
<polygon fill="#fb8072" stroke="black" points="1157,-201.5 1074,-201.5 1074,-144.5 1157,-144.5 1157,-201.5"/>
<text text-anchor="middle" x="1115.5" y="-169.3" font-family="Times,serif" font-size="14.00">cellEmpty</text>
</g>
<!-- mezoUresre&#45;&gt;pixel -->
<g id="edge40" class="edge"><title>mezoUresre&#45;&gt;pixel</title>
<path fill="none" stroke="black" d="M1147.53,-144.483C1159.64,-134.077 1173.43,-122.224 1185.62,-111.751"/>
<polygon fill="black" stroke="black" points="1188.06,-114.27 1193.36,-105.098 1183.5,-108.961 1188.06,-114.27"/>
</g>
<!-- kigyoKirajzol&#45;&gt;pixel -->
<g id="edge44" class="edge"><title>kigyoKirajzol&#45;&gt;pixel</title>
<path fill="none" stroke="black" d="M969.741,-240.856C966.994,-209.251 969.176,-168.006 992.5,-141 1016.91,-112.732 1123.54,-95.3417 1181.19,-87.834"/>
<polygon fill="black" stroke="black" points="1181.87,-91.2757 1191.35,-86.5467 1180.99,-84.3311 1181.87,-91.2757"/>
</g>
<!-- kigyoKirajzol&#45;&gt;kajaLetrehoz -->
<g id="edge42" class="edge"><title>kigyoKirajzol&#45;&gt;kajaLetrehoz</title>
<path fill="none" stroke="black" d="M1023.59,-248.869C1028.15,-245.983 1032.83,-243.302 1037.5,-241 1088.18,-216.027 1109.58,-227.153 1165.65,-204.929"/>
<polygon fill="black" stroke="black" points="1167.07,-208.132 1174.96,-201.065 1164.38,-201.667 1167.07,-208.132"/>
</g>
<!-- kigyoKirajzol&#45;&gt;novel -->
<g id="edge41" class="edge"><title>kigyoKirajzol&#45;&gt;novel</title>
<path fill="none" stroke="black" d="M998.097,-240.768C1005.25,-225.055 1012.94,-208.167 1018.8,-195.307"/>
<polygon fill="black" stroke="black" points="1022.1,-196.507 1023.06,-185.956 1015.73,-193.607 1022.1,-196.507"/>
</g>
<!-- kigyoKirajzol&#45;&gt;mezoUresre -->
<g id="edge43" class="edge"><title>kigyoKirajzol&#45;&gt;mezoUresre</title>
<path fill="none" stroke="black" d="M1023.84,-248.394C1039.84,-235.406 1057.67,-220.933 1073.32,-208.231"/>
<polygon fill="black" stroke="black" points="1075.73,-210.786 1081.29,-201.766 1071.32,-205.35 1075.73,-210.786"/>
</g>
<!-- kigyoKirajzol_multi&#45;&gt;pixel -->
<g id="edge48" class="edge"><title>kigyoKirajzol_multi&#45;&gt;pixel</title>
<path fill="none" stroke="black" d="M1289.66,-241.278C1289.42,-211.597 1285.83,-172.462 1271.5,-141 1266.76,-130.594 1259.4,-120.812 1251.67,-112.369"/>
<polygon fill="black" stroke="black" points="1253.99,-109.743 1244.51,-105.013 1248.97,-114.623 1253.99,-109.743"/>
</g>
<!-- kigyoKirajzol_multi&#45;&gt;kajaLetrehoz -->
<g id="edge46" class="edge"><title>kigyoKirajzol_multi&#45;&gt;kajaLetrehoz</title>
<path fill="none" stroke="black" d="M1260.03,-241.413C1254.45,-232.354 1248.61,-222.879 1243.14,-213.991"/>
<polygon fill="black" stroke="black" points="1246.03,-212.015 1237.81,-205.337 1240.07,-215.687 1246.03,-212.015"/>
</g>
<!-- kigyoKirajzol_multi&#45;&gt;novel -->
<g id="edge45" class="edge"><title>kigyoKirajzol_multi&#45;&gt;novel</title>
<path fill="none" stroke="black" d="M1223.19,-244.898C1220.29,-243.51 1217.39,-242.202 1214.5,-241 1151.61,-214.8 1126.33,-235.686 1065.5,-205 1058.96,-201.703 1052.58,-197.047 1047.01,-192.344"/>
<polygon fill="black" stroke="black" points="1049.27,-189.668 1039.5,-185.571 1044.58,-194.867 1049.27,-189.668"/>
</g>
<!-- kigyoKirajzol_multi&#45;&gt;mezoUresre -->
<g id="edge47" class="edge"><title>kigyoKirajzol_multi&#45;&gt;mezoUresre</title>
<path fill="none" stroke="black" d="M1223.45,-244.295C1204.41,-231.895 1183.83,-218.493 1165.79,-206.75"/>
<polygon fill="black" stroke="black" points="1167.45,-203.654 1157.16,-201.13 1163.63,-209.52 1167.45,-203.654"/>
</g>
<!-- kigyoFelszabadit&#45;&gt;free -->
<g id="edge49" class="edge"><title>kigyoFelszabadit&#45;&gt;free</title>
<path fill="none" stroke="black" d="M767.373,-271.739C752.387,-256.662 730.052,-231.442 718.5,-205 705.187,-174.528 701.04,-136.162 699.834,-110.785"/>
<polygon fill="black" stroke="black" points="703.331,-110.636 699.479,-100.766 696.336,-110.884 703.331,-110.636"/>
</g>
</g>
</svg>
