<?xml version="1.0" encoding="UTF-8" standalone="no"?>
<!DOCTYPE svg PUBLIC "-//W3C//DTD SVG 1.1//EN"
 "http://www.w3.org/Graphics/SVG/1.1/DTD/svg11.dtd">
<!-- Generated by graphviz version 2.38.0 (20140413.2041)
 -->
<!-- Title: %3 Pages: 1 -->
<svg width="1705pt" height="1014pt"
 viewBox="0.00 0.00 1704.55 1014.00" xmlns="http://www.w3.org/2000/svg" xmlns:xlink="http://www.w3.org/1999/xlink">
<g id="graph0" class="graph" transform="scale(1 1) rotate(0) translate(4 1010)">
<title>%3</title>
<polygon fill="white" stroke="none" points="-4,4 -4,-1010 1700.55,-1010 1700.55,4 -4,4"/>
<!-- fopen -->
<g id="node1" class="node"><title>fopen</title>
<ellipse fill="#eeeeee" stroke="black" cx="30.5473" cy="-840.5" rx="30.5947" ry="18"/>
<text text-anchor="middle" x="30.5473" y="-836.8" font-family="Times,serif" font-size="14.00">fopen</text>
</g>
<!-- fclose -->
<g id="node2" class="node"><title>fclose</title>
<ellipse fill="#eeeeee" stroke="black" cx="110.547" cy="-840.5" rx="31.6951" ry="18"/>
<text text-anchor="middle" x="110.547" y="-836.8" font-family="Times,serif" font-size="14.00">fclose</text>
</g>
<!-- malloc -->
<g id="node3" class="node"><title>malloc</title>
<ellipse fill="#eeeeee" stroke="black" cx="870.547" cy="-18" rx="35.194" ry="18"/>
<text text-anchor="middle" x="870.547" y="-14.3" font-family="Times,serif" font-size="14.00">malloc</text>
</g>
<!-- free -->
<g id="node4" class="node"><title>free</title>
<ellipse fill="#eeeeee" stroke="black" cx="265.547" cy="-18" rx="27" ry="18"/>
<text text-anchor="middle" x="265.547" y="-14.3" font-family="Times,serif" font-size="14.00">free</text>
</g>
<!-- exit -->
<g id="node5" class="node"><title>exit</title>
<ellipse fill="#eeeeee" stroke="black" cx="762.547" cy="-699" rx="27" ry="18"/>
<text text-anchor="middle" x="762.547" y="-695.3" font-family="Times,serif" font-size="14.00">exit</text>
</g>
<!-- atom_felepit_kitolt_malloc -->
<g id="node6" class="node"><title>atom_felepit_kitolt_malloc</title>
<polygon fill="#8dd3c7" stroke="black" points="1344.05,-455.5 1179.05,-455.5 1179.05,-315.5 1344.05,-315.5 1344.05,-455.5"/>
<text text-anchor="middle" x="1261.55" y="-381.8" font-family="Times,serif" font-size="14.00">atom_build_fill_malloc</text>
</g>
<!-- atom_felepit_kitolt_malloc&#45;&gt;malloc -->
<g id="edge1" class="edge"><title>atom_felepit_kitolt_malloc&#45;&gt;malloc</title>
<path fill="none" stroke="black" d="M1259.93,-315.355C1254.33,-243.596 1234.02,-133.434 1164.55,-72 1128.3,-39.9486 988.729,-26.4643 915.691,-21.5079"/>
<polygon fill="black" stroke="black" points="915.624,-17.9962 905.417,-20.8373 915.168,-24.9813 915.624,-17.9962"/>
</g>
<!-- pont_rajzol -->
<g id="node7" class="node"><title>pont_rajzol</title>
<polygon fill="#8dd3c7" stroke="black" points="1485.55,-127.5 1407.55,-127.5 1407.55,-77.5 1485.55,-77.5 1485.55,-127.5"/>
<text text-anchor="middle" x="1446.55" y="-98.8" font-family="Times,serif" font-size="14.00">dot_draw</text>
</g>
<!-- atom_rajzol -->
<g id="node8" class="node"><title>atom_rajzol</title>
<polygon fill="#8dd3c7" stroke="black" points="1389.55,-129.5 1307.55,-129.5 1307.55,-75.5 1389.55,-75.5 1389.55,-129.5"/>
<text text-anchor="middle" x="1348.55" y="-98.8" font-family="Times,serif" font-size="14.00">atom_draw</text>
</g>
<!-- felirat_rajzol -->
<g id="node9" class="node"><title>felirat_rajzol</title>
<polygon fill="#8dd3c7" stroke="black" points="1589.55,-133 1503.55,-133 1503.55,-72 1589.55,-72 1589.55,-133"/>
<text text-anchor="middle" x="1546.55" y="-98.8" font-family="Times,serif" font-size="14.00">label_draw</text>
</g>
<!-- kirajzol_atom -->
<g id="node10" class="node"><title>kirajzol_atom</title>
<polygon fill="#8dd3c7" stroke="black" points="1492.55,-602 1400.55,-602 1400.55,-169 1492.55,-169 1492.55,-602"/>
<text text-anchor="middle" x="1446.55" y="-381.8" font-family="Times,serif" font-size="14.00">draw_atom</text>
</g>
<!-- kirajzol_atom&#45;&gt;pont_rajzol -->
<g id="edge2" class="edge"><title>kirajzol_atom&#45;&gt;pont_rajzol</title>
<path fill="none" stroke="black" d="M1446.55,-168.673C1446.55,-157.357 1446.55,-146.965 1446.55,-137.963"/>
<polygon fill="black" stroke="black" points="1450.05,-137.701 1446.55,-127.701 1443.05,-137.701 1450.05,-137.701"/>
</g>
<!-- kirajzol_atom&#45;&gt;atom_rajzol -->
<g id="edge3" class="edge"><title>kirajzol_atom&#45;&gt;atom_rajzol</title>
<path fill="none" stroke="black" d="M1400.42,-252.228C1385.94,-210.717 1371.13,-168.244 1361.06,-139.372"/>
<polygon fill="black" stroke="black" points="1364.3,-138.04 1357.7,-129.75 1357.69,-140.345 1364.3,-138.04"/>
</g>
<!-- kirajzol_atom&#45;&gt;felirat_rajzol -->
<g id="edge4" class="edge"><title>kirajzol_atom&#45;&gt;felirat_rajzol</title>
<path fill="none" stroke="black" d="M1492.6,-255.103C1507.15,-214.209 1522.15,-172.053 1532.63,-142.608"/>
<polygon fill="black" stroke="black" points="1535.95,-143.724 1536,-133.13 1529.35,-141.377 1535.95,-143.724"/>
</g>
<!-- palya_rajzol -->
<g id="node11" class="node"><title>palya_rajzol</title>
<polygon fill="#8dd3c7" stroke="black" points="1371.05,-729.5 1288.05,-729.5 1288.05,-668.5 1371.05,-668.5 1371.05,-729.5"/>
<text text-anchor="middle" x="1329.55" y="-695.3" font-family="Times,serif" font-size="14.00">draw_field</text>
</g>
<!-- palya_rajzol&#45;&gt;pont_rajzol -->
<g id="edge5" class="edge"><title>palya_rajzol&#45;&gt;pont_rajzol</title>
<path fill="none" stroke="black" d="M1338.23,-668.417C1343.44,-649.565 1349.77,-624.534 1353.55,-602 1385.52,-411.48 1317.56,-347.456 1391.55,-169 1396.57,-156.878 1404.68,-145.319 1413.15,-135.38"/>
<polygon fill="black" stroke="black" points="1415.9,-137.559 1419.96,-127.776 1410.68,-132.888 1415.9,-137.559"/>
</g>
<!-- palya_rajzol&#45;&gt;kirajzol_atom -->
<g id="edge6" class="edge"><title>palya_rajzol&#45;&gt;kirajzol_atom</title>
<path fill="none" stroke="black" d="M1349.91,-668.389C1361.88,-649.942 1376.57,-625.351 1386.55,-602 1390.23,-593.385 1393.75,-584.481 1397.1,-575.417"/>
<polygon fill="black" stroke="black" points="1400.43,-576.515 1400.54,-565.921 1393.84,-574.132 1400.43,-576.515"/>
</g>
<!-- sort_beolvas_malloc -->
<g id="node12" class="node"><title>sort_beolvas_malloc</title>
<defs>
<radialGradient id="r_0" cx="50%" cy="50%" r="75%" fx="50%" fy="50%">
<stop offset="0" style="stop-color:white;stop-opacity:1.;"/>
<stop offset="1" style="stop-color:#ffffb3;stop-opacity:1.;"/>
</radialGradient>
</defs>
<polygon fill="url(#r_0)" stroke="black" stroke-dasharray="5,2" points="842.047,-123.5 713.047,-123.5 713.047,-81.5 842.047,-81.5 842.047,-123.5"/>
<text text-anchor="middle" x="777.547" y="-98.8" font-family="Times,serif" font-size="14.00">readline_malloc</text>
</g>
<!-- sort_beolvas_malloc&#45;&gt;malloc -->
<g id="edge7" class="edge"><title>sort_beolvas_malloc&#45;&gt;malloc</title>
<path fill="none" stroke="black" d="M800.536,-81.1067C814.295,-68.9011 831.781,-53.3894 845.836,-40.9216"/>
<polygon fill="black" stroke="black" points="848.502,-43.2349 853.66,-33.9805 843.857,-37.9984 848.502,-43.2349"/>
</g>
<!-- beolv_adott_karakterig_malloc -->
<g id="node13" class="node"><title>beolv_adott_karakterig_malloc</title>
<polygon fill="#ffffb3" stroke="black" points="1122.55,-412.5 936.547,-412.5 936.547,-358.5 1122.55,-358.5 1122.55,-412.5"/>
<text text-anchor="middle" x="1029.55" y="-381.8" font-family="Times,serif" font-size="14.00">readline_delim_malloc</text>
</g>
<!-- beolv_adott_karakterig_malloc&#45;&gt;malloc -->
<g id="edge8" class="edge"><title>beolv_adott_karakterig_malloc&#45;&gt;malloc</title>
<path fill="none" stroke="black" d="M1024.66,-358.102C1013.41,-302.047 982.024,-168.384 922.547,-72 915.461,-60.5157 905.474,-49.561 896.144,-40.6232"/>
<polygon fill="black" stroke="black" points="898.268,-37.8207 888.54,-33.6225 893.527,-42.9706 898.268,-37.8207"/>
</g>
<!-- elmegy_fajl_karakterig -->
<g id="node14" class="node"><title>elmegy_fajl_karakterig</title>
<polygon fill="#ffffb3" stroke="black" points="880.047,-401.5 737.047,-401.5 737.047,-369.5 880.047,-369.5 880.047,-401.5"/>
<text text-anchor="middle" x="808.547" y="-381.8" font-family="Times,serif" font-size="14.00">file_skip_delim</text>
</g>
<!-- go_id_lista -->
<g id="node15" class="node"><title>go_id_lista</title>
<polygon fill="#ffffb3" stroke="black" points="354.047,-726 277.047,-726 277.047,-672 354.047,-672 354.047,-726"/>
<text text-anchor="middle" x="315.547" y="-695.3" font-family="Times,serif" font-size="14.00">go_id_list</text>
</g>
<!-- go_id_lista&#45;&gt;free -->
<g id="edge10" class="edge"><title>go_id_lista&#45;&gt;free</title>
<path fill="none" stroke="black" d="M299.493,-671.806C288.997,-653.108 276.217,-626.949 270.547,-602 222.951,-392.555 250.824,-129.762 261.756,-45.9668"/>
<polygon fill="black" stroke="black" points="265.233,-46.3747 263.088,-35.9992 258.294,-45.4474 265.233,-46.3747"/>
</g>
<!-- lista_keszit_MALLOC -->
<g id="node28" class="node"><title>lista_keszit_MALLOC</title>
<polygon fill="#fb8072" stroke="black" points="454.547,-414 312.547,-414 312.547,-357 454.547,-357 454.547,-414"/>
<text text-anchor="middle" x="383.547" y="-381.8" font-family="Times,serif" font-size="14.00">list_create_MALLOC</text>
</g>
<!-- go_id_lista&#45;&gt;lista_keszit_MALLOC -->
<g id="edge9" class="edge"><title>go_id_lista&#45;&gt;lista_keszit_MALLOC</title>
<path fill="none" stroke="black" d="M321.228,-671.977C333.262,-616.85 361.364,-488.119 375.345,-424.072"/>
<polygon fill="black" stroke="black" points="378.831,-424.517 377.544,-414.001 371.992,-423.024 378.831,-424.517"/>
</g>
<!-- get_name_lista -->
<g id="node16" class="node"><title>get_name_lista</title>
<polygon fill="#ffffb3" stroke="black" points="471.047,-728.5 372.047,-728.5 372.047,-669.5 471.047,-669.5 471.047,-728.5"/>
<text text-anchor="middle" x="421.547" y="-695.3" font-family="Times,serif" font-size="14.00">get_name_list</text>
</g>
<!-- get_name_lista&#45;&gt;malloc -->
<g id="edge12" class="edge"><title>get_name_lista&#45;&gt;malloc</title>
<path fill="none" stroke="black" d="M434.181,-669.213C487.526,-547.771 692.162,-83.0314 704.547,-72 738.268,-41.966 789.101,-28.9374 825.626,-23.2942"/>
<polygon fill="black" stroke="black" points="826.582,-26.694 835.995,-21.8297 825.603,-19.7628 826.582,-26.694"/>
</g>
<!-- get_name_lista&#45;&gt;free -->
<g id="edge13" class="edge"><title>get_name_lista&#45;&gt;free</title>
<path fill="none" stroke="black" d="M396.145,-669.346C386.187,-658.894 374.334,-647.354 362.547,-638 338.486,-618.904 319.433,-628.292 303.547,-602 273.031,-551.493 273.657,-130.867 269.547,-72 268.966,-63.6794 268.297,-54.627 267.674,-46.397"/>
<polygon fill="black" stroke="black" points="271.145,-45.8863 266.893,-36.1822 264.166,-46.4199 271.145,-45.8863"/>
</g>
<!-- get_name_lista&#45;&gt;lista_keszit_MALLOC -->
<g id="edge11" class="edge"><title>get_name_lista&#45;&gt;lista_keszit_MALLOC</title>
<path fill="none" stroke="black" d="M418.04,-669.253C411.148,-612.755 395.84,-487.268 388.147,-424.209"/>
<polygon fill="black" stroke="black" points="391.621,-423.783 386.936,-414.28 384.673,-424.631 391.621,-423.783"/>
</g>
<!-- beolv_talalat -->
<g id="node17" class="node"><title>beolv_talalat</title>
<polygon fill="#ffffb3" stroke="black" points="575.547,-716.5 489.547,-716.5 489.547,-681.5 575.547,-681.5 575.547,-716.5"/>
<text text-anchor="middle" x="532.547" y="-695.3" font-family="Times,serif" font-size="14.00">read_found</text>
</g>
<!-- beolv_talalat&#45;&gt;free -->
<g id="edge15" class="edge"><title>beolv_talalat&#45;&gt;free</title>
<path fill="none" stroke="black" d="M533.472,-681.176C536.552,-613.728 542.204,-357.468 463.547,-169 455.74,-150.294 447.241,-149.556 435.547,-133 416.983,-106.716 421.299,-92.5621 396.547,-72 368.563,-48.7525 329.043,-34.654 300.742,-26.9057"/>
<polygon fill="black" stroke="black" points="301.424,-23.4667 290.865,-24.3332 299.66,-30.2407 301.424,-23.4667"/>
</g>
<!-- beolv_talalat&#45;&gt;lista_keszit_MALLOC -->
<g id="edge14" class="edge"><title>beolv_talalat&#45;&gt;lista_keszit_MALLOC</title>
<path fill="none" stroke="black" d="M519.842,-681.335C506.023,-662.702 483.864,-631.288 468.547,-602 437.164,-541.99 410.291,-467.69 395.573,-423.861"/>
<polygon fill="black" stroke="black" points="398.836,-422.58 392.359,-414.195 392.193,-424.789 398.836,-422.58"/>
</g>
<!-- atom_adatok_beolv -->
<g id="node18" class="node"><title>atom_adatok_beolv</title>
<polygon fill="#ffffb3" stroke="black" points="717.547,-747 593.547,-747 593.547,-651 717.547,-651 717.547,-747"/>
<text text-anchor="middle" x="655.547" y="-695.3" font-family="Times,serif" font-size="14.00">atom_data_read</text>
</g>
<!-- atom_adatok_beolv&#45;&gt;malloc -->
<g id="edge16" class="edge"><title>atom_adatok_beolv&#45;&gt;malloc</title>
<path fill="none" stroke="black" d="M671.834,-650.605C676.577,-635.255 681.339,-618.048 684.547,-602 703.508,-507.159 666.71,-243.367 728.547,-169 764.965,-125.203 813.749,-175.612 851.547,-133 872.518,-109.359 874.877,-71.6568 873.587,-46.1439"/>
<polygon fill="black" stroke="black" points="877.068,-45.7536 872.855,-36.0326 870.086,-46.2594 877.068,-45.7536"/>
</g>
<!-- atom_adatok_beolv&#45;&gt;elmegy_fajl_karakterig -->
<g id="edge17" class="edge"><title>atom_adatok_beolv&#45;&gt;elmegy_fajl_karakterig</title>
<path fill="none" stroke="black" d="M691.881,-650.547C702.524,-635.486 713.673,-618.458 722.547,-602 758.074,-536.113 787.338,-452.332 800.712,-411.35"/>
<polygon fill="black" stroke="black" points="804.098,-412.252 803.837,-401.66 797.436,-410.103 804.098,-412.252"/>
</g>
<!-- atom_beolv -->
<g id="node19" class="node"><title>atom_beolv</title>
<polygon fill="#ffffb3" stroke="black" points="582.047,-854.5 501.047,-854.5 501.047,-826.5 582.047,-826.5 582.047,-854.5"/>
<text text-anchor="middle" x="541.547" y="-836.8" font-family="Times,serif" font-size="14.00">atom_read</text>
</g>
<!-- atom_beolv&#45;&gt;exit -->
<g id="edge19" class="edge"><title>atom_beolv&#45;&gt;exit</title>
<path fill="none" stroke="black" d="M553.189,-826.253C562.413,-816.539 576.113,-803.744 590.547,-796 645.646,-766.442 676.567,-797.569 726.547,-760 738.04,-751.361 746.601,-737.885 752.485,-725.891"/>
<polygon fill="black" stroke="black" points="755.705,-727.264 756.634,-716.71 749.326,-724.381 755.705,-727.264"/>
</g>
<!-- atom_beolv&#45;&gt;beolv_talalat -->
<g id="edge18" class="edge"><title>atom_beolv&#45;&gt;beolv_talalat</title>
<path fill="none" stroke="black" d="M540.701,-826.376C539.235,-803.663 536.199,-756.599 534.273,-726.754"/>
<polygon fill="black" stroke="black" points="537.756,-726.369 533.619,-716.615 530.77,-726.82 537.756,-726.369"/>
</g>
<!-- atom_beolv&#45;&gt;atom_adatok_beolv -->
<g id="edge20" class="edge"><title>atom_beolv&#45;&gt;atom_adatok_beolv</title>
<path fill="none" stroke="black" d="M552.272,-826.376C565.583,-810.087 589.129,-781.275 610.379,-755.271"/>
<polygon fill="black" stroke="black" points="613.269,-757.266 616.887,-747.308 607.849,-752.837 613.269,-757.266"/>
</g>
<!-- arena_adatok_beolv -->
<g id="node20" class="node"><title>arena_adatok_beolv</title>
<polygon fill="#ffffb3" stroke="black" points="933.047,-731.5 808.047,-731.5 808.047,-666.5 933.047,-666.5 933.047,-731.5"/>
<text text-anchor="middle" x="870.547" y="-695.3" font-family="Times,serif" font-size="14.00">arena_data_read</text>
</g>
<!-- arena_adatok_beolv&#45;&gt;malloc -->
<g id="edge21" class="edge"><title>arena_adatok_beolv&#45;&gt;malloc</title>
<path fill="none" stroke="black" d="M878.456,-666.233C882.676,-647.643 887.426,-623.643 889.547,-602 908.318,-410.473 894.502,-361.381 889.547,-169 888.436,-125.846 891.206,-114.652 884.547,-72 883.19,-63.3095 880.989,-53.986 878.729,-45.6194"/>
<polygon fill="black" stroke="black" points="882.094,-44.6591 875.996,-35.9952 875.361,-46.571 882.094,-44.6591"/>
</g>
<!-- arena_adatok_beolv&#45;&gt;beolv_adott_karakterig_malloc -->
<g id="edge23" class="edge"><title>arena_adatok_beolv&#45;&gt;beolv_adott_karakterig_malloc</title>
<path fill="none" stroke="black" d="M888.166,-666.152C898.373,-647.535 911.373,-623.535 922.547,-602 955.279,-538.92 991.763,-464.504 1012.56,-421.68"/>
<polygon fill="black" stroke="black" points="1015.78,-423.049 1017,-412.524 1009.48,-419.995 1015.78,-423.049"/>
</g>
<!-- arena_adatok_beolv&#45;&gt;elmegy_fajl_karakterig -->
<g id="edge22" class="edge"><title>arena_adatok_beolv&#45;&gt;elmegy_fajl_karakterig</title>
<path fill="none" stroke="black" d="M864.261,-666.417C851.912,-604.371 824.713,-467.721 813.515,-411.457"/>
<polygon fill="black" stroke="black" points="816.942,-410.747 811.557,-401.622 810.077,-412.113 816.942,-410.747"/>
</g>
<!-- arena_beolv -->
<g id="node21" class="node"><title>arena_beolv</title>
<polygon fill="#ffffb3" stroke="black" points="683.047,-856.5 600.047,-856.5 600.047,-824.5 683.047,-824.5 683.047,-856.5"/>
<text text-anchor="middle" x="641.547" y="-836.8" font-family="Times,serif" font-size="14.00">arena_read</text>
</g>
<!-- arena_beolv&#45;&gt;exit -->
<g id="edge25" class="edge"><title>arena_beolv&#45;&gt;exit</title>
<path fill="none" stroke="black" d="M658.723,-824.464C680.202,-805.486 715.499,-773.673 726.547,-760 735.196,-749.296 743.24,-736.317 749.52,-725.172"/>
<polygon fill="black" stroke="black" points="752.628,-726.784 754.356,-716.331 746.486,-723.425 752.628,-726.784"/>
</g>
<!-- arena_beolv&#45;&gt;beolv_talalat -->
<g id="edge24" class="edge"><title>arena_beolv&#45;&gt;beolv_talalat</title>
<path fill="none" stroke="black" d="M629.675,-824.305C610.993,-800.397 574.546,-753.75 551.998,-724.894"/>
<polygon fill="black" stroke="black" points="554.673,-722.632 545.758,-716.907 549.157,-726.942 554.673,-722.632"/>
</g>
<!-- arena_beolv&#45;&gt;arena_adatok_beolv -->
<g id="edge26" class="edge"><title>arena_beolv&#45;&gt;arena_adatok_beolv</title>
<path fill="none" stroke="black" d="M656.452,-824.112C666.05,-814.918 679.192,-803.59 692.547,-796 735.804,-771.417 755.151,-784.335 798.547,-760 809.302,-753.969 819.999,-746.251 829.73,-738.373"/>
<polygon fill="black" stroke="black" points="832.226,-740.849 837.656,-731.752 827.738,-735.476 832.226,-740.849"/>
</g>
<!-- arena_felszabadit -->
<g id="node22" class="node"><title>arena_felszabadit</title>
<polygon fill="#ffffb3" stroke="black" points="180.047,-403 69.0473,-403 69.0473,-368 180.047,-368 180.047,-403"/>
<text text-anchor="middle" x="124.547" y="-381.8" font-family="Times,serif" font-size="14.00">arena_free</text>
</g>
<!-- arena_felszabadit&#45;&gt;free -->
<g id="edge27" class="edge"><title>arena_felszabadit&#45;&gt;free</title>
<path fill="none" stroke="black" d="M124.364,-367.702C124.596,-318.201 130.905,-170.216 194.547,-72 204.661,-56.3925 221.058,-43.7054 235.548,-34.6616"/>
<polygon fill="black" stroke="black" points="237.43,-37.6151 244.251,-29.5078 233.863,-31.5921 237.43,-37.6151"/>
</g>
<!-- molekula_beolv -->
<g id="node23" class="node"><title>molekula_beolv</title>
<polygon fill="#ffffb3" stroke="black" points="805.547,-856.5 701.547,-856.5 701.547,-824.5 805.547,-824.5 805.547,-856.5"/>
<text text-anchor="middle" x="753.547" y="-836.8" font-family="Times,serif" font-size="14.00">molecule_read</text>
</g>
<!-- molekula_beolv&#45;&gt;exit -->
<g id="edge29" class="edge"><title>molekula_beolv&#45;&gt;exit</title>
<path fill="none" stroke="black" d="M754.528,-824.305C756.022,-801.137 758.894,-756.619 760.765,-727.626"/>
<polygon fill="black" stroke="black" points="764.277,-727.556 761.428,-717.352 757.291,-727.106 764.277,-727.556"/>
</g>
<!-- molekula_beolv&#45;&gt;beolv_talalat -->
<g id="edge28" class="edge"><title>molekula_beolv&#45;&gt;beolv_talalat</title>
<path fill="none" stroke="black" d="M735.512,-824.456C723.829,-815.279 707.966,-803.844 692.547,-796 647.451,-773.058 626.612,-788.117 584.547,-760 570.807,-750.816 558.531,-737.073 549.361,-725.056"/>
<polygon fill="black" stroke="black" points="551.983,-722.711 543.257,-716.702 546.331,-726.841 551.983,-722.711"/>
</g>
<!-- molekula_beolv&#45;&gt;arena_adatok_beolv -->
<g id="edge30" class="edge"><title>molekula_beolv&#45;&gt;arena_adatok_beolv</title>
<path fill="none" stroke="black" d="M766.291,-824.305C783.236,-804.102 813.797,-767.664 837.467,-739.442"/>
<polygon fill="black" stroke="black" points="840.198,-741.632 843.943,-731.721 834.835,-737.134 840.198,-741.632"/>
</g>
<!-- felszabadit -->
<g id="node24" class="node"><title>felszabadit</title>
<polygon fill="#fb8072" stroke="black" points="388.047,-116.5 313.047,-116.5 313.047,-88.5 388.047,-88.5 388.047,-116.5"/>
<text text-anchor="middle" x="350.547" y="-98.8" font-family="Times,serif" font-size="14.00">do_free</text>
</g>
<!-- felszabadit&#45;&gt;free -->
<g id="edge31" class="edge"><title>felszabadit&#45;&gt;free</title>
<path fill="none" stroke="black" d="M336.891,-88.2449C323.582,-75.3277 303.128,-55.4757 287.528,-40.3343"/>
<polygon fill="black" stroke="black" points="289.926,-37.7839 280.312,-33.3306 285.05,-42.807 289.926,-37.7839"/>
</g>
<!-- lista_ir -->
<g id="node25" class="node"><title>lista_ir</title>
<defs>
<radialGradient id="r_1" cx="50%" cy="50%" r="75%" fx="50%" fy="50%">
<stop offset="0" style="stop-color:white;stop-opacity:1.;"/>
<stop offset="1" style="stop-color:#fb8072;stop-opacity:1.;"/>
</radialGradient>
</defs>
<polygon fill="url(#r_1)" stroke="black" stroke-dasharray="5,2" points="690.547,-976.5 636.547,-976.5 636.547,-950.5 690.547,-950.5 690.547,-976.5"/>
<text text-anchor="middle" x="663.547" y="-959.8" font-family="Times,serif" font-size="14.00">list_wr</text>
</g>
<!-- lista_meret -->
<g id="node26" class="node"><title>lista_meret</title>
<polygon fill="#fb8072" stroke="black" points="570.047,-33.5 493.047,-33.5 493.047,-2.5 570.047,-2.5 570.047,-33.5"/>
<text text-anchor="middle" x="531.547" y="-14.3" font-family="Times,serif" font-size="14.00">list_size</text>
</g>
<!-- lista_2_dinTomb_MALLOC -->
<g id="node27" class="node"><title>lista_2_dinTomb_MALLOC</title>
<polygon fill="#fb8072" stroke="black" points="618.547,-122 444.547,-122 444.547,-83 618.547,-83 618.547,-122"/>
<text text-anchor="middle" x="531.547" y="-98.8" font-family="Times,serif" font-size="14.00">list_2_dinArr_MALLOC</text>
</g>
<!-- lista_2_dinTomb_MALLOC&#45;&gt;malloc -->
<g id="edge33" class="edge"><title>lista_2_dinTomb_MALLOC&#45;&gt;malloc</title>
<path fill="none" stroke="black" d="M592.525,-82.996C605.681,-79.1983 619.544,-75.3432 632.547,-72 700.727,-54.4715 780.759,-37.3511 828.474,-27.5052"/>
<polygon fill="black" stroke="black" points="829.347,-30.899 838.438,-25.4581 827.938,-24.0423 829.347,-30.899"/>
</g>
<!-- lista_2_dinTomb_MALLOC&#45;&gt;lista_meret -->
<g id="edge32" class="edge"><title>lista_2_dinTomb_MALLOC&#45;&gt;lista_meret</title>
<path fill="none" stroke="black" d="M531.547,-82.7795C531.547,-71.2337 531.547,-56.2911 531.547,-43.7718"/>
<polygon fill="black" stroke="black" points="535.047,-43.5402 531.547,-33.5402 528.047,-43.5402 535.047,-43.5402"/>
</g>
<!-- lista_keszit_MALLOC&#45;&gt;malloc -->
<g id="edge34" class="edge"><title>lista_keszit_MALLOC&#45;&gt;malloc</title>
<path fill="none" stroke="black" d="M413.253,-356.825C460.798,-311.902 555.916,-219.412 627.547,-133 648.716,-107.463 643.32,-90.9452 670.547,-72 717.127,-39.5895 782.378,-26.997 825.52,-22.1054"/>
<polygon fill="black" stroke="black" points="826.133,-25.5607 835.718,-21.0457 825.41,-18.5981 826.133,-25.5607"/>
</g>
<!-- lista_keszit_MALLOC&#45;&gt;felszabadit -->
<g id="edge35" class="edge"><title>lista_keszit_MALLOC&#45;&gt;felszabadit</title>
<path fill="none" stroke="black" d="M380.293,-356.788C373.794,-301.448 359.316,-178.164 353.276,-126.733"/>
<polygon fill="black" stroke="black" points="356.732,-126.151 352.089,-116.628 349.779,-126.968 356.732,-126.151"/>
</g>
<!-- lista_keszit_MALLOC&#45;&gt;lista_2_dinTomb_MALLOC -->
<g id="edge36" class="edge"><title>lista_keszit_MALLOC&#45;&gt;lista_2_dinTomb_MALLOC</title>
<path fill="none" stroke="black" d="M398.143,-356.788C426.487,-302.973 488.672,-184.904 516.987,-131.144"/>
<polygon fill="black" stroke="black" points="520.143,-132.663 521.707,-122.184 513.95,-129.401 520.143,-132.663"/>
</g>
<!-- vege_van_mar_kerdojel -->
<g id="node29" class="node"><title>vege_van_mar_kerdojel</title>
<polygon fill="#80b1d3" stroke="black" points="1696.55,-435.5 1548.55,-435.5 1548.55,-335.5 1696.55,-335.5 1696.55,-435.5"/>
<text text-anchor="middle" x="1622.55" y="-381.8" font-family="Times,serif" font-size="14.00">is_it_end</text>
</g>
<!-- event_mous -->
<g id="node30" class="node"><title>event_mous</title>
<polygon fill="#80b1d3" stroke="black" points="1472.05,-755 1389.05,-755 1389.05,-643 1472.05,-643 1472.05,-755"/>
<text text-anchor="middle" x="1430.55" y="-695.3" font-family="Times,serif" font-size="14.00">event_mous</text>
</g>
<!-- event_mous&#45;&gt;kirajzol_atom -->
<g id="edge37" class="edge"><title>event_mous&#45;&gt;kirajzol_atom</title>
<path fill="none" stroke="black" d="M1433.39,-642.669C1433.87,-633.299 1434.4,-623.084 1434.95,-612.304"/>
<polygon fill="black" stroke="black" points="1438.45,-612.418 1435.47,-602.252 1431.46,-612.059 1438.45,-612.418"/>
</g>
<!-- atom_mozgat -->
<g id="node31" class="node"><title>atom_mozgat</title>
<polygon fill="#80b1d3" stroke="black" points="1582.55,-760 1490.55,-760 1490.55,-638 1582.55,-638 1582.55,-760"/>
<text text-anchor="middle" x="1536.55" y="-695.3" font-family="Times,serif" font-size="14.00">atom_move</text>
</g>
<!-- atom_mozgat&#45;&gt;pont_rajzol -->
<g id="edge38" class="edge"><title>atom_mozgat&#45;&gt;pont_rajzol</title>
<path fill="none" stroke="black" d="M1537.23,-637.777C1537.83,-517.642 1535.15,-252.583 1501.55,-169 1496.65,-156.825 1488.58,-145.25 1480.11,-135.311"/>
<polygon fill="black" stroke="black" points="1482.57,-132.813 1473.29,-127.712 1477.37,-137.491 1482.57,-132.813"/>
</g>
<!-- atom_mozgat&#45;&gt;kirajzol_atom -->
<g id="edge39" class="edge"><title>atom_mozgat&#45;&gt;kirajzol_atom</title>
<path fill="none" stroke="black" d="M1517.45,-637.916C1513.77,-626.033 1509.99,-613.639 1506.55,-602 1502.89,-589.609 1499.16,-576.798 1495.46,-563.887"/>
<polygon fill="black" stroke="black" points="1498.75,-562.651 1492.63,-554 1492.02,-564.577 1498.75,-562.651"/>
</g>
<!-- atom_mozgat&#45;&gt;vege_van_mar_kerdojel -->
<g id="edge40" class="edge"><title>atom_mozgat&#45;&gt;vege_van_mar_kerdojel</title>
<path fill="none" stroke="black" d="M1553.13,-637.94C1568.43,-582.517 1591.02,-500.701 1606.23,-445.589"/>
<polygon fill="black" stroke="black" points="1609.7,-446.193 1608.99,-435.622 1602.95,-444.33 1609.7,-446.193"/>
</g>
<!-- event_handler -->
<g id="node32" class="node"><title>event_handler</title>
<polygon fill="#80b1d3" stroke="black" points="1477.05,-885 1384.05,-885 1384.05,-796 1477.05,-796 1477.05,-885"/>
<text text-anchor="middle" x="1430.55" y="-836.8" font-family="Times,serif" font-size="14.00">event_handler</text>
</g>
<!-- event_handler&#45;&gt;event_mous -->
<g id="edge41" class="edge"><title>event_handler&#45;&gt;event_mous</title>
<path fill="none" stroke="black" d="M1430.55,-795.744C1430.55,-786.096 1430.55,-775.673 1430.55,-765.378"/>
<polygon fill="black" stroke="black" points="1434.05,-765.158 1430.55,-755.158 1427.05,-765.158 1434.05,-765.158"/>
</g>
<!-- event_handler&#45;&gt;atom_mozgat -->
<g id="edge42" class="edge"><title>event_handler&#45;&gt;atom_mozgat</title>
<path fill="none" stroke="black" d="M1463.8,-795.744C1470.42,-787.03 1477.52,-777.685 1484.59,-768.372"/>
<polygon fill="black" stroke="black" points="1487.53,-770.293 1490.79,-760.213 1481.96,-766.058 1487.53,-770.293"/>
</g>
<!-- SDL_init -->
<g id="node33" class="node"><title>SDL_init</title>
<polygon fill="#fdb462" stroke="black" points="891.047,-872.5 824.047,-872.5 824.047,-808.5 891.047,-808.5 891.047,-872.5"/>
<text text-anchor="middle" x="857.547" y="-836.8" font-family="Times,serif" font-size="14.00">SDL_init</text>
</g>
<!-- SDL_init&#45;&gt;exit -->
<g id="edge43" class="edge"><title>SDL_init&#45;&gt;exit</title>
<path fill="none" stroke="black" d="M833.832,-808.179C823.096,-793.702 810.407,-776.168 799.547,-760 791.871,-748.571 783.796,-735.6 777.155,-724.649"/>
<polygon fill="black" stroke="black" points="780.109,-722.769 771.955,-716.004 774.11,-726.377 780.109,-722.769"/>
</g>
<!-- main -->
<g id="node34" class="node"><title>main</title>
<polygon fill="#fdb462" stroke="black" points="618.547,-1006 564.547,-1006 564.547,-921 618.547,-921 618.547,-1006"/>
<text text-anchor="middle" x="591.547" y="-959.8" font-family="Times,serif" font-size="14.00">main</text>
</g>
<!-- main&#45;&gt;fopen -->
<g id="edge44" class="edge"><title>main&#45;&gt;fopen</title>
<path fill="none" stroke="black" d="M564.338,-960.891C469.84,-954.931 156.884,-931.993 69.5473,-885 61.0731,-880.44 53.5235,-873.286 47.377,-866.086"/>
<polygon fill="black" stroke="black" points="49.7674,-863.463 40.8349,-857.766 44.2647,-867.79 49.7674,-863.463"/>
</g>
<!-- main&#45;&gt;fclose -->
<g id="edge50" class="edge"><title>main&#45;&gt;fclose</title>
<path fill="none" stroke="black" d="M564.396,-962.926C493.34,-962.967 297.657,-956.128 156.547,-885 146.683,-880.028 137.475,-872.256 129.927,-864.648"/>
<polygon fill="black" stroke="black" points="132.356,-862.121 122.97,-857.205 127.242,-866.901 132.356,-862.121"/>
</g>
<!-- main&#45;&gt;malloc -->
<g id="edge54" class="edge"><title>main&#45;&gt;malloc</title>
<path fill="none" stroke="black" d="M618.913,-926.836C621.638,-924.617 624.524,-922.627 627.547,-921 735.318,-863.006 787.081,-930.859 900.547,-885 1028.7,-833.205 1150.55,-838.225 1150.55,-700 1150.55,-700 1150.55,-700 1150.55,-384.5 1150.55,-288.351 1183.32,-250.023 1131.55,-169 1080.61,-89.2744 971.199,-47.2962 911.485,-29.5464"/>
<polygon fill="black" stroke="black" points="912.22,-26.1157 901.641,-26.7066 910.279,-32.8414 912.22,-26.1157"/>
</g>
<!-- main&#45;&gt;free -->
<g id="edge57" class="edge"><title>main&#45;&gt;free</title>
<path fill="none" stroke="black" d="M564.31,-957.613C476.81,-940.195 208.547,-872.71 208.547,-700 208.547,-700 208.547,-700 208.547,-384.5 208.547,-244.421 220.097,-208.948 249.547,-72 251.415,-63.3154 254.019,-53.9936 256.585,-45.6266"/>
<polygon fill="black" stroke="black" points="259.951,-46.5916 259.644,-36.0012 253.28,-44.4717 259.951,-46.5916"/>
</g>
<!-- main&#45;&gt;atom_felepit_kitolt_malloc -->
<g id="edge52" class="edge"><title>main&#45;&gt;atom_felepit_kitolt_malloc</title>
<path fill="none" stroke="black" d="M618.8,-926.619C621.551,-924.449 624.473,-922.529 627.547,-921 734.632,-867.733 1074.85,-964.113 1164.55,-885 1283.01,-780.514 1283.17,-578.126 1272.6,-466.039"/>
<polygon fill="black" stroke="black" points="1276.05,-465.415 1271.58,-455.811 1269.09,-466.109 1276.05,-465.415"/>
</g>
<!-- main&#45;&gt;palya_rajzol -->
<g id="edge53" class="edge"><title>main&#45;&gt;palya_rajzol</title>
<path fill="none" stroke="black" d="M618.787,-926.592C621.541,-924.428 624.467,-922.517 627.547,-921 749.368,-861.008 1124.27,-959.885 1237.55,-885 1287.41,-852.036 1311.34,-783.598 1321.97,-739.837"/>
<polygon fill="black" stroke="black" points="1325.44,-740.35 1324.28,-729.819 1318.62,-738.779 1325.44,-740.35"/>
</g>
<!-- main&#45;&gt;go_id_lista -->
<g id="edge45" class="edge"><title>main&#45;&gt;go_id_lista</title>
<path fill="none" stroke="black" d="M564.536,-952.807C533.138,-940.576 480.981,-917.184 444.547,-885 395.27,-841.471 355.135,-775.45 333.351,-735.172"/>
<polygon fill="black" stroke="black" points="336.39,-733.431 328.599,-726.251 330.212,-736.722 336.39,-733.431"/>
</g>
<!-- main&#45;&gt;get_name_lista -->
<g id="edge46" class="edge"><title>main&#45;&gt;get_name_lista</title>
<path fill="none" stroke="black" d="M564.385,-947.268C542.099,-933.547 511.133,-911.493 491.547,-885 458.495,-840.292 439.251,-778.137 429.57,-738.486"/>
<polygon fill="black" stroke="black" points="432.957,-737.6 427.256,-728.669 426.144,-739.206 432.957,-737.6"/>
</g>
<!-- main&#45;&gt;atom_beolv -->
<g id="edge47" class="edge"><title>main&#45;&gt;atom_beolv</title>
<path fill="none" stroke="black" d="M574.34,-920.859C566.508,-901.904 557.542,-880.206 550.967,-864.295"/>
<polygon fill="black" stroke="black" points="554.081,-862.666 547.027,-854.761 547.611,-865.34 554.081,-862.666"/>
</g>
<!-- main&#45;&gt;arena_beolv -->
<g id="edge48" class="edge"><title>main&#45;&gt;arena_beolv</title>
<path fill="none" stroke="black" d="M608.754,-920.859C616.262,-902.69 624.812,-881.999 631.299,-866.301"/>
<polygon fill="black" stroke="black" points="634.648,-867.361 635.232,-856.783 628.178,-864.688 634.648,-867.361"/>
</g>
<!-- main&#45;&gt;arena_felszabadit -->
<g id="edge56" class="edge"><title>main&#45;&gt;arena_felszabadit</title>
<path fill="none" stroke="black" d="M564.362,-961.174C483.287,-956.634 245.641,-938.892 194.547,-885 129.406,-816.292 124.388,-506.791 124.384,-413.316"/>
<polygon fill="black" stroke="black" points="127.884,-413.265 124.403,-403.258 120.884,-413.251 127.884,-413.265"/>
</g>
<!-- main&#45;&gt;molekula_beolv -->
<g id="edge49" class="edge"><title>main&#45;&gt;molekula_beolv</title>
<path fill="none" stroke="black" d="M618.855,-928.853C621.666,-926.067 624.583,-923.402 627.547,-921 653.204,-900.209 664.614,-902.615 692.547,-885 703.55,-878.062 715.264,-869.906 725.456,-862.544"/>
<polygon fill="black" stroke="black" points="727.598,-865.313 733.609,-856.589 723.469,-859.66 727.598,-865.313"/>
</g>
<!-- main&#45;&gt;event_handler -->
<g id="edge55" class="edge"><title>main&#45;&gt;event_handler</title>
<path fill="none" stroke="black" d="M618.777,-926.571C621.533,-924.412 624.462,-922.507 627.547,-921 763.907,-854.374 1160.77,-914.992 1309.55,-885 1331.17,-880.64 1354.14,-873.164 1374.18,-865.627"/>
<polygon fill="black" stroke="black" points="1375.69,-868.795 1383.76,-861.935 1373.17,-862.263 1375.69,-868.795"/>
</g>
<!-- main&#45;&gt;SDL_init -->
<g id="edge51" class="edge"><title>main&#45;&gt;SDL_init</title>
<path fill="none" stroke="black" d="M618.573,-927.412C621.407,-924.999 624.408,-922.811 627.547,-921 700.861,-878.709 739.896,-924.883 814.547,-885 817.638,-883.349 820.647,-881.4 823.543,-879.259"/>
<polygon fill="black" stroke="black" points="825.89,-881.86 831.381,-872.799 821.438,-876.458 825.89,-881.86"/>
</g>
</g>
</svg>
