<?xml version="1.0" encoding="UTF-8" standalone="no"?>
<!DOCTYPE svg PUBLIC "-//W3C//DTD SVG 1.1//EN"
 "http://www.w3.org/Graphics/SVG/1.1/DTD/svg11.dtd">
<!-- Generated by graphviz version 2.38.0 (20140413.2041)
 -->
<!-- Title: %3 Pages: 1 -->
<svg width="1106pt" height="398pt"
 viewBox="0.00 0.00 1106.00 398.00" xmlns="http://www.w3.org/2000/svg" xmlns:xlink="http://www.w3.org/1999/xlink">
<g id="graph0" class="graph" transform="scale(1 1) rotate(0) translate(4 394)">
<title>%3</title>
<polygon fill="white" stroke="none" points="-4,4 -4,-394 1102,-394 1102,4 -4,4"/>
<!-- fopen -->
<g id="node1" class="node"><title>fopen</title>
<ellipse fill="#eeeeee" stroke="black" cx="475.5" cy="-112" rx="30.5947" ry="18"/>
<text text-anchor="middle" x="475.5" y="-108.3" font-family="Times,serif" font-size="14.00">fopen</text>
</g>
<!-- fclose -->
<g id="node2" class="node"><title>fclose</title>
<ellipse fill="#eeeeee" stroke="black" cx="555.5" cy="-112" rx="31.6951" ry="18"/>
<text text-anchor="middle" x="555.5" y="-108.3" font-family="Times,serif" font-size="14.00">fclose</text>
</g>
<!-- malloc -->
<g id="node3" class="node"><title>malloc</title>
<ellipse fill="#eeeeee" stroke="black" cx="957.5" cy="-18" rx="35.194" ry="18"/>
<text text-anchor="middle" x="957.5" y="-14.3" font-family="Times,serif" font-size="14.00">malloc</text>
</g>
<!-- free -->
<g id="node4" class="node"><title>free</title>
<ellipse fill="#eeeeee" stroke="black" cx="1063.5" cy="-112" rx="27" ry="18"/>
<text text-anchor="middle" x="1063.5" y="-108.3" font-family="Times,serif" font-size="14.00">free</text>
</g>
<!-- exit -->
<g id="node5" class="node"><title>exit</title>
<defs>
<radialGradient id="r_0" cx="50%" cy="50%" r="75%" fx="50%" fy="50%">
<stop offset="0" style="stop-color:white;stop-opacity:1.;"/>
<stop offset="1" style="stop-color:#eeeeee;stop-opacity:1.;"/>
</radialGradient>
</defs>
<ellipse fill="url(#r_0)" stroke="black" stroke-dasharray="5,2" cx="650.5" cy="-361" rx="27" ry="18"/>
<text text-anchor="middle" x="650.5" y="-357.3" font-family="Times,serif" font-size="14.00">exit</text>
</g>
<!-- rendez_es_hozzaad -->
<g id="node6" class="node"><title>rendez_es_hozzaad</title>
<polygon fill="#8dd3c7" stroke="black" points="1018.5,-152 896.5,-152 896.5,-72 1018.5,-72 1018.5,-152"/>
<text text-anchor="middle" x="957.5" y="-108.3" font-family="Times,serif" font-size="14.00">sort_and_add</text>
</g>
<!-- rendez_es_hozzaad&#45;&gt;malloc -->
<g id="edge1" class="edge"><title>rendez_es_hozzaad&#45;&gt;malloc</title>
<path fill="none" stroke="black" d="M957.5,-71.9837C957.5,-63.2664 957.5,-54.2064 957.5,-46.0957"/>
<polygon fill="black" stroke="black" points="961,-46.0888 957.5,-36.0889 954,-46.0889 961,-46.0888"/>
</g>
<!-- lista_beolvas -->
<g id="node7" class="node"><title>lista_beolvas</title>
<polygon fill="#8dd3c7" stroke="black" points="1003,-273 916,-273 916,-211 1003,-211 1003,-273"/>
<text text-anchor="middle" x="959.5" y="-238.3" font-family="Times,serif" font-size="14.00">list_read</text>
</g>
<!-- lista_beolvas&#45;&gt;fopen -->
<g id="edge2" class="edge"><title>lista_beolvas&#45;&gt;fopen</title>
<path fill="none" stroke="black" d="M936.524,-210.985C928.091,-202.083 917.81,-193.304 906.5,-188 748.096,-113.719 672.904,-226.281 514.5,-152 506.819,-148.398 499.784,-142.619 493.867,-136.6"/>
<polygon fill="black" stroke="black" points="496.303,-134.075 487.006,-128.994 491.106,-138.764 496.303,-134.075"/>
</g>
<!-- lista_beolvas&#45;&gt;fclose -->
<g id="edge4" class="edge"><title>lista_beolvas&#45;&gt;fclose</title>
<path fill="none" stroke="black" d="M935.333,-210.932C927.034,-202.355 917.132,-193.78 906.5,-188 804.958,-132.797 666.303,-118.216 597.616,-114.371"/>
<polygon fill="black" stroke="black" points="597.771,-110.875 587.606,-113.86 597.414,-117.866 597.771,-110.875"/>
</g>
<!-- lista_beolvas&#45;&gt;rendez_es_hozzaad -->
<g id="edge3" class="edge"><title>lista_beolvas&#45;&gt;rendez_es_hozzaad</title>
<path fill="none" stroke="black" d="M959.031,-210.99C958.804,-196.426 958.524,-178.554 958.267,-162.079"/>
<polygon fill="black" stroke="black" points="961.766,-161.988 958.11,-152.044 954.767,-162.097 961.766,-161.988"/>
</g>
<!-- felszabadit -->
<g id="node8" class="node"><title>felszabadit</title>
<polygon fill="#ffffb3" stroke="black" points="1098,-253.5 1023,-253.5 1023,-230.5 1098,-230.5 1098,-253.5"/>
<text text-anchor="middle" x="1060.5" y="-238.3" font-family="Times,serif" font-size="14.00">list_free</text>
</g>
<!-- felszabadit&#45;&gt;free -->
<g id="edge5" class="edge"><title>felszabadit&#45;&gt;free</title>
<path fill="none" stroke="black" d="M1060.76,-230.087C1061.22,-210.446 1062.2,-168.589 1062.85,-140.617"/>
<polygon fill="black" stroke="black" points="1066.36,-140.375 1063.09,-130.296 1059.36,-140.211 1066.36,-140.375"/>
</g>
<!-- targykovetelmeny_kiir -->
<g id="node9" class="node"><title>targykovetelmeny_kiir</title>
<polygon fill="#bebada" stroke="black" points="585.5,-266.5 445.5,-266.5 445.5,-217.5 585.5,-217.5 585.5,-266.5"/>
<text text-anchor="middle" x="515.5" y="-238.3" font-family="Times,serif" font-size="14.00">exp_print</text>
</g>
<!-- targykovetelmeny_kiir&#45;&gt;fopen -->
<g id="edge6" class="edge"><title>targykovetelmeny_kiir&#45;&gt;fopen</title>
<path fill="none" stroke="black" d="M508.07,-217.224C501.213,-195.281 491.04,-162.727 483.892,-139.855"/>
<polygon fill="black" stroke="black" points="487.167,-138.601 480.844,-130.1 480.486,-140.689 487.167,-138.601"/>
</g>
<!-- targykovetelmeny_kiir&#45;&gt;fclose -->
<g id="edge7" class="edge"><title>targykovetelmeny_kiir&#45;&gt;fclose</title>
<path fill="none" stroke="black" d="M522.93,-217.224C529.787,-195.281 539.96,-162.727 547.108,-139.855"/>
<polygon fill="black" stroke="black" points="550.514,-140.689 550.156,-130.1 543.833,-138.601 550.514,-140.689"/>
</g>
<!-- lista_potzh -->
<g id="node10" class="node"><title>lista_potzh</title>
<polygon fill="#bebada" stroke="black" points="679.5,-270.5 603.5,-270.5 603.5,-213.5 679.5,-213.5 679.5,-270.5"/>
<text text-anchor="middle" x="641.5" y="-238.3" font-family="Times,serif" font-size="14.00">list_retake</text>
</g>
<!-- lista_potzh&#45;&gt;fopen -->
<g id="edge8" class="edge"><title>lista_potzh&#45;&gt;fopen</title>
<path fill="none" stroke="black" d="M620.752,-213.24C613.186,-204.388 604.11,-195.067 594.5,-188 563.089,-164.901 546.588,-174.148 514.5,-152 507.89,-147.438 501.425,-141.679 495.719,-135.997"/>
<polygon fill="black" stroke="black" points="497.909,-133.222 488.468,-128.416 492.851,-138.061 497.909,-133.222"/>
</g>
<!-- lista_potzh&#45;&gt;fclose -->
<g id="edge9" class="edge"><title>lista_potzh&#45;&gt;fclose</title>
<path fill="none" stroke="black" d="M622.839,-213.226C607.643,-190.608 586.399,-158.989 571.86,-137.349"/>
<polygon fill="black" stroke="black" points="574.748,-135.372 566.266,-129.023 568.937,-139.276 574.748,-135.372"/>
</g>
<!-- lista_nhz -->
<g id="node11" class="node"><title>lista_nhz</title>
<polygon fill="#bebada" stroke="black" points="763,-267 698,-267 698,-217 763,-217 763,-267"/>
<text text-anchor="middle" x="730.5" y="-238.3" font-family="Times,serif" font-size="14.00">list_test</text>
</g>
<!-- lista_nhz&#45;&gt;fopen -->
<g id="edge10" class="edge"><title>lista_nhz&#45;&gt;fopen</title>
<path fill="none" stroke="black" d="M716.772,-216.924C709.636,-206.499 699.994,-195.084 688.5,-188 621.272,-146.565 584.003,-189.494 514.5,-152 507.152,-148.036 500.286,-142.249 494.425,-136.34"/>
<polygon fill="black" stroke="black" points="496.932,-133.895 487.579,-128.917 491.786,-138.641 496.932,-133.895"/>
</g>
<!-- lista_nhz&#45;&gt;fclose -->
<g id="edge11" class="edge"><title>lista_nhz&#45;&gt;fclose</title>
<path fill="none" stroke="black" d="M714.482,-216.866C707.287,-207.155 698.229,-196.313 688.5,-188 658.262,-162.163 617.782,-140.849 589.453,-127.631"/>
<polygon fill="black" stroke="black" points="590.894,-124.442 580.344,-123.464 587.982,-130.807 590.894,-124.442"/>
</g>
<!-- pontszam_rangsor -->
<g id="node12" class="node"><title>pontszam_rangsor</title>
<polygon fill="#bebada" stroke="black" points="897.5,-268 781.5,-268 781.5,-216 897.5,-216 897.5,-268"/>
<text text-anchor="middle" x="839.5" y="-238.3" font-family="Times,serif" font-size="14.00">leaderboard</text>
</g>
<!-- pontszam_rangsor&#45;&gt;fopen -->
<g id="edge12" class="edge"><title>pontszam_rangsor&#45;&gt;fopen</title>
<path fill="none" stroke="black" d="M813.811,-215.763C801.882,-205.499 786.937,-194.538 771.5,-188 665.295,-143.02 617.731,-203.44 514.5,-152 506.907,-148.217 499.899,-142.381 493.98,-136.367"/>
<polygon fill="black" stroke="black" points="496.417,-133.844 487.103,-128.794 491.235,-138.55 496.417,-133.844"/>
</g>
<!-- pontszam_rangsor&#45;&gt;fclose -->
<g id="edge13" class="edge"><title>pontszam_rangsor&#45;&gt;fclose</title>
<path fill="none" stroke="black" d="M811.506,-215.814C799.757,-206.166 785.569,-195.652 771.5,-188 713.104,-156.24 638.683,-133.939 594.188,-122.312"/>
<polygon fill="black" stroke="black" points="594.912,-118.884 584.356,-119.79 593.173,-125.665 594.912,-118.884"/>
</g>
<!-- adott_jegy_rangsor -->
<g id="node13" class="node"><title>adott_jegy_rangsor</title>
<polygon fill="#bebada" stroke="black" points="121,-273.5 7.10543e-15,-273.5 7.10543e-15,-210.5 121,-210.5 121,-273.5"/>
<text text-anchor="middle" x="60.5" y="-238.3" font-family="Times,serif" font-size="14.00">leaderboard_marks</text>
</g>
<!-- adott_jegy_rangsor&#45;&gt;fopen -->
<g id="edge14" class="edge"><title>adott_jegy_rangsor&#45;&gt;fopen</title>
<path fill="none" stroke="black" d="M94.9059,-210.277C105.684,-201.985 118.036,-193.732 130.5,-188 233.841,-140.473 368.646,-122.44 434.997,-116.115"/>
<polygon fill="black" stroke="black" points="435.403,-119.592 445.043,-115.197 434.766,-112.621 435.403,-119.592"/>
</g>
<!-- adott_jegy_rangsor&#45;&gt;fclose -->
<g id="edge15" class="edge"><title>adott_jegy_rangsor&#45;&gt;fclose</title>
<path fill="none" stroke="black" d="M93.0725,-210.425C104.159,-201.715 117.144,-193.19 130.5,-188 290.687,-125.75 359.502,-224.109 515.5,-152 523.3,-148.395 530.491,-142.614 536.562,-136.595"/>
<polygon fill="black" stroke="black" points="539.381,-138.703 543.613,-128.99 534.247,-133.944 539.381,-138.703"/>
</g>
<!-- tanulo_lista -->
<g id="node14" class="node"><title>tanulo_lista</title>
<polygon fill="#bebada" stroke="black" points="219.5,-296 139.5,-296 139.5,-188 219.5,-188 219.5,-296"/>
<text text-anchor="middle" x="179.5" y="-238.3" font-family="Times,serif" font-size="14.00">student_list</text>
</g>
<!-- tanulo_lista&#45;&gt;fopen -->
<g id="edge16" class="edge"><title>tanulo_lista&#45;&gt;fopen</title>
<path fill="none" stroke="black" d="M219.794,-194.196C222.617,-191.952 225.527,-189.863 228.5,-188 294.585,-146.596 384.953,-126.827 436.058,-118.41"/>
<polygon fill="black" stroke="black" points="436.711,-121.851 446.041,-116.829 435.616,-114.937 436.711,-121.851"/>
</g>
<!-- tanulo_lista&#45;&gt;fclose -->
<g id="edge17" class="edge"><title>tanulo_lista&#45;&gt;fclose</title>
<path fill="none" stroke="black" d="M219.756,-193.357C222.571,-191.356 225.491,-189.546 228.5,-188 342.841,-129.242 399.674,-207.774 515.5,-152 523.242,-148.272 530.416,-142.454 536.488,-136.438"/>
<polygon fill="black" stroke="black" points="539.296,-138.559 543.549,-128.855 534.173,-133.788 539.296,-138.559"/>
</g>
<!-- gyakorlathiany -->
<g id="node15" class="node"><title>gyakorlathiany</title>
<polygon fill="#bebada" stroke="black" points="335.5,-270.5 237.5,-270.5 237.5,-213.5 335.5,-213.5 335.5,-270.5"/>
<text text-anchor="middle" x="286.5" y="-238.3" font-family="Times,serif" font-size="14.00">lecture_skip</text>
</g>
<!-- gyakorlathiany&#45;&gt;fopen -->
<g id="edge18" class="edge"><title>gyakorlathiany&#45;&gt;fopen</title>
<path fill="none" stroke="black" d="M314.338,-213.267C323.569,-204.709 334.141,-195.556 344.5,-188 376.508,-164.654 416.396,-142.726 443.695,-128.683"/>
<polygon fill="black" stroke="black" points="445.466,-131.709 452.792,-124.056 442.292,-125.47 445.466,-131.709"/>
</g>
<!-- gyakorlathiany&#45;&gt;fclose -->
<g id="edge19" class="edge"><title>gyakorlathiany&#45;&gt;fclose</title>
<path fill="none" stroke="black" d="M310.775,-213.43C320.398,-204.054 332.12,-194.35 344.5,-188 413.605,-152.554 446.977,-188.56 515.5,-152 522.961,-148.019 529.979,-142.226 535.991,-136.317"/>
<polygon fill="black" stroke="black" points="538.685,-138.563 543.026,-128.898 533.606,-133.747 538.685,-138.563"/>
</g>
<!-- laborhiany -->
<g id="node16" class="node"><title>laborhiany</title>
<polygon fill="#bebada" stroke="black" points="427.5,-270.5 353.5,-270.5 353.5,-213.5 427.5,-213.5 427.5,-270.5"/>
<text text-anchor="middle" x="390.5" y="-238.3" font-family="Times,serif" font-size="14.00">lab_skip</text>
</g>
<!-- laborhiany&#45;&gt;fopen -->
<g id="edge20" class="edge"><title>laborhiany&#45;&gt;fopen</title>
<path fill="none" stroke="black" d="M408.944,-213.226C423.897,-190.708 444.774,-159.27 459.138,-137.639"/>
<polygon fill="black" stroke="black" points="462.243,-139.29 464.86,-129.023 456.412,-135.417 462.243,-139.29"/>
</g>
<!-- laborhiany&#45;&gt;fclose -->
<g id="edge21" class="edge"><title>laborhiany&#45;&gt;fclose</title>
<path fill="none" stroke="black" d="M410.737,-213.249C418.136,-204.397 427.033,-195.075 436.5,-188 467.408,-164.902 483.658,-173.792 515.5,-152 522.366,-147.301 529.122,-141.372 535.07,-135.565"/>
<polygon fill="black" stroke="black" points="537.617,-137.967 542.121,-128.377 532.62,-133.065 537.617,-137.967"/>
</g>
<!-- main -->
<g id="node17" class="node"><title>main</title>
<polygon fill="#fb8072" stroke="black" points="605.5,-390 551.5,-390 551.5,-332 605.5,-332 605.5,-390"/>
<text text-anchor="middle" x="578.5" y="-357.3" font-family="Times,serif" font-size="14.00">main</text>
</g>
<!-- main&#45;&gt;lista_beolvas -->
<g id="edge22" class="edge"><title>main&#45;&gt;lista_beolvas</title>
<path fill="none" stroke="black" d="M605.886,-336.42C608.682,-334.725 611.573,-333.21 614.5,-332 735.349,-282.062 788.988,-353.351 906.5,-296 914.485,-292.103 921.981,-286.514 928.681,-280.414"/>
<polygon fill="black" stroke="black" points="931.466,-282.585 936.161,-273.087 926.568,-277.584 931.466,-282.585"/>
</g>
<!-- main&#45;&gt;felszabadit -->
<g id="edge31" class="edge"><title>main&#45;&gt;felszabadit</title>
<path fill="none" stroke="black" d="M605.846,-336.319C608.649,-334.645 611.554,-333.162 614.5,-332 779.309,-266.986 852.553,-374.259 1011.5,-296 1026.73,-288.501 1039.56,-274.098 1048.27,-262.196"/>
<polygon fill="black" stroke="black" points="1051.31,-263.96 1054.1,-253.739 1045.54,-259.989 1051.31,-263.96"/>
</g>
<!-- main&#45;&gt;targykovetelmeny_kiir -->
<g id="edge23" class="edge"><title>main&#45;&gt;targykovetelmeny_kiir</title>
<path fill="none" stroke="black" d="M563.41,-331.976C554.296,-315.05 542.64,-293.403 533.107,-275.698"/>
<polygon fill="black" stroke="black" points="536.162,-273.991 528.34,-266.845 529.999,-277.309 536.162,-273.991"/>
</g>
<!-- main&#45;&gt;lista_potzh -->
<g id="edge24" class="edge"><title>main&#45;&gt;lista_potzh</title>
<path fill="none" stroke="black" d="M593.59,-331.976C602.006,-316.346 612.59,-296.691 621.668,-279.831"/>
<polygon fill="black" stroke="black" points="624.874,-281.26 626.533,-270.796 618.71,-277.941 624.874,-281.26"/>
</g>
<!-- main&#45;&gt;lista_nhz -->
<g id="edge25" class="edge"><title>main&#45;&gt;lista_nhz</title>
<path fill="none" stroke="black" d="M605.591,-337.986C608.538,-335.877 611.543,-333.841 614.5,-332 645.548,-312.668 659.986,-318.904 688.5,-296 695.894,-290.061 702.804,-282.592 708.798,-275.151"/>
<polygon fill="black" stroke="black" points="711.617,-277.227 714.924,-267.161 706.062,-272.968 711.617,-277.227"/>
</g>
<!-- main&#45;&gt;pontszam_rangsor -->
<g id="edge26" class="edge"><title>main&#45;&gt;pontszam_rangsor</title>
<path fill="none" stroke="black" d="M605.613,-337.003C608.508,-335.138 611.496,-333.426 614.5,-332 679.171,-301.299 706.844,-326.734 771.5,-296 783.233,-290.423 794.827,-282.535 805.028,-274.544"/>
<polygon fill="black" stroke="black" points="807.334,-277.18 812.885,-268.156 802.918,-271.748 807.334,-277.18"/>
</g>
<!-- main&#45;&gt;adott_jegy_rangsor -->
<g id="edge27" class="edge"><title>main&#45;&gt;adott_jegy_rangsor</title>
<path fill="none" stroke="black" d="M551.264,-360.753C479.428,-361.777 280.069,-358.353 130.5,-296 120.691,-291.911 111.033,-286.118 102.171,-279.853"/>
<polygon fill="black" stroke="black" points="104.055,-276.892 93.9396,-273.741 99.8822,-282.513 104.055,-276.892"/>
</g>
<!-- main&#45;&gt;tanulo_lista -->
<g id="edge28" class="edge"><title>main&#45;&gt;tanulo_lista</title>
<path fill="none" stroke="black" d="M551.124,-360.697C489.486,-361.105 336.757,-355.525 228.5,-296 228.404,-295.947 228.308,-295.894 228.212,-295.841"/>
<polygon fill="black" stroke="black" points="229.845,-292.728 219.553,-290.214 226.031,-298.598 229.845,-292.728"/>
</g>
<!-- main&#45;&gt;gyakorlathiany -->
<g id="edge29" class="edge"><title>main&#45;&gt;gyakorlathiany</title>
<path fill="none" stroke="black" d="M551.335,-356.793C506.045,-350.552 413.294,-333.911 344.5,-296 335.54,-291.062 326.852,-284.469 319.046,-277.613"/>
<polygon fill="black" stroke="black" points="321.284,-274.917 311.555,-270.722 316.545,-280.069 321.284,-274.917"/>
</g>
<!-- main&#45;&gt;laborhiany -->
<g id="edge30" class="edge"><title>main&#45;&gt;laborhiany</title>
<path fill="none" stroke="black" d="M551.27,-351.677C521.233,-341.637 472.404,-322.716 436.5,-296 429.615,-290.877 423.036,-284.561 417.117,-278.096"/>
<polygon fill="black" stroke="black" points="419.702,-275.735 410.491,-270.5 414.427,-280.337 419.702,-275.735"/>
</g>
</g>
</svg>
