<?xml version="1.0" encoding="UTF-8" standalone="no"?>
<!DOCTYPE svg PUBLIC "-//W3C//DTD SVG 1.1//EN"
 "http://www.w3.org/Graphics/SVG/1.1/DTD/svg11.dtd">
<!-- Generated by graphviz version 2.38.0 (20140413.2041)
 -->
<!-- Title: %3 Pages: 1 -->
<svg width="1840pt" height="588pt"
 viewBox="0.00 0.00 1840.00 588.00" xmlns="http://www.w3.org/2000/svg" xmlns:xlink="http://www.w3.org/1999/xlink">
<g id="graph0" class="graph" transform="scale(1 1) rotate(0) translate(4 584)">
<title>%3</title>
<polygon fill="white" stroke="none" points="-4,4 -4,-584 1836,-584 1836,4 -4,4"/>
<!-- fopen -->
<g id="node1" class="node"><title>fopen</title>
<ellipse fill="#eeeeee" stroke="black" cx="171" cy="-96" rx="30.5947" ry="18"/>
<text text-anchor="middle" x="171" y="-92.3" font-family="Times,serif" font-size="14.00">fopen</text>
</g>
<!-- fclose -->
<g id="node2" class="node"><title>fclose</title>
<ellipse fill="#eeeeee" stroke="black" cx="251" cy="-96" rx="31.6951" ry="18"/>
<text text-anchor="middle" x="251" y="-92.3" font-family="Times,serif" font-size="14.00">fclose</text>
</g>
<!-- malloc -->
<g id="node3" class="node"><title>malloc</title>
<ellipse fill="#eeeeee" stroke="black" cx="739" cy="-18" rx="35.194" ry="18"/>
<text text-anchor="middle" x="739" y="-14.3" font-family="Times,serif" font-size="14.00">malloc</text>
</g>
<!-- free -->
<g id="node4" class="node"><title>free</title>
<ellipse fill="#eeeeee" stroke="black" cx="971" cy="-96" rx="27" ry="18"/>
<text text-anchor="middle" x="971" y="-92.3" font-family="Times,serif" font-size="14.00">free</text>
</g>
<!-- exit -->
<g id="node5" class="node"><title>exit</title>
<ellipse fill="#eeeeee" stroke="black" cx="340" cy="-215.5" rx="27" ry="18"/>
<text text-anchor="middle" x="340" y="-211.8" font-family="Times,serif" font-size="14.00">exit</text>
</g>
<!-- veranim -->
<g id="node6" class="node"><title>veranim</title>
<polygon fill="#8dd3c7" stroke="black" points="447,-240 385,-240 385,-191 447,-191 447,-240"/>
<text text-anchor="middle" x="416" y="-211.8" font-family="Times,serif" font-size="14.00">beatanim</text>
</g>
<!-- tamadasanim -->
<g id="node7" class="node"><title>tamadasanim</title>
<polygon fill="#8dd3c7" stroke="black" points="553.5,-247.5 464.5,-247.5 464.5,-183.5 553.5,-183.5 553.5,-247.5"/>
<text text-anchor="middle" x="509" y="-211.8" font-family="Times,serif" font-size="14.00">attackanim</text>
</g>
<!-- tamadaskard -->
<g id="node8" class="node"><title>tamadaskard</title>
<polygon fill="#8dd3c7" stroke="black" points="658,-246.5 572,-246.5 572,-184.5 658,-184.5 658,-246.5"/>
<text text-anchor="middle" x="615" y="-211.8" font-family="Times,serif" font-size="14.00">attacksword</text>
</g>
<!-- halalanim -->
<g id="node9" class="node"><title>halalanim</title>
<polygon fill="#8dd3c7" stroke="black" points="747.5,-238 676.5,-238 676.5,-193 747.5,-193 747.5,-238"/>
<text text-anchor="middle" x="712" y="-211.8" font-family="Times,serif" font-size="14.00">deathanim</text>
</g>
<!-- mozgatasanim -->
<g id="node10" class="node"><title>mozgatasanim</title>
<polygon fill="#8dd3c7" stroke="black" points="862,-243 766,-243 766,-188 862,-188 862,-243"/>
<text text-anchor="middle" x="814" y="-211.8" font-family="Times,serif" font-size="14.00">moveanim</text>
</g>
<!-- ellenseglistahozzad -->
<g id="node11" class="node"><title>ellenseglistahozzad</title>
<polygon fill="#ffffb3" stroke="black" points="122,-120 -7.10543e-15,-120 -7.10543e-15,-72 122,-72 122,-120"/>
<text text-anchor="middle" x="61" y="-92.3" font-family="Times,serif" font-size="14.00">enemylistadd</text>
</g>
<!-- ellenseglistahozzad&#45;&gt;malloc -->
<g id="edge1" class="edge"><title>ellenseglistahozzad&#45;&gt;malloc</title>
<path fill="none" stroke="black" d="M122.244,-73.992C125.188,-73.2612 128.118,-72.5909 131,-72 338.266,-29.5092 592.111,-21.0589 693.766,-19.3973"/>
<polygon fill="black" stroke="black" points="694.031,-22.8938 703.978,-19.2452 693.927,-15.8946 694.031,-22.8938"/>
</g>
<!-- ellensegfeltolt -->
<g id="node12" class="node"><title>ellensegfeltolt</title>
<polygon fill="#ffffb3" stroke="black" points="158.5,-237 65.5,-237 65.5,-194 158.5,-194 158.5,-237"/>
<text text-anchor="middle" x="112" y="-211.8" font-family="Times,serif" font-size="14.00">enemyfill</text>
</g>
<!-- ellensegfeltolt&#45;&gt;fopen -->
<g id="edge2" class="edge"><title>ellensegfeltolt&#45;&gt;fopen</title>
<path fill="none" stroke="black" d="M122.412,-193.764C132.396,-173.882 147.49,-143.82 158.202,-122.487"/>
<polygon fill="black" stroke="black" points="161.422,-123.874 162.782,-113.367 155.167,-120.733 161.422,-123.874"/>
</g>
<!-- ellensegfeltolt&#45;&gt;fclose -->
<g id="edge4" class="edge"><title>ellensegfeltolt&#45;&gt;fclose</title>
<path fill="none" stroke="black" d="M130.036,-193.8C140.602,-182.163 154.489,-167.674 168,-156 184.931,-141.371 205.407,-126.786 221.786,-115.777"/>
<polygon fill="black" stroke="black" points="224.017,-118.497 230.415,-110.052 220.147,-112.664 224.017,-118.497"/>
</g>
<!-- ellensegfeltolt&#45;&gt;ellenseglistahozzad -->
<g id="edge3" class="edge"><title>ellensegfeltolt&#45;&gt;ellenseglistahozzad</title>
<path fill="none" stroke="black" d="M103,-193.764C95.2975,-176.019 84.0759,-150.165 75.1693,-129.645"/>
<polygon fill="black" stroke="black" points="78.3273,-128.13 71.135,-120.35 71.906,-130.917 78.3273,-128.13"/>
</g>
<!-- ellensegelvesz -->
<g id="node13" class="node"><title>ellensegelvesz</title>
<polygon fill="#ffffb3" stroke="black" points="1071.5,-234 976.5,-234 976.5,-197 1071.5,-197 1071.5,-234"/>
<text text-anchor="middle" x="1024" y="-211.8" font-family="Times,serif" font-size="14.00">enemyremove</text>
</g>
<!-- ellensegelvesz&#45;&gt;free -->
<g id="edge5" class="edge"><title>ellensegelvesz&#45;&gt;free</title>
<path fill="none" stroke="black" d="M1016.07,-196.909C1007.21,-177.279 992.799,-145.328 982.662,-122.854"/>
<polygon fill="black" stroke="black" points="985.776,-121.247 978.474,-113.57 979.396,-124.125 985.776,-121.247"/>
</g>
<!-- ellensegtamadas -->
<g id="node14" class="node"><title>ellensegtamadas</title>
<polygon fill="#ffffb3" stroke="black" points="1234,-237.5 1128,-237.5 1128,-193.5 1234,-193.5 1234,-237.5"/>
<text text-anchor="middle" x="1181" y="-211.8" font-family="Times,serif" font-size="14.00">enemyattack</text>
</g>
<!-- kozel -->
<g id="node16" class="node"><title>kozel</title>
<polygon fill="#bebada" stroke="black" points="1253,-114 1199,-114 1199,-78 1253,-78 1253,-114"/>
<text text-anchor="middle" x="1226" y="-92.3" font-family="Times,serif" font-size="14.00">closer</text>
</g>
<!-- ellensegtamadas&#45;&gt;kozel -->
<g id="edge6" class="edge"><title>ellensegtamadas&#45;&gt;kozel</title>
<path fill="none" stroke="black" d="M1189.05,-193.493C1196.55,-173.89 1207.78,-144.565 1215.89,-123.391"/>
<polygon fill="black" stroke="black" points="1219.18,-124.605 1219.48,-114.015 1212.64,-122.102 1219.18,-124.605"/>
</g>
<!-- ellensegmozgas -->
<g id="node15" class="node"><title>ellensegmozgas</title>
<polygon fill="#ffffb3" stroke="black" points="1355.5,-275 1252.5,-275 1252.5,-156 1355.5,-156 1355.5,-275"/>
<text text-anchor="middle" x="1304" y="-211.8" font-family="Times,serif" font-size="14.00">enemymove</text>
</g>
<!-- ellensegmozgas&#45;&gt;kozel -->
<g id="edge7" class="edge"><title>ellensegmozgas&#45;&gt;kozel</title>
<path fill="none" stroke="black" d="M1265,-155.75C1257.24,-144.066 1249.49,-132.381 1242.96,-122.546"/>
<polygon fill="black" stroke="black" points="1245.79,-120.481 1237.34,-114.086 1239.96,-124.353 1245.79,-120.481"/>
</g>
<!-- targylistahozzaad -->
<g id="node17" class="node"><title>targylistahozzaad</title>
<polygon fill="#bebada" stroke="black" points="1473.5,-120 1362.5,-120 1362.5,-72 1473.5,-72 1473.5,-120"/>
<text text-anchor="middle" x="1418" y="-92.3" font-family="Times,serif" font-size="14.00">objectlistadd</text>
</g>
<!-- targylistahozzaad&#45;&gt;malloc -->
<g id="edge8" class="edge"><title>targylistahozzaad&#45;&gt;malloc</title>
<path fill="none" stroke="black" d="M1362.49,-86.1904C1332.73,-81.6261 1295.42,-76.1543 1262,-72 1085.15,-50.0139 873.803,-30.7322 783.478,-22.8211"/>
<polygon fill="black" stroke="black" points="783.594,-19.318 773.328,-21.9354 782.986,-26.2915 783.594,-19.318"/>
</g>
<!-- fordulas -->
<g id="node18" class="node"><title>fordulas</title>
<polygon fill="#bebada" stroke="black" points="1553.5,-237.5 1492.5,-237.5 1492.5,-193.5 1553.5,-193.5 1553.5,-237.5"/>
<text text-anchor="middle" x="1523" y="-211.8" font-family="Times,serif" font-size="14.00">turn</text>
</g>
<!-- targyelvesz -->
<g id="node19" class="node"><title>targyelvesz</title>
<polygon fill="#bebada" stroke="black" points="958,-228 880,-228 880,-203 958,-203 958,-228"/>
<text text-anchor="middle" x="919" y="-211.8" font-family="Times,serif" font-size="14.00">objectremove</text>
</g>
<!-- targyelvesz&#45;&gt;free -->
<g id="edge9" class="edge"><title>targyelvesz&#45;&gt;free</title>
<path fill="none" stroke="black" d="M924.176,-202.804C932.386,-184.253 948.589,-147.64 959.609,-122.739"/>
<polygon fill="black" stroke="black" points="962.846,-124.073 963.693,-113.512 956.445,-121.24 962.846,-124.073"/>
</g>
<!-- tamadas -->
<g id="node20" class="node"><title>tamadas</title>
<polygon fill="#bebada" stroke="black" points="1436,-264.5 1374,-264.5 1374,-166.5 1436,-166.5 1436,-264.5"/>
<text text-anchor="middle" x="1405" y="-211.8" font-family="Times,serif" font-size="14.00">attack</text>
</g>
<!-- tamadas&#45;&gt;kozel -->
<g id="edge10" class="edge"><title>tamadas&#45;&gt;kozel</title>
<path fill="none" stroke="black" d="M1375.76,-166.498C1372.4,-162.69 1368.81,-159.118 1365,-156 1334.84,-131.301 1292.83,-115.389 1262.9,-106.39"/>
<polygon fill="black" stroke="black" points="1263.83,-103.015 1253.25,-103.6 1261.88,-109.739 1263.83,-103.015"/>
</g>
<!-- hatterfeltolt -->
<g id="node21" class="node"><title>hatterfeltolt</title>
<polygon fill="#bebada" stroke="black" points="257,-245.5 177,-245.5 177,-185.5 257,-185.5 257,-245.5"/>
<text text-anchor="middle" x="217" y="-211.8" font-family="Times,serif" font-size="14.00">bgfill</text>
</g>
<!-- hatterfeltolt&#45;&gt;fopen -->
<g id="edge11" class="edge"><title>hatterfeltolt&#45;&gt;fopen</title>
<path fill="none" stroke="black" d="M205.629,-185.455C198.176,-166.418 188.513,-141.734 181.289,-123.281"/>
<polygon fill="black" stroke="black" points="184.46,-121.781 177.556,-113.745 177.942,-124.333 184.46,-121.781"/>
</g>
<!-- hatterfeltolt&#45;&gt;fclose -->
<g id="edge12" class="edge"><title>hatterfeltolt&#45;&gt;fclose</title>
<path fill="none" stroke="black" d="M225.404,-185.455C230.855,-166.62 237.904,-142.258 243.225,-123.871"/>
<polygon fill="black" stroke="black" points="246.639,-124.662 246.057,-114.084 239.915,-122.717 246.639,-124.662"/>
</g>
<!-- idozitenemy -->
<g id="node22" class="node"><title>idozitenemy</title>
<polygon fill="#bebada" stroke="black" points="1656,-227.5 1572,-227.5 1572,-203.5 1656,-203.5 1656,-227.5"/>
<text text-anchor="middle" x="1614" y="-211.8" font-family="Times,serif" font-size="14.00">timerenemy</text>
</g>
<!-- idozitjatekos -->
<g id="node23" class="node"><title>idozitjatekos</title>
<polygon fill="#bebada" stroke="black" points="1760,-227.5 1674,-227.5 1674,-203.5 1760,-203.5 1760,-227.5"/>
<text text-anchor="middle" x="1717" y="-211.8" font-family="Times,serif" font-size="14.00">timerplayer</text>
</g>
<!-- idozit -->
<g id="node24" class="node"><title>idozit</title>
<polygon fill="#bebada" stroke="black" points="1832,-227.5 1778,-227.5 1778,-203.5 1832,-203.5 1832,-227.5"/>
<text text-anchor="middle" x="1805" y="-211.8" font-family="Times,serif" font-size="14.00">timer</text>
</g>
<!-- main -->
<g id="node25" class="node"><title>main</title>
<polygon fill="#fb8072" stroke="black" points="946,-580 892,-580 892,-311 946,-311 946,-580"/>
<text text-anchor="middle" x="919" y="-441.8" font-family="Times,serif" font-size="14.00">main</text>
</g>
<!-- main&#45;&gt;fopen -->
<g id="edge18" class="edge"><title>main&#45;&gt;fopen</title>
<path fill="none" stroke="black" d="M891.638,-443.586C756.885,-438.462 165.86,-408.537 56,-275 22.3984,-234.157 27.8328,-200.764 56,-156 75.6916,-124.705 98.2841,-137.227 131,-120 134.314,-118.255 137.751,-116.381 141.156,-114.482"/>
<polygon fill="black" stroke="black" points="143.018,-117.45 149.989,-109.472 139.564,-111.361 143.018,-117.45"/>
</g>
<!-- main&#45;&gt;fclose -->
<g id="edge19" class="edge"><title>main&#45;&gt;fclose</title>
<path fill="none" stroke="black" d="M891.832,-440.555C784.45,-424.449 391.219,-360.453 304,-275 298.475,-269.587 271.447,-172.25 258.262,-123.859"/>
<polygon fill="black" stroke="black" points="261.597,-122.785 255.597,-114.053 254.842,-124.621 261.597,-122.785"/>
</g>
<!-- main&#45;&gt;exit -->
<g id="edge13" class="edge"><title>main&#45;&gt;exit</title>
<path fill="none" stroke="black" d="M891.944,-442.663C807.07,-435.64 541.871,-403.961 376,-275 365.114,-266.537 356.718,-253.785 350.783,-242.344"/>
<polygon fill="black" stroke="black" points="353.86,-240.666 346.376,-233.166 347.549,-243.696 353.86,-240.666"/>
</g>
<!-- main&#45;&gt;veranim -->
<g id="edge26" class="edge"><title>main&#45;&gt;veranim</title>
<path fill="none" stroke="black" d="M891.92,-440.52C815.929,-428.199 597.053,-384.697 456,-275 446.928,-267.945 439.151,-258.25 432.932,-248.781"/>
<polygon fill="black" stroke="black" points="435.89,-246.91 427.666,-240.231 429.93,-250.581 435.89,-246.91"/>
</g>
<!-- main&#45;&gt;tamadasanim -->
<g id="edge25" class="edge"><title>main&#45;&gt;tamadasanim</title>
<path fill="none" stroke="black" d="M891.64,-435.532C829.288,-414.267 673.506,-356.399 563,-275 555.236,-269.281 547.693,-262.335 540.828,-255.254"/>
<polygon fill="black" stroke="black" points="543.044,-252.499 533.666,-247.571 537.924,-257.272 543.044,-252.499"/>
</g>
<!-- main&#45;&gt;tamadaskard -->
<g id="edge28" class="edge"><title>main&#45;&gt;tamadaskard</title>
<path fill="none" stroke="black" d="M891.851,-429.125C844.112,-401.465 743.085,-340.104 668,-275 660.776,-268.737 653.554,-261.542 646.868,-254.39"/>
<polygon fill="black" stroke="black" points="649.173,-251.723 639.849,-246.691 644,-256.439 649.173,-251.723"/>
</g>
<!-- main&#45;&gt;halalanim -->
<g id="edge21" class="edge"><title>main&#45;&gt;halalanim</title>
<path fill="none" stroke="black" d="M891.985,-418.033C859.051,-385.367 802.199,-327.668 757,-275 749.126,-265.825 740.943,-255.466 733.748,-246.042"/>
<polygon fill="black" stroke="black" points="736.534,-243.923 727.713,-238.054 730.949,-248.143 736.534,-243.923"/>
</g>
<!-- main&#45;&gt;mozgatasanim -->
<g id="edge24" class="edge"><title>main&#45;&gt;mozgatasanim</title>
<path fill="none" stroke="black" d="M891.96,-385.784C872.576,-343.694 847.082,-288.336 830.617,-252.583"/>
<polygon fill="black" stroke="black" points="833.588,-250.666 826.225,-243.047 827.229,-253.594 833.588,-250.666"/>
</g>
<!-- main&#45;&gt;ellensegfeltolt -->
<g id="edge20" class="edge"><title>main&#45;&gt;ellensegfeltolt</title>
<path fill="none" stroke="black" d="M891.742,-443.908C789.576,-440.591 422.226,-418.744 168,-275 154.705,-267.483 142.609,-255.811 133.089,-244.865"/>
<polygon fill="black" stroke="black" points="135.714,-242.547 126.632,-237.092 130.33,-247.02 135.714,-242.547"/>
</g>
<!-- main&#45;&gt;ellensegelvesz -->
<g id="edge23" class="edge"><title>main&#45;&gt;ellensegelvesz</title>
<path fill="none" stroke="black" d="M946.04,-385.784C967.111,-340.031 995.401,-278.6 1011.47,-243.716"/>
<polygon fill="black" stroke="black" points="1014.84,-244.75 1015.85,-234.203 1008.49,-241.822 1014.84,-244.75"/>
</g>
<!-- main&#45;&gt;ellensegtamadas -->
<g id="edge30" class="edge"><title>main&#45;&gt;ellensegtamadas</title>
<path fill="none" stroke="black" d="M946.146,-420.937C983.834,-388.216 1054.14,-327.152 1114,-275 1125.43,-265.042 1137.95,-254.119 1149.04,-244.434"/>
<polygon fill="black" stroke="black" points="1151.59,-246.848 1156.82,-237.633 1146.99,-241.576 1151.59,-246.848"/>
</g>
<!-- main&#45;&gt;ellensegmozgas -->
<g id="edge31" class="edge"><title>main&#45;&gt;ellensegmozgas</title>
<path fill="none" stroke="black" d="M946.076,-433.456C1003.63,-409.329 1141.19,-348.179 1243,-275 1243.39,-274.722 1243.77,-274.441 1244.16,-274.158"/>
<polygon fill="black" stroke="black" points="1246.47,-276.795 1252.26,-267.92 1242.2,-271.249 1246.47,-276.795"/>
</g>
<!-- main&#45;&gt;kozel -->
<g id="edge27" class="edge"><title>main&#45;&gt;kozel</title>
<path fill="none" stroke="black" d="M946.16,-422.98C981.922,-393.29 1044.52,-336.422 1081,-275 1109.35,-227.264 1083.75,-198.891 1119,-156 1137.27,-133.774 1166.21,-118.538 1189.39,-109.125"/>
<polygon fill="black" stroke="black" points="1190.86,-112.31 1198.93,-105.443 1188.34,-105.78 1190.86,-112.31"/>
</g>
<!-- main&#45;&gt;targylistahozzaad -->
<g id="edge33" class="edge"><title>main&#45;&gt;targylistahozzaad</title>
<path fill="none" stroke="black" d="M946.258,-439.992C1045.29,-423.01 1383.43,-359.531 1445,-275 1476.22,-232.145 1454.21,-167.933 1435.81,-129.481"/>
<polygon fill="black" stroke="black" points="1438.82,-127.687 1431.24,-120.289 1432.56,-130.802 1438.82,-127.687"/>
</g>
<!-- main&#45;&gt;fordulas -->
<g id="edge29" class="edge"><title>main&#45;&gt;fordulas</title>
<path fill="none" stroke="black" d="M946.277,-442.125C1031.95,-433.514 1300.51,-397.669 1478,-275 1488.87,-267.487 1498.29,-256.534 1505.65,-246.132"/>
<polygon fill="black" stroke="black" points="1508.7,-247.87 1511.35,-237.611 1502.88,-243.98 1508.7,-247.87"/>
</g>
<!-- main&#45;&gt;targyelvesz -->
<g id="edge22" class="edge"><title>main&#45;&gt;targyelvesz</title>
<path fill="none" stroke="black" d="M919,-310.882C919,-282.524 919,-255.836 919,-238.124"/>
<polygon fill="black" stroke="black" points="922.5,-238.087 919,-228.087 915.5,-238.087 922.5,-238.087"/>
</g>
<!-- main&#45;&gt;tamadas -->
<g id="edge32" class="edge"><title>main&#45;&gt;tamadas</title>
<path fill="none" stroke="black" d="M946.151,-440.053C1020.32,-426.764 1229.81,-381.475 1365,-275 1366.21,-274.048 1367.39,-273.05 1368.56,-272.012"/>
<polygon fill="black" stroke="black" points="1371.3,-274.213 1375.88,-264.658 1366.34,-269.273 1371.3,-274.213"/>
</g>
<!-- main&#45;&gt;hatterfeltolt -->
<g id="edge17" class="edge"><title>main&#45;&gt;hatterfeltolt</title>
<path fill="none" stroke="black" d="M891.934,-442.823C798.894,-435.992 486.108,-404.12 271,-275 261.473,-269.281 252.605,-261.386 244.92,-253.244"/>
<polygon fill="black" stroke="black" points="247.49,-250.867 238.211,-245.753 242.276,-255.537 247.49,-250.867"/>
</g>
<!-- main&#45;&gt;idozitenemy -->
<g id="edge16" class="edge"><title>main&#45;&gt;idozitenemy</title>
<path fill="none" stroke="black" stroke-dasharray="5,2" d="M946.037,-443.004C1038.95,-436.76 1351.08,-406.56 1563,-275 1578.66,-265.278 1592.15,-249.242 1601.31,-236.416"/>
<polygon fill="black" stroke="black" points="1604.46,-238.016 1607.19,-227.78 1598.67,-234.077 1604.46,-238.016"/>
</g>
<!-- main&#45;&gt;idozitjatekos -->
<g id="edge15" class="edge"><title>main&#45;&gt;idozitjatekos</title>
<path fill="none" stroke="black" stroke-dasharray="5,2" d="M946.25,-444.159C1048.35,-441.737 1415.17,-422.653 1665,-275 1681.16,-265.45 1695.02,-249.175 1704.36,-236.213"/>
<polygon fill="black" stroke="black" points="1707.29,-238.116 1710.07,-227.891 1701.52,-234.153 1707.29,-238.116"/>
</g>
<!-- main&#45;&gt;idozit -->
<g id="edge14" class="edge"><title>main&#45;&gt;idozit</title>
<path fill="none" stroke="black" stroke-dasharray="5,2" d="M946.391,-441.982C1076.29,-429.61 1629.74,-371.913 1769,-275 1782.13,-265.862 1791.38,-250.239 1797.22,-237.435"/>
<polygon fill="black" stroke="black" points="1800.56,-238.526 1801.18,-227.95 1794.1,-235.832 1800.56,-238.526"/>
</g>
</g>
</svg>
