<?xml version="1.0" encoding="UTF-8" standalone="no"?>
<!DOCTYPE svg PUBLIC "-//W3C//DTD SVG 1.1//EN"
 "http://www.w3.org/Graphics/SVG/1.1/DTD/svg11.dtd">
<!-- Generated by graphviz version 2.38.0 (20140413.2041)
 -->
<!-- Title: %3 Pages: 1 -->
<svg width="538pt" height="600pt"
 viewBox="0.00 0.00 537.55 600.00" xmlns="http://www.w3.org/2000/svg" xmlns:xlink="http://www.w3.org/1999/xlink">
<g id="graph0" class="graph" transform="scale(1 1) rotate(0) translate(4 596)">
<title>%3</title>
<polygon fill="white" stroke="none" points="-4,4 -4,-596 533.547,-596 533.547,4 -4,4"/>
<!-- fopen -->
<g id="node1" class="node"><title>fopen</title>
<ellipse fill="#eeeeee" stroke="black" cx="30.5473" cy="-119" rx="30.5947" ry="18"/>
<text text-anchor="middle" x="30.5473" y="-115.3" font-family="Times,serif" font-size="14.00">fopen</text>
</g>
<!-- fclose -->
<g id="node2" class="node"><title>fclose</title>
<ellipse fill="#eeeeee" stroke="black" cx="110.547" cy="-119" rx="31.6951" ry="18"/>
<text text-anchor="middle" x="110.547" y="-115.3" font-family="Times,serif" font-size="14.00">fclose</text>
</g>
<!-- malloc -->
<g id="node3" class="node"><title>malloc</title>
<ellipse fill="#eeeeee" stroke="black" cx="350.547" cy="-435.5" rx="35.194" ry="18"/>
<text text-anchor="middle" x="350.547" y="-431.8" font-family="Times,serif" font-size="14.00">malloc</text>
</g>
<!-- free -->
<g id="node4" class="node"><title>free</title>
<defs>
<radialGradient id="r_0" cx="50%" cy="50%" r="75%" fx="50%" fy="50%">
<stop offset="0" style="stop-color:white;stop-opacity:1.;"/>
<stop offset="1" style="stop-color:#eeeeee;stop-opacity:1.;"/>
</radialGradient>
</defs>
<ellipse fill="url(#r_0)" stroke="black" stroke-dasharray="5,2" cx="462.547" cy="-558.5" rx="27" ry="18"/>
<text text-anchor="middle" x="462.547" y="-554.8" font-family="Times,serif" font-size="14.00">free</text>
</g>
<!-- exit -->
<g id="node5" class="node"><title>exit</title>
<ellipse fill="#eeeeee" stroke="black" cx="430.547" cy="-435.5" rx="27" ry="18"/>
<text text-anchor="middle" x="430.547" y="-431.8" font-family="Times,serif" font-size="14.00">exit</text>
</g>
<!-- enemy -->
<g id="node6" class="node"><title>enemy</title>
<polygon fill="#8dd3c7" stroke="black" points="352.547,-301.5 298.547,-301.5 298.547,-259.5 352.547,-259.5 352.547,-301.5"/>
<text text-anchor="middle" x="325.547" y="-276.8" font-family="Times,serif" font-size="14.00">enemy</text>
</g>
<!-- helyertek -->
<g id="node7" class="node"><title>helyertek</title>
<polygon fill="#8dd3c7" stroke="black" points="378.047,-179 311.047,-179 311.047,-59 378.047,-59 378.047,-179"/>
<text text-anchor="middle" x="344.547" y="-115.3" font-family="Times,serif" font-size="14.00">value</text>
</g>
<!-- enemy&#45;&gt;helyertek -->
<g id="edge1" class="edge"><title>enemy&#45;&gt;helyertek</title>
<path fill="none" stroke="black" d="M327.954,-259.299C330.069,-241.538 333.276,-214.623 336.308,-189.171"/>
<polygon fill="black" stroke="black" points="339.795,-189.481 337.503,-179.137 332.844,-188.653 339.795,-189.481"/>
</g>
<!-- open -->
<g id="node8" class="node"><title>open</title>
<polygon fill="#ffffb3" stroke="black" points="204.547,-313 150.547,-313 150.547,-248 204.547,-248 204.547,-313"/>
<text text-anchor="middle" x="177.547" y="-276.8" font-family="Times,serif" font-size="14.00">open</text>
</g>
<!-- open&#45;&gt;fopen -->
<g id="edge2" class="edge"><title>open&#45;&gt;fopen</title>
<path fill="none" stroke="black" d="M164.574,-247.701C158.79,-236.349 151.097,-224.125 141.547,-215 115.681,-190.283 96.3221,-202.73 69.5473,-179 58.9942,-169.647 50.0608,-156.812 43.4177,-145.501"/>
<polygon fill="black" stroke="black" points="46.3121,-143.505 38.3908,-136.469 40.1955,-146.909 46.3121,-143.505"/>
</g>
<!-- open&#45;&gt;fclose -->
<g id="edge5" class="edge"><title>open&#45;&gt;fclose</title>
<path fill="none" stroke="black" d="M164.31,-247.988C151.811,-218.232 133.284,-174.126 121.567,-146.235"/>
<polygon fill="black" stroke="black" points="124.683,-144.613 117.583,-136.749 118.229,-147.324 124.683,-144.613"/>
</g>
<!-- uj_jatek -->
<g id="node11" class="node"><title>uj_jatek</title>
<polygon fill="#fb8072" stroke="black" points="220.547,-165.5 160.547,-165.5 160.547,-72.5 220.547,-72.5 220.547,-165.5"/>
<text text-anchor="middle" x="190.547" y="-115.3" font-family="Times,serif" font-size="14.00">newgame</text>
</g>
<!-- open&#45;&gt;uj_jatek -->
<g id="edge3" class="edge"><title>open&#45;&gt;uj_jatek</title>
<path fill="none" stroke="black" d="M180.116,-247.988C181.793,-227.413 184.029,-199.977 186.001,-175.785"/>
<polygon fill="black" stroke="black" points="189.503,-175.896 186.827,-165.645 182.526,-175.327 189.503,-175.896"/>
</g>
<!-- lepes -->
<g id="node12" class="node"><title>lepes</title>
<polygon fill="#fb8072" stroke="black" points="292.547,-166.5 238.547,-166.5 238.547,-71.5 292.547,-71.5 292.547,-166.5"/>
<text text-anchor="middle" x="265.547" y="-115.3" font-family="Times,serif" font-size="14.00">step</text>
</g>
<!-- open&#45;&gt;lepes -->
<g id="edge4" class="edge"><title>open&#45;&gt;lepes</title>
<path fill="none" stroke="black" d="M194.933,-247.988C206.354,-227.288 221.606,-199.644 235.012,-175.345"/>
<polygon fill="black" stroke="black" points="238.091,-177.009 239.857,-166.563 231.962,-173.628 238.091,-177.009"/>
</g>
<!-- save -->
<g id="node9" class="node"><title>save</title>
<polygon fill="#ffffb3" stroke="black" points="132.547,-308.5 78.5473,-308.5 78.5473,-252.5 132.547,-252.5 132.547,-308.5"/>
<text text-anchor="middle" x="105.547" y="-276.8" font-family="Times,serif" font-size="14.00">save</text>
</g>
<!-- save&#45;&gt;fopen -->
<g id="edge6" class="edge"><title>save&#45;&gt;fopen</title>
<path fill="none" stroke="black" d="M92.8246,-252.443C78.7816,-222.578 56.3478,-174.869 42.585,-145.6"/>
<polygon fill="black" stroke="black" points="45.6973,-143.994 38.2747,-136.434 39.3627,-146.972 45.6973,-143.994"/>
</g>
<!-- save&#45;&gt;fclose -->
<g id="edge7" class="edge"><title>save&#45;&gt;fclose</title>
<path fill="none" stroke="black" d="M106.395,-252.443C107.31,-223.283 108.757,-177.111 109.679,-147.703"/>
<polygon fill="black" stroke="black" points="113.189,-147.428 110.004,-137.323 106.193,-147.208 113.189,-147.428"/>
</g>
<!-- jatek -->
<g id="node10" class="node"><title>jatek</title>
<polygon fill="#bebada" stroke="black" points="297.547,-476 243.547,-476 243.547,-395 297.547,-395 297.547,-476"/>
<text text-anchor="middle" x="270.547" y="-431.8" font-family="Times,serif" font-size="14.00">game</text>
</g>
<!-- jatek&#45;&gt;enemy -->
<g id="edge10" class="edge"><title>jatek&#45;&gt;enemy</title>
<path fill="none" stroke="black" d="M284.854,-394.7C294.212,-368.669 306.24,-335.208 314.787,-311.433"/>
<polygon fill="black" stroke="black" points="318.13,-312.481 318.219,-301.886 311.542,-310.113 318.13,-312.481"/>
</g>
<!-- jatek&#45;&gt;open -->
<g id="edge9" class="edge"><title>jatek&#45;&gt;open</title>
<path fill="none" stroke="black" d="M246.355,-394.7C232.767,-372.345 215.847,-344.51 202.187,-322.036"/>
<polygon fill="black" stroke="black" points="205.119,-320.122 196.934,-313.395 199.138,-323.758 205.119,-320.122"/>
</g>
<!-- jatek&#45;&gt;save -->
<g id="edge14" class="edge"><title>jatek&#45;&gt;save</title>
<path fill="none" stroke="black" d="M243.393,-420.758C215.246,-405.482 171.283,-378.613 141.547,-346 134.017,-337.742 127.442,-327.631 122.044,-317.886"/>
<polygon fill="black" stroke="black" points="124.984,-315.956 117.237,-308.728 118.786,-319.209 124.984,-315.956"/>
</g>
<!-- jatek&#45;&gt;uj_jatek -->
<g id="edge8" class="edge"><title>jatek&#45;&gt;uj_jatek</title>
<path fill="none" stroke="black" d="M260.496,-394.987C246.395,-339.551 220.674,-238.436 204.659,-175.478"/>
<polygon fill="black" stroke="black" points="208.033,-174.542 202.176,-165.714 201.249,-176.268 208.033,-174.542"/>
</g>
<!-- jatek&#45;&gt;lepes -->
<g id="edge11" class="edge"><title>jatek&#45;&gt;lepes</title>
<path fill="none" stroke="black" d="M269.919,-394.987C269.043,-339.899 267.45,-239.706 266.448,-176.67"/>
<polygon fill="black" stroke="black" points="269.945,-176.445 266.287,-166.502 262.946,-176.556 269.945,-176.445"/>
</g>
<!-- winner -->
<g id="node13" class="node"><title>winner</title>
<polygon fill="#fb8072" stroke="black" points="424.547,-346 370.547,-346 370.547,-215 424.547,-215 424.547,-346"/>
<text text-anchor="middle" x="397.547" y="-276.8" font-family="Times,serif" font-size="14.00">winner</text>
</g>
<!-- jatek&#45;&gt;winner -->
<g id="edge12" class="edge"><title>jatek&#45;&gt;winner</title>
<path fill="none" stroke="black" d="M295.292,-394.734C298.818,-390.223 302.598,-385.865 306.547,-382 327.427,-361.565 341.63,-367.373 361.547,-346 362.432,-345.05 363.304,-344.074 364.161,-343.077"/>
<polygon fill="black" stroke="black" points="367.04,-345.078 370.456,-335.049 361.531,-340.759 367.04,-345.078"/>
</g>
<!-- coord_ksz -->
<g id="node16" class="node"><title>coord_ksz</title>
<polygon fill="#b3de69" stroke="black" points="514.547,-292.5 442.547,-292.5 442.547,-268.5 514.547,-268.5 514.547,-292.5"/>
<text text-anchor="middle" x="478.547" y="-276.8" font-family="Times,serif" font-size="14.00">coord_k</text>
</g>
<!-- jatek&#45;&gt;coord_ksz -->
<g id="edge13" class="edge"><title>jatek&#45;&gt;coord_ksz</title>
<path fill="none" stroke="black" d="M293.147,-394.787C297.134,-389.992 301.611,-385.546 306.547,-382 354.195,-347.77 385.762,-380.037 433.547,-346 449.36,-334.737 461.49,-316.087 469.149,-301.731"/>
<polygon fill="black" stroke="black" points="472.364,-303.129 473.728,-292.622 466.11,-299.985 472.364,-303.129"/>
</g>
<!-- coord_m -->
<g id="node17" class="node"><title>coord_m</title>
<polygon fill="#b3de69" stroke="black" points="368.047,-23 303.047,-23 303.047,-0 368.047,-0 368.047,-23"/>
<text text-anchor="middle" x="335.547" y="-7.8" font-family="Times,serif" font-size="14.00">coord_m</text>
</g>
<!-- lepes&#45;&gt;coord_m -->
<g id="edge15" class="edge"><title>lepes&#45;&gt;coord_m</title>
<path fill="none" stroke="black" d="M292.683,-72.6579C295.622,-68.011 298.612,-63.3883 301.547,-59 307.821,-49.6228 315.167,-39.4802 321.424,-31.0677"/>
<polygon fill="black" stroke="black" points="324.252,-33.1302 327.457,-23.032 318.654,-28.927 324.252,-33.1302"/>
</g>
<!-- winner&#45;&gt;coord_m -->
<g id="edge16" class="edge"><title>winner&#45;&gt;coord_m</title>
<path fill="none" stroke="black" d="M406.917,-214.604C410.58,-168.929 409.436,-107.534 386.547,-59 381.013,-47.2653 371.036,-37.1384 361.365,-29.3585"/>
<polygon fill="black" stroke="black" points="363.167,-26.3355 353.064,-23.1445 358.972,-31.9393 363.167,-26.3355"/>
</g>
<!-- main -->
<g id="node14" class="node"><title>main</title>
<polygon fill="#80b1d3" stroke="black" points="417.547,-592 363.547,-592 363.547,-525 417.547,-525 417.547,-592"/>
<text text-anchor="middle" x="390.547" y="-554.8" font-family="Times,serif" font-size="14.00">main</text>
</g>
<!-- main&#45;&gt;malloc -->
<g id="edge18" class="edge"><title>main&#45;&gt;malloc</title>
<path fill="none" stroke="black" d="M379.723,-524.756C373.349,-505.476 365.388,-481.395 359.393,-463.259"/>
<polygon fill="black" stroke="black" points="362.665,-462.004 356.203,-453.608 356.018,-464.201 362.665,-462.004"/>
</g>
<!-- main&#45;&gt;exit -->
<g id="edge17" class="edge"><title>main&#45;&gt;exit</title>
<path fill="none" stroke="black" d="M401.372,-524.756C407.784,-505.358 415.803,-481.101 421.811,-462.928"/>
<polygon fill="black" stroke="black" points="425.187,-463.865 425.003,-453.272 418.541,-461.668 425.187,-463.865"/>
</g>
<!-- main&#45;&gt;jatek -->
<g id="edge20" class="edge"><title>main&#45;&gt;jatek</title>
<path fill="none" stroke="black" d="M363.518,-538.585C346.168,-525.72 323.749,-507.693 306.547,-489 305.172,-487.506 303.809,-485.955 302.463,-484.365"/>
<polygon fill="black" stroke="black" points="304.878,-481.78 295.903,-476.15 299.408,-486.148 304.878,-481.78"/>
</g>
<!-- menu -->
<g id="node15" class="node"><title>menu</title>
<polygon fill="#fdb462" stroke="black" points="529.547,-489 475.547,-489 475.547,-382 529.547,-382 529.547,-489"/>
<text text-anchor="middle" x="502.547" y="-431.8" font-family="Times,serif" font-size="14.00">menu</text>
</g>
<!-- main&#45;&gt;menu -->
<g id="edge19" class="edge"><title>main&#45;&gt;menu</title>
<path fill="none" stroke="black" d="M417.67,-533.006C420.665,-530.304 423.67,-527.593 426.547,-525 444.313,-508.986 450.785,-506.989 466.547,-489 467.387,-488.042 468.224,-487.063 469.058,-486.068"/>
<polygon fill="black" stroke="black" points="471.848,-488.183 475.34,-478.18 466.372,-483.821 471.848,-488.183"/>
</g>
</g>
</svg>
