<?xml version="1.0" encoding="UTF-8" standalone="no"?>
<!DOCTYPE svg PUBLIC "-//W3C//DTD SVG 1.1//EN"
 "http://www.w3.org/Graphics/SVG/1.1/DTD/svg11.dtd">
<!-- Generated by graphviz version 2.38.0 (20140413.2041)
 -->
<!-- Title: %3 Pages: 1 -->
<svg width="1645pt" height="528pt"
 viewBox="0.00 0.00 1644.50 528.00" xmlns="http://www.w3.org/2000/svg" xmlns:xlink="http://www.w3.org/1999/xlink">
<g id="graph0" class="graph" transform="scale(1 1) rotate(0) translate(4 524)">
<title>%3</title>
<polygon fill="white" stroke="none" points="-4,4 -4,-524 1640.5,-524 1640.5,4 -4,4"/>
<!-- fopen -->
<g id="node1" class="node"><title>fopen</title>
<ellipse fill="#eeeeee" stroke="black" cx="485" cy="-227" rx="30.5947" ry="18"/>
<text text-anchor="middle" x="485" y="-223.3" font-family="Times,serif" font-size="14.00">fopen</text>
</g>
<!-- fclose -->
<g id="node2" class="node"><title>fclose</title>
<ellipse fill="#eeeeee" stroke="black" cx="405" cy="-227" rx="31.6951" ry="18"/>
<text text-anchor="middle" x="405" y="-223.3" font-family="Times,serif" font-size="14.00">fclose</text>
</g>
<!-- malloc -->
<g id="node3" class="node"><title>malloc</title>
<ellipse fill="#eeeeee" stroke="black" cx="791" cy="-18" rx="35.194" ry="18"/>
<text text-anchor="middle" x="791" y="-14.3" font-family="Times,serif" font-size="14.00">malloc</text>
</g>
<!-- free -->
<g id="node4" class="node"><title>free</title>
<ellipse fill="#eeeeee" stroke="black" cx="328" cy="-227" rx="27" ry="18"/>
<text text-anchor="middle" x="328" y="-223.3" font-family="Times,serif" font-size="14.00">free</text>
</g>
<!-- exit -->
<g id="node5" class="node"><title>exit</title>
<defs>
<radialGradient id="r_0" cx="50%" cy="50%" r="75%" fx="50%" fy="50%">
<stop offset="0" style="stop-color:white;stop-opacity:1.;"/>
<stop offset="1" style="stop-color:#eeeeee;stop-opacity:1.;"/>
</radialGradient>
</defs>
<ellipse fill="url(#r_0)" stroke="black" stroke-dasharray="5,2" cx="1027" cy="-478" rx="27" ry="18"/>
<text text-anchor="middle" x="1027" y="-474.3" font-family="Times,serif" font-size="14.00">exit</text>
</g>
<!-- megallo_beolvas -->
<g id="node6" class="node"><title>megallo_beolvas</title>
<polygon fill="#8dd3c7" stroke="black" points="626.5,-388.5 517.5,-388.5 517.5,-333.5 626.5,-333.5 626.5,-388.5"/>
<text text-anchor="middle" x="572" y="-357.3" font-family="Times,serif" font-size="14.00">stop_read</text>
</g>
<!-- megallo_beolvas&#45;&gt;fopen -->
<g id="edge1" class="edge"><title>megallo_beolvas&#45;&gt;fopen</title>
<path fill="none" stroke="black" d="M554.394,-333.288C538.877,-309.745 516.449,-275.716 501.327,-252.773"/>
<polygon fill="black" stroke="black" points="504.151,-250.696 495.725,-244.273 498.306,-254.548 504.151,-250.696"/>
</g>
<!-- megallo_beolvas&#45;&gt;fclose -->
<g id="edge6" class="edge"><title>megallo_beolvas&#45;&gt;fclose</title>
<path fill="none" stroke="black" d="M517.189,-334.872C493.375,-322.314 466.152,-305.599 445,-286 434.836,-276.582 425.835,-264.142 418.958,-253.199"/>
<polygon fill="black" stroke="black" points="421.854,-251.224 413.701,-244.458 415.855,-254.831 421.854,-251.224"/>
</g>
<!-- megallo_beolvas&#45;&gt;malloc -->
<g id="edge2" class="edge"><title>megallo_beolvas&#45;&gt;malloc</title>
<path fill="none" stroke="black" d="M626.66,-352.407C667.945,-343.665 722.532,-325.094 753,-286 781.789,-249.061 788.789,-106.81 790.473,-46.3937"/>
<polygon fill="black" stroke="black" points="793.979,-46.1931 790.73,-36.1089 786.982,-46.0184 793.979,-46.1931"/>
</g>
<!-- megallo_beolvas&#45;&gt;free -->
<g id="edge5" class="edge"><title>megallo_beolvas&#45;&gt;free</title>
<path fill="none" stroke="black" d="M517.117,-350.908C472.051,-341.162 408.608,-321.966 364,-286 353.404,-277.457 345.07,-264.907 339.101,-253.663"/>
<polygon fill="black" stroke="black" points="342.212,-252.059 334.645,-244.643 335.936,-255.159 342.212,-252.059"/>
</g>
<!-- megallo_hozzafuz -->
<g id="node10" class="node"><title>megallo_hozzafuz</title>
<polygon fill="#ffffb3" stroke="black" points="744,-247.5 628,-247.5 628,-206.5 744,-206.5 744,-247.5"/>
<text text-anchor="middle" x="686" y="-223.3" font-family="Times,serif" font-size="14.00">stop_append</text>
</g>
<!-- megallo_beolvas&#45;&gt;megallo_hozzafuz -->
<g id="edge4" class="edge"><title>megallo_beolvas&#45;&gt;megallo_hozzafuz</title>
<path fill="none" stroke="black" d="M595.07,-333.288C614.624,-310.645 642.556,-278.303 662.291,-255.453"/>
<polygon fill="black" stroke="black" points="665.015,-257.653 668.902,-247.797 659.717,-253.078 665.015,-257.653"/>
</g>
<!-- enter_torol -->
<g id="node11" class="node"><title>enter_torol</title>
<polygon fill="#ffffb3" stroke="black" points="610,-245.5 534,-245.5 534,-208.5 610,-208.5 610,-245.5"/>
<text text-anchor="middle" x="572" y="-223.3" font-family="Times,serif" font-size="14.00">enter_clear</text>
</g>
<!-- megallo_beolvas&#45;&gt;enter_torol -->
<g id="edge3" class="edge"><title>megallo_beolvas&#45;&gt;enter_torol</title>
<path fill="none" stroke="black" d="M572,-333.288C572,-310.786 572,-278.705 572,-255.88"/>
<polygon fill="black" stroke="black" points="575.5,-255.806 572,-245.806 568.5,-255.806 575.5,-255.806"/>
</g>
<!-- buszmegallo_beolvas -->
<g id="node7" class="node"><title>buszmegallo_beolvas</title>
<polygon fill="#8dd3c7" stroke="black" points="395,-400 261,-400 261,-322 395,-322 395,-400"/>
<text text-anchor="middle" x="328" y="-357.3" font-family="Times,serif" font-size="14.00">busstop_read</text>
</g>
<!-- buszmegallo_beolvas&#45;&gt;fopen -->
<g id="edge7" class="edge"><title>buszmegallo_beolvas&#45;&gt;fopen</title>
<path fill="none" stroke="black" d="M395.236,-324.584C412.845,-313.568 431.063,-300.469 446,-286 455.873,-276.436 464.645,-263.98 471.357,-253.063"/>
<polygon fill="black" stroke="black" points="474.429,-254.745 476.49,-244.352 468.398,-251.191 474.429,-254.745"/>
</g>
<!-- buszmegallo_beolvas&#45;&gt;fclose -->
<g id="edge13" class="edge"><title>buszmegallo_beolvas&#45;&gt;fclose</title>
<path fill="none" stroke="black" d="M350.272,-321.82C363.173,-299.703 379.051,-272.485 390.375,-253.072"/>
<polygon fill="black" stroke="black" points="393.52,-254.626 395.535,-244.225 387.473,-251.099 393.52,-254.626"/>
</g>
<!-- buszmegallo_beolvas&#45;&gt;malloc -->
<g id="edge8" class="edge"><title>buszmegallo_beolvas&#45;&gt;malloc</title>
<path fill="none" stroke="black" d="M305.111,-321.855C283.337,-280.068 258.466,-213.01 292,-168 347.599,-93.3741 636.452,-42.4182 747.469,-25.3203"/>
<polygon fill="black" stroke="black" points="748.285,-28.7366 757.644,-23.7717 747.231,-21.8163 748.285,-28.7366"/>
</g>
<!-- buszmegallo_beolvas&#45;&gt;free -->
<g id="edge14" class="edge"><title>buszmegallo_beolvas&#45;&gt;free</title>
<path fill="none" stroke="black" d="M328,-321.82C328,-300.59 328,-274.658 328,-255.442"/>
<polygon fill="black" stroke="black" points="331.5,-255.261 328,-245.261 324.5,-255.261 331.5,-255.261"/>
</g>
<!-- buszmegallo_beolvas&#45;&gt;enter_torol -->
<g id="edge9" class="edge"><title>buszmegallo_beolvas&#45;&gt;enter_torol</title>
<path fill="none" stroke="black" d="M395.268,-344.317C435.499,-332.707 486.174,-313.986 525,-286 536.863,-277.449 547.4,-265.168 555.474,-254.106"/>
<polygon fill="black" stroke="black" points="558.561,-255.798 561.4,-245.591 552.815,-251.8 558.561,-255.798"/>
</g>
<!-- busz_hozzafuz -->
<g id="node12" class="node"><title>busz_hozzafuz</title>
<polygon fill="#ffffb3" stroke="black" points="161.5,-247 64.5,-247 64.5,-207 161.5,-207 161.5,-247"/>
<text text-anchor="middle" x="113" y="-223.3" font-family="Times,serif" font-size="14.00">bus_append</text>
</g>
<!-- buszmegallo_beolvas&#45;&gt;busz_hozzafuz -->
<g id="edge10" class="edge"><title>buszmegallo_beolvas&#45;&gt;busz_hozzafuz</title>
<path fill="none" stroke="black" d="M260.937,-334.873C231.693,-322.365 197.812,-305.69 170,-286 157.483,-277.138 145.325,-265.353 135.475,-254.722"/>
<polygon fill="black" stroke="black" points="138.032,-252.331 128.739,-247.242 132.831,-257.015 138.032,-252.331"/>
</g>
<!-- buszmeg_hozzafusz -->
<g id="node13" class="node"><title>buszmeg_hozzafusz</title>
<polygon fill="#ffffb3" stroke="black" points="126,-124 0,-124 0,-80 126,-80 126,-124"/>
<text text-anchor="middle" x="63" y="-98.3" font-family="Times,serif" font-size="14.00">busstop_append</text>
</g>
<!-- buszmegallo_beolvas&#45;&gt;buszmeg_hozzafusz -->
<g id="edge12" class="edge"><title>buszmegallo_beolvas&#45;&gt;buszmeg_hozzafusz</title>
<path fill="none" stroke="black" d="M260.988,-351.195C188.499,-340.135 79.9142,-318.567 55,-286 21.4045,-242.086 37.1326,-173.411 50.6832,-133.864"/>
<polygon fill="black" stroke="black" points="54.0555,-134.829 54.1384,-124.234 47.4668,-132.464 54.0555,-134.829"/>
</g>
<!-- ketteoszt -->
<g id="node14" class="node"><title>ketteoszt</title>
<polygon fill="#ffffb3" stroke="black" points="244.5,-243 179.5,-243 179.5,-211 244.5,-211 244.5,-243"/>
<text text-anchor="middle" x="212" y="-223.3" font-family="Times,serif" font-size="14.00">divide</text>
</g>
<!-- buszmegallo_beolvas&#45;&gt;ketteoszt -->
<g id="edge11" class="edge"><title>buszmegallo_beolvas&#45;&gt;ketteoszt</title>
<path fill="none" stroke="black" d="M291.317,-321.674C280.723,-310.336 269.258,-297.797 259,-286 249.203,-274.733 238.705,-261.861 230.122,-251.11"/>
<polygon fill="black" stroke="black" points="232.656,-248.672 223.698,-243.014 227.172,-253.023 232.656,-248.672"/>
</g>
<!-- mrend_beolvas -->
<g id="node8" class="node"><title>mrend_beolvas</title>
<polygon fill="#8dd3c7" stroke="black" points="904,-393 804,-393 804,-329 904,-329 904,-393"/>
<text text-anchor="middle" x="854" y="-357.3" font-family="Times,serif" font-size="14.00">ttable_read</text>
</g>
<!-- mrend_beolvas&#45;&gt;fopen -->
<g id="edge15" class="edge"><title>mrend_beolvas&#45;&gt;fopen</title>
<path fill="none" stroke="black" d="M803.927,-350.821C717.661,-334.702 548.013,-301.547 525,-286 513.083,-277.949 503.676,-265.06 496.986,-253.475"/>
<polygon fill="black" stroke="black" points="500.023,-251.733 492.207,-244.58 493.857,-255.046 500.023,-251.733"/>
</g>
<!-- mrend_beolvas&#45;&gt;malloc -->
<g id="edge16" class="edge"><title>mrend_beolvas&#45;&gt;malloc</title>
<path fill="none" stroke="black" d="M888.302,-328.963C899.346,-316.784 910.216,-301.909 916,-286 933.919,-236.712 939.685,-214.791 916,-168 903.796,-143.889 885.198,-151.978 867,-132 846.058,-109.009 848.391,-97.7808 831,-72 824.453,-62.2955 816.807,-51.9506 809.963,-43.0004"/>
<polygon fill="black" stroke="black" points="812.595,-40.6827 803.709,-34.913 807.057,-44.9648 812.595,-40.6827"/>
</g>
<!-- mrend_beolvas&#45;&gt;enter_torol -->
<g id="edge17" class="edge"><title>mrend_beolvas&#45;&gt;enter_torol</title>
<path fill="none" stroke="black" d="M803.986,-352.911C753.72,-343.899 675.76,-324.617 619,-286 606.704,-277.634 595.988,-265.115 587.906,-253.846"/>
<polygon fill="black" stroke="black" points="590.782,-251.852 582.256,-245.563 584.999,-255.796 590.782,-251.852"/>
</g>
<!-- mrend_hozzafuz -->
<g id="node23" class="node"><title>mrend_hozzafuz</title>
<polygon fill="#ffffb3" stroke="black" points="907.5,-246.5 800.5,-246.5 800.5,-207.5 907.5,-207.5 907.5,-246.5"/>
<text text-anchor="middle" x="854" y="-223.3" font-family="Times,serif" font-size="14.00">ttable_append</text>
</g>
<!-- mrend_beolvas&#45;&gt;mrend_hozzafuz -->
<g id="edge18" class="edge"><title>mrend_beolvas&#45;&gt;mrend_hozzafuz</title>
<path fill="none" stroke="black" d="M854,-328.718C854,-306.934 854,-278.097 854,-256.863"/>
<polygon fill="black" stroke="black" points="857.5,-256.822 854,-246.823 850.5,-256.823 857.5,-256.822"/>
</g>
<!-- memfoglal -->
<g id="node9" class="node"><title>memfoglal</title>
<polygon fill="#ffffb3" stroke="black" points="705.5,-123.5 628.5,-123.5 628.5,-80.5 705.5,-80.5 705.5,-123.5"/>
<text text-anchor="middle" x="667" y="-98.3" font-family="Times,serif" font-size="14.00">memalloc</text>
</g>
<!-- memfoglal&#45;&gt;malloc -->
<g id="edge19" class="edge"><title>memfoglal&#45;&gt;malloc</title>
<path fill="none" stroke="black" d="M698.29,-80.3079C717.739,-67.447 742.58,-51.0195 761.653,-38.4068"/>
<polygon fill="black" stroke="black" points="763.826,-41.1661 770.236,-32.7307 759.965,-35.3273 763.826,-41.1661"/>
</g>
<!-- megallo_hozzafuz&#45;&gt;malloc -->
<g id="edge20" class="edge"><title>megallo_hozzafuz&#45;&gt;malloc</title>
<path fill="none" stroke="black" d="M694.359,-206.181C707.08,-176.496 732.524,-118.954 758,-72 763.064,-62.6663 769.085,-52.7144 774.589,-43.9845"/>
<polygon fill="black" stroke="black" points="777.636,-45.7166 780.076,-35.4065 771.739,-41.9448 777.636,-45.7166"/>
</g>
<!-- megallo_hozzafuz&#45;&gt;memfoglal -->
<g id="edge21" class="edge"><title>megallo_hozzafuz&#45;&gt;memfoglal</title>
<path fill="none" stroke="black" d="M682.947,-206.238C679.923,-186.657 675.247,-156.389 671.739,-133.681"/>
<polygon fill="black" stroke="black" points="675.157,-132.882 670.172,-123.533 668.24,-133.95 675.157,-132.882"/>
</g>
<!-- busz_hozzafuz&#45;&gt;malloc -->
<g id="edge22" class="edge"><title>busz_hozzafuz&#45;&gt;malloc</title>
<path fill="none" stroke="black" d="M124.405,-206.98C145.904,-173.081 195.978,-102.886 259,-72 344.285,-30.204 633.191,-21.3623 745.664,-19.4969"/>
<polygon fill="black" stroke="black" points="746.04,-22.9916 755.985,-19.3373 745.932,-15.9924 746.04,-22.9916"/>
</g>
<!-- busz_hozzafuz&#45;&gt;memfoglal -->
<g id="edge23" class="edge"><title>busz_hozzafuz&#45;&gt;memfoglal</title>
<path fill="none" stroke="black" d="M126.386,-206.775C136.699,-193.568 152.181,-176.874 170,-168 248.101,-129.103 508.803,-111.26 618.112,-105.354"/>
<polygon fill="black" stroke="black" points="618.406,-108.844 628.206,-104.819 618.035,-101.853 618.406,-108.844"/>
</g>
<!-- buszmeg_hozzafusz&#45;&gt;malloc -->
<g id="edge24" class="edge"><title>buszmeg_hozzafusz&#45;&gt;malloc</title>
<path fill="none" stroke="black" d="M126.32,-85.2503C147.704,-80.3952 171.785,-75.4303 194,-72 398.847,-40.369 646.373,-25.8733 746.127,-20.9981"/>
<polygon fill="black" stroke="black" points="746.333,-24.4923 756.154,-20.5163 745.997,-17.5003 746.333,-24.4923"/>
</g>
<!-- csupasz_szoveg -->
<g id="node15" class="node"><title>csupasz_szoveg</title>
<polygon fill="#ffffb3" stroke="black" points="979.5,-132 876.5,-132 876.5,-72 979.5,-72 979.5,-132"/>
<text text-anchor="middle" x="928" y="-98.3" font-family="Times,serif" font-size="14.00">raw_text</text>
</g>
<!-- csupasz_szoveg&#45;&gt;malloc -->
<g id="edge25" class="edge"><title>csupasz_szoveg&#45;&gt;malloc</title>
<path fill="none" stroke="black" d="M879.313,-71.859C860.235,-60.4398 838.913,-47.6778 822,-37.5546"/>
<polygon fill="black" stroke="black" points="823.477,-34.36 813.099,-32.2274 819.882,-40.3663 823.477,-34.36"/>
</g>
<!-- megallo_idje -->
<g id="node16" class="node"><title>megallo_idje</title>
<polygon fill="#ffffb3" stroke="black" points="1052,-245.5 964,-245.5 964,-208.5 1052,-208.5 1052,-245.5"/>
<text text-anchor="middle" x="1008" y="-223.3" font-family="Times,serif" font-size="14.00">stop_id</text>
</g>
<!-- megallo_idje&#45;&gt;csupasz_szoveg -->
<g id="edge26" class="edge"><title>megallo_idje&#45;&gt;csupasz_szoveg</title>
<path fill="none" stroke="black" d="M996.538,-208.377C985.172,-190.902 967.391,-163.564 952.788,-141.112"/>
<polygon fill="black" stroke="black" points="955.55,-138.939 947.164,-132.464 949.682,-142.755 955.55,-138.939"/>
</g>
<!-- atszallas_hozzafuz_vissza -->
<g id="node17" class="node"><title>atszallas_hozzafuz_vissza</title>
<polygon fill="#ffffb3" stroke="black" points="1292,-120.5 1134,-120.5 1134,-83.5 1292,-83.5 1292,-120.5"/>
<text text-anchor="middle" x="1213" y="-98.3" font-family="Times,serif" font-size="14.00">change_append_back</text>
</g>
<!-- atszallas_hozzafuz_vissza&#45;&gt;malloc -->
<g id="edge27" class="edge"><title>atszallas_hozzafuz_vissza&#45;&gt;malloc</title>
<path fill="none" stroke="black" d="M1164.53,-83.4784C1151.79,-79.3002 1137.98,-75.1458 1125,-72 1022.58,-47.1679 899.57,-31.1013 835.206,-23.7169"/>
<polygon fill="black" stroke="black" points="835.346,-20.2104 825.016,-22.5643 834.559,-27.1661 835.346,-20.2104"/>
</g>
<!-- atszallas_hozzafuz -->
<g id="node18" class="node"><title>atszallas_hozzafuz</title>
<polygon fill="#ffffb3" stroke="black" points="1116,-124.5 998,-124.5 998,-79.5 1116,-79.5 1116,-124.5"/>
<text text-anchor="middle" x="1057" y="-98.3" font-family="Times,serif" font-size="14.00">change_append</text>
</g>
<!-- atszallas_hozzafuz&#45;&gt;malloc -->
<g id="edge28" class="edge"><title>atszallas_hozzafuz&#45;&gt;malloc</title>
<path fill="none" stroke="black" d="M1007.94,-79.4283C1001.29,-76.7858 994.515,-74.2339 988,-72 935.144,-53.8753 872.616,-37.961 832.412,-28.4164"/>
<polygon fill="black" stroke="black" points="832.977,-24.9539 822.441,-26.0714 831.374,-31.768 832.977,-24.9539"/>
</g>
<!-- atszall_fv -->
<g id="node19" class="node"><title>atszall_fv</title>
<polygon fill="#ffffb3" stroke="black" points="1139.5,-260 1070.5,-260 1070.5,-194 1139.5,-194 1139.5,-260"/>
<text text-anchor="middle" x="1105" y="-223.3" font-family="Times,serif" font-size="14.00">change_func</text>
</g>
<!-- atszall_fv&#45;&gt;atszallas_hozzafuz_vissza -->
<g id="edge29" class="edge"><title>atszall_fv&#45;&gt;atszallas_hozzafuz_vissza</title>
<path fill="none" stroke="black" d="M1133.38,-193.683C1151.31,-173.255 1174.16,-147.235 1190.78,-128.311"/>
<polygon fill="black" stroke="black" points="1193.52,-130.496 1197.48,-120.672 1188.26,-125.877 1193.52,-130.496"/>
</g>
<!-- atszall_fv&#45;&gt;atszallas_hozzafuz -->
<g id="edge30" class="edge"><title>atszall_fv&#45;&gt;atszallas_hozzafuz</title>
<path fill="none" stroke="black" d="M1092.39,-193.683C1085.22,-175.306 1076.28,-152.403 1069.18,-134.212"/>
<polygon fill="black" stroke="black" points="1072.34,-132.693 1065.45,-124.649 1065.82,-135.238 1072.34,-132.693"/>
</g>
<!-- mennyi_ido -->
<g id="node20" class="node"><title>mennyi_ido</title>
<polygon fill="#ffffb3" stroke="black" points="1392,-122.5 1310,-122.5 1310,-81.5 1392,-81.5 1392,-122.5"/>
<text text-anchor="middle" x="1351" y="-98.3" font-family="Times,serif" font-size="14.00">how_long</text>
</g>
<!-- indexe -->
<g id="node21" class="node"><title>indexe</title>
<polygon fill="#ffffb3" stroke="black" points="1464,-117.5 1410,-117.5 1410,-86.5 1464,-86.5 1464,-117.5"/>
<text text-anchor="middle" x="1437" y="-98.3" font-family="Times,serif" font-size="14.00">index</text>
</g>
<!-- melyik_megallo -->
<g id="node22" class="node"><title>melyik_megallo</title>
<polygon fill="#ffffb3" stroke="black" points="1588,-117.5 1482,-117.5 1482,-86.5 1588,-86.5 1588,-117.5"/>
<text text-anchor="middle" x="1535" y="-98.3" font-family="Times,serif" font-size="14.00">which_stop</text>
</g>
<!-- mrend_hozzafuz&#45;&gt;malloc -->
<g id="edge31" class="edge"><title>mrend_hozzafuz&#45;&gt;malloc</title>
<path fill="none" stroke="black" d="M848.298,-207.265C837.077,-170.397 812.097,-88.3202 799.143,-45.757"/>
<polygon fill="black" stroke="black" points="802.459,-44.6297 796.199,-36.082 795.762,-46.6679 802.459,-44.6297"/>
</g>
<!-- mrend_hozzafuz&#45;&gt;memfoglal -->
<g id="edge32" class="edge"><title>mrend_hozzafuz&#45;&gt;memfoglal</title>
<path fill="none" stroke="black" d="M825.599,-207.319C793.951,-186.502 742.548,-152.692 706.877,-129.229"/>
<polygon fill="black" stroke="black" points="708.446,-126.072 698.168,-123.501 704.599,-131.92 708.446,-126.072"/>
</g>
<!-- main -->
<g id="node24" class="node"><title>main</title>
<polygon fill="#bebada" stroke="black" points="982,-520 928,-520 928,-436 982,-436 982,-520"/>
<text text-anchor="middle" x="955" y="-474.3" font-family="Times,serif" font-size="14.00">main</text>
</g>
<!-- main&#45;&gt;megallo_beolvas -->
<g id="edge33" class="edge"><title>main&#45;&gt;megallo_beolvas</title>
<path fill="none" stroke="black" d="M927.763,-468.822C867.514,-450.731 721.563,-406.908 636.497,-381.366"/>
<polygon fill="black" stroke="black" points="637.272,-377.944 626.688,-378.421 635.259,-384.649 637.272,-377.944"/>
</g>
<!-- main&#45;&gt;buszmegallo_beolvas -->
<g id="edge34" class="edge"><title>main&#45;&gt;buszmegallo_beolvas</title>
<path fill="none" stroke="black" d="M927.979,-472.708C858.277,-461.557 666.741,-430.417 508,-400 474.317,-393.546 437.222,-385.82 405.503,-379.026"/>
<polygon fill="black" stroke="black" points="405.917,-375.535 395.405,-376.855 404.446,-382.379 405.917,-375.535"/>
</g>
<!-- main&#45;&gt;mrend_beolvas -->
<g id="edge35" class="edge"><title>main&#45;&gt;mrend_beolvas</title>
<path fill="none" stroke="black" d="M927.934,-446.182C915.693,-432.245 901.092,-415.62 888.112,-400.84"/>
<polygon fill="black" stroke="black" points="890.721,-398.507 881.492,-393.303 885.462,-403.126 890.721,-398.507"/>
</g>
<!-- main&#45;&gt;melyik_megallo -->
<g id="edge36" class="edge"><title>main&#45;&gt;melyik_megallo</title>
<path fill="none" stroke="black" d="M982.257,-442.658C985.041,-440.204 987.967,-437.938 991,-436 1038.64,-405.56 1059.36,-417.85 1113,-400 1251.1,-354.043 1307.07,-377.819 1420,-286 1473.99,-242.106 1510.1,-165.787 1525.91,-127.045"/>
<polygon fill="black" stroke="black" points="1529.22,-128.195 1529.66,-117.61 1522.71,-125.61 1529.22,-128.195"/>
</g>
<!-- utvonaltervezo -->
<g id="node25" class="node"><title>utvonaltervezo</title>
<polygon fill="#fb8072" stroke="black" points="1104.5,-399 1007.5,-399 1007.5,-323 1104.5,-323 1104.5,-399"/>
<text text-anchor="middle" x="1056" y="-357.3" font-family="Times,serif" font-size="14.00">planner</text>
</g>
<!-- main&#45;&gt;utvonaltervezo -->
<g id="edge38" class="edge"><title>main&#45;&gt;utvonaltervezo</title>
<path fill="none" stroke="black" d="M982.066,-446.182C992.715,-434.058 1005.15,-419.9 1016.75,-406.691"/>
<polygon fill="black" stroke="black" points="1019.49,-408.87 1023.46,-399.047 1014.23,-404.251 1019.49,-408.87"/>
</g>
<!-- mrend_kiir -->
<g id="node27" class="node"><title>mrend_kiir</title>
<polygon fill="#fb8072" stroke="black" points="1636.5,-389 1559.5,-389 1559.5,-333 1636.5,-333 1636.5,-389"/>
<text text-anchor="middle" x="1598" y="-357.3" font-family="Times,serif" font-size="14.00">ttable_print</text>
</g>
<!-- main&#45;&gt;mrend_kiir -->
<g id="edge37" class="edge"><title>main&#45;&gt;mrend_kiir</title>
<path fill="none" stroke="black" d="M982.294,-441.557C985.036,-439.412 987.944,-437.513 991,-436 1094.61,-384.701 1397.66,-427.306 1510,-400 1523.27,-396.774 1537.08,-391.71 1549.72,-386.319"/>
<polygon fill="black" stroke="black" points="1551.39,-389.404 1559.12,-382.157 1548.56,-383.003 1551.39,-389.404"/>
</g>
<!-- utvonaltervezo&#45;&gt;megallo_idje -->
<g id="edge39" class="edge"><title>utvonaltervezo&#45;&gt;megallo_idje</title>
<path fill="none" stroke="black" d="M1042.5,-322.879C1034.66,-301.321 1024.96,-274.641 1017.84,-255.07"/>
<polygon fill="black" stroke="black" points="1021.09,-253.75 1014.38,-245.548 1014.51,-256.142 1021.09,-253.75"/>
</g>
<!-- utvonaltervezo&#45;&gt;atszall_fv -->
<g id="edge40" class="edge"><title>utvonaltervezo&#45;&gt;atszall_fv</title>
<path fill="none" stroke="black" d="M1069.78,-322.879C1075.88,-306.433 1083.1,-287.007 1089.4,-270.03"/>
<polygon fill="black" stroke="black" points="1092.79,-270.951 1092.99,-260.358 1086.23,-268.515 1092.79,-270.951"/>
</g>
<!-- utvonal_kiir -->
<g id="node26" class="node"><title>utvonal_kiir</title>
<polygon fill="#fb8072" stroke="black" points="1410.5,-286 1327.5,-286 1327.5,-168 1410.5,-168 1410.5,-286"/>
<text text-anchor="middle" x="1369" y="-223.3" font-family="Times,serif" font-size="14.00">journey_print</text>
</g>
<!-- utvonaltervezo&#45;&gt;utvonal_kiir -->
<g id="edge41" class="edge"><title>utvonaltervezo&#45;&gt;utvonal_kiir</title>
<path fill="none" stroke="black" d="M1104.56,-339.52C1162.47,-315.1 1258.81,-274.469 1317.84,-249.576"/>
<polygon fill="black" stroke="black" points="1319.48,-252.681 1327.34,-245.57 1316.76,-246.231 1319.48,-252.681"/>
</g>
<!-- utvonal_kiir&#45;&gt;mennyi_ido -->
<g id="edge43" class="edge"><title>utvonal_kiir&#45;&gt;mennyi_ido</title>
<path fill="none" stroke="black" d="M1360.47,-167.742C1358.69,-155.541 1356.88,-143.169 1355.32,-132.554"/>
<polygon fill="black" stroke="black" points="1358.78,-131.985 1353.87,-122.597 1351.85,-132.998 1358.78,-131.985"/>
</g>
<!-- utvonal_kiir&#45;&gt;indexe -->
<g id="edge42" class="edge"><title>utvonal_kiir&#45;&gt;indexe</title>
<path fill="none" stroke="black" d="M1401.21,-167.742C1409.25,-153.189 1417.43,-138.393 1423.94,-126.626"/>
<polygon fill="black" stroke="black" points="1427.19,-127.971 1428.97,-117.526 1421.07,-124.585 1427.19,-127.971"/>
</g>
<!-- utvonal_kiir&#45;&gt;melyik_megallo -->
<g id="edge44" class="edge"><title>utvonal_kiir&#45;&gt;melyik_megallo</title>
<path fill="none" stroke="black" d="M1410.89,-194.962C1441.05,-172.614 1480.9,-143.087 1507.21,-123.593"/>
<polygon fill="black" stroke="black" points="1509.29,-126.404 1515.24,-117.638 1505.13,-120.78 1509.29,-126.404"/>
</g>
<!-- mrend_kiir&#45;&gt;malloc -->
<g id="edge45" class="edge"><title>mrend_kiir&#45;&gt;malloc</title>
<path fill="none" stroke="black" d="M1608.61,-332.597C1628.68,-275.634 1664.45,-143.782 1597,-72 1544.76,-16.4069 999.006,-17.0293 836.444,-18.4671"/>
<polygon fill="black" stroke="black" points="836.267,-14.9685 826.3,-18.5624 836.332,-21.9682 836.267,-14.9685"/>
</g>
</g>
</svg>
