<?xml version="1.0" encoding="UTF-8" standalone="no"?>
<!DOCTYPE svg PUBLIC "-//W3C//DTD SVG 1.1//EN"
 "http://www.w3.org/Graphics/SVG/1.1/DTD/svg11.dtd">
<!-- Generated by graphviz version 2.38.0 (20140413.2041)
 -->
<!-- Title: %3 Pages: 1 -->
<svg width="424pt" height="402pt"
 viewBox="0.00 0.00 423.94 402.00" xmlns="http://www.w3.org/2000/svg" xmlns:xlink="http://www.w3.org/1999/xlink">
<g id="graph0" class="graph" transform="scale(1 1) rotate(0) translate(4 398)">
<title>%3</title>
<polygon fill="white" stroke="none" points="-4,4 -4,-398 419.944,-398 419.944,4 -4,4"/>
<!-- fopen -->
<g id="node1" class="node"><title>fopen</title>
<ellipse fill="#eeeeee" stroke="black" cx="304.097" cy="-18" rx="30.5947" ry="18"/>
<text text-anchor="middle" x="304.097" y="-14.3" font-family="Times,serif" font-size="14.00">fopen</text>
</g>
<!-- fclose -->
<g id="node2" class="node"><title>fclose</title>
<ellipse fill="#eeeeee" stroke="black" cx="384.097" cy="-18" rx="31.6951" ry="18"/>
<text text-anchor="middle" x="384.097" y="-14.3" font-family="Times,serif" font-size="14.00">fclose</text>
</g>
<!-- malloc -->
<g id="node3" class="node"><title>malloc</title>
<ellipse fill="#eeeeee" stroke="black" cx="35.0969" cy="-99.5" rx="35.194" ry="18"/>
<text text-anchor="middle" x="35.0969" y="-95.8" font-family="Times,serif" font-size="14.00">malloc</text>
</g>
<!-- free -->
<g id="node4" class="node"><title>free</title>
<ellipse fill="#eeeeee" stroke="black" cx="115.097" cy="-99.5" rx="27" ry="18"/>
<text text-anchor="middle" x="115.097" y="-95.8" font-family="Times,serif" font-size="14.00">free</text>
</g>
<!-- exit -->
<g id="node5" class="node"><title>exit</title>
<defs>
<radialGradient id="r_0" cx="50%" cy="50%" r="75%" fx="50%" fy="50%">
<stop offset="0" style="stop-color:white;stop-opacity:1.;"/>
<stop offset="1" style="stop-color:#eeeeee;stop-opacity:1.;"/>
</radialGradient>
</defs>
<ellipse fill="url(#r_0)" stroke="black" stroke-dasharray="5,2" cx="262.097" cy="-278.5" rx="27" ry="18"/>
<text text-anchor="middle" x="262.097" y="-274.8" font-family="Times,serif" font-size="14.00">exit</text>
</g>
<!-- kezdfejl -->
<g id="node6" class="node"><title>kezdfejl</title>
<polygon fill="#8dd3c7" stroke="black" points="220.097,-111 160.097,-111 160.097,-88 220.097,-88 220.097,-111"/>
<text text-anchor="middle" x="190.097" y="-95.8" font-family="Times,serif" font-size="14.00">start</text>
</g>
<!-- ujjatek -->
<g id="node7" class="node"><title>ujjatek</title>
<polygon fill="#8dd3c7" stroke="black" points="292.097,-119 238.097,-119 238.097,-80 292.097,-80 292.097,-119"/>
<text text-anchor="middle" x="265.097" y="-95.8" font-family="Times,serif" font-size="14.00">newgame</text>
</g>
<!-- eredment -->
<g id="node8" class="node"><title>eredment</title>
<polygon fill="#8dd3c7" stroke="black" points="378.097,-127 310.097,-127 310.097,-72 378.097,-72 378.097,-127"/>
<text text-anchor="middle" x="344.097" y="-95.8" font-family="Times,serif" font-size="14.00">saveresult</text>
</g>
<!-- eredment&#45;&gt;fopen -->
<g id="edge1" class="edge"><title>eredment&#45;&gt;fopen</title>
<path fill="none" stroke="black" d="M330.555,-71.5849C326.207,-62.9445 321.404,-53.3978 317.096,-44.8365"/>
<polygon fill="black" stroke="black" points="320.116,-43.0499 312.494,-35.69 313.862,-46.1962 320.116,-43.0499"/>
</g>
<!-- eredment&#45;&gt;fclose -->
<g id="edge2" class="edge"><title>eredment&#45;&gt;fclose</title>
<path fill="none" stroke="black" d="M357.639,-71.5849C361.986,-62.9445 366.79,-53.3978 371.097,-44.8365"/>
<polygon fill="black" stroke="black" points="374.331,-46.1962 375.699,-35.69 368.078,-43.0499 374.331,-46.1962"/>
</g>
<!-- main -->
<g id="node9" class="node"><title>main</title>
<polygon fill="#ffffb3" stroke="black" points="217.097,-394 163.097,-394 163.097,-163 217.097,-163 217.097,-394"/>
<text text-anchor="middle" x="190.097" y="-274.8" font-family="Times,serif" font-size="14.00">main</text>
</g>
<!-- main&#45;&gt;malloc -->
<g id="edge4" class="edge"><title>main&#45;&gt;malloc</title>
<path fill="none" stroke="black" d="M162.743,-246.263C132.107,-211.28 83.1513,-155.375 55.6225,-123.939"/>
<polygon fill="black" stroke="black" points="58.0053,-121.347 48.7841,-116.13 52.7391,-125.959 58.0053,-121.347"/>
</g>
<!-- main&#45;&gt;free -->
<g id="edge5" class="edge"><title>main&#45;&gt;free</title>
<path fill="none" stroke="black" d="M163.02,-213.599C150.301,-183.581 135.844,-149.462 126.165,-126.621"/>
<polygon fill="black" stroke="black" points="129.328,-125.113 122.203,-117.271 122.882,-127.844 129.328,-125.113"/>
</g>
<!-- main&#45;&gt;kezdfejl -->
<g id="edge3" class="edge"><title>main&#45;&gt;kezdfejl</title>
<path fill="none" stroke="black" d="M190.097,-162.904C190.097,-147.119 190.097,-132.551 190.097,-121.467"/>
<polygon fill="black" stroke="black" points="193.597,-121.273 190.097,-111.273 186.597,-121.273 193.597,-121.273"/>
</g>
<!-- main&#45;&gt;ujjatek -->
<g id="edge7" class="edge"><title>main&#45;&gt;ujjatek</title>
<path fill="none" stroke="black" d="M217.098,-184.558C219.913,-177.176 222.918,-169.909 226.097,-163 231.652,-150.927 239.123,-138.358 246.039,-127.685"/>
<polygon fill="black" stroke="black" points="249.045,-129.484 251.663,-119.218 243.215,-125.611 249.045,-129.484"/>
</g>
<!-- main&#45;&gt;eredment -->
<g id="edge6" class="edge"><title>main&#45;&gt;eredment</title>
<path fill="none" stroke="black" d="M217.138,-175.143C219.845,-170.857 222.822,-166.78 226.097,-163 250.309,-135.055 268.647,-144.724 301.097,-127 301.188,-126.95 301.28,-126.9 301.371,-126.85"/>
<polygon fill="black" stroke="black" points="303.047,-129.923 310.02,-121.947 299.595,-123.834 303.047,-129.923"/>
</g>
</g>
</svg>
