<?xml version="1.0" encoding="UTF-8" standalone="no"?>
<!DOCTYPE svg PUBLIC "-//W3C//DTD SVG 1.1//EN"
 "http://www.w3.org/Graphics/SVG/1.1/DTD/svg11.dtd">
<!-- Generated by graphviz version 2.38.0 (20140413.2041)
 -->
<!-- Title: %3 Pages: 1 -->
<svg width="947pt" height="463pt"
 viewBox="0.00 0.00 946.50 463.00" xmlns="http://www.w3.org/2000/svg" xmlns:xlink="http://www.w3.org/1999/xlink">
<g id="graph0" class="graph" transform="scale(1 1) rotate(0) translate(4 459)">
<title>%3</title>
<polygon fill="white" stroke="none" points="-4,4 -4,-459 942.5,-459 942.5,4 -4,4"/>
<!-- fopen -->
<g id="node1" class="node"><title>fopen</title>
<ellipse fill="#eeeeee" stroke="black" cx="233" cy="-18" rx="30.5947" ry="18"/>
<text text-anchor="middle" x="233" y="-14.3" font-family="Times,serif" font-size="14.00">fopen</text>
</g>
<!-- fclose -->
<g id="node2" class="node"><title>fclose</title>
<ellipse fill="#eeeeee" stroke="black" cx="116" cy="-18" rx="31.6951" ry="18"/>
<text text-anchor="middle" x="116" y="-14.3" font-family="Times,serif" font-size="14.00">fclose</text>
</g>
<!-- malloc -->
<g id="node3" class="node"><title>malloc</title>
<ellipse fill="#eeeeee" stroke="black" cx="352" cy="-18" rx="35.194" ry="18"/>
<text text-anchor="middle" x="352" y="-14.3" font-family="Times,serif" font-size="14.00">malloc</text>
</g>
<!-- free -->
<g id="node4" class="node"><title>free</title>
<ellipse fill="#eeeeee" stroke="black" cx="521" cy="-105" rx="27" ry="18"/>
<text text-anchor="middle" x="521" y="-101.3" font-family="Times,serif" font-size="14.00">free</text>
</g>
<!-- exit -->
<g id="node5" class="node"><title>exit</title>
<defs>
<radialGradient id="r_0" cx="50%" cy="50%" r="75%" fx="50%" fy="50%">
<stop offset="0" style="stop-color:white;stop-opacity:1.;"/>
<stop offset="1" style="stop-color:#eeeeee;stop-opacity:1.;"/>
</radialGradient>
</defs>
<ellipse fill="url(#r_0)" stroke="black" stroke-dasharray="5,2" cx="528" cy="-429.5" rx="27" ry="18"/>
<text text-anchor="middle" x="528" y="-425.8" font-family="Times,serif" font-size="14.00">exit</text>
</g>
<!-- egesz_olvas -->
<g id="node6" class="node"><title>egesz_olvas</title>
<polygon fill="#8dd3c7" stroke="black" points="428,-128 346,-128 346,-82 428,-82 428,-128"/>
<text text-anchor="middle" x="387" y="-101.3" font-family="Times,serif" font-size="14.00">int_read</text>
</g>
<!-- egesz_olvas&#45;&gt;fopen -->
<g id="edge1" class="edge"><title>egesz_olvas&#45;&gt;fopen</title>
<path fill="none" stroke="black" d="M346.94,-81.8891C320.977,-67.5588 287.671,-49.1753 263.783,-35.9908"/>
<polygon fill="black" stroke="black" points="265.254,-32.8049 254.808,-31.0368 261.871,-38.9334 265.254,-32.8049"/>
</g>
<!-- egesz_olvas&#45;&gt;malloc -->
<g id="edge2" class="edge"><title>egesz_olvas&#45;&gt;malloc</title>
<path fill="none" stroke="black" d="M377.804,-81.6673C373.184,-70.4463 367.558,-56.7838 362.74,-45.0829"/>
<polygon fill="black" stroke="black" points="365.967,-43.7264 358.923,-35.8123 359.494,-46.3917 365.967,-43.7264"/>
</g>
<!-- egesz_fajl_adatok -->
<g id="node7" class="node"><title>egesz_fajl_adatok</title>
<polygon fill="#8dd3c7" stroke="black" points="290,-123.5 176,-123.5 176,-86.5 290,-86.5 290,-123.5"/>
<text text-anchor="middle" x="233" y="-101.3" font-family="Times,serif" font-size="14.00">int_file_data</text>
</g>
<!-- egesz_fajl_adatok&#45;&gt;fopen -->
<g id="edge3" class="edge"><title>egesz_fajl_adatok&#45;&gt;fopen</title>
<path fill="none" stroke="black" d="M233,-86.3879C233,-74.839 233,-59.5044 233,-46.3812"/>
<polygon fill="black" stroke="black" points="236.5,-46.0094 233,-36.0095 229.5,-46.0095 236.5,-46.0094"/>
</g>
<!-- egesz_fajl_adatok&#45;&gt;fclose -->
<g id="edge4" class="edge"><title>egesz_fajl_adatok&#45;&gt;fclose</title>
<path fill="none" stroke="black" d="M208.758,-86.3879C189.633,-72.4943 162.967,-53.1217 143.133,-38.7118"/>
<polygon fill="black" stroke="black" points="144.97,-35.7204 134.822,-32.6744 140.856,-41.3837 144.97,-35.7204"/>
</g>
<!-- idopont_olvas -->
<g id="node8" class="node"><title>idopont_olvas</title>
<polygon fill="#8dd3c7" stroke="black" points="502.5,-239 409.5,-239 409.5,-184 502.5,-184 502.5,-239"/>
<text text-anchor="middle" x="456" y="-207.8" font-family="Times,serif" font-size="14.00">time_read</text>
</g>
<!-- idopont_olvas&#45;&gt;malloc -->
<g id="edge7" class="edge"><title>idopont_olvas&#45;&gt;malloc</title>
<path fill="none" stroke="black" d="M458.713,-183.988C460.399,-154.302 458.969,-105.916 437,-72 425.752,-54.6353 406.601,-41.9639 389.322,-33.3738"/>
<polygon fill="black" stroke="black" points="390.52,-30.0705 379.977,-29.0176 387.562,-36.415 390.52,-30.0705"/>
</g>
<!-- idopont_olvas&#45;&gt;free -->
<g id="edge8" class="edge"><title>idopont_olvas&#45;&gt;free</title>
<path fill="none" stroke="black" d="M472.57,-183.86C482.758,-167.482 495.719,-146.644 505.669,-130.647"/>
<polygon fill="black" stroke="black" points="508.826,-132.199 511.136,-121.859 502.882,-128.502 508.826,-132.199"/>
</g>
<!-- idopont_olvas&#45;&gt;egesz_olvas -->
<g id="edge6" class="edge"><title>idopont_olvas&#45;&gt;egesz_olvas</title>
<path fill="none" stroke="black" d="M438.41,-183.86C428.864,-169.403 417.024,-151.47 407.113,-136.461"/>
<polygon fill="black" stroke="black" points="409.963,-134.426 401.532,-128.009 404.122,-138.283 409.963,-134.426"/>
</g>
<!-- idopont_olvas&#45;&gt;egesz_fajl_adatok -->
<g id="edge5" class="edge"><title>idopont_olvas&#45;&gt;egesz_fajl_adatok</title>
<path fill="none" stroke="black" d="M409.252,-188.593C371.222,-170.772 317.813,-145.744 279.776,-127.92"/>
<polygon fill="black" stroke="black" points="280.996,-124.626 270.456,-123.552 278.026,-130.965 280.996,-124.626"/>
</g>
<!-- idopont_hozzaad -->
<g id="node9" class="node"><title>idopont_hozzaad</title>
<polygon fill="#8dd3c7" stroke="black" points="668.5,-228.5 559.5,-228.5 559.5,-194.5 668.5,-194.5 668.5,-228.5"/>
<text text-anchor="middle" x="614" y="-207.8" font-family="Times,serif" font-size="14.00">time_add</text>
</g>
<!-- jszamlista_letrehoz -->
<g id="node10" class="node"><title>jszamlista_letrehoz</title>
<polygon fill="#8dd3c7" stroke="black" points="353,-237.5 231,-237.5 231,-185.5 353,-185.5 353,-237.5"/>
<text text-anchor="middle" x="292" y="-207.8" font-family="Times,serif" font-size="14.00">numbers_create</text>
</g>
<!-- jszamlista_letrehoz&#45;&gt;malloc -->
<g id="edge11" class="edge"><title>jszamlista_letrehoz&#45;&gt;malloc</title>
<path fill="none" stroke="black" d="M299.844,-185.465C311.197,-149.23 332.114,-82.4699 343.711,-45.4562"/>
<polygon fill="black" stroke="black" points="347.069,-46.4444 346.719,-35.8553 340.389,-44.3514 347.069,-46.4444"/>
</g>
<!-- jszamlista_letrehoz&#45;&gt;free -->
<g id="edge12" class="edge"><title>jszamlista_letrehoz&#45;&gt;free</title>
<path fill="none" stroke="black" d="M346.851,-185.47C391.672,-165.017 453.411,-136.843 490.065,-120.117"/>
<polygon fill="black" stroke="black" points="491.616,-123.256 499.26,-115.921 488.71,-116.888 491.616,-123.256"/>
</g>
<!-- jszamlista_letrehoz&#45;&gt;egesz_olvas -->
<g id="edge10" class="edge"><title>jszamlista_letrehoz&#45;&gt;egesz_olvas</title>
<path fill="none" stroke="black" d="M314.755,-185.47C328.341,-170.525 345.674,-151.459 359.956,-135.748"/>
<polygon fill="black" stroke="black" points="362.556,-138.092 366.693,-128.338 357.376,-133.383 362.556,-138.092"/>
</g>
<!-- jszamlista_letrehoz&#45;&gt;egesz_fajl_adatok -->
<g id="edge9" class="edge"><title>jszamlista_letrehoz&#45;&gt;egesz_fajl_adatok</title>
<path fill="none" stroke="black" d="M277.868,-185.47C268.863,-169.519 257.206,-148.874 248.032,-132.624"/>
<polygon fill="black" stroke="black" points="250.92,-130.62 242.955,-123.633 244.824,-134.062 250.92,-130.62"/>
</g>
<!-- mlista_letrehoz_megallok -->
<g id="node11" class="node"><title>mlista_letrehoz_megallok</title>
<polygon fill="#8dd3c7" stroke="black" points="158,-138 1.42109e-14,-138 1.42109e-14,-72 158,-72 158,-138"/>
<text text-anchor="middle" x="79" y="-101.3" font-family="Times,serif" font-size="14.00">slist_create_stop</text>
</g>
<!-- mlista_letrehoz_megallok&#45;&gt;fopen -->
<g id="edge13" class="edge"><title>mlista_letrehoz_megallok&#45;&gt;fopen</title>
<path fill="none" stroke="black" d="M137.221,-71.8651C159.372,-59.6389 183.731,-46.1938 202.34,-35.9225"/>
<polygon fill="black" stroke="black" points="204.178,-38.9059 211.242,-31.0094 200.796,-32.7775 204.178,-38.9059"/>
</g>
<!-- mlista_letrehoz_megallok&#45;&gt;fclose -->
<g id="edge15" class="edge"><title>mlista_letrehoz_megallok&#45;&gt;fclose</title>
<path fill="none" stroke="black" d="M92.9881,-71.8651C96.8124,-63.0796 100.911,-53.6648 104.573,-45.2504"/>
<polygon fill="black" stroke="black" points="107.848,-46.4958 108.631,-35.9299 101.43,-43.7019 107.848,-46.4958"/>
</g>
<!-- mlista_letrehoz_megallok&#45;&gt;malloc -->
<g id="edge14" class="edge"><title>mlista_letrehoz_megallok&#45;&gt;malloc</title>
<path fill="none" stroke="black" d="M158.064,-74.9548C161.076,-73.9421 164.062,-72.9537 167,-72 216.234,-56.0174 273.636,-39.9676 311.286,-29.7862"/>
<polygon fill="black" stroke="black" points="312.611,-33.054 321.358,-27.075 310.792,-26.2946 312.611,-33.054"/>
</g>
<!-- idooda_hozzafuz -->
<g id="node12" class="node"><title>idooda_hozzafuz</title>
<polygon fill="#8dd3c7" stroke="black" points="656.5,-368 547.5,-368 547.5,-285 656.5,-285 656.5,-368"/>
<text text-anchor="middle" x="602" y="-322.8" font-family="Times,serif" font-size="14.00">timeto_append</text>
</g>
<!-- idooda_hozzafuz&#45;&gt;free -->
<g id="edge20" class="edge"><title>idooda_hozzafuz&#45;&gt;free</title>
<path fill="none" stroke="black" d="M656.761,-301.083C677.693,-288.704 699.323,-271.461 711,-249 726.375,-219.425 730.193,-201.254 711,-174 676.451,-124.94 603.088,-111.088 558.31,-107.293"/>
<polygon fill="black" stroke="black" points="558.351,-103.787 548.126,-106.562 557.849,-110.769 558.351,-103.787"/>
</g>
<!-- idooda_hozzafuz&#45;&gt;egesz_olvas -->
<g id="edge18" class="edge"><title>idooda_hozzafuz&#45;&gt;egesz_olvas</title>
<path fill="none" stroke="black" d="M653.167,-284.632C662.874,-274.145 671.655,-262.086 677,-249 689.604,-218.141 698.288,-199.65 677,-174 621.553,-107.191 569.111,-159.52 485,-138 469.496,-134.033 452.867,-128.934 437.791,-123.977"/>
<polygon fill="black" stroke="black" points="438.728,-120.6 428.135,-120.753 436.512,-127.24 438.728,-120.6"/>
</g>
<!-- idooda_hozzafuz&#45;&gt;egesz_fajl_adatok -->
<g id="edge16" class="edge"><title>idooda_hozzafuz&#45;&gt;egesz_fajl_adatok</title>
<path fill="none" stroke="black" d="M547.422,-293.375C540.379,-290.143 533.133,-287.236 526,-285 461.086,-264.653 267.186,-299.853 222,-249 193.943,-217.424 207.901,-164.903 220.511,-133.061"/>
<polygon fill="black" stroke="black" points="223.879,-134.078 224.502,-123.502 217.419,-131.381 223.879,-134.078"/>
</g>
<!-- idooda_hozzafuz&#45;&gt;idopont_olvas -->
<g id="edge17" class="edge"><title>idooda_hozzafuz&#45;&gt;idopont_olvas</title>
<path fill="none" stroke="black" d="M549.291,-284.704C532.597,-271.784 514.366,-257.674 498.485,-245.382"/>
<polygon fill="black" stroke="black" points="500.465,-242.489 490.415,-239.136 496.181,-248.025 500.465,-242.489"/>
</g>
<!-- idooda_hozzafuz&#45;&gt;idopont_hozzaad -->
<g id="edge19" class="edge"><title>idooda_hozzafuz&#45;&gt;idopont_hozzaad</title>
<path fill="none" stroke="black" d="M606.332,-284.704C607.953,-269.44 609.751,-252.515 611.198,-238.89"/>
<polygon fill="black" stroke="black" points="614.697,-239.079 612.273,-228.765 607.736,-238.34 614.697,-239.079"/>
</g>
<!-- idovissza_hozzafuz -->
<g id="node13" class="node"><title>idovissza_hozzafuz</title>
<polygon fill="#8dd3c7" stroke="black" points="517,-368 395,-368 395,-285 517,-285 517,-368"/>
<text text-anchor="middle" x="456" y="-322.8" font-family="Times,serif" font-size="14.00">timefrom_append</text>
</g>
<!-- idovissza_hozzafuz&#45;&gt;free -->
<g id="edge25" class="edge"><title>idovissza_hozzafuz&#45;&gt;free</title>
<path fill="none" stroke="black" d="M491.656,-284.6C499.341,-273.696 506.499,-261.462 511,-249 524.793,-210.81 525.066,-163.214 523.451,-133.714"/>
<polygon fill="black" stroke="black" points="526.917,-133.098 522.763,-123.351 519.933,-133.561 526.917,-133.098"/>
</g>
<!-- idovissza_hozzafuz&#45;&gt;egesz_olvas -->
<g id="edge23" class="edge"><title>idovissza_hozzafuz&#45;&gt;egesz_olvas</title>
<path fill="none" stroke="black" d="M419.878,-284.613C412.049,-273.71 404.713,-261.471 400,-249 386.345,-212.862 384.458,-168.075 385.096,-138.352"/>
<polygon fill="black" stroke="black" points="388.601,-138.235 385.428,-128.127 381.605,-138.008 388.601,-138.235"/>
</g>
<!-- idovissza_hozzafuz&#45;&gt;egesz_fajl_adatok -->
<g id="edge21" class="edge"><title>idovissza_hozzafuz&#45;&gt;egesz_fajl_adatok</title>
<path fill="none" stroke="black" d="M394.826,-316.585C323.962,-304.861 213.742,-281.827 189,-249 162.419,-213.734 190.551,-162.238 212.447,-131.624"/>
<polygon fill="black" stroke="black" points="215.27,-133.694 218.407,-123.574 209.644,-129.529 215.27,-133.694"/>
</g>
<!-- idovissza_hozzafuz&#45;&gt;idopont_olvas -->
<g id="edge22" class="edge"><title>idovissza_hozzafuz&#45;&gt;idopont_olvas</title>
<path fill="none" stroke="black" d="M456,-284.704C456,-273.088 456,-260.51 456,-249.156"/>
<polygon fill="black" stroke="black" points="459.5,-249.136 456,-239.136 452.5,-249.136 459.5,-249.136"/>
</g>
<!-- idovissza_hozzafuz&#45;&gt;idopont_hozzaad -->
<g id="edge24" class="edge"><title>idovissza_hozzafuz&#45;&gt;idopont_hozzaad</title>
<path fill="none" stroke="black" d="M513.042,-284.704C536.603,-267.853 562.995,-248.978 582.885,-234.753"/>
<polygon fill="black" stroke="black" points="585.16,-237.429 591.257,-228.765 581.087,-231.736 585.16,-237.429"/>
</g>
<!-- menetrend_kiir -->
<g id="node14" class="node"><title>menetrend_kiir</title>
<polygon fill="#8dd3c7" stroke="black" points="863,-249 763,-249 763,-174 863,-174 863,-249"/>
<text text-anchor="middle" x="813" y="-207.8" font-family="Times,serif" font-size="14.00">ttable_print</text>
</g>
<!-- utvonal -->
<g id="node15" class="node"><title>utvonal</title>
<polygon fill="#8dd3c7" stroke="black" points="938.5,-237.5 881.5,-237.5 881.5,-185.5 938.5,-185.5 938.5,-237.5"/>
<text text-anchor="middle" x="910" y="-207.8" font-family="Times,serif" font-size="14.00">journey</text>
</g>
<!-- menu -->
<g id="node16" class="node"><title>menu</title>
<polygon fill="#8dd3c7" stroke="black" points="840,-342.5 786,-342.5 786,-310.5 840,-310.5 840,-342.5"/>
<text text-anchor="middle" x="813" y="-322.8" font-family="Times,serif" font-size="14.00">menu</text>
</g>
<!-- menu&#45;&gt;menetrend_kiir -->
<g id="edge27" class="edge"><title>menu&#45;&gt;menetrend_kiir</title>
<path fill="none" stroke="black" d="M813,-310.26C813,-297.207 813,-277.693 813,-259.525"/>
<polygon fill="black" stroke="black" points="816.5,-259.332 813,-249.332 809.5,-259.332 816.5,-259.332"/>
</g>
<!-- menu&#45;&gt;utvonal -->
<g id="edge26" class="edge"><title>menu&#45;&gt;utvonal</title>
<path fill="none" stroke="black" d="M826.082,-310.26C840.267,-293.735 863.341,-266.855 881.707,-245.46"/>
<polygon fill="black" stroke="black" points="884.377,-247.723 888.235,-237.855 879.066,-243.163 884.377,-247.723"/>
</g>
<!-- main -->
<g id="node17" class="node"><title>main</title>
<polygon fill="#8dd3c7" stroke="black" points="483,-455 429,-455 429,-404 483,-404 483,-455"/>
<text text-anchor="middle" x="456" y="-425.8" font-family="Times,serif" font-size="14.00">main</text>
</g>
<!-- main&#45;&gt;jszamlista_letrehoz -->
<g id="edge28" class="edge"><title>main&#45;&gt;jszamlista_letrehoz</title>
<path fill="none" stroke="black" d="M428.929,-408.435C415.128,-397.419 398.638,-382.977 386,-368 353.874,-329.928 325.615,-279.658 308.676,-246.725"/>
<polygon fill="black" stroke="black" points="311.645,-244.84 303.998,-237.507 305.403,-248.008 311.645,-244.84"/>
</g>
<!-- main&#45;&gt;mlista_letrehoz_megallok -->
<g id="edge29" class="edge"><title>main&#45;&gt;mlista_letrehoz_megallok</title>
<path fill="none" stroke="black" d="M428.903,-417.899C402.151,-406.952 360.502,-388.604 327,-368 253.919,-323.055 233.413,-311.841 175,-249 146.034,-217.838 119.612,-177.143 101.853,-147.137"/>
<polygon fill="black" stroke="black" points="104.693,-145.059 96.6265,-138.19 98.6486,-148.59 104.693,-145.059"/>
</g>
<!-- main&#45;&gt;idooda_hozzafuz -->
<g id="edge30" class="edge"><title>main&#45;&gt;idooda_hozzafuz</title>
<path fill="none" stroke="black" d="M483.119,-409.739C498.85,-398.858 519.36,-384.669 538.904,-371.148"/>
<polygon fill="black" stroke="black" points="540.972,-373.974 547.205,-365.406 536.99,-368.217 540.972,-373.974"/>
</g>
<!-- main&#45;&gt;idovissza_hozzafuz -->
<g id="edge31" class="edge"><title>main&#45;&gt;idovissza_hozzafuz</title>
<path fill="none" stroke="black" d="M456,-403.793C456,-395.985 456,-387.054 456,-378.117"/>
<polygon fill="black" stroke="black" points="459.5,-378.085 456,-368.085 452.5,-378.085 459.5,-378.085"/>
</g>
<!-- main&#45;&gt;menu -->
<g id="edge32" class="edge"><title>main&#45;&gt;menu</title>
<path fill="none" stroke="black" d="M483.283,-408.362C486.144,-406.733 489.077,-405.24 492,-404 564.295,-373.318 588.643,-386.373 665,-368 702.996,-358.857 746.047,-346.893 775.881,-338.344"/>
<polygon fill="black" stroke="black" points="777.212,-341.603 785.853,-335.472 775.275,-334.876 777.212,-341.603"/>
</g>
</g>
</svg>
