<?xml version="1.0" encoding="UTF-8" standalone="no"?>
<!DOCTYPE svg PUBLIC "-//W3C//DTD SVG 1.1//EN"
 "http://www.w3.org/Graphics/SVG/1.1/DTD/svg11.dtd">
<!-- Generated by graphviz version 2.38.0 (20140413.2041)
 -->
<!-- Title: %3 Pages: 1 -->
<svg width="640pt" height="608pt"
 viewBox="0.00 0.00 639.98 608.00" xmlns="http://www.w3.org/2000/svg" xmlns:xlink="http://www.w3.org/1999/xlink">
<g id="graph0" class="graph" transform="scale(1 1) rotate(0) translate(4 604)">
<title>%3</title>
<polygon fill="white" stroke="none" points="-4,4 -4,-604 635.982,-604 635.982,4 -4,4"/>
<!-- fopen -->
<g id="node1" class="node"><title>fopen</title>
<ellipse fill="#eeeeee" stroke="black" cx="47.4819" cy="-176" rx="30.5947" ry="18"/>
<text text-anchor="middle" x="47.4819" y="-172.3" font-family="Times,serif" font-size="14.00">fopen</text>
</g>
<!-- fclose -->
<g id="node2" class="node"><title>fclose</title>
<ellipse fill="#eeeeee" stroke="black" cx="127.482" cy="-176" rx="31.6951" ry="18"/>
<text text-anchor="middle" x="127.482" y="-172.3" font-family="Times,serif" font-size="14.00">fclose</text>
</g>
<!-- malloc -->
<g id="node3" class="node"><title>malloc</title>
<ellipse fill="#eeeeee" stroke="black" cx="183.482" cy="-18" rx="35.194" ry="18"/>
<text text-anchor="middle" x="183.482" y="-14.3" font-family="Times,serif" font-size="14.00">malloc</text>
</g>
<!-- free -->
<g id="node4" class="node"><title>free</title>
<ellipse fill="#eeeeee" stroke="black" cx="361.482" cy="-176" rx="27" ry="18"/>
<text text-anchor="middle" x="361.482" y="-172.3" font-family="Times,serif" font-size="14.00">free</text>
</g>
<!-- exit -->
<g id="node5" class="node"><title>exit</title>
<defs>
<radialGradient id="r_0" cx="50%" cy="50%" r="75%" fx="50%" fy="50%">
<stop offset="0" style="stop-color:white;stop-opacity:1.;"/>
<stop offset="1" style="stop-color:#eeeeee;stop-opacity:1.;"/>
</radialGradient>
</defs>
<ellipse fill="url(#r_0)" stroke="black" stroke-dasharray="5,2" cx="449.482" cy="-581.5" rx="27" ry="18"/>
<text text-anchor="middle" x="449.482" y="-577.8" font-family="Times,serif" font-size="14.00">exit</text>
</g>
<!-- automata_mode -->
<g id="node6" class="node"><title>automata_mode</title>
<polygon fill="#8dd3c7" stroke="black" points="374.482,-430.5 270.482,-430.5 270.482,-378.5 374.482,-378.5 374.482,-430.5"/>
<text text-anchor="middle" x="322.482" y="-400.8" font-family="Times,serif" font-size="14.00">automatc_mode</text>
</g>
<!-- szabaly_kepez -->
<g id="node17" class="node"><title>szabaly_kepez</title>
<polygon fill="#fccde5" stroke="black" points="493.982,-341 398.982,-341 398.982,-236 493.982,-236 493.982,-341"/>
<text text-anchor="middle" x="446.482" y="-284.8" font-family="Times,serif" font-size="14.00">rule_create</text>
</g>
<!-- automata_mode&#45;&gt;szabaly_kepez -->
<g id="edge1" class="edge"><title>automata_mode&#45;&gt;szabaly_kepez</title>
<path fill="none" stroke="black" d="M349.694,-378.482C361.958,-367.208 376.906,-353.465 391.35,-340.186"/>
<polygon fill="black" stroke="black" points="393.848,-342.644 398.841,-333.299 389.11,-337.49 393.848,-342.644"/>
</g>
<!-- eletter_malloc -->
<g id="node7" class="node"><title>eletter_malloc</title>
<polygon fill="#ffffb3" stroke="black" points="425.982,-116 330.982,-116 330.982,-72 425.982,-72 425.982,-116"/>
<text text-anchor="middle" x="378.482" y="-90.3" font-family="Times,serif" font-size="14.00">field_malloc</text>
</g>
<!-- eletter_malloc&#45;&gt;malloc -->
<g id="edge2" class="edge"><title>eletter_malloc&#45;&gt;malloc</title>
<path fill="none" stroke="black" d="M330.78,-74.8976C296.798,-62.0019 251.784,-44.9198 220.501,-33.0481"/>
<polygon fill="black" stroke="black" points="221.449,-29.6644 210.857,-29.3886 218.965,-36.209 221.449,-29.6644"/>
</g>
<!-- eletter_yrealloc -->
<g id="node8" class="node"><title>eletter_yrealloc</title>
<polygon fill="#ffffb3" stroke="black" points="277.982,-200 176.982,-200 176.982,-152 277.982,-152 277.982,-200"/>
<text text-anchor="middle" x="227.482" y="-172.3" font-family="Times,serif" font-size="14.00">field_yrealloc</text>
</g>
<!-- eletter_yrealloc&#45;&gt;eletter_malloc -->
<g id="edge3" class="edge"><title>eletter_yrealloc&#45;&gt;eletter_malloc</title>
<path fill="none" stroke="black" d="M271.157,-151.861C289.496,-142.145 310.902,-130.804 329.75,-120.818"/>
<polygon fill="black" stroke="black" points="331.575,-123.812 338.773,-116.038 328.298,-117.627 331.575,-123.812"/>
</g>
<!-- eletter_init -->
<g id="node9" class="node"><title>eletter_init</title>
<polygon fill="#ffffb3" stroke="black" points="631.982,-310.5 556.982,-310.5 556.982,-266.5 631.982,-266.5 631.982,-310.5"/>
<text text-anchor="middle" x="594.482" y="-284.8" font-family="Times,serif" font-size="14.00">field_init</text>
</g>
<!-- eletter_init&#45;&gt;eletter_malloc -->
<g id="edge4" class="edge"><title>eletter_init&#45;&gt;eletter_malloc</title>
<path fill="none" stroke="black" d="M591.914,-266.119C587.254,-236.524 574.699,-183.204 542.482,-152 513.809,-124.228 470.915,-109.936 436.186,-102.609"/>
<polygon fill="black" stroke="black" points="436.649,-99.1332 426.162,-100.637 435.298,-106.001 436.649,-99.1332"/>
</g>
<!-- eletter_nullaz -->
<g id="node10" class="node"><title>eletter_nullaz</title>
<polygon fill="#ffffb3" stroke="black" points="496.482,-196 406.482,-196 406.482,-156 496.482,-156 496.482,-196"/>
<text text-anchor="middle" x="451.482" y="-172.3" font-family="Times,serif" font-size="14.00">field_zero</text>
</g>
<!-- eletter_nullaz&#45;&gt;eletter_malloc -->
<g id="edge5" class="edge"><title>eletter_nullaz&#45;&gt;eletter_malloc</title>
<path fill="none" stroke="black" d="M433.811,-155.634C425.05,-146.034 414.297,-134.25 404.608,-123.631"/>
<polygon fill="black" stroke="black" points="407.11,-121.181 397.784,-116.153 401.939,-125.899 407.11,-121.181"/>
</g>
<!-- eletter_free -->
<g id="node11" class="node"><title>eletter_free</title>
<polygon fill="#ffffb3" stroke="black" points="252.482,-416 174.482,-416 174.482,-393 252.482,-393 252.482,-416"/>
<text text-anchor="middle" x="213.482" y="-400.8" font-family="Times,serif" font-size="14.00">field_free</text>
</g>
<!-- eletter_free&#45;&gt;free -->
<g id="edge6" class="edge"><title>eletter_free&#45;&gt;free</title>
<path fill="none" stroke="black" d="M220.422,-392.879C242.856,-358.545 313.814,-249.951 345.698,-201.156"/>
<polygon fill="black" stroke="black" points="348.636,-203.058 351.176,-192.772 342.776,-199.229 348.636,-203.058"/>
</g>
<!-- eletter_filebol -->
<g id="node12" class="node"><title>eletter_filebol</title>
<polygon fill="#bebada" stroke="black" points="368.482,-519.5 276.482,-519.5 276.482,-475.5 368.482,-475.5 368.482,-519.5"/>
<text text-anchor="middle" x="322.482" y="-493.8" font-family="Times,serif" font-size="14.00">field_file</text>
</g>
<!-- eletter_filebol&#45;&gt;automata_mode -->
<g id="edge8" class="edge"><title>eletter_filebol&#45;&gt;automata_mode</title>
<path fill="none" stroke="black" d="M322.482,-475.394C322.482,-465.184 322.482,-452.646 322.482,-441.022"/>
<polygon fill="black" stroke="black" points="325.982,-440.698 322.482,-430.698 318.982,-440.698 325.982,-440.698"/>
</g>
<!-- eletter_filebol&#45;&gt;eletter_free -->
<g id="edge10" class="edge"><title>eletter_filebol&#45;&gt;eletter_free</title>
<path fill="none" stroke="black" d="M297.201,-475.394C278.069,-459.421 252.116,-437.754 234.202,-422.798"/>
<polygon fill="black" stroke="black" points="236.038,-419.772 226.119,-416.05 231.552,-425.146 236.038,-419.772"/>
</g>
<!-- feletter_beolvas -->
<g id="node14" class="node"><title>feletter_beolvas</title>
<polygon fill="#80b1d3" stroke="black" points="197.982,-322.5 94.9819,-322.5 94.9819,-254.5 197.982,-254.5 197.982,-322.5"/>
<text text-anchor="middle" x="146.482" y="-284.8" font-family="Times,serif" font-size="14.00">ffield_read</text>
</g>
<!-- eletter_filebol&#45;&gt;feletter_beolvas -->
<g id="edge7" class="edge"><title>eletter_filebol&#45;&gt;feletter_beolvas</title>
<path fill="none" stroke="black" d="M276.448,-490.189C240.423,-482.7 192.11,-466.539 165.482,-432 143.919,-404.03 140.388,-363.442 141.544,-332.732"/>
<polygon fill="black" stroke="black" points="145.04,-332.906 142.096,-322.728 138.05,-332.52 145.04,-332.906"/>
</g>
<!-- lepteteses_mode -->
<g id="node15" class="node"><title>lepteteses_mode</title>
<polygon fill="#fdb462" stroke="black" points="499.982,-432 392.982,-432 392.982,-377 499.982,-377 499.982,-432"/>
<text text-anchor="middle" x="446.482" y="-400.8" font-family="Times,serif" font-size="14.00">step_mode</text>
</g>
<!-- eletter_filebol&#45;&gt;lepteteses_mode -->
<g id="edge9" class="edge"><title>eletter_filebol&#45;&gt;lepteteses_mode</title>
<path fill="none" stroke="black" d="M351.242,-475.394C366.367,-464.294 385.239,-450.445 402.185,-438.008"/>
<polygon fill="black" stroke="black" points="404.333,-440.773 410.324,-432.035 400.192,-435.13 404.333,-440.773"/>
</g>
<!-- uj_eletter -->
<g id="node13" class="node"><title>uj_eletter</title>
<polygon fill="#fb8072" stroke="black" points="467.482,-527 399.482,-527 399.482,-468 467.482,-468 467.482,-527"/>
<text text-anchor="middle" x="433.482" y="-493.8" font-family="Times,serif" font-size="14.00">new_field</text>
</g>
<!-- uj_eletter&#45;&gt;automata_mode -->
<g id="edge13" class="edge"><title>uj_eletter&#45;&gt;automata_mode</title>
<path fill="none" stroke="black" d="M399.273,-468.454C387.15,-458.516 373.429,-447.268 360.974,-437.057"/>
<polygon fill="black" stroke="black" points="362.954,-434.154 353.001,-430.52 358.516,-439.567 362.954,-434.154"/>
</g>
<!-- uj_eletter&#45;&gt;eletter_malloc -->
<g id="edge11" class="edge"><title>uj_eletter&#45;&gt;eletter_malloc</title>
<path fill="none" stroke="black" d="M467.607,-476.813C483.152,-465.817 499.958,-450.574 508.482,-432 521.402,-403.847 556.18,-229.192 505.482,-152 489.835,-128.177 461.652,-114.207 435.804,-106.067"/>
<polygon fill="black" stroke="black" points="436.623,-102.66 426.043,-103.225 434.665,-109.381 436.623,-102.66"/>
</g>
<!-- uj_eletter&#45;&gt;eletter_init -->
<g id="edge12" class="edge"><title>uj_eletter&#45;&gt;eletter_init</title>
<path fill="none" stroke="black" d="M467.714,-483.584C491.617,-472.993 522.671,-455.849 542.482,-432 569.545,-399.422 583.127,-351.539 589.486,-320.437"/>
<polygon fill="black" stroke="black" points="592.93,-321.059 591.374,-310.579 586.055,-319.742 592.93,-321.059"/>
</g>
<!-- uj_eletter&#45;&gt;eletter_free -->
<g id="edge15" class="edge"><title>uj_eletter&#45;&gt;eletter_free</title>
<path fill="none" stroke="black" d="M399.258,-477.927C392.161,-474.405 384.658,-470.915 377.482,-468 327.469,-447.685 311.145,-453.155 261.482,-432 254.257,-428.922 246.704,-425.076 239.784,-421.277"/>
<polygon fill="black" stroke="black" points="241.256,-418.088 230.831,-416.2 237.804,-424.177 241.256,-418.088"/>
</g>
<!-- uj_eletter&#45;&gt;lepteteses_mode -->
<g id="edge14" class="edge"><title>uj_eletter&#45;&gt;lepteteses_mode</title>
<path fill="none" stroke="black" d="M437.595,-467.707C438.748,-459.637 440.017,-450.752 441.227,-442.286"/>
<polygon fill="black" stroke="black" points="444.711,-442.644 442.661,-432.249 437.781,-441.654 444.711,-442.644"/>
</g>
<!-- feletter_beolvas&#45;&gt;fopen -->
<g id="edge16" class="edge"><title>feletter_beolvas&#45;&gt;fopen</title>
<path fill="none" stroke="black" d="M116.779,-254.346C101.064,-236.807 82.1631,-215.71 68.073,-199.983"/>
<polygon fill="black" stroke="black" points="70.4654,-197.408 61.1857,-192.296 65.2518,-202.079 70.4654,-197.408"/>
</g>
<!-- feletter_beolvas&#45;&gt;fclose -->
<g id="edge21" class="edge"><title>feletter_beolvas&#45;&gt;fclose</title>
<path fill="none" stroke="black" d="M140.781,-254.346C138.037,-238.386 134.786,-219.48 132.186,-204.355"/>
<polygon fill="black" stroke="black" points="135.567,-203.369 130.423,-194.107 128.669,-204.555 135.567,-203.369"/>
</g>
<!-- feletter_beolvas&#45;&gt;malloc -->
<g id="edge18" class="edge"><title>feletter_beolvas&#45;&gt;malloc</title>
<path fill="none" stroke="black" d="M94.7987,-269.768C63.4476,-256.023 26.0201,-233.575 7.48194,-200 -2.82967,-181.324 -2.02401,-171.098 7.48194,-152 36.5955,-93.508 105.066,-53.9105 147.509,-34.0004"/>
<polygon fill="black" stroke="black" points="149.021,-37.1579 156.664,-29.8212 146.114,-30.79 149.021,-37.1579"/>
</g>
<!-- feletter_beolvas&#45;&gt;free -->
<g id="edge20" class="edge"><title>feletter_beolvas&#45;&gt;free</title>
<path fill="none" stroke="black" d="M198.188,-262.263C232.965,-245.102 279.728,-221.664 320.482,-200 324.482,-197.874 328.674,-195.589 332.788,-193.313"/>
<polygon fill="black" stroke="black" points="334.538,-196.345 341.562,-188.413 331.125,-190.233 334.538,-196.345"/>
</g>
<!-- feletter_beolvas&#45;&gt;eletter_malloc -->
<g id="edge17" class="edge"><title>feletter_beolvas&#45;&gt;eletter_malloc</title>
<path fill="none" stroke="black" d="M198.182,-260.657C225.894,-244.966 259.738,-223.625 286.482,-200 307.083,-181.802 307.447,-172.743 325.482,-152 333.725,-142.52 342.97,-132.408 351.404,-123.373"/>
<polygon fill="black" stroke="black" points="353.963,-125.761 358.257,-116.075 348.86,-120.969 353.963,-125.761"/>
</g>
<!-- feletter_beolvas&#45;&gt;eletter_yrealloc -->
<g id="edge19" class="edge"><title>feletter_beolvas&#45;&gt;eletter_yrealloc</title>
<path fill="none" stroke="black" d="M170.785,-254.346C181.458,-239.786 193.929,-222.773 204.452,-208.417"/>
<polygon fill="black" stroke="black" points="207.306,-210.444 210.395,-200.31 201.66,-206.306 207.306,-210.444"/>
</g>
<!-- lepteteses_mode&#45;&gt;szabaly_kepez -->
<g id="edge22" class="edge"><title>lepteteses_mode&#45;&gt;szabaly_kepez</title>
<path fill="none" stroke="black" d="M446.482,-376.772C446.482,-369.026 446.482,-360.229 446.482,-351.274"/>
<polygon fill="black" stroke="black" points="449.982,-351.144 446.482,-341.144 442.982,-351.144 449.982,-351.144"/>
</g>
<!-- main -->
<g id="node16" class="node"><title>main</title>
<polygon fill="#b3de69" stroke="black" points="404.482,-600 350.482,-600 350.482,-563 404.482,-563 404.482,-600"/>
<text text-anchor="middle" x="377.482" y="-577.8" font-family="Times,serif" font-size="14.00">main</text>
</g>
<!-- main&#45;&gt;eletter_filebol -->
<g id="edge24" class="edge"><title>main&#45;&gt;eletter_filebol</title>
<path fill="none" stroke="black" d="M365.548,-562.707C358.801,-552.648 350.189,-539.809 342.443,-528.26"/>
<polygon fill="black" stroke="black" points="345.21,-526.102 336.733,-519.747 339.397,-530.002 345.21,-526.102"/>
</g>
<!-- main&#45;&gt;uj_eletter -->
<g id="edge23" class="edge"><title>main&#45;&gt;uj_eletter</title>
<path fill="none" stroke="black" d="M389.633,-562.707C395.051,-554.773 401.65,-545.111 408.067,-535.715"/>
<polygon fill="black" stroke="black" points="411.119,-537.451 413.869,-527.219 405.339,-533.503 411.119,-537.451"/>
</g>
<!-- szabaly_kepez&#45;&gt;eletter_nullaz -->
<g id="edge25" class="edge"><title>szabaly_kepez&#45;&gt;eletter_nullaz</title>
<path fill="none" stroke="black" d="M448.821,-235.809C449.281,-225.635 449.749,-215.3 450.161,-206.19"/>
<polygon fill="black" stroke="black" points="453.66,-206.291 450.616,-196.143 446.667,-205.975 453.66,-206.291"/>
</g>
</g>
</svg>
