<?xml version="1.0" encoding="UTF-8" standalone="no"?>
<!DOCTYPE svg PUBLIC "-//W3C//DTD SVG 1.1//EN"
 "http://www.w3.org/Graphics/SVG/1.1/DTD/svg11.dtd">
<!-- Generated by graphviz version 2.38.0 (20140413.2041)
 -->
<!-- Title: %3 Pages: 1 -->
<svg width="783pt" height="598pt"
 viewBox="0.00 0.00 783.00 598.00" xmlns="http://www.w3.org/2000/svg" xmlns:xlink="http://www.w3.org/1999/xlink">
<g id="graph0" class="graph" transform="scale(1 1) rotate(0) translate(4 594)">
<title>%3</title>
<polygon fill="white" stroke="none" points="-4,4 -4,-594 779,-594 779,4 -4,4"/>
<!-- fopen -->
<g id="node1" class="node"><title>fopen</title>
<ellipse fill="#eeeeee" stroke="black" cx="139" cy="-18" rx="30.5947" ry="18"/>
<text text-anchor="middle" x="139" y="-14.3" font-family="Times,serif" font-size="14.00">fopen</text>
</g>
<!-- fclose -->
<g id="node2" class="node"><title>fclose</title>
<ellipse fill="#eeeeee" stroke="black" cx="219" cy="-18" rx="31.6951" ry="18"/>
<text text-anchor="middle" x="219" y="-14.3" font-family="Times,serif" font-size="14.00">fclose</text>
</g>
<!-- malloc -->
<g id="node3" class="node"><title>malloc</title>
<ellipse fill="#eeeeee" stroke="black" cx="304" cy="-18" rx="35.194" ry="18"/>
<text text-anchor="middle" x="304" y="-14.3" font-family="Times,serif" font-size="14.00">malloc</text>
</g>
<!-- free -->
<g id="node4" class="node"><title>free</title>
<ellipse fill="#eeeeee" stroke="black" cx="137" cy="-101" rx="27" ry="18"/>
<text text-anchor="middle" x="137" y="-97.3" font-family="Times,serif" font-size="14.00">free</text>
</g>
<!-- exit -->
<g id="node5" class="node"><title>exit</title>
<ellipse fill="#eeeeee" stroke="black" cx="701" cy="-101" rx="27" ry="18"/>
<text text-anchor="middle" x="701" y="-97.3" font-family="Times,serif" font-size="14.00">exit</text>
</g>
<!-- beolvas -->
<g id="node6" class="node"><title>beolvas</title>
<polygon fill="#8dd3c7" stroke="black" points="124,-220 66,-220 66,-166 124,-166 124,-220"/>
<text text-anchor="middle" x="95" y="-189.3" font-family="Times,serif" font-size="14.00">read</text>
</g>
<!-- beolvas&#45;&gt;malloc -->
<g id="edge1" class="edge"><title>beolvas&#45;&gt;malloc</title>
<path fill="none" stroke="black" d="M88.0374,-165.806C82.6284,-139.05 79.2551,-97.8664 101,-72 147.624,-16.5386 190.689,-57.1127 260,-36 262.556,-35.2215 265.175,-34.3653 267.799,-33.4639"/>
<polygon fill="black" stroke="black" points="269.009,-36.7484 277.225,-30.0595 266.631,-30.1647 269.009,-36.7484"/>
</g>
<!-- beolvas&#45;&gt;free -->
<g id="edge2" class="edge"><title>beolvas&#45;&gt;free</title>
<path fill="none" stroke="black" d="M107.148,-165.968C112.807,-153.843 119.515,-139.469 125.137,-127.42"/>
<polygon fill="black" stroke="black" points="128.316,-128.886 129.373,-118.344 121.972,-125.926 128.316,-128.886"/>
</g>
<!-- pakliletrehoz -->
<g id="node7" class="node"><title>pakliletrehoz</title>
<polygon fill="#8dd3c7" stroke="black" points="226.5,-590 139.5,-590 139.5,-524 226.5,-524 226.5,-590"/>
<text text-anchor="middle" x="183" y="-553.3" font-family="Times,serif" font-size="14.00">createdeck</text>
</g>
<!-- pakliletrehoz&#45;&gt;fopen -->
<g id="edge3" class="edge"><title>pakliletrehoz&#45;&gt;fopen</title>
<path fill="none" stroke="black" d="M139.4,-540.388C112.731,-529.105 79.3647,-511.676 56,-488 18.0213,-449.515 0,-434.069 0,-380 0,-380 0,-380 0,-192 0,-135.782 3.76131,-114.98 40,-72 56.3817,-52.571 81.7495,-39.1864 102.704,-30.7282"/>
<polygon fill="black" stroke="black" points="104.18,-33.9113 112.275,-27.0759 101.684,-27.3713 104.18,-33.9113"/>
</g>
<!-- pakliletrehoz&#45;&gt;fclose -->
<g id="edge6" class="edge"><title>pakliletrehoz&#45;&gt;fclose</title>
<path fill="none" stroke="black" d="M139.495,-528.743C96.7846,-498.238 38,-444.531 38,-380 38,-380 38,-380 38,-192 38,-135.346 41.0994,-112.22 81,-72 113.68,-39.0589 135.857,-53.08 179,-36 181.052,-35.1876 183.158,-34.3389 185.277,-33.4728"/>
<polygon fill="black" stroke="black" points="186.65,-36.6926 194.541,-29.6229 183.964,-30.2286 186.65,-36.6926"/>
</g>
<!-- pakliletrehoz&#45;&gt;free -->
<g id="edge5" class="edge"><title>pakliletrehoz&#45;&gt;free</title>
<path fill="none" stroke="black" d="M169.492,-523.669C165.415,-512.552 161.39,-499.906 159,-488 132.399,-355.491 134.033,-192.636 135.943,-129.145"/>
<polygon fill="black" stroke="black" points="139.441,-129.258 136.272,-119.148 132.445,-129.028 139.441,-129.258"/>
</g>
<!-- pakliletrehoz&#45;&gt;beolvas -->
<g id="edge4" class="edge"><title>pakliletrehoz&#45;&gt;beolvas</title>
<path fill="none" stroke="black" d="M176.406,-523.577C171.763,-501.173 165.279,-470.714 159,-444 141.007,-367.451 117.603,-278.353 104.665,-229.895"/>
<polygon fill="black" stroke="black" points="108.034,-228.947 102.069,-220.191 101.272,-230.756 108.034,-228.947"/>
</g>
<!-- letrehoz_vege -->
<g id="node8" class="node"><title>letrehoz_vege</title>
<polygon fill="#8dd3c7" stroke="black" points="480,-488 388,-488 388,-444 480,-444 480,-488"/>
<text text-anchor="middle" x="434" y="-462.3" font-family="Times,serif" font-size="14.00">create_end</text>
</g>
<!-- pakliletrehoz&#45;&gt;letrehoz_vege -->
<g id="edge7" class="edge"><title>pakliletrehoz&#45;&gt;letrehoz_vege</title>
<path fill="none" stroke="red" stroke-width="2" d="M226.51,-538.629C268.653,-523.091 332.583,-500.417 378.387,-484.761"/>
<polygon fill="red" stroke="red" stroke-width="2" points="379.533,-488.068 387.871,-481.532 377.277,-481.442 379.533,-488.068"/>
</g>
<!-- letrehoz_vege&#45;&gt;exit -->
<g id="edge11" class="edge"><title>letrehoz_vege&#45;&gt;exit</title>
<path fill="none" stroke="black" d="M460.324,-443.848C493.3,-416.413 550.182,-365.893 589,-314 634.954,-252.568 672.791,-169.709 690.38,-128.116"/>
<polygon fill="black" stroke="black" points="693.686,-129.28 694.311,-118.704 687.227,-126.583 693.686,-129.28"/>
</g>
<!-- letrehoz_vege&#45;&gt;pakliletrehoz -->
<g id="edge10" class="edge"><title>letrehoz_vege&#45;&gt;pakliletrehoz</title>
<path fill="none" stroke="red" stroke-width="2" d="M387.797,-485.363C344.929,-501.131 281.283,-523.681 236.292,-539.032"/>
<polygon fill="red" stroke="red" stroke-width="2" points="235.047,-535.758 226.705,-542.289 237.299,-542.386 235.047,-535.758"/>
</g>
<!-- main -->
<g id="node9" class="node"><title>main</title>
<polygon fill="#ffffb3" stroke="black" points="775,-213.5 721,-213.5 721,-172.5 775,-172.5 775,-213.5"/>
<text text-anchor="middle" x="748" y="-189.3" font-family="Times,serif" font-size="14.00">main</text>
</g>
<!-- letrehoz_vege&#45;&gt;main -->
<g id="edge8" class="edge"><title>letrehoz_vege&#45;&gt;main</title>
<path fill="none" stroke="red" stroke-width="2" d="M480.073,-461.469C549.434,-455.183 675.891,-439.628 707,-408 755.727,-358.46 755.636,-269.832 751.697,-223.718"/>
<polygon fill="red" stroke="red" stroke-width="2" points="755.18,-223.368 750.728,-213.754 748.213,-224.046 755.18,-223.368"/>
</g>
<!-- tanul_siman -->
<g id="node18" class="node"><title>tanul_siman</title>
<polygon fill="#bebada" stroke="black" points="475.5,-408 392.5,-408 392.5,-350 475.5,-350 475.5,-408"/>
<text text-anchor="middle" x="434" y="-375.3" font-family="Times,serif" font-size="14.00">learn_simple</text>
</g>
<!-- letrehoz_vege&#45;&gt;tanul_siman -->
<g id="edge9" class="edge"><title>letrehoz_vege&#45;&gt;tanul_siman</title>
<path fill="none" stroke="red" stroke-width="2" d="M434,-443.989C434,-436.215 434,-427.14 434,-418.308"/>
<polygon fill="red" stroke="red" stroke-width="2" points="437.5,-418.145 434,-408.145 430.5,-418.145 437.5,-418.145"/>
</g>
<!-- main&#45;&gt;exit -->
<g id="edge14" class="edge"><title>main&#45;&gt;exit</title>
<path fill="none" stroke="black" d="M737.802,-172.471C730.914,-159.282 721.753,-141.739 714.294,-127.456"/>
<polygon fill="black" stroke="black" points="717.183,-125.427 709.451,-118.183 710.978,-128.667 717.183,-125.427"/>
</g>
<!-- main&#45;&gt;pakliletrehoz -->
<g id="edge13" class="edge"><title>main&#45;&gt;pakliletrehoz</title>
<path fill="none" stroke="red" stroke-width="2" d="M754.255,-213.762C766.074,-255.377 786.404,-352.747 738,-408 671.449,-483.967 362.755,-532.374 236.765,-549.275"/>
<polygon fill="red" stroke="red" stroke-width="2" points="236.035,-545.841 226.582,-550.625 236.956,-552.78 236.035,-545.841"/>
</g>
<!-- tanul -->
<g id="node20" class="node"><title>tanul</title>
<polygon fill="#bebada" stroke="black" points="570,-35.5 516,-35.5 516,-0.5 570,-0.5 570,-35.5"/>
<text text-anchor="middle" x="543" y="-14.3" font-family="Times,serif" font-size="14.00">learn</text>
</g>
<!-- main&#45;&gt;tanul -->
<g id="edge12" class="edge"><title>main&#45;&gt;tanul</title>
<path fill="none" stroke="red" stroke-width="2" d="M752.38,-172.434C756.985,-146.353 760.657,-100.215 737,-72 716.999,-48.146 630.737,-31.8084 580.225,-24.0896"/>
<polygon fill="red" stroke="red" stroke-width="2" points="580.432,-20.582 570.026,-22.5737 579.403,-27.5059 580.432,-20.582"/>
</g>
<!-- beolvas_A -->
<g id="node10" class="node"><title>beolvas_A</title>
<polygon fill="#bebada" stroke="black" points="348,-128 274,-128 274,-74 348,-74 348,-128"/>
<text text-anchor="middle" x="311" y="-97.3" font-family="Times,serif" font-size="14.00">read_A</text>
</g>
<!-- beolvas_A&#45;&gt;fopen -->
<g id="edge15" class="edge"><title>beolvas_A&#45;&gt;fopen</title>
<path fill="none" stroke="black" d="M273.868,-76.7375C270.898,-75.0799 267.918,-73.4807 265,-72 227.683,-53.0646 216.515,-52.3613 178,-36 176.164,-35.2203 174.282,-34.4159 172.384,-33.6008"/>
<polygon fill="black" stroke="black" points="173.463,-30.2542 162.895,-29.4998 170.686,-36.6798 173.463,-30.2542"/>
</g>
<!-- beolvas_A&#45;&gt;fclose -->
<g id="edge18" class="edge"><title>beolvas_A&#45;&gt;fclose</title>
<path fill="none" stroke="black" d="M281.384,-73.9252C269.007,-63.0281 254.81,-50.5282 243.089,-40.2087"/>
<polygon fill="black" stroke="black" points="245.241,-37.4405 235.423,-33.4593 240.616,-42.6944 245.241,-37.4405"/>
</g>
<!-- beolvas_A&#45;&gt;malloc -->
<g id="edge17" class="edge"><title>beolvas_A&#45;&gt;malloc</title>
<path fill="none" stroke="black" d="M308.747,-73.9252C307.977,-65.0167 307.114,-55.0371 306.338,-46.0533"/>
<polygon fill="black" stroke="black" points="309.825,-45.7498 305.477,-36.0883 302.851,-46.3526 309.825,-45.7498"/>
</g>
<!-- beolvas_A&#45;&gt;tanul -->
<g id="edge16" class="edge"><title>beolvas_A&#45;&gt;tanul</title>
<path fill="none" stroke="red" stroke-width="2" d="M348.211,-76.2235C351.137,-74.7025 354.087,-73.2735 357,-72 383.671,-60.3384 459.537,-40.1611 505.724,-28.3527"/>
<polygon fill="red" stroke="red" stroke-width="2" points="506.832,-31.6823 515.66,-25.8244 505.106,-24.8985 506.832,-31.6823"/>
</g>
<!-- beolvas_B -->
<g id="node11" class="node"><title>beolvas_B</title>
<polygon fill="#bebada" stroke="black" points="256,-128 182,-128 182,-74 256,-74 256,-128"/>
<text text-anchor="middle" x="219" y="-97.3" font-family="Times,serif" font-size="14.00">read_B</text>
</g>
<!-- beolvas_B&#45;&gt;fopen -->
<g id="edge19" class="edge"><title>beolvas_B&#45;&gt;fopen</title>
<path fill="none" stroke="black" d="M193.247,-73.9252C182.91,-63.4588 171.112,-51.5138 161.165,-41.4423"/>
<polygon fill="black" stroke="black" points="163.491,-38.8166 153.974,-34.1612 158.511,-43.7356 163.491,-38.8166"/>
</g>
<!-- beolvas_B&#45;&gt;fclose -->
<g id="edge22" class="edge"><title>beolvas_B&#45;&gt;fclose</title>
<path fill="none" stroke="black" d="M219,-73.9252C219,-65.1136 219,-55.254 219,-46.3466"/>
<polygon fill="black" stroke="black" points="222.5,-46.0883 219,-36.0883 215.5,-46.0883 222.5,-46.0883"/>
</g>
<!-- beolvas_B&#45;&gt;malloc -->
<g id="edge21" class="edge"><title>beolvas_B&#45;&gt;malloc</title>
<path fill="none" stroke="black" d="M246.362,-73.9252C257.453,-63.3562 270.127,-51.2794 280.76,-41.1466"/>
<polygon fill="black" stroke="black" points="283.265,-43.5937 288.09,-34.1612 278.436,-38.5262 283.265,-43.5937"/>
</g>
<!-- beolvas_B&#45;&gt;tanul -->
<g id="edge20" class="edge"><title>beolvas_B&#45;&gt;tanul</title>
<path fill="none" stroke="red" stroke-width="2" d="M256.069,-75.8761C259.029,-74.4355 262.025,-73.1195 265,-72 351.988,-39.2673 379.955,-54.6869 471,-36 482.367,-33.667 494.677,-30.8635 505.851,-28.212"/>
<polygon fill="red" stroke="red" stroke-width="2" points="506.827,-31.5772 515.732,-25.8377 505.191,-24.771 506.827,-31.5772"/>
</g>
<!-- forditva -->
<g id="node12" class="node"><title>forditva</title>
<polygon fill="#bebada" stroke="black" points="362.5,-300 303.5,-300 303.5,-270 362.5,-270 362.5,-300"/>
<text text-anchor="middle" x="333" y="-281.3" font-family="Times,serif" font-size="14.00">reverse</text>
</g>
<!-- biralo -->
<g id="node13" class="node"><title>biralo</title>
<polygon fill="#bebada" stroke="black" points="462,-32 408,-32 408,-4 462,-4 462,-32"/>
<text text-anchor="middle" x="435" y="-14.3" font-family="Times,serif" font-size="14.00">decide</text>
</g>
<!-- kartyak_elfogytak -->
<g id="node14" class="node"><title>kartyak_elfogytak</title>
<polygon fill="#bebada" stroke="black" points="534.5,-314 419.5,-314 419.5,-256 534.5,-256 534.5,-314"/>
<text text-anchor="middle" x="477" y="-281.3" font-family="Times,serif" font-size="14.00">deck_empty</text>
</g>
<!-- kartyak_elfogytak&#45;&gt;exit -->
<g id="edge28" class="edge"><title>kartyak_elfogytak&#45;&gt;exit</title>
<path fill="none" stroke="black" d="M511.509,-255.961C557.224,-218.818 636.721,-154.226 676.647,-121.787"/>
<polygon fill="black" stroke="black" points="678.985,-124.397 684.539,-115.374 674.571,-118.964 678.985,-124.397"/>
</g>
<!-- kartyak_elfogytak&#45;&gt;main -->
<g id="edge24" class="edge"><title>kartyak_elfogytak&#45;&gt;main</title>
<path fill="none" stroke="red" stroke-width="2" d="M534.804,-264.803C588.131,-247.093 665.709,-221.329 711.099,-206.255"/>
<polygon fill="red" stroke="red" stroke-width="2" points="712.434,-209.5 720.821,-203.026 710.228,-202.856 712.434,-209.5"/>
</g>
<!-- tanul_forditva -->
<g id="node17" class="node"><title>tanul_forditva</title>
<polygon fill="#bebada" stroke="black" points="512.5,-220 419.5,-220 419.5,-166 512.5,-166 512.5,-220"/>
<text text-anchor="middle" x="466" y="-189.3" font-family="Times,serif" font-size="14.00">learn_reverse</text>
</g>
<!-- kartyak_elfogytak&#45;&gt;tanul_forditva -->
<g id="edge26" class="edge"><title>kartyak_elfogytak&#45;&gt;tanul_forditva</title>
<path fill="none" stroke="red" stroke-width="2" d="M467.191,-255.523C465.777,-247.469 464.591,-238.594 463.786,-230.152"/>
<polygon fill="red" stroke="red" stroke-width="2" points="467.273,-229.849 463.003,-220.153 460.294,-230.395 467.273,-229.849"/>
</g>
<!-- kartyak_elfogytak&#45;&gt;tanul_siman -->
<g id="edge25" class="edge"><title>kartyak_elfogytak&#45;&gt;tanul_siman</title>
<path fill="none" stroke="red" stroke-width="2" d="M470.079,-314.248C466.616,-322.652 462.371,-331.989 457.992,-340.868"/>
<polygon fill="red" stroke="red" stroke-width="2" points="454.815,-339.396 453.409,-349.897 461.056,-342.565 454.815,-339.396"/>
</g>
<!-- felszabadit -->
<g id="node19" class="node"><title>felszabadit</title>
<polygon fill="#bebada" stroke="black" points="362.5,-204.5 287.5,-204.5 287.5,-181.5 362.5,-181.5 362.5,-204.5"/>
<text text-anchor="middle" x="325" y="-189.3" font-family="Times,serif" font-size="14.00">clear</text>
</g>
<!-- kartyak_elfogytak&#45;&gt;felszabadit -->
<g id="edge23" class="edge"><title>kartyak_elfogytak&#45;&gt;felszabadit</title>
<path fill="none" stroke="black" d="M429.323,-255.77C403.689,-240.592 373.038,-222.444 351.618,-209.76"/>
<polygon fill="black" stroke="black" points="353.149,-206.599 342.761,-204.516 349.582,-212.623 353.149,-206.599"/>
</g>
<!-- kartyak_elfogytak&#45;&gt;tanul -->
<g id="edge27" class="edge"><title>kartyak_elfogytak&#45;&gt;tanul</title>
<path fill="none" stroke="red" stroke-width="2" d="M500.873,-255.748C508.564,-245.17 516.305,-232.64 521,-220 543.067,-160.593 544.951,-85.0175 544.145,-45.6192"/>
<polygon fill="red" stroke="red" stroke-width="2" points="547.64,-45.4073 543.86,-35.5097 540.643,-45.6042 547.64,-45.4073"/>
</g>
<!-- elulso_A -->
<g id="node15" class="node"><title>elulso_A</title>
<polygon fill="#bebada" stroke="black" points="514.5,-130 449.5,-130 449.5,-72 514.5,-72 514.5,-130"/>
<text text-anchor="middle" x="482" y="-97.3" font-family="Times,serif" font-size="14.00">first_A</text>
</g>
<!-- elulso_A&#45;&gt;biralo -->
<g id="edge29" class="edge"><title>elulso_A&#45;&gt;biralo</title>
<path fill="none" stroke="black" d="M465.562,-71.6701C459.685,-61.5422 453.159,-50.2949 447.651,-40.8031"/>
<polygon fill="black" stroke="black" points="450.591,-38.8956 442.545,-32.0028 444.536,-42.4088 450.591,-38.8956"/>
</g>
<!-- elulso_B -->
<g id="node16" class="node"><title>elulso_B</title>
<polygon fill="#bebada" stroke="black" points="431.5,-130 366.5,-130 366.5,-72 431.5,-72 431.5,-130"/>
<text text-anchor="middle" x="399" y="-97.3" font-family="Times,serif" font-size="14.00">first_B</text>
</g>
<!-- elulso_B&#45;&gt;biralo -->
<g id="edge30" class="edge"><title>elulso_B&#45;&gt;biralo</title>
<path fill="none" stroke="black" d="M411.591,-71.6701C415.999,-61.7532 420.883,-50.7631 425.045,-41.3986"/>
<polygon fill="black" stroke="black" points="428.358,-42.5624 429.221,-32.0028 421.961,-39.7194 428.358,-42.5624"/>
</g>
<!-- tanul_forditva&#45;&gt;beolvas_A -->
<g id="edge31" class="edge"><title>tanul_forditva&#45;&gt;beolvas_A</title>
<path fill="none" stroke="red" stroke-width="2" d="M419.416,-165.904C400.038,-154.944 377.357,-141.982 357,-130 356.909,-129.947 356.819,-129.893 356.728,-129.84"/>
<polygon fill="red" stroke="red" stroke-width="2" points="358.485,-126.813 348.1,-124.712 354.908,-132.83 358.485,-126.813"/>
</g>
<!-- tanul_forditva&#45;&gt;beolvas_B -->
<g id="edge32" class="edge"><title>tanul_forditva&#45;&gt;beolvas_B</title>
<path fill="none" stroke="red" stroke-width="2" d="M419.187,-179.013C372.873,-165.927 304.403,-145.888 265.472,-129.725"/>
<polygon fill="red" stroke="red" stroke-width="2" points="266.808,-126.489 256.242,-125.706 264.013,-132.907 266.808,-126.489"/>
</g>
<!-- tanul_forditva&#45;&gt;kartyak_elfogytak -->
<g id="edge34" class="edge"><title>tanul_forditva&#45;&gt;kartyak_elfogytak</title>
<path fill="none" stroke="red" stroke-width="2" d="M475.39,-220.153C476.847,-228.036 478.091,-236.861 478.969,-245.376"/>
<polygon fill="red" stroke="red" stroke-width="2" points="475.498,-245.863 479.848,-255.523 482.472,-245.259 475.498,-245.863"/>
</g>
<!-- tanul_forditva&#45;&gt;elulso_A -->
<g id="edge33" class="edge"><title>tanul_forditva&#45;&gt;elulso_A</title>
<path fill="none" stroke="black" d="M470.628,-165.968C472.061,-157.908 473.67,-148.855 475.218,-140.152"/>
<polygon fill="black" stroke="black" points="478.687,-140.634 476.991,-130.176 471.795,-139.409 478.687,-140.634"/>
</g>
<!-- tanul_forditva&#45;&gt;elulso_B -->
<g id="edge35" class="edge"><title>tanul_forditva&#45;&gt;elulso_B</title>
<path fill="none" stroke="black" d="M446.621,-165.968C440.229,-157.383 432.999,-147.67 426.138,-138.454"/>
<polygon fill="black" stroke="black" points="428.754,-136.107 419.975,-130.176 423.139,-140.287 428.754,-136.107"/>
</g>
<!-- tanul_siman&#45;&gt;beolvas_A -->
<g id="edge36" class="edge"><title>tanul_siman&#45;&gt;beolvas_A</title>
<path fill="none" stroke="red" stroke-width="2" d="M392.492,-370.013C360.549,-361.627 317.941,-345.148 294,-314 253.681,-261.544 262.4,-230.296 278,-166 280.363,-156.262 284.481,-146.348 289.024,-137.322"/>
<polygon fill="red" stroke="red" stroke-width="2" points="292.228,-138.752 293.856,-128.283 286.055,-135.452 292.228,-138.752"/>
</g>
<!-- tanul_siman&#45;&gt;beolvas_B -->
<g id="edge37" class="edge"><title>tanul_siman&#45;&gt;beolvas_B</title>
<path fill="none" stroke="red" stroke-width="2" d="M392.338,-373.761C353.093,-367.492 295.595,-352.026 263,-314 220.558,-264.488 215.433,-184.721 216.539,-138.444"/>
<polygon fill="red" stroke="red" stroke-width="2" points="220.043,-138.387 216.896,-128.27 213.047,-138.141 220.043,-138.387"/>
</g>
<!-- tanul_siman&#45;&gt;forditva -->
<g id="edge38" class="edge"><title>tanul_siman&#45;&gt;forditva</title>
<path fill="none" stroke="black" d="M403.148,-349.897C388.018,-336.115 370.099,-319.794 356.16,-307.096"/>
<polygon fill="black" stroke="black" points="358.213,-304.232 348.463,-300.086 353.499,-309.407 358.213,-304.232"/>
</g>
<!-- tanul_siman&#45;&gt;kartyak_elfogytak -->
<g id="edge40" class="edge"><title>tanul_siman&#45;&gt;kartyak_elfogytak</title>
<path fill="none" stroke="red" stroke-width="2" d="M440.861,-349.897C444.315,-341.504 448.555,-332.17 452.932,-323.285"/>
<polygon fill="red" stroke="red" stroke-width="2" points="456.114,-324.75 457.515,-314.248 449.871,-321.583 456.114,-324.75"/>
</g>
<!-- tanul_siman&#45;&gt;elulso_A -->
<g id="edge39" class="edge"><title>tanul_siman&#45;&gt;elulso_A</title>
<path fill="none" stroke="black" d="M475.541,-365.305C499.862,-355.492 528.554,-339.234 543,-314 575.377,-257.444 537.765,-182.411 508.899,-138.449"/>
<polygon fill="black" stroke="black" points="511.755,-136.425 503.266,-130.086 505.949,-140.335 511.755,-136.425"/>
</g>
<!-- tanul_siman&#45;&gt;elulso_B -->
<g id="edge41" class="edge"><title>tanul_siman&#45;&gt;elulso_B</title>
<path fill="none" stroke="black" d="M421.325,-349.884C416.949,-338.91 412.516,-326.082 410,-314 397.567,-254.294 396.611,-183.197 397.49,-140.381"/>
<polygon fill="black" stroke="black" points="400.995,-140.214 397.747,-130.129 393.997,-140.038 400.995,-140.214"/>
</g>
<!-- felszabadit&#45;&gt;free -->
<g id="edge42" class="edge"><title>felszabadit&#45;&gt;free</title>
<path fill="none" stroke="black" d="M291.766,-181.402C260.13,-170.64 211.737,-152.394 173,-130 168.958,-127.663 164.868,-124.917 160.966,-122.075"/>
<polygon fill="black" stroke="black" points="162.882,-119.133 152.818,-115.819 158.619,-124.685 162.882,-119.133"/>
</g>
<!-- tanul&#45;&gt;tanul_siman -->
<g id="edge43" class="edge"><title>tanul&#45;&gt;tanul_siman</title>
<path fill="none" stroke="red" stroke-width="2" d="M550.452,-35.6237C570.583,-83.2574 620.834,-222.673 564,-314 546.82,-341.608 513.846,-357.652 485.408,-366.773"/>
<polygon fill="red" stroke="red" stroke-width="2" points="484.147,-363.496 475.571,-369.717 486.155,-370.202 484.147,-363.496"/>
</g>
</g>
</svg>
