<?xml version="1.0" encoding="UTF-8" standalone="no"?>
<!DOCTYPE svg PUBLIC "-//W3C//DTD SVG 1.1//EN"
 "http://www.w3.org/Graphics/SVG/1.1/DTD/svg11.dtd">
<!-- Generated by graphviz version 2.38.0 (20140413.2041)
 -->
<!-- Title: %3 Pages: 1 -->
<svg width="908pt" height="556pt"
 viewBox="0.00 0.00 907.67 556.00" xmlns="http://www.w3.org/2000/svg" xmlns:xlink="http://www.w3.org/1999/xlink">
<g id="graph0" class="graph" transform="scale(1 1) rotate(0) translate(4 552)">
<title>%3</title>
<polygon fill="white" stroke="none" points="-4,4 -4,-552 903.672,-552 903.672,4 -4,4"/>
<!-- fopen -->
<g id="node1" class="node"><title>fopen</title>
<ellipse fill="#eeeeee" stroke="black" cx="230.64" cy="-104" rx="30.5947" ry="18"/>
<text text-anchor="middle" x="230.64" y="-100.3" font-family="Times,serif" font-size="14.00">fopen</text>
</g>
<!-- fclose -->
<g id="node2" class="node"><title>fclose</title>
<ellipse fill="#eeeeee" stroke="black" cx="149.64" cy="-104" rx="31.6951" ry="18"/>
<text text-anchor="middle" x="149.64" y="-100.3" font-family="Times,serif" font-size="14.00">fclose</text>
</g>
<!-- malloc -->
<g id="node3" class="node"><title>malloc</title>
<ellipse fill="#eeeeee" stroke="black" cx="610.64" cy="-18" rx="35.194" ry="18"/>
<text text-anchor="middle" x="610.64" y="-14.3" font-family="Times,serif" font-size="14.00">malloc</text>
</g>
<!-- free -->
<g id="node4" class="node"><title>free</title>
<ellipse fill="#eeeeee" stroke="black" cx="749.64" cy="-18" rx="27" ry="18"/>
<text text-anchor="middle" x="749.64" y="-14.3" font-family="Times,serif" font-size="14.00">free</text>
</g>
<!-- exit -->
<g id="node5" class="node"><title>exit</title>
<ellipse fill="#eeeeee" stroke="black" cx="238.64" cy="-352.5" rx="27" ry="18"/>
<text text-anchor="middle" x="238.64" y="-348.8" font-family="Times,serif" font-size="14.00">exit</text>
</g>
<!-- menu -->
<g id="node6" class="node"><title>menu</title>
<polygon fill="#8dd3c7" stroke="black" points="420.64,-477 366.64,-477 366.64,-423 420.64,-423 420.64,-477"/>
<text text-anchor="middle" x="393.64" y="-446.3" font-family="Times,serif" font-size="14.00">menu</text>
</g>
<!-- menu&#45;&gt;exit -->
<g id="edge1" class="edge"><title>menu&#45;&gt;exit</title>
<path fill="none" stroke="black" d="M366.558,-436.072C342.925,-424.374 308.065,-406.098 279.64,-387 273.797,-383.074 267.779,-378.498 262.216,-374.013"/>
<polygon fill="black" stroke="black" points="264.396,-371.275 254.462,-367.593 259.932,-376.666 264.396,-371.275"/>
</g>
<!-- menu1 -->
<g id="node14" class="node"><title>menu1</title>
<polygon fill="#bebada" stroke="black" points="662.64,-385.5 608.64,-385.5 608.64,-319.5 662.64,-319.5 662.64,-385.5"/>
<text text-anchor="middle" x="635.64" y="-348.8" font-family="Times,serif" font-size="14.00">menu1</text>
</g>
<!-- menu&#45;&gt;menu1 -->
<g id="edge2" class="edge"><title>menu&#45;&gt;menu1</title>
<path fill="none" stroke="red" stroke-width="2" d="M421.016,-436.318C464.787,-417.996 550.128,-384.32 599.061,-366.064"/>
<polygon fill="red" stroke="red" stroke-width="2" points="600.468,-369.275 608.631,-362.52 598.037,-362.71 600.468,-369.275"/>
</g>
<!-- menu2 -->
<g id="node17" class="node"><title>menu2</title>
<polygon fill="#fb8072" stroke="black" points="465.64,-387 411.64,-387 411.64,-318 465.64,-318 465.64,-387"/>
<text text-anchor="middle" x="438.64" y="-348.8" font-family="Times,serif" font-size="14.00">menu2</text>
</g>
<!-- menu&#45;&gt;menu2 -->
<g id="edge3" class="edge"><title>menu&#45;&gt;menu2</title>
<path fill="none" stroke="red" stroke-width="2" d="M399.846,-422.904C403.209,-414.62 407.424,-405.233 411.852,-396.1"/>
<polygon fill="red" stroke="red" stroke-width="2" points="415.008,-397.615 416.327,-387.103 408.74,-394.498 415.008,-397.615"/>
</g>
<!-- menu3 -->
<g id="node21" class="node"><title>menu3</title>
<polygon fill="#80b1d3" stroke="black" points="257.64,-254.5 203.64,-254.5 203.64,-199.5 257.64,-199.5 257.64,-254.5"/>
<text text-anchor="middle" x="230.64" y="-223.3" font-family="Times,serif" font-size="14.00">menu3</text>
</g>
<!-- menu&#45;&gt;menu3 -->
<g id="edge4" class="edge"><title>menu&#45;&gt;menu3</title>
<path fill="none" stroke="black" d="M366.363,-432.577C349.349,-421.333 327.87,-405.198 312.64,-387 304.005,-376.681 269.489,-307.48 248.086,-263.839"/>
<polygon fill="black" stroke="black" points="251.142,-262.121 243.602,-254.679 244.855,-265.199 251.142,-262.121"/>
</g>
<!-- menu4 -->
<g id="node22" class="node"><title>menu4</title>
<polygon fill="#fdb462" stroke="black" points="375.64,-378 321.64,-378 321.64,-327 375.64,-327 375.64,-378"/>
<text text-anchor="middle" x="348.64" y="-348.8" font-family="Times,serif" font-size="14.00">menu4</text>
</g>
<!-- menu&#45;&gt;menu4 -->
<g id="edge5" class="edge"><title>menu&#45;&gt;menu4</title>
<path fill="none" stroke="red" stroke-width="2" d="M375.253,-422.904C369.42,-412.032 363.265,-399.259 358.233,-387.654"/>
<polygon fill="red" stroke="red" stroke-width="2" points="361.388,-386.126 354.303,-378.249 354.929,-388.825 361.388,-386.126"/>
</g>
<!-- rekordolvas -->
<g id="node7" class="node"><title>rekordolvas</title>
<polygon fill="#8dd3c7" stroke="black" points="596.64,-131 516.64,-131 516.64,-77 596.64,-77 596.64,-131"/>
<text text-anchor="middle" x="556.64" y="-100.3" font-family="Times,serif" font-size="14.00">readrecord</text>
</g>
<!-- rekordolvas&#45;&gt;malloc -->
<g id="edge6" class="edge"><title>rekordolvas&#45;&gt;malloc</title>
<path fill="none" stroke="black" d="M573.43,-76.8823C580.183,-66.378 587.935,-54.3192 594.61,-43.9367"/>
<polygon fill="black" stroke="black" points="597.682,-45.6297 600.146,-35.3253 591.794,-41.8444 597.682,-45.6297"/>
</g>
<!-- rekordolvas&#45;&gt;free -->
<g id="edge7" class="edge"><title>rekordolvas&#45;&gt;free</title>
<path fill="none" stroke="black" d="M596.832,-84.4626C605.954,-80.3151 615.614,-75.9701 624.64,-72 656.07,-58.1759 692.203,-42.9243 717.511,-32.3454"/>
<polygon fill="black" stroke="black" points="719.1,-35.4749 726.981,-28.3938 716.404,-29.0147 719.1,-35.4749"/>
</g>
<!-- lfree -->
<g id="node8" class="node"><title>lfree</title>
<polygon fill="#8dd3c7" stroke="black" points="882.64,-462.5 828.64,-462.5 828.64,-437.5 882.64,-437.5 882.64,-462.5"/>
<text text-anchor="middle" x="855.64" y="-446.3" font-family="Times,serif" font-size="14.00">lfree</text>
</g>
<!-- lfree&#45;&gt;free -->
<g id="edge8" class="edge"><title>lfree&#45;&gt;free</title>
<path fill="none" stroke="black" d="M860.003,-437.467C877.874,-388.091 940.725,-191.606 857.64,-72 840.779,-47.7271 809.561,-34.0946 785.008,-26.7558"/>
<polygon fill="black" stroke="black" points="785.866,-23.3616 775.295,-24.0695 784,-30.1084 785.866,-23.3616"/>
</g>
<!-- ftolt -->
<g id="node9" class="node"><title>ftolt</title>
<polygon fill="#8dd3c7" stroke="black" points="858.64,-248 804.64,-248 804.64,-206 858.64,-206 858.64,-248"/>
<text text-anchor="middle" x="831.64" y="-223.3" font-family="Times,serif" font-size="14.00">fsave</text>
</g>
<!-- fbeolv -->
<g id="node10" class="node"><title>fbeolv</title>
<polygon fill="#8dd3c7" stroke="black" points="848.64,-136 794.64,-136 794.64,-72 848.64,-72 848.64,-136"/>
<text text-anchor="middle" x="821.64" y="-100.3" font-family="Times,serif" font-size="14.00">fload</text>
</g>
<!-- ftolt&#45;&gt;fbeolv -->
<g id="edge9" class="edge"><title>ftolt&#45;&gt;fbeolv</title>
<path fill="none" stroke="black" d="M829.967,-205.747C828.632,-189.591 826.717,-166.428 825.061,-146.384"/>
<polygon fill="black" stroke="black" points="828.534,-145.918 824.222,-136.24 821.558,-146.495 828.534,-145.918"/>
</g>
<!-- hozzaad -->
<g id="node11" class="node"><title>hozzaad</title>
<polygon fill="#8dd3c7" stroke="black" points="695.14,-126 634.14,-126 634.14,-82 695.14,-82 695.14,-126"/>
<text text-anchor="middle" x="664.64" y="-100.3" font-family="Times,serif" font-size="14.00">add</text>
</g>
<!-- ftolt&#45;&gt;hozzaad -->
<g id="edge10" class="edge"><title>ftolt&#45;&gt;hozzaad</title>
<path fill="none" stroke="black" d="M804.606,-206.212C790.604,-195.978 773.22,-183.296 757.64,-172 739.531,-158.87 719.395,-144.353 702.503,-132.198"/>
<polygon fill="black" stroke="black" points="704.155,-129.075 693.994,-126.077 700.068,-134.758 704.155,-129.075"/>
</g>
<!-- fbeolv&#45;&gt;malloc -->
<g id="edge11" class="edge"><title>fbeolv&#45;&gt;malloc</title>
<path fill="none" stroke="black" d="M794.594,-77.7269C791.685,-75.6237 788.676,-73.6684 785.64,-72 743.554,-48.8718 690.099,-34.5704 653.407,-26.7401"/>
<polygon fill="black" stroke="black" points="654.027,-23.2944 643.526,-24.7012 652.612,-30.1499 654.027,-23.2944"/>
</g>
<!-- fbeolv&#45;&gt;free -->
<g id="edge12" class="edge"><title>fbeolv&#45;&gt;free</title>
<path fill="none" stroke="black" d="M794.83,-71.7215C786.296,-61.7642 777.022,-50.9452 769.11,-41.714"/>
<polygon fill="black" stroke="black" points="771.725,-39.3869 762.559,-34.0721 766.41,-43.9424 771.725,-39.3869"/>
</g>
<!-- hozzaad&#45;&gt;malloc -->
<g id="edge13" class="edge"><title>hozzaad&#45;&gt;malloc</title>
<path fill="none" stroke="black" d="M651.014,-81.8033C643.644,-70.3392 634.496,-56.1087 626.772,-44.0939"/>
<polygon fill="black" stroke="black" points="629.548,-41.9396 621.196,-35.4204 623.66,-45.7249 629.548,-41.9396"/>
</g>
<!-- rekhozad -->
<g id="node12" class="node"><title>rekhozad</title>
<polygon fill="#8dd3c7" stroke="black" points="748.64,-246 682.64,-246 682.64,-208 748.64,-208 748.64,-246"/>
<text text-anchor="middle" x="715.64" y="-223.3" font-family="Times,serif" font-size="14.00">recadd</text>
</g>
<!-- rekhozad&#45;&gt;rekordolvas -->
<g id="edge14" class="edge"><title>rekhozad&#45;&gt;rekordolvas</title>
<path fill="none" stroke="black" d="M704.131,-207.753C696.439,-196.526 685.569,-182.355 673.64,-172 653.457,-154.478 628.001,-139.258 605.992,-127.771"/>
<polygon fill="black" stroke="black" points="607.294,-124.506 596.796,-123.081 604.114,-130.742 607.294,-124.506"/>
</g>
<!-- rekhozad&#45;&gt;hozzaad -->
<g id="edge15" class="edge"><title>rekhozad&#45;&gt;hozzaad</title>
<path fill="none" stroke="black" d="M708.005,-207.885C699.933,-188.733 687.061,-158.193 677.434,-135.353"/>
<polygon fill="black" stroke="black" points="680.64,-133.947 673.53,-126.092 674.189,-136.666 680.64,-133.947"/>
</g>
<!-- main -->
<g id="node13" class="node"><title>main</title>
<polygon fill="#ffffb3" stroke="black" points="420.64,-548 366.64,-548 366.64,-513 420.64,-513 420.64,-548"/>
<text text-anchor="middle" x="393.64" y="-526.8" font-family="Times,serif" font-size="14.00">main</text>
</g>
<!-- main&#45;&gt;fopen -->
<g id="edge16" class="edge"><title>main&#45;&gt;fopen</title>
<path fill="none" stroke="black" d="M366.428,-529.368C295.805,-528.391 109.52,-521.556 71.6405,-477 22.86,-419.622 -76.9213,-409.578 104.64,-172 129.801,-139.077 154.845,-156.871 190.64,-136 195.892,-132.938 201.226,-129.267 206.215,-125.54"/>
<polygon fill="black" stroke="black" points="208.473,-128.218 214.21,-119.311 204.171,-122.696 208.473,-128.218"/>
</g>
<!-- main&#45;&gt;fclose -->
<g id="edge19" class="edge"><title>main&#45;&gt;fclose</title>
<path fill="none" stroke="black" d="M366.56,-517.462C304.471,-488.063 153.452,-405.835 104.64,-282 86.7127,-236.517 90.3929,-218.767 104.64,-172 109.518,-155.991 119.639,-140.336 129.05,-128.189"/>
<polygon fill="black" stroke="black" points="131.802,-130.353 135.378,-120.38 126.363,-125.946 131.802,-130.353"/>
</g>
<!-- main&#45;&gt;menu -->
<g id="edge18" class="edge"><title>main&#45;&gt;menu</title>
<path fill="none" stroke="black" d="M393.64,-512.852C393.64,-505.412 393.64,-496.329 393.64,-487.438"/>
<polygon fill="black" stroke="black" points="397.141,-487.201 393.64,-477.201 390.141,-487.201 397.141,-487.201"/>
</g>
<!-- main&#45;&gt;lfree -->
<g id="edge20" class="edge"><title>main&#45;&gt;lfree</title>
<path fill="none" stroke="black" d="M420.961,-527.827C485.088,-523.469 649.929,-509.746 783.64,-477 795.322,-474.139 807.741,-470.052 818.917,-465.963"/>
<polygon fill="black" stroke="black" points="820.246,-469.203 828.369,-462.4 817.777,-462.653 820.246,-469.203"/>
</g>
<!-- main&#45;&gt;ftolt -->
<g id="edge17" class="edge"><title>main&#45;&gt;ftolt</title>
<path fill="none" stroke="black" d="M420.915,-520.476C475.551,-501.555 600.784,-453.885 689.64,-387 740.206,-348.938 786.58,-290.777 811.799,-256.354"/>
<polygon fill="black" stroke="black" points="814.715,-258.293 817.744,-248.14 809.045,-254.189 814.715,-258.293"/>
</g>
<!-- menu1&#45;&gt;menu -->
<g id="edge21" class="edge"><title>menu1&#45;&gt;menu</title>
<path fill="none" stroke="red" stroke-width="2" d="M608.529,-366.071C564.96,-384.317 479.728,-417.955 430.631,-436.283"/>
<polygon fill="red" stroke="red" stroke-width="2" points="429.184,-433.086 421.023,-439.843 431.616,-439.65 429.184,-433.086"/>
</g>
<!-- menu1&#45;&gt;rekhozad -->
<g id="edge24" class="edge"><title>menu1&#45;&gt;rekhozad</title>
<path fill="none" stroke="black" d="M656.451,-319.374C669.48,-299.261 686.069,-273.651 698.368,-254.665"/>
<polygon fill="black" stroke="black" points="701.358,-256.487 703.857,-246.191 695.483,-252.681 701.358,-256.487"/>
</g>
<!-- menu1&#45;&gt;menu1 -->
<g id="edge23" class="edge"><title>menu1&#45;&gt;menu1</title>
<path fill="none" stroke="red" stroke-width="2" d="M662.881,-370.482C672.664,-370.869 680.64,-364.875 680.64,-352.5 680.64,-344.766 677.525,-339.524 672.8,-336.774"/>
<polygon fill="red" stroke="red" stroke-width="2" points="673.409,-333.324 662.881,-334.518 671.855,-340.149 673.409,-333.324"/>
</g>
<!-- listakiir -->
<g id="node15" class="node"><title>listakiir</title>
<polygon fill="#bebada" stroke="black" points="664.64,-245.5 606.64,-245.5 606.64,-208.5 664.64,-208.5 664.64,-245.5"/>
<text text-anchor="middle" x="635.64" y="-223.3" font-family="Times,serif" font-size="14.00">printlist</text>
</g>
<!-- menu1&#45;&gt;listakiir -->
<g id="edge22" class="edge"><title>menu1&#45;&gt;listakiir</title>
<path fill="none" stroke="black" d="M635.64,-319.374C635.64,-299.687 635.64,-274.734 635.64,-255.88"/>
<polygon fill="black" stroke="black" points="639.141,-255.838 635.64,-245.838 632.141,-255.838 639.141,-255.838"/>
</g>
<!-- torol -->
<g id="node16" class="node"><title>torol</title>
<polygon fill="#bebada" stroke="black" points="776.64,-125.5 722.64,-125.5 722.64,-82.5 776.64,-82.5 776.64,-125.5"/>
<text text-anchor="middle" x="749.64" y="-100.3" font-family="Times,serif" font-size="14.00">delete</text>
</g>
<!-- menu1&#45;&gt;torol -->
<g id="edge25" class="edge"><title>menu1&#45;&gt;torol</title>
<path fill="none" stroke="black" d="M662.735,-344.742C692.046,-335.821 737.307,-316.985 757.64,-282 784.132,-236.42 771.567,-172.538 760.367,-135.288"/>
<polygon fill="black" stroke="black" points="763.631,-134.004 757.278,-125.526 756.958,-136.116 763.631,-134.004"/>
</g>
<!-- torol&#45;&gt;free -->
<g id="edge26" class="edge"><title>torol&#45;&gt;free</title>
<path fill="none" stroke="black" d="M749.64,-82.2359C749.64,-71.3745 749.64,-57.9417 749.64,-46.254"/>
<polygon fill="black" stroke="black" points="753.141,-46.1347 749.64,-36.1348 746.141,-46.1348 753.141,-46.1347"/>
</g>
<!-- menu2&#45;&gt;menu -->
<g id="edge27" class="edge"><title>menu2&#45;&gt;menu</title>
<path fill="none" stroke="red" stroke-width="2" d="M429.286,-387.103C425.52,-395.823 421.102,-405.236 416.651,-414.025"/>
<polygon fill="red" stroke="red" stroke-width="2" points="413.542,-412.418 412.028,-422.904 419.751,-415.651 413.542,-412.418"/>
</g>
<!-- menu2&#45;&gt;menu2 -->
<g id="edge29" class="edge"><title>menu2&#45;&gt;menu2</title>
<path fill="none" stroke="red" stroke-width="2" d="M465.881,-370.482C475.664,-370.869 483.64,-364.875 483.64,-352.5 483.64,-344.766 480.525,-339.524 475.8,-336.774"/>
<polygon fill="red" stroke="red" stroke-width="2" points="476.409,-333.324 465.881,-334.518 474.855,-340.149 476.409,-333.324"/>
</g>
<!-- wildcard -->
<g id="node18" class="node"><title>wildcard</title>
<polygon fill="#fb8072" stroke="black" points="588.64,-282 524.64,-282 524.64,-172 588.64,-172 588.64,-282"/>
<text text-anchor="middle" x="556.64" y="-223.3" font-family="Times,serif" font-size="14.00">wildcard</text>
</g>
<!-- menu2&#45;&gt;wildcard -->
<g id="edge31" class="edge"><title>menu2&#45;&gt;wildcard</title>
<path fill="none" stroke="black" d="M465.708,-328.741C480.708,-315.647 499.358,-298.552 514.64,-282 515.673,-280.882 516.707,-279.741 517.74,-278.581"/>
<polygon fill="black" stroke="black" points="520.64,-280.578 524.517,-270.718 515.337,-276.008 520.64,-280.578"/>
</g>
<!-- nevkeres -->
<g id="node19" class="node"><title>nevkeres</title>
<polygon fill="#fb8072" stroke="black" points="429.14,-247 364.14,-247 364.14,-207 429.14,-207 429.14,-247"/>
<text text-anchor="middle" x="396.64" y="-223.3" font-family="Times,serif" font-size="14.00">findname</text>
</g>
<!-- menu2&#45;&gt;nevkeres -->
<g id="edge28" class="edge"><title>menu2&#45;&gt;nevkeres</title>
<path fill="none" stroke="black" d="M427.164,-317.753C420.647,-298.591 412.578,-274.864 406.373,-256.619"/>
<polygon fill="black" stroke="black" points="409.673,-255.451 403.14,-247.111 403.046,-257.705 409.673,-255.451"/>
</g>
<!-- telkeres -->
<g id="node20" class="node"><title>telkeres</title>
<polygon fill="#fb8072" stroke="black" points="506.14,-247 447.14,-247 447.14,-207 506.14,-207 506.14,-247"/>
<text text-anchor="middle" x="476.64" y="-223.3" font-family="Times,serif" font-size="14.00">findtel</text>
</g>
<!-- menu2&#45;&gt;telkeres -->
<g id="edge30" class="edge"><title>menu2&#45;&gt;telkeres</title>
<path fill="none" stroke="black" d="M449.024,-317.753C454.893,-298.679 462.153,-275.083 467.757,-256.873"/>
<polygon fill="black" stroke="black" points="471.165,-257.698 470.76,-247.111 464.474,-255.639 471.165,-257.698"/>
</g>
<!-- wildcard&#45;&gt;rekordolvas -->
<g id="edge32" class="edge"><title>wildcard&#45;&gt;rekordolvas</title>
<path fill="none" stroke="black" d="M556.64,-171.87C556.64,-161.519 556.64,-150.917 556.64,-141.293"/>
<polygon fill="black" stroke="black" points="560.141,-141.292 556.64,-131.292 553.141,-141.293 560.141,-141.292"/>
</g>
<!-- nevkeres&#45;&gt;rekordolvas -->
<g id="edge33" class="edge"><title>nevkeres&#45;&gt;rekordolvas</title>
<path fill="none" stroke="black" d="M408.162,-206.807C415.558,-195.642 425.948,-181.871 437.64,-172 464.071,-149.687 476.588,-153.125 506.64,-136 506.94,-135.829 507.24,-135.658 507.541,-135.485"/>
<polygon fill="black" stroke="black" points="509.542,-138.37 516.407,-130.3 506.008,-132.328 509.542,-138.37"/>
</g>
<!-- telkeres&#45;&gt;rekordolvas -->
<g id="edge34" class="edge"><title>telkeres&#45;&gt;rekordolvas</title>
<path fill="none" stroke="black" d="M489.317,-206.827C501.219,-188.826 519.303,-161.473 533.732,-139.649"/>
<polygon fill="black" stroke="black" points="536.667,-141.556 539.262,-131.284 530.828,-137.696 536.667,-141.556"/>
</g>
<!-- menu3&#45;&gt;fopen -->
<g id="edge36" class="edge"><title>menu3&#45;&gt;fopen</title>
<path fill="none" stroke="black" d="M230.64,-199.446C230.64,-179.515 230.64,-152.315 230.64,-132.224"/>
<polygon fill="black" stroke="black" points="234.141,-132.163 230.64,-122.163 227.141,-132.163 234.141,-132.163"/>
</g>
<!-- menu3&#45;&gt;fclose -->
<g id="edge37" class="edge"><title>menu3&#45;&gt;fclose</title>
<path fill="none" stroke="black" d="M212.865,-199.446C198.91,-178.6 179.633,-149.804 166.044,-129.504"/>
<polygon fill="black" stroke="black" points="168.892,-127.466 160.42,-121.103 163.075,-131.36 168.892,-127.466"/>
</g>
<!-- menu3&#45;&gt;rekordolvas -->
<g id="edge35" class="edge"><title>menu3&#45;&gt;rekordolvas</title>
<path fill="none" stroke="black" d="M242.525,-199.265C248.356,-189.154 256.368,-178.524 266.64,-172 357.689,-114.173 405.392,-173.182 506.64,-136 507.225,-135.785 507.809,-135.564 508.394,-135.335"/>
<polygon fill="black" stroke="black" points="510.138,-138.389 517.828,-131.101 507.272,-132.002 510.138,-138.389"/>
</g>
<!-- menu4&#45;&gt;menu -->
<g id="edge38" class="edge"><title>menu4&#45;&gt;menu</title>
<path fill="none" stroke="red" stroke-width="2" d="M366.302,-378.249C372.105,-388.958 378.291,-401.695 383.414,-413.392"/>
<polygon fill="red" stroke="red" stroke-width="2" points="380.317,-415.056 387.435,-422.904 386.765,-412.331 380.317,-415.056"/>
</g>
<!-- menu4&#45;&gt;menu4 -->
<g id="edge40" class="edge"><title>menu4&#45;&gt;menu4</title>
<path fill="none" stroke="red" stroke-width="2" d="M375.881,-370.482C385.664,-370.869 393.64,-364.875 393.64,-352.5 393.64,-344.766 390.525,-339.524 385.8,-336.774"/>
<polygon fill="red" stroke="red" stroke-width="2" points="386.409,-333.324 375.881,-334.518 384.855,-340.149 386.409,-333.324"/>
</g>
<!-- vcardread -->
<g id="node23" class="node"><title>vcardread</title>
<polygon fill="#fdb462" stroke="black" points="345.64,-260 275.64,-260 275.64,-194 345.64,-194 345.64,-260"/>
<text text-anchor="middle" x="310.64" y="-223.3" font-family="Times,serif" font-size="14.00">vcardread</text>
</g>
<!-- menu4&#45;&gt;vcardread -->
<g id="edge41" class="edge"><title>menu4&#45;&gt;vcardread</title>
<path fill="none" stroke="black" d="M341.042,-326.805C336.025,-310.5 329.326,-288.727 323.492,-269.769"/>
<polygon fill="black" stroke="black" points="326.821,-268.684 320.535,-260.156 320.13,-270.743 326.821,-268.684"/>
</g>
<!-- vcardsave -->
<g id="node24" class="node"><title>vcardsave</title>
<polygon fill="#fdb462" stroke="black" points="185.14,-251.5 114.14,-251.5 114.14,-202.5 185.14,-202.5 185.14,-251.5"/>
<text text-anchor="middle" x="149.64" y="-223.3" font-family="Times,serif" font-size="14.00">vcardsave</text>
</g>
<!-- menu4&#45;&gt;vcardsave -->
<g id="edge39" class="edge"><title>menu4&#45;&gt;vcardsave</title>
<path fill="none" stroke="black" d="M321.584,-339.234C307.576,-332.888 290.194,-325.02 274.64,-318 239.103,-301.96 225.692,-305.579 194.64,-282 186.331,-275.69 178.552,-267.571 171.877,-259.556"/>
<polygon fill="black" stroke="black" points="174.552,-257.297 165.59,-251.646 169.072,-261.653 174.552,-257.297"/>
</g>
<!-- vcardread&#45;&gt;fopen -->
<g id="edge43" class="edge"><title>vcardread&#45;&gt;fopen</title>
<path fill="none" stroke="black" d="M289.412,-193.892C276.046,-173.676 259.063,-147.989 246.794,-129.433"/>
<polygon fill="black" stroke="black" points="249.621,-127.362 241.187,-120.951 243.782,-131.223 249.621,-127.362"/>
</g>
<!-- vcardread&#45;&gt;rekordolvas -->
<g id="edge42" class="edge"><title>vcardread&#45;&gt;rekordolvas</title>
<path fill="none" stroke="black" d="M331.194,-193.776C337.788,-185.613 345.726,-177.587 354.64,-172 413.467,-135.133 442.529,-162.637 506.64,-136 507.077,-135.819 507.513,-135.634 507.951,-135.446"/>
<polygon fill="black" stroke="black" points="509.618,-138.528 517.134,-131.061 506.602,-132.211 509.618,-138.528"/>
</g>
<!-- vcardread&#45;&gt;hozzaad -->
<g id="edge45" class="edge"><title>vcardread&#45;&gt;hozzaad</title>
<path fill="none" stroke="black" d="M330.424,-193.807C337.1,-185.44 345.272,-177.299 354.64,-172 452.733,-116.515 498.423,-170.714 605.64,-136 612.075,-133.917 618.647,-131.168 624.959,-128.168"/>
<polygon fill="black" stroke="black" points="626.609,-131.256 633.973,-123.639 623.466,-125.001 626.609,-131.256"/>
</g>
<!-- vcardbeolv -->
<g id="node25" class="node"><title>vcardbeolv</title>
<polygon fill="#fdb462" stroke="black" points="498.14,-136 421.14,-136 421.14,-72 498.14,-72 498.14,-136"/>
<text text-anchor="middle" x="459.64" y="-100.3" font-family="Times,serif" font-size="14.00">vcardread2</text>
</g>
<!-- vcardread&#45;&gt;vcardbeolv -->
<g id="edge44" class="edge"><title>vcardread&#45;&gt;vcardbeolv</title>
<path fill="none" stroke="black" d="M333.958,-193.929C340.234,-186.312 347.325,-178.514 354.64,-172 371.928,-156.606 393.117,-142.371 411.922,-131.018"/>
<polygon fill="black" stroke="black" points="413.832,-133.954 420.653,-125.847 410.265,-127.931 413.832,-133.954"/>
</g>
<!-- vcardsave&#45;&gt;fopen -->
<g id="edge46" class="edge"><title>vcardsave&#45;&gt;fopen</title>
<path fill="none" stroke="black" d="M165.45,-202.383C179.47,-181.441 199.871,-150.964 214.105,-129.701"/>
<polygon fill="black" stroke="black" points="217.137,-131.464 219.791,-121.207 211.32,-127.57 217.137,-131.464"/>
</g>
<!-- vcardsave&#45;&gt;fclose -->
<g id="edge47" class="edge"><title>vcardsave&#45;&gt;fclose</title>
<path fill="none" stroke="black" d="M149.64,-202.383C149.64,-182.353 149.64,-153.601 149.64,-132.531"/>
<polygon fill="black" stroke="black" points="153.141,-132.299 149.64,-122.299 146.141,-132.299 153.141,-132.299"/>
</g>
<!-- vcardbeolv&#45;&gt;malloc -->
<g id="edge48" class="edge"><title>vcardbeolv&#45;&gt;malloc</title>
<path fill="none" stroke="black" d="M498.21,-77.6279C501.378,-75.686 504.549,-73.7879 507.64,-72 530.183,-58.9627 556.275,-45.5539 576.556,-35.4853"/>
<polygon fill="black" stroke="black" points="578.297,-38.5293 585.718,-30.9676 575.201,-32.2511 578.297,-38.5293"/>
</g>
<!-- vcardbeolv&#45;&gt;free -->
<g id="edge49" class="edge"><title>vcardbeolv&#45;&gt;free</title>
<path fill="none" stroke="black" d="M498.301,-76.42C501.393,-74.7953 504.527,-73.2964 507.64,-72 544.552,-56.6317 655.498,-35.6302 713.469,-25.2846"/>
<polygon fill="black" stroke="black" points="714.412,-28.6722 723.647,-23.4806 713.19,-21.7796 714.412,-28.6722"/>
</g>
</g>
</svg>
