<?xml version="1.0" encoding="UTF-8" standalone="no"?>
<!DOCTYPE svg PUBLIC "-//W3C//DTD SVG 1.1//EN"
 "http://www.w3.org/Graphics/SVG/1.1/DTD/svg11.dtd">
<!-- Generated by graphviz version 2.38.0 (20140413.2041)
 -->
<!-- Title: %3 Pages: 1 -->
<svg width="859pt" height="561pt"
 viewBox="0.00 0.00 858.63 561.00" xmlns="http://www.w3.org/2000/svg" xmlns:xlink="http://www.w3.org/1999/xlink">
<g id="graph0" class="graph" transform="scale(1 1) rotate(0) translate(4 557)">
<title>%3</title>
<polygon fill="white" stroke="none" points="-4,4 -4,-557 854.626,-557 854.626,4 -4,4"/>
<!-- fopen -->
<g id="node1" class="node"><title>fopen</title>
<ellipse fill="#eeeeee" stroke="black" cx="224.126" cy="-18" rx="30.5947" ry="18"/>
<text text-anchor="middle" x="224.126" y="-14.3" font-family="Times,serif" font-size="14.00">fopen</text>
</g>
<!-- fclose -->
<g id="node2" class="node"><title>fclose</title>
<ellipse fill="#eeeeee" stroke="black" cx="304.126" cy="-18" rx="31.6951" ry="18"/>
<text text-anchor="middle" x="304.126" y="-14.3" font-family="Times,serif" font-size="14.00">fclose</text>
</g>
<!-- malloc -->
<g id="node3" class="node"><title>malloc</title>
<ellipse fill="#eeeeee" stroke="black" cx="389.126" cy="-18" rx="35.194" ry="18"/>
<text text-anchor="middle" x="389.126" y="-14.3" font-family="Times,serif" font-size="14.00">malloc</text>
</g>
<!-- free -->
<g id="node4" class="node"><title>free</title>
<ellipse fill="#eeeeee" stroke="black" cx="139.126" cy="-18" rx="27" ry="18"/>
<text text-anchor="middle" x="139.126" y="-14.3" font-family="Times,serif" font-size="14.00">free</text>
</g>
<!-- exit -->
<g id="node5" class="node"><title>exit</title>
<defs>
<radialGradient id="r_0" cx="50%" cy="50%" r="75%" fx="50%" fy="50%">
<stop offset="0" style="stop-color:white;stop-opacity:1.;"/>
<stop offset="1" style="stop-color:#eeeeee;stop-opacity:1.;"/>
</radialGradient>
</defs>
<ellipse fill="url(#r_0)" stroke="black" stroke-dasharray="5,2" cx="613.126" cy="-527" rx="27" ry="18"/>
<text text-anchor="middle" x="613.126" y="-523.3" font-family="Times,serif" font-size="14.00">exit</text>
</g>
<!-- szomszedSzamolas -->
<g id="node6" class="node"><title>szomszedSzamolas</title>
<polygon fill="#8dd3c7" stroke="black" points="547.126,-299.5 425.126,-299.5 425.126,-236.5 547.126,-236.5 547.126,-299.5"/>
<text text-anchor="middle" x="486.126" y="-264.3" font-family="Times,serif" font-size="14.00">neighborCalc</text>
</g>
<!-- Felderit -->
<g id="node7" class="node"><title>Felderit</title>
<polygon fill="#8dd3c7" stroke="black" points="832.626,-304.5 773.626,-304.5 773.626,-231.5 832.626,-231.5 832.626,-304.5"/>
<text text-anchor="middle" x="803.126" y="-264.3" font-family="Times,serif" font-size="14.00">reveal</text>
</g>
<!-- Felderit&#45;&gt;Felderit -->
<g id="edge1" class="edge"><title>Felderit&#45;&gt;Felderit</title>
<path fill="none" stroke="red" stroke-width="2" d="M832.813,-295.375C842.709,-295.375 850.626,-286.25 850.626,-268 850.626,-256.309 847.377,-248.362 842.44,-244.16"/>
<polygon fill="red" stroke="red" stroke-width="2" points="843.407,-240.787 832.813,-240.625 840.994,-247.358 843.407,-240.787"/>
</g>
<!-- jatekFelSzab -->
<g id="node8" class="node"><title>jatekFelSzab</title>
<polygon fill="#8dd3c7" stroke="black" points="111.126,-137 25.126,-137 25.126,-106 111.126,-106 111.126,-137"/>
<text text-anchor="middle" x="68.126" y="-117.8" font-family="Times,serif" font-size="14.00">playerFree</text>
</g>
<!-- jatekFelSzab&#45;&gt;free -->
<g id="edge2" class="edge"><title>jatekFelSzab&#45;&gt;free</title>
<path fill="none" stroke="black" d="M78.2985,-105.958C89.8035,-89.5102 108.714,-62.4763 122.399,-42.9124"/>
<polygon fill="black" stroke="black" points="125.41,-44.7145 128.274,-34.5141 119.674,-40.7021 125.41,-44.7145"/>
</g>
<!-- iniFile -->
<g id="node9" class="node"><title>iniFile</title>
<polygon fill="#ffffb3" stroke="black" points="568.126,-426.5 514.126,-426.5 514.126,-403.5 568.126,-403.5 568.126,-426.5"/>
<text text-anchor="middle" x="541.126" y="-411.3" font-family="Times,serif" font-size="14.00">iniFile</text>
</g>
<!-- fileKi -->
<g id="node10" class="node"><title>fileKi</title>
<polygon fill="#ffffb3" stroke="black" points="148.126,-301 94.126,-301 94.126,-235 148.126,-235 148.126,-301"/>
<text text-anchor="middle" x="121.126" y="-264.3" font-family="Times,serif" font-size="14.00">fileOut</text>
</g>
<!-- fileKi&#45;&gt;free -->
<g id="edge4" class="edge"><title>fileKi&#45;&gt;free</title>
<path fill="none" stroke="black" d="M93.6637,-251.266C68.1715,-234.91 31.8633,-206.712 16.126,-171 -1.6173,-130.736 -8.05962,-108.757 16.126,-72 35.1359,-43.1092 73.5756,-29.8988 102.451,-23.9005"/>
<polygon fill="black" stroke="black" points="103.417,-27.2806 112.603,-22.0013 102.13,-20.4 103.417,-27.2806"/>
</g>
<!-- olvas -->
<g id="node13" class="node"><title>olvas</title>
<polygon fill="#ffffb3" stroke="black" points="259.126,-171 205.126,-171 205.126,-72 259.126,-72 259.126,-171"/>
<text text-anchor="middle" x="232.126" y="-117.8" font-family="Times,serif" font-size="14.00">Read</text>
</g>
<!-- fileKi&#45;&gt;olvas -->
<g id="edge3" class="edge"><title>fileKi&#45;&gt;olvas</title>
<path fill="none" stroke="black" d="M145.76,-234.931C161.404,-214.566 181.844,-187.958 198.912,-165.738"/>
<polygon fill="black" stroke="black" points="201.716,-167.833 205.032,-157.771 196.165,-163.569 201.716,-167.833"/>
</g>
<!-- top1 -->
<g id="node11" class="node"><title>top1</title>
<polygon fill="#ffffb3" stroke="black" points="258.126,-299.5 204.126,-299.5 204.126,-236.5 258.126,-236.5 258.126,-299.5"/>
<text text-anchor="middle" x="231.126" y="-264.3" font-family="Times,serif" font-size="14.00">top1</text>
</g>
<!-- top1&#45;&gt;free -->
<g id="edge6" class="edge"><title>top1&#45;&gt;free</title>
<path fill="none" stroke="black" d="M210.526,-236.296C204.08,-226.84 196.884,-216.437 190.126,-207 178.481,-190.74 170.915,-189.421 163.126,-171 145.721,-129.839 140.815,-77.5705 139.504,-46.2847"/>
<polygon fill="black" stroke="black" points="142.998,-46.0278 139.176,-36.1462 136.002,-46.2542 142.998,-46.0278"/>
</g>
<!-- top1&#45;&gt;olvas -->
<g id="edge5" class="edge"><title>top1&#45;&gt;olvas</title>
<path fill="none" stroke="black" d="M231.338,-236.355C231.449,-220.274 231.589,-200.021 231.721,-181.071"/>
<polygon fill="black" stroke="black" points="235.221,-181.036 231.79,-171.012 228.221,-180.988 235.221,-181.036"/>
</g>
<!-- ujTop1 -->
<g id="node12" class="node"><title>ujTop1</title>
<polygon fill="#ffffb3" stroke="black" points="332.126,-329 276.126,-329 276.126,-207 332.126,-207 332.126,-329"/>
<text text-anchor="middle" x="304.126" y="-264.3" font-family="Times,serif" font-size="14.00">newTop1</text>
</g>
<!-- ujTop1&#45;&gt;malloc -->
<g id="edge8" class="edge"><title>ujTop1&#45;&gt;malloc</title>
<path fill="none" stroke="black" d="M327.125,-206.985C331.541,-195.097 336.055,-182.682 340.126,-171 355.306,-127.438 371.452,-76.2937 380.897,-45.8246"/>
<polygon fill="black" stroke="black" points="384.338,-46.5434 383.945,-35.9558 377.649,-44.4774 384.338,-46.5434"/>
</g>
<!-- ujTop1&#45;&gt;free -->
<g id="edge10" class="edge"><title>ujTop1&#45;&gt;free</title>
<path fill="none" stroke="black" d="M276.059,-216.542C273.26,-213.129 270.278,-209.9 267.126,-207 241.088,-183.046 219.232,-197.793 196.126,-171 165.836,-135.877 180.048,-115.183 163.126,-72 159.591,-62.9805 155.337,-53.2804 151.398,-44.6756"/>
<polygon fill="black" stroke="black" points="154.53,-43.1117 147.14,-35.5206 148.183,-46.0639 154.53,-43.1117"/>
</g>
<!-- ujTop1&#45;&gt;olvas -->
<g id="edge7" class="edge"><title>ujTop1&#45;&gt;olvas</title>
<path fill="none" stroke="black" d="M276.083,-210.719C271.125,-200.769 265.955,-190.393 260.975,-180.399"/>
<polygon fill="black" stroke="black" points="264.06,-178.741 256.467,-171.352 257.794,-181.863 264.06,-178.741"/>
</g>
<!-- iras -->
<g id="node14" class="node"><title>iras</title>
<polygon fill="#ffffb3" stroke="black" points="331.126,-142 277.126,-142 277.126,-101 331.126,-101 331.126,-142"/>
<text text-anchor="middle" x="304.126" y="-117.8" font-family="Times,serif" font-size="14.00">Write</text>
</g>
<!-- ujTop1&#45;&gt;iras -->
<g id="edge9" class="edge"><title>ujTop1&#45;&gt;iras</title>
<path fill="none" stroke="black" d="M304.126,-206.974C304.126,-188.2 304.126,-168.291 304.126,-152.519"/>
<polygon fill="black" stroke="black" points="307.626,-152.326 304.126,-142.326 300.626,-152.326 307.626,-152.326"/>
</g>
<!-- olvas&#45;&gt;fopen -->
<g id="edge11" class="edge"><title>olvas&#45;&gt;fopen</title>
<path fill="none" stroke="black" d="M228.29,-71.831C227.595,-63.0165 226.894,-54.1181 226.27,-46.2018"/>
<polygon fill="black" stroke="black" points="229.75,-45.8099 225.475,-36.1159 222.772,-46.36 229.75,-45.8099"/>
</g>
<!-- olvas&#45;&gt;fclose -->
<g id="edge14" class="edge"><title>olvas&#45;&gt;fclose</title>
<path fill="none" stroke="black" d="M259.141,-82.4164C268.426,-69.3272 278.563,-55.0372 286.859,-43.3412"/>
<polygon fill="black" stroke="black" points="289.869,-45.1471 292.8,-34.9658 284.16,-41.0971 289.869,-45.1471"/>
</g>
<!-- olvas&#45;&gt;malloc -->
<g id="edge12" class="edge"><title>olvas&#45;&gt;malloc</title>
<path fill="none" stroke="black" d="M259.201,-80.2892C262.024,-77.2966 265.009,-74.4825 268.126,-72 275.249,-66.3271 320.106,-47.2937 353.135,-33.6609"/>
<polygon fill="black" stroke="black" points="354.606,-36.8405 362.523,-29.7997 351.943,-30.3667 354.606,-36.8405"/>
</g>
<!-- olvas&#45;&gt;free -->
<g id="edge13" class="edge"><title>olvas&#45;&gt;free</title>
<path fill="none" stroke="black" d="M205.107,-87.8627C200.508,-82.5039 195.729,-77.0535 191.126,-72 181.536,-61.473 170.54,-50.1622 161.137,-40.7042"/>
<polygon fill="black" stroke="black" points="163.542,-38.1596 153.994,-33.5667 158.594,-43.1111 163.542,-38.1596"/>
</g>
<!-- iras&#45;&gt;fopen -->
<g id="edge15" class="edge"><title>iras&#45;&gt;fopen</title>
<path fill="none" stroke="black" d="M290,-100.966C283.456,-92.0479 275.509,-81.4018 268.126,-72 260.435,-62.2065 251.722,-51.6117 244.089,-42.4876"/>
<polygon fill="black" stroke="black" points="246.56,-39.9873 237.445,-34.5869 241.203,-44.4929 246.56,-39.9873"/>
</g>
<!-- iras&#45;&gt;fclose -->
<g id="edge16" class="edge"><title>iras&#45;&gt;fclose</title>
<path fill="none" stroke="black" d="M304.126,-100.93C304.126,-85.3777 304.126,-63.4476 304.126,-46.1895"/>
<polygon fill="black" stroke="black" points="307.626,-46.1463 304.126,-36.1463 300.626,-46.1464 307.626,-46.1463"/>
</g>
<!-- varakozas -->
<g id="node15" class="node"><title>varakozas</title>
<polygon fill="#bebada" stroke="black" points="657.626,-426.5 586.626,-426.5 586.626,-403.5 657.626,-403.5 657.626,-426.5"/>
<text text-anchor="middle" x="622.126" y="-411.3" font-family="Times,serif" font-size="14.00">wait</text>
</g>
<!-- szamjegyDB -->
<g id="node16" class="node"><title>szamjegyDB</title>
<polygon fill="#bebada" stroke="black" points="755.626,-283 668.626,-283 668.626,-253 755.626,-253 755.626,-283"/>
<text text-anchor="middle" x="712.126" y="-264.3" font-family="Times,serif" font-size="14.00">digitCount</text>
</g>
<!-- Kirajzolas -->
<g id="node17" class="node"><title>Kirajzolas</title>
<polygon fill="#bebada" stroke="black" points="748.126,-453.5 676.126,-453.5 676.126,-376.5 748.126,-376.5 748.126,-453.5"/>
<text text-anchor="middle" x="712.126" y="-411.3" font-family="Times,serif" font-size="14.00">Draw</text>
</g>
<!-- Kirajzolas&#45;&gt;szamjegyDB -->
<g id="edge17" class="edge"><title>Kirajzolas&#45;&gt;szamjegyDB</title>
<path fill="none" stroke="black" d="M712.126,-376.281C712.126,-350.033 712.126,-315.813 712.126,-293.159"/>
<polygon fill="black" stroke="black" points="715.626,-293.053 712.126,-283.054 708.626,-293.054 715.626,-293.053"/>
</g>
<!-- aknaLerakas -->
<g id="node18" class="node"><title>aknaLerakas</title>
<polygon fill="#fb8072" stroke="black" points="650.626,-291.5 565.626,-291.5 565.626,-244.5 650.626,-244.5 650.626,-291.5"/>
<text text-anchor="middle" x="608.126" y="-264.3" font-family="Times,serif" font-size="14.00">minePut</text>
</g>
<!-- Start -->
<g id="node19" class="node"><title>Start</title>
<polygon fill="#fb8072" stroke="black" points="496.126,-449.5 442.126,-449.5 442.126,-380.5 496.126,-380.5 496.126,-449.5"/>
<text text-anchor="middle" x="469.126" y="-411.3" font-family="Times,serif" font-size="14.00">Start</text>
</g>
<!-- Start&#45;&gt;malloc -->
<g id="edge18" class="edge"><title>Start&#45;&gt;malloc</title>
<path fill="none" stroke="black" d="M442.984,-380.3C432.821,-365.391 422.184,-347.145 416.126,-329 382.757,-229.045 384.564,-101.433 387.315,-46.3429"/>
<polygon fill="black" stroke="black" points="390.828,-46.2003 387.886,-36.0223 383.839,-45.8137 390.828,-46.2003"/>
</g>
<!-- Start&#45;&gt;szomszedSzamolas -->
<g id="edge20" class="edge"><title>Start&#45;&gt;szomszedSzamolas</title>
<path fill="none" stroke="black" d="M473.069,-380.37C475.524,-359.425 478.7,-332.335 481.305,-310.118"/>
<polygon fill="black" stroke="black" points="484.806,-310.312 482.495,-299.973 477.854,-309.497 484.806,-310.312"/>
</g>
<!-- Start&#45;&gt;aknaLerakas -->
<g id="edge19" class="edge"><title>Start&#45;&gt;aknaLerakas</title>
<path fill="none" stroke="black" d="M491.564,-380.384C495.788,-374.99 500.379,-369.658 505.126,-365 524.93,-345.568 535.557,-347.619 556.126,-329 566.044,-320.022 575.916,-309.227 584.351,-299.284"/>
<polygon fill="black" stroke="black" points="587.084,-301.472 590.782,-291.544 581.699,-296.999 587.084,-301.472"/>
</g>
<!-- Lepes -->
<g id="node20" class="node"><title>Lepes</title>
<polygon fill="#fb8072" stroke="black" points="825.126,-465 771.126,-465 771.126,-365 825.126,-365 825.126,-465"/>
<text text-anchor="middle" x="798.126" y="-411.3" font-family="Times,serif" font-size="14.00">Step</text>
</g>
<!-- Lepes&#45;&gt;Felderit -->
<g id="edge21" class="edge"><title>Lepes&#45;&gt;Felderit</title>
<path fill="none" stroke="black" d="M799.819,-364.91C800.376,-348.734 800.994,-330.818 801.544,-314.891"/>
<polygon fill="black" stroke="black" points="805.046,-314.864 801.893,-304.75 798.051,-314.623 805.046,-314.864"/>
</g>
<!-- Vege -->
<g id="node21" class="node"><title>Vege</title>
<polygon fill="#fb8072" stroke="black" points="294.126,-446.5 240.126,-446.5 240.126,-383.5 294.126,-383.5 294.126,-446.5"/>
<text text-anchor="middle" x="267.126" y="-411.3" font-family="Times,serif" font-size="14.00">End</text>
</g>
<!-- Vege&#45;&gt;jatekFelSzab -->
<g id="edge24" class="edge"><title>Vege&#45;&gt;jatekFelSzab</title>
<path fill="none" stroke="black" d="M240.066,-387.772C225.045,-371.946 207.045,-350.696 195.126,-329 167.781,-279.225 187.131,-255.218 157.126,-207 141.366,-181.674 116.226,-158.777 96.6791,-143.226"/>
<polygon fill="black" stroke="black" points="98.734,-140.391 88.6877,-137.026 94.4429,-145.921 98.734,-140.391"/>
</g>
<!-- Vege&#45;&gt;top1 -->
<g id="edge22" class="edge"><title>Vege&#45;&gt;top1</title>
<path fill="none" stroke="black" d="M259.491,-383.249C254.169,-361.814 247.014,-332.993 241.221,-309.662"/>
<polygon fill="black" stroke="black" points="244.556,-308.568 238.75,-299.706 237.762,-310.255 244.556,-308.568"/>
</g>
<!-- Vege&#45;&gt;ujTop1 -->
<g id="edge23" class="edge"><title>Vege&#45;&gt;ujTop1</title>
<path fill="none" stroke="black" d="M274.973,-383.249C278.262,-370.361 282.232,-354.802 286.169,-339.371"/>
<polygon fill="black" stroke="black" points="289.663,-339.834 288.744,-329.279 282.88,-338.103 289.663,-339.834"/>
</g>
<!-- main -->
<g id="node22" class="node"><title>main</title>
<polygon fill="#fb8072" stroke="black" points="568.126,-553 514.126,-553 514.126,-501 568.126,-501 568.126,-553"/>
<text text-anchor="middle" x="541.126" y="-523.3" font-family="Times,serif" font-size="14.00">main</text>
</g>
<!-- main&#45;&gt;iniFile -->
<g id="edge25" class="edge"><title>main&#45;&gt;iniFile</title>
<path fill="none" stroke="black" d="M541.126,-500.764C541.126,-481.329 541.126,-454.798 541.126,-436.625"/>
<polygon fill="black" stroke="black" points="544.626,-436.528 541.126,-426.528 537.626,-436.528 544.626,-436.528"/>
</g>
<!-- main&#45;&gt;fileKi -->
<g id="edge31" class="edge"><title>main&#45;&gt;fileKi</title>
<path fill="none" stroke="black" d="M514.07,-523.556C447.282,-517.077 276.702,-497.687 231.126,-465 178.543,-427.287 147.927,-356.188 132.882,-310.782"/>
<polygon fill="black" stroke="black" points="136.204,-309.68 129.82,-301.225 129.538,-311.816 136.204,-309.68"/>
</g>
<!-- main&#45;&gt;varakozas -->
<g id="edge30" class="edge"><title>main&#45;&gt;varakozas</title>
<path fill="none" stroke="black" d="M559.709,-500.764C574.56,-480.595 595.038,-452.786 608.427,-434.604"/>
<polygon fill="black" stroke="black" points="611.262,-436.656 614.374,-426.528 605.626,-432.505 611.262,-436.656"/>
</g>
<!-- main&#45;&gt;Kirajzolas -->
<g id="edge27" class="edge"><title>main&#45;&gt;Kirajzolas</title>
<path fill="none" stroke="black" d="M568.242,-506.238C571.185,-504.376 574.181,-502.592 577.126,-501 614.66,-480.705 630.926,-489.116 666.126,-465 668.232,-463.557 670.313,-462.004 672.36,-460.368"/>
<polygon fill="black" stroke="black" points="674.777,-462.904 680.054,-453.717 670.2,-457.609 674.777,-462.904"/>
</g>
<!-- main&#45;&gt;Start -->
<g id="edge26" class="edge"><title>main&#45;&gt;Start</title>
<path fill="none" stroke="black" d="M524.608,-500.764C516.425,-488.262 506.32,-472.825 496.986,-458.564"/>
<polygon fill="black" stroke="black" points="499.703,-456.324 491.298,-449.874 493.846,-460.158 499.703,-456.324"/>
</g>
<!-- main&#45;&gt;Lepes -->
<g id="edge28" class="edge"><title>main&#45;&gt;Lepes</title>
<path fill="none" stroke="black" d="M568.372,-505.42C571.24,-503.764 574.185,-502.251 577.126,-501 652.2,-469.065 686.972,-506.646 757.126,-465 759.141,-463.804 761.102,-462.471 763.006,-461.033"/>
<polygon fill="black" stroke="black" points="765.691,-463.338 770.962,-454.147 761.11,-458.045 765.691,-463.338"/>
</g>
<!-- main&#45;&gt;Vege -->
<g id="edge29" class="edge"><title>main&#45;&gt;Vege</title>
<path fill="none" stroke="black" d="M513.852,-515.051C464.307,-495.16 359.507,-453.087 303.775,-430.713"/>
<polygon fill="black" stroke="black" points="304.874,-427.383 294.29,-426.905 302.266,-433.879 304.874,-427.383"/>
</g>
</g>
</svg>
