<?xml version="1.0" encoding="UTF-8" standalone="no"?>
<!DOCTYPE svg PUBLIC "-//W3C//DTD SVG 1.1//EN"
 "http://www.w3.org/Graphics/SVG/1.1/DTD/svg11.dtd">
<!-- Generated by graphviz version 2.38.0 (20140413.2041)
 -->
<!-- Title: %3 Pages: 1 -->
<svg width="909pt" height="595pt"
 viewBox="0.00 0.00 909.00 595.00" xmlns="http://www.w3.org/2000/svg" xmlns:xlink="http://www.w3.org/1999/xlink">
<g id="graph0" class="graph" transform="scale(1 1) rotate(0) translate(4 591)">
<title>%3</title>
<polygon fill="white" stroke="none" points="-4,4 -4,-591 905,-591 905,4 -4,4"/>
<!-- fopen -->
<g id="node1" class="node"><title>fopen</title>
<defs>
<radialGradient id="r_0" cx="50%" cy="50%" r="75%" fx="50%" fy="50%">
<stop offset="0" style="stop-color:white;stop-opacity:1.;"/>
<stop offset="1" style="stop-color:#eeeeee;stop-opacity:1.;"/>
</radialGradient>
</defs>
<ellipse fill="url(#r_0)" stroke="black" stroke-dasharray="5,2" cx="215.5" cy="-569" rx="30.5947" ry="18"/>
<text text-anchor="middle" x="215.5" y="-565.3" font-family="Times,serif" font-size="14.00">fopen</text>
</g>
<!-- fclose -->
<g id="node2" class="node"><title>fclose</title>
<defs>
<radialGradient id="r_1" cx="50%" cy="50%" r="75%" fx="50%" fy="50%">
<stop offset="0" style="stop-color:white;stop-opacity:1.;"/>
<stop offset="1" style="stop-color:#eeeeee;stop-opacity:1.;"/>
</radialGradient>
</defs>
<ellipse fill="url(#r_1)" stroke="black" stroke-dasharray="5,2" cx="295.5" cy="-569" rx="31.6951" ry="18"/>
<text text-anchor="middle" x="295.5" y="-565.3" font-family="Times,serif" font-size="14.00">fclose</text>
</g>
<!-- malloc -->
<g id="node3" class="node"><title>malloc</title>
<ellipse fill="#eeeeee" stroke="black" cx="454.5" cy="-18" rx="35.194" ry="18"/>
<text text-anchor="middle" x="454.5" y="-14.3" font-family="Times,serif" font-size="14.00">malloc</text>
</g>
<!-- free -->
<g id="node4" class="node"><title>free</title>
<ellipse fill="#eeeeee" stroke="black" cx="542.5" cy="-18" rx="27" ry="18"/>
<text text-anchor="middle" x="542.5" y="-14.3" font-family="Times,serif" font-size="14.00">free</text>
</g>
<!-- exit -->
<g id="node5" class="node"><title>exit</title>
<ellipse fill="#eeeeee" stroke="black" cx="336.5" cy="-345.5" rx="27" ry="18"/>
<text text-anchor="middle" x="336.5" y="-341.8" font-family="Times,serif" font-size="14.00">exit</text>
</g>
<!-- ellenorzes -->
<g id="node6" class="node"><title>ellenorzes</title>
<polygon fill="#8dd3c7" stroke="black" points="71,-181.5 0,-181.5 0,-121.5 71,-121.5 71,-181.5"/>
<text text-anchor="middle" x="35.5" y="-147.8" font-family="Times,serif" font-size="14.00">check</text>
</g>
<!-- utott_e -->
<g id="node7" class="node"><title>utott_e</title>
<polygon fill="#8dd3c7" stroke="black" points="143.5,-181 89.5,-181 89.5,-122 143.5,-122 143.5,-181"/>
<text text-anchor="middle" x="116.5" y="-147.8" font-family="Times,serif" font-size="14.00">is_hit</text>
</g>
<!-- elsohely -->
<g id="node8" class="node"><title>elsohely</title>
<polygon fill="#8dd3c7" stroke="black" points="223.5,-181.5 161.5,-181.5 161.5,-121.5 223.5,-121.5 223.5,-181.5"/>
<text text-anchor="middle" x="192.5" y="-147.8" font-family="Times,serif" font-size="14.00">firstplace</text>
</g>
<!-- tobbhely -->
<g id="node9" class="node"><title>tobbhely</title>
<polygon fill="#8dd3c7" stroke="black" points="305.5,-231 241.5,-231 241.5,-72 305.5,-72 305.5,-231"/>
<text text-anchor="middle" x="273.5" y="-147.8" font-family="Times,serif" font-size="14.00">moreplace</text>
</g>
<!-- kockadobas -->
<g id="node10" class="node"><title>kockadobas</title>
<polygon fill="#8dd3c7" stroke="black" points="403.5,-166 323.5,-166 323.5,-137 403.5,-137 403.5,-166"/>
<text text-anchor="middle" x="363.5" y="-147.8" font-family="Times,serif" font-size="14.00">rolldice</text>
</g>
<!-- hozzafuz -->
<g id="node11" class="node"><title>hozzafuz</title>
<polygon fill="#8dd3c7" stroke="black" points="487,-175.5 422,-175.5 422,-127.5 487,-127.5 487,-175.5"/>
<text text-anchor="middle" x="454.5" y="-147.8" font-family="Times,serif" font-size="14.00">append</text>
</g>
<!-- hozzafuz&#45;&gt;malloc -->
<g id="edge1" class="edge"><title>hozzafuz&#45;&gt;malloc</title>
<path fill="none" stroke="black" d="M454.5,-127.293C454.5,-104.658 454.5,-70.2355 454.5,-46.2973"/>
<polygon fill="black" stroke="black" points="458,-46.1165 454.5,-36.1165 451,-46.1165 458,-46.1165"/>
</g>
<!-- felszabadit -->
<g id="node12" class="node"><title>felszabadit</title>
<polygon fill="#8dd3c7" stroke="black" points="580,-171.5 505,-171.5 505,-131.5 580,-131.5 580,-171.5"/>
<text text-anchor="middle" x="542.5" y="-147.8" font-family="Times,serif" font-size="14.00">do_free</text>
</g>
<!-- felszabadit&#45;&gt;free -->
<g id="edge2" class="edge"><title>felszabadit&#45;&gt;free</title>
<path fill="none" stroke="black" d="M542.5,-131.379C542.5,-108.94 542.5,-71.5749 542.5,-46.1428"/>
<polygon fill="black" stroke="black" points="546,-46.0523 542.5,-36.0523 539,-46.0523 546,-46.0523"/>
</g>
<!-- jatekosszam -->
<g id="node13" class="node"><title>jatekosszam</title>
<polygon fill="#8dd3c7" stroke="black" points="681,-170 598,-170 598,-133 681,-133 681,-170"/>
<text text-anchor="middle" x="639.5" y="-147.8" font-family="Times,serif" font-size="14.00">playerno</text>
</g>
<!-- Jatek -->
<g id="node14" class="node"><title>Jatek</title>
<polygon fill="#ffffb3" stroke="black" points="435.5,-424 381.5,-424 381.5,-267 435.5,-267 435.5,-424"/>
<text text-anchor="middle" x="408.5" y="-341.8" font-family="Times,serif" font-size="14.00">game</text>
</g>
<!-- Jatek&#45;&gt;ellenorzes -->
<g id="edge7" class="edge"><title>Jatek&#45;&gt;ellenorzes</title>
<path fill="none" stroke="black" d="M381.391,-275.064C378.694,-272.08 375.738,-269.358 372.5,-267 266.788,-190.037 189.41,-303.366 80.5,-231 66.3326,-221.586 56.0992,-206.092 49.0066,-191.345"/>
<polygon fill="black" stroke="black" points="52.0423,-189.557 44.7895,-181.833 45.6431,-192.394 52.0423,-189.557"/>
</g>
<!-- Jatek&#45;&gt;utott_e -->
<g id="edge10" class="edge"><title>Jatek&#45;&gt;utott_e</title>
<path fill="none" stroke="black" d="M381.277,-275.217C378.609,-272.194 375.691,-269.421 372.5,-267 293.57,-207.113 231.284,-291.08 152.5,-231 139.493,-221.081 131.034,-205.359 125.609,-190.581"/>
<polygon fill="black" stroke="black" points="128.928,-189.472 122.464,-181.077 122.282,-191.67 128.928,-189.472"/>
</g>
<!-- Jatek&#45;&gt;elsohely -->
<g id="edge8" class="edge"><title>Jatek&#45;&gt;elsohely</title>
<path fill="none" stroke="black" d="M381.297,-275.9C378.619,-272.659 375.694,-269.656 372.5,-267 323.106,-225.916 282.633,-271.178 232.5,-231 219.893,-220.896 210.88,-205.767 204.641,-191.478"/>
<polygon fill="black" stroke="black" points="207.727,-189.77 200.755,-181.793 201.23,-192.377 207.727,-189.77"/>
</g>
<!-- Jatek&#45;&gt;tobbhely -->
<g id="edge9" class="edge"><title>Jatek&#45;&gt;tobbhely</title>
<path fill="none" stroke="black" d="M381.278,-278.491C378.572,-274.429 375.648,-270.553 372.5,-267 352.379,-244.292 335.143,-253.234 314.5,-231 313.617,-230.049 312.748,-229.076 311.893,-228.083"/>
<polygon fill="black" stroke="black" points="314.548,-225.797 305.605,-220.115 309.053,-230.133 314.548,-225.797"/>
</g>
<!-- Jatek&#45;&gt;kockadobas -->
<g id="edge6" class="edge"><title>Jatek&#45;&gt;kockadobas</title>
<path fill="none" stroke="black" d="M390.326,-266.96C382.696,-234.403 374.376,-198.903 369.057,-176.209"/>
<polygon fill="black" stroke="black" points="372.393,-175.104 366.703,-166.166 365.577,-176.701 372.393,-175.104"/>
</g>
<!-- Jatek&#45;&gt;hozzafuz -->
<g id="edge4" class="edge"><title>Jatek&#45;&gt;hozzafuz</title>
<path fill="none" stroke="black" d="M427.077,-266.96C433.88,-238.568 441.218,-207.938 446.59,-185.514"/>
<polygon fill="black" stroke="black" points="450.059,-186.06 448.985,-175.52 443.251,-184.429 450.059,-186.06"/>
</g>
<!-- Jatek&#45;&gt;felszabadit -->
<g id="edge12" class="edge"><title>Jatek&#45;&gt;felszabadit</title>
<path fill="none" stroke="black" d="M435.812,-310.982C453.501,-288.772 476.665,-258.725 495.5,-231 506.588,-214.679 517.982,-195.714 526.774,-180.514"/>
<polygon fill="black" stroke="black" points="529.95,-182.01 531.886,-171.593 523.877,-178.529 529.95,-182.01"/>
</g>
<!-- Jatek&#45;&gt;jatekosszam -->
<g id="edge3" class="edge"><title>Jatek&#45;&gt;jatekosszam</title>
<path fill="none" stroke="black" d="M435.727,-332.019C473.336,-313.808 541.818,-277.053 588.5,-231 603.781,-215.925 616.87,-195.51 625.96,-179.278"/>
<polygon fill="black" stroke="black" points="629.151,-180.735 630.837,-170.276 622.996,-177.401 629.151,-180.735"/>
</g>
<!-- oldalmegjelenites -->
<g id="node17" class="node"><title>oldalmegjelenites</title>
<polygon fill="#fb8072" stroke="black" points="812,-213 699,-213 699,-90 812,-90 812,-213"/>
<text text-anchor="middle" x="755.5" y="-147.8" font-family="Times,serif" font-size="14.00">showpage</text>
</g>
<!-- Jatek&#45;&gt;oldalmegjelenites -->
<g id="edge5" class="edge"><title>Jatek&#45;&gt;oldalmegjelenites</title>
<path fill="none" stroke="black" d="M435.835,-338.2C488.725,-325.043 607.103,-290.797 689.5,-231 694.003,-227.732 698.391,-224.092 702.623,-220.22"/>
<polygon fill="black" stroke="black" points="705.306,-222.494 710.066,-213.028 700.442,-217.46 705.306,-222.494"/>
</g>
<!-- gratulacio -->
<g id="node18" class="node"><title>gratulacio</title>
<polygon fill="#fb8072" stroke="black" points="901,-189.5 830,-189.5 830,-113.5 901,-113.5 901,-189.5"/>
<text text-anchor="middle" x="865.5" y="-147.8" font-family="Times,serif" font-size="14.00">congrats</text>
</g>
<!-- Jatek&#45;&gt;gratulacio -->
<g id="edge11" class="edge"><title>Jatek&#45;&gt;gratulacio</title>
<path fill="none" stroke="black" d="M435.688,-343.92C506.541,-341.077 699.718,-324.652 820.5,-231 831.382,-222.562 840.088,-210.699 846.832,-198.746"/>
<polygon fill="black" stroke="black" points="850.061,-200.124 851.61,-189.643 843.863,-196.87 850.061,-200.124"/>
</g>
<!-- Jatekkeret -->
<g id="node15" class="node"><title>Jatekkeret</title>
<polygon fill="#ffffb3" stroke="black" points="408,-515 337,-515 337,-460 408,-460 408,-515"/>
<text text-anchor="middle" x="372.5" y="-483.8" font-family="Times,serif" font-size="14.00">gameframe</text>
</g>
<!-- Jatekkeret&#45;&gt;exit -->
<g id="edge13" class="edge"><title>Jatekkeret&#45;&gt;exit</title>
<path fill="none" stroke="black" d="M365.644,-459.838C359.253,-434.986 349.773,-398.119 343.376,-373.242"/>
<polygon fill="black" stroke="black" points="346.722,-372.197 340.842,-363.384 339.942,-373.941 346.722,-372.197"/>
</g>
<!-- Jatekkeret&#45;&gt;Jatek -->
<g id="edge14" class="edge"><title>Jatekkeret&#45;&gt;Jatek</title>
<path fill="none" stroke="black" d="M379.356,-459.838C381.34,-452.124 383.621,-443.253 386.015,-433.942"/>
<polygon fill="black" stroke="black" points="389.442,-434.667 388.543,-424.111 382.663,-432.924 389.442,-434.667"/>
</g>
<!-- main -->
<g id="node16" class="node"><title>main</title>
<polygon fill="#bebada" stroke="black" points="399.5,-581 345.5,-581 345.5,-557 399.5,-557 399.5,-581"/>
<text text-anchor="middle" x="372.5" y="-565.3" font-family="Times,serif" font-size="14.00">main</text>
</g>
<!-- main&#45;&gt;Jatekkeret -->
<g id="edge15" class="edge"><title>main&#45;&gt;Jatekkeret</title>
<path fill="none" stroke="black" d="M372.5,-556.946C372.5,-548.714 372.5,-536.967 372.5,-525.523"/>
<polygon fill="black" stroke="black" points="376,-525.207 372.5,-515.207 369,-525.207 376,-525.207"/>
</g>
</g>
</svg>
