<?xml version="1.0" encoding="UTF-8" standalone="no"?>
<!DOCTYPE svg PUBLIC "-//W3C//DTD SVG 1.1//EN"
 "http://www.w3.org/Graphics/SVG/1.1/DTD/svg11.dtd">
<!-- Generated by graphviz version 2.38.0 (20140413.2041)
 -->
<!-- Title: %3 Pages: 1 -->
<svg width="703pt" height="807pt"
 viewBox="0.00 0.00 702.55 807.00" xmlns="http://www.w3.org/2000/svg" xmlns:xlink="http://www.w3.org/1999/xlink">
<g id="graph0" class="graph" transform="scale(1 1) rotate(0) translate(4 803)">
<title>%3</title>
<polygon fill="white" stroke="none" points="-4,4 -4,-803 698.547,-803 698.547,4 -4,4"/>
<!-- fopen -->
<g id="node1" class="node"><title>fopen</title>
<ellipse fill="#eeeeee" stroke="black" cx="664" cy="-181.5" rx="30.5947" ry="18"/>
<text text-anchor="middle" x="664" y="-177.8" font-family="Times,serif" font-size="14.00">fopen</text>
</g>
<!-- fclose -->
<g id="node2" class="node"><title>fclose</title>
<ellipse fill="#eeeeee" stroke="black" cx="584" cy="-181.5" rx="31.6951" ry="18"/>
<text text-anchor="middle" x="584" y="-177.8" font-family="Times,serif" font-size="14.00">fclose</text>
</g>
<!-- malloc -->
<g id="node3" class="node"><title>malloc</title>
<ellipse fill="#eeeeee" stroke="black" cx="384" cy="-18" rx="35.194" ry="18"/>
<text text-anchor="middle" x="384" y="-14.3" font-family="Times,serif" font-size="14.00">malloc</text>
</g>
<!-- free -->
<g id="node4" class="node"><title>free</title>
<ellipse fill="#eeeeee" stroke="black" cx="196" cy="-91" rx="27" ry="18"/>
<text text-anchor="middle" x="196" y="-87.3" font-family="Times,serif" font-size="14.00">free</text>
</g>
<!-- exit -->
<g id="node5" class="node"><title>exit</title>
<ellipse fill="#eeeeee" stroke="black" cx="27" cy="-462.5" rx="27" ry="18"/>
<text text-anchor="middle" x="27" y="-458.8" font-family="Times,serif" font-size="14.00">exit</text>
</g>
<!-- szomszedok -->
<g id="node6" class="node"><title>szomszedok</title>
<polygon fill="#8dd3c7" stroke="black" points="495.5,-217 412.5,-217 412.5,-146 495.5,-146 495.5,-217"/>
<text text-anchor="middle" x="454" y="-177.8" font-family="Times,serif" font-size="14.00">neighbor</text>
</g>
<!-- lista_hozzafuz -->
<g id="node13" class="node"><title>lista_hozzafuz</title>
<polygon fill="#ffffb3" stroke="black" points="507.5,-110 412.5,-110 412.5,-72 507.5,-72 507.5,-110"/>
<text text-anchor="middle" x="460" y="-87.3" font-family="Times,serif" font-size="14.00">list_append</text>
</g>
<!-- szomszedok&#45;&gt;lista_hozzafuz -->
<g id="edge1" class="edge"><title>szomszedok&#45;&gt;lista_hozzafuz</title>
<path fill="none" stroke="black" d="M456.354,-145.776C456.929,-137.291 457.538,-128.316 458.09,-120.179"/>
<polygon fill="black" stroke="black" points="461.59,-120.292 458.774,-110.078 454.606,-119.818 461.59,-120.292"/>
</g>
<!-- bfs -->
<g id="node7" class="node"><title>bfs</title>
<polygon fill="#8dd3c7" stroke="black" points="355,-367.5 301,-367.5 301,-258.5 355,-258.5 355,-367.5"/>
<text text-anchor="middle" x="328" y="-309.3" font-family="Times,serif" font-size="14.00">bfs</text>
</g>
<!-- bfs&#45;&gt;malloc -->
<g id="edge2" class="edge"><title>bfs&#45;&gt;malloc</title>
<path fill="none" stroke="black" d="M351.154,-258.257C356.093,-244.981 360.784,-230.648 364,-217 378.066,-157.316 382.241,-85.2206 383.479,-46.6099"/>
<polygon fill="black" stroke="black" points="386.989,-46.2916 383.767,-36.1988 379.992,-46.0983 386.989,-46.2916"/>
</g>
<!-- bfs&#45;&gt;free -->
<g id="edge7" class="edge"><title>bfs&#45;&gt;free</title>
<path fill="none" stroke="black" d="M300.699,-303.946C264.842,-291.725 203.354,-264.717 177,-217 159.779,-185.82 172.024,-143.945 183.298,-117.461"/>
<polygon fill="black" stroke="black" points="186.591,-118.673 187.509,-108.118 180.209,-115.797 186.591,-118.673"/>
</g>
<!-- bfs&#45;&gt;szomszedok -->
<g id="edge3" class="edge"><title>bfs&#45;&gt;szomszedok</title>
<path fill="none" stroke="black" d="M355.16,-270.95C359.856,-264.728 364.882,-258.542 370,-253 380.489,-241.641 392.777,-230.393 404.666,-220.331"/>
<polygon fill="black" stroke="black" points="406.949,-222.985 412.399,-213.9 402.472,-217.603 406.949,-222.985"/>
</g>
<!-- bfs&#45;&gt;lista_hozzafuz -->
<g id="edge4" class="edge"><title>bfs&#45;&gt;lista_hozzafuz</title>
<path fill="none" stroke="black" d="M355.015,-266.703C359.515,-261.552 364.524,-256.798 370,-253 421.026,-217.611 467.168,-266.242 505,-217 524.225,-191.977 515.742,-175.671 505,-146 501.285,-135.739 494.675,-126.058 487.645,-117.803"/>
<polygon fill="black" stroke="black" points="490.18,-115.389 480.858,-110.354 485.006,-120.103 490.18,-115.389"/>
</g>
<!-- lista_eeltavolit -->
<g id="node14" class="node"><title>lista_eeltavolit</title>
<polygon fill="#ffffb3" stroke="black" points="282,-194 186,-194 186,-169 282,-169 282,-194"/>
<text text-anchor="middle" x="234" y="-177.8" font-family="Times,serif" font-size="14.00">list_remove</text>
</g>
<!-- bfs&#45;&gt;lista_eeltavolit -->
<g id="edge6" class="edge"><title>bfs&#45;&gt;lista_eeltavolit</title>
<path fill="none" stroke="black" d="M300.811,-274.543C283.679,-250.941 262.248,-221.417 248.349,-202.268"/>
<polygon fill="black" stroke="black" points="251.065,-200.052 242.359,-194.015 245.4,-204.164 251.065,-200.052"/>
</g>
<!-- felszab -->
<g id="node15" class="node"><title>felszab</title>
<polygon fill="#ffffb3" stroke="black" points="355.5,-195.5 300.5,-195.5 300.5,-167.5 355.5,-167.5 355.5,-195.5"/>
<text text-anchor="middle" x="328" y="-177.8" font-family="Times,serif" font-size="14.00">list_free</text>
</g>
<!-- bfs&#45;&gt;felszab -->
<g id="edge5" class="edge"><title>bfs&#45;&gt;felszab</title>
<path fill="none" stroke="black" d="M328,-258.205C328,-239.931 328,-220.458 328,-205.838"/>
<polygon fill="black" stroke="black" points="331.5,-205.704 328,-195.704 324.5,-205.704 331.5,-205.704"/>
</g>
<!-- egerlep -->
<g id="node8" class="node"><title>egerlep</title>
<polygon fill="#8dd3c7" stroke="black" points="241,-484 185,-484 185,-441 241,-441 241,-484"/>
<text text-anchor="middle" x="213" y="-458.8" font-family="Times,serif" font-size="14.00">mousem</text>
</g>
<!-- egerlep&#45;&gt;bfs -->
<g id="edge8" class="edge"><title>egerlep&#45;&gt;bfs</title>
<path fill="none" stroke="black" d="M227.064,-440.803C233.834,-431.036 242.165,-419.292 250,-409 263.997,-390.614 280.108,-370.786 294.04,-354.024"/>
<polygon fill="black" stroke="black" points="296.965,-355.982 300.686,-346.062 291.591,-351.496 296.965,-355.982"/>
</g>
<!-- palya_kirajzol -->
<g id="node9" class="node"><title>palya_kirajzol</title>
<polygon fill="#8dd3c7" stroke="black" points="353,-507.5 259,-507.5 259,-417.5 353,-417.5 353,-507.5"/>
<text text-anchor="middle" x="306" y="-458.8" font-family="Times,serif" font-size="14.00">show_field</text>
</g>
<!-- input_text -->
<g id="node10" class="node"><title>input_text</title>
<polygon fill="#8dd3c7" stroke="black" points="450.5,-362.5 379.5,-362.5 379.5,-263.5 450.5,-263.5 450.5,-362.5"/>
<text text-anchor="middle" x="415" y="-309.3" font-family="Times,serif" font-size="14.00">input_text</text>
</g>
<!-- vegerajz -->
<g id="node11" class="node"><title>vegerajz</title>
<polygon fill="#8dd3c7" stroke="black" points="470,-516 408,-516 408,-409 470,-409 470,-516"/>
<text text-anchor="middle" x="439" y="-458.8" font-family="Times,serif" font-size="14.00">show_end</text>
</g>
<!-- vegerajz&#45;&gt;input_text -->
<g id="edge10" class="edge"><title>vegerajz&#45;&gt;input_text</title>
<path fill="none" stroke="black" d="M430.403,-408.666C428.491,-396.912 426.453,-384.386 424.506,-372.422"/>
<polygon fill="black" stroke="black" points="427.958,-371.843 422.897,-362.535 421.049,-372.967 427.958,-371.843"/>
</g>
<!-- felirat -->
<g id="node18" class="node"><title>felirat</title>
<polygon fill="#fb8072" stroke="black" points="618,-343 564,-343 564,-283 618,-283 618,-343"/>
<text text-anchor="middle" x="591" y="-309.3" font-family="Times,serif" font-size="14.00">label</text>
</g>
<!-- vegerajz&#45;&gt;felirat -->
<g id="edge9" class="edge"><title>vegerajz&#45;&gt;felirat</title>
<path fill="none" stroke="black" d="M470.294,-430.64C478.398,-423.226 487.299,-415.561 496,-409 520.527,-390.505 533.279,-394.721 555,-373 561.159,-366.841 566.72,-359.43 571.527,-351.973"/>
<polygon fill="black" stroke="black" points="574.613,-353.635 576.814,-343.271 568.631,-350 574.613,-353.635"/>
</g>
<!-- toplistabair -->
<g id="node19" class="node"><title>toplistabair</title>
<polygon fill="#fb8072" stroke="black" points="545.5,-373 468.5,-373 468.5,-253 545.5,-253 545.5,-373"/>
<text text-anchor="middle" x="507" y="-309.3" font-family="Times,serif" font-size="14.00">highsc_wr</text>
</g>
<!-- vegerajz&#45;&gt;toplistabair -->
<g id="edge11" class="edge"><title>vegerajz&#45;&gt;toplistabair</title>
<path fill="none" stroke="black" d="M463.357,-408.666C467.289,-400.138 471.408,-391.203 475.479,-382.372"/>
<polygon fill="black" stroke="black" points="478.687,-383.775 479.695,-373.228 472.33,-380.844 478.687,-383.775"/>
</g>
<!-- jatek -->
<g id="node12" class="node"><title>jatek</title>
<polygon fill="#8dd3c7" stroke="black" points="240,-678 186,-678 186,-552 240,-552 240,-678"/>
<text text-anchor="middle" x="213" y="-611.3" font-family="Times,serif" font-size="14.00">game</text>
</g>
<!-- jatek&#45;&gt;malloc -->
<g id="edge12" class="edge"><title>jatek&#45;&gt;malloc</title>
<path fill="none" stroke="black" d="M185.857,-578.327C147.486,-524.241 82,-416.867 82,-314 82,-314 82,-314 82,-180.5 82,-65.2062 255.275,-31.9132 339.325,-22.5458"/>
<polygon fill="black" stroke="black" points="339.776,-26.0178 349.357,-21.4943 339.046,-19.0559 339.776,-26.0178"/>
</g>
<!-- jatek&#45;&gt;free -->
<g id="edge17" class="edge"><title>jatek&#45;&gt;free</title>
<path fill="none" stroke="black" d="M186.121,-551.891C182.034,-540.164 178.389,-527.855 176,-516 149.726,-385.643 167.445,-349.956 165,-217 164.42,-185.45 156.87,-176.49 165,-146 167.77,-135.612 173.066,-125.145 178.508,-116.229"/>
<polygon fill="black" stroke="black" points="181.622,-117.86 184.132,-107.567 175.751,-114.048 181.622,-117.86"/>
</g>
<!-- jatek&#45;&gt;exit -->
<g id="edge13" class="edge"><title>jatek&#45;&gt;exit</title>
<path fill="none" stroke="black" d="M185.783,-599.1C155.193,-581.594 104.979,-550.523 68,-516 58.939,-507.541 50.278,-496.962 43.2705,-487.521"/>
<polygon fill="black" stroke="black" points="46.0143,-485.341 37.3358,-479.264 40.3302,-489.427 46.0143,-485.341"/>
</g>
<!-- jatek&#45;&gt;egerlep -->
<g id="edge15" class="edge"><title>jatek&#45;&gt;egerlep</title>
<path fill="none" stroke="black" d="M213,-551.917C213,-532.123 213,-511.076 213,-494.483"/>
<polygon fill="black" stroke="black" points="216.5,-494.281 213,-484.281 209.5,-494.281 216.5,-494.281"/>
</g>
<!-- jatek&#45;&gt;palya_kirajzol -->
<g id="edge14" class="edge"><title>jatek&#45;&gt;palya_kirajzol</title>
<path fill="none" stroke="black" d="M240.149,-570.065C250.468,-553.367 262.333,-534.166 273.124,-516.702"/>
<polygon fill="black" stroke="black" points="276.376,-518.097 278.656,-507.751 270.422,-514.418 276.376,-518.097"/>
</g>
<!-- jatek&#45;&gt;vegerajz -->
<g id="edge16" class="edge"><title>jatek&#45;&gt;vegerajz</title>
<path fill="none" stroke="black" d="M240.006,-596.43C269.925,-576.921 319.553,-544.427 362,-516 374.224,-507.814 387.479,-498.819 399.49,-490.623"/>
<polygon fill="black" stroke="black" points="401.701,-493.351 407.983,-484.82 397.752,-487.572 401.701,-493.351"/>
</g>
<!-- lista_hozzafuz&#45;&gt;malloc -->
<g id="edge18" class="edge"><title>lista_hozzafuz&#45;&gt;malloc</title>
<path fill="none" stroke="black" d="M440.428,-71.7157C430.377,-62.326 418.057,-50.816 407.495,-40.9492"/>
<polygon fill="black" stroke="black" points="409.87,-38.3779 400.173,-34.1089 405.091,-43.4931 409.87,-38.3779"/>
</g>
<!-- lista_eeltavolit&#45;&gt;free -->
<g id="edge19" class="edge"><title>lista_eeltavolit&#45;&gt;free</title>
<path fill="none" stroke="black" d="M229.032,-168.93C223.482,-156.005 214.324,-134.676 207.057,-117.75"/>
<polygon fill="black" stroke="black" points="210.199,-116.198 203.038,-108.39 203.767,-118.96 210.199,-116.198"/>
</g>
<!-- felszab&#45;&gt;free -->
<g id="edge20" class="edge"><title>felszab&#45;&gt;free</title>
<path fill="none" stroke="black" d="M315.298,-167.253C308.443,-160.477 299.635,-152.344 291,-146 270.504,-130.941 245.422,-116.845 226.178,-106.833"/>
<polygon fill="black" stroke="black" points="227.741,-103.702 217.245,-102.26 224.551,-109.933 227.741,-103.702"/>
</g>
<!-- menu_rajzol -->
<g id="node16" class="node"><title>menu_rajzol</title>
<polygon fill="#bebada" stroke="black" points="447.5,-662 362.5,-662 362.5,-568 447.5,-568 447.5,-662"/>
<text text-anchor="middle" x="405" y="-611.3" font-family="Times,serif" font-size="14.00">menu_show</text>
</g>
<!-- menu_rajzol&#45;&gt;felirat -->
<g id="edge21" class="edge"><title>menu_rajzol&#45;&gt;felirat</title>
<path fill="none" stroke="black" d="M442.133,-567.611C454.373,-551.606 467.727,-533.337 479,-516 498.24,-486.409 543.982,-401.992 570.678,-352.147"/>
<polygon fill="black" stroke="black" points="573.8,-353.732 575.431,-343.263 567.628,-350.43 573.8,-353.732"/>
</g>
<!-- main -->
<g id="node17" class="node"><title>main</title>
<polygon fill="#bebada" stroke="black" points="336,-799 282,-799 282,-714 336,-714 336,-799"/>
<text text-anchor="middle" x="309" y="-752.8" font-family="Times,serif" font-size="14.00">main</text>
</g>
<!-- main&#45;&gt;exit -->
<g id="edge22" class="edge"><title>main&#45;&gt;exit</title>
<path fill="none" stroke="black" d="M281.994,-743.884C253.634,-730.773 208.82,-707.39 177,-678 114.31,-620.098 62.8754,-531.716 39.9186,-488.733"/>
<polygon fill="black" stroke="black" points="42.9651,-487.007 35.206,-479.792 36.7727,-490.271 42.9651,-487.007"/>
</g>
<!-- main&#45;&gt;jatek -->
<g id="edge24" class="edge"><title>main&#45;&gt;jatek</title>
<path fill="none" stroke="black" d="M281.747,-715.898C270.701,-699.847 257.84,-681.158 246.25,-664.316"/>
<polygon fill="black" stroke="black" points="248.873,-661.955 240.321,-655.701 243.107,-665.923 248.873,-661.955"/>
</g>
<!-- main&#45;&gt;menu_rajzol -->
<g id="edge23" class="edge"><title>main&#45;&gt;menu_rajzol</title>
<path fill="none" stroke="black" d="M336.253,-715.898C345.981,-701.761 357.118,-685.579 367.554,-670.413"/>
<polygon fill="black" stroke="black" points="370.481,-672.335 373.267,-662.113 364.714,-668.366 370.481,-672.335"/>
</g>
<!-- toplista_kiir -->
<g id="node20" class="node"><title>toplista_kiir</title>
<polygon fill="#fb8072" stroke="black" points="632,-515.5 550,-515.5 550,-409.5 632,-409.5 632,-515.5"/>
<text text-anchor="middle" x="591" y="-458.8" font-family="Times,serif" font-size="14.00">highsc_print</text>
</g>
<!-- main&#45;&gt;toplista_kiir -->
<g id="edge25" class="edge"><title>main&#45;&gt;toplista_kiir</title>
<path fill="none" stroke="black" d="M336.281,-746.105C367.935,-734.157 420.335,-711.034 456,-678 502.909,-634.552 540.061,-571.316 563.419,-524.756"/>
<polygon fill="black" stroke="black" points="566.613,-526.193 567.906,-515.677 560.338,-523.092 566.613,-526.193"/>
</g>
<!-- toplistabair&#45;&gt;fopen -->
<g id="edge26" class="edge"><title>toplistabair&#45;&gt;fopen</title>
<path fill="none" stroke="black" d="M545.691,-261.361C548.708,-258.398 551.821,-255.578 555,-253 582.171,-230.963 596.119,-236.743 625,-217 630.485,-213.25 636.035,-208.81 641.161,-204.384"/>
<polygon fill="black" stroke="black" points="643.684,-206.824 648.797,-197.544 639.013,-201.61 643.684,-206.824"/>
</g>
<!-- toplistabair&#45;&gt;fclose -->
<g id="edge27" class="edge"><title>toplistabair&#45;&gt;fclose</title>
<path fill="none" stroke="black" d="M542.12,-252.934C551.631,-236.938 561.42,-220.476 569.14,-207.492"/>
<polygon fill="black" stroke="black" points="572.259,-209.094 574.362,-198.71 566.243,-205.516 572.259,-209.094"/>
</g>
<!-- toplista_kiir&#45;&gt;fopen -->
<g id="edge28" class="edge"><title>toplista_kiir&#45;&gt;fopen</title>
<path fill="none" stroke="black" d="M614.222,-409.22C618.895,-397.457 623.454,-384.924 627,-373 643.959,-315.98 655.125,-246.991 660.422,-209.67"/>
<polygon fill="black" stroke="black" points="663.914,-209.971 661.819,-199.585 656.98,-209.01 663.914,-209.971"/>
</g>
<!-- toplista_kiir&#45;&gt;felirat -->
<g id="edge29" class="edge"><title>toplista_kiir&#45;&gt;felirat</title>
<path fill="none" stroke="black" d="M591,-409.497C591,-391.089 591,-370.696 591,-353.498"/>
<polygon fill="black" stroke="black" points="594.5,-353.249 591,-343.249 587.5,-353.249 594.5,-353.249"/>
</g>
</g>
</svg>
