<?xml version="1.0" encoding="UTF-8" standalone="no"?>
<!DOCTYPE svg PUBLIC "-//W3C//DTD SVG 1.1//EN"
 "http://www.w3.org/Graphics/SVG/1.1/DTD/svg11.dtd">
<!-- Generated by graphviz version 2.38.0 (20140413.2041)
 -->
<!-- Title: %3 Pages: 1 -->
<svg width="1149pt" height="777pt"
 viewBox="0.00 0.00 1149.00 777.00" xmlns="http://www.w3.org/2000/svg" xmlns:xlink="http://www.w3.org/1999/xlink">
<g id="graph0" class="graph" transform="scale(1 1) rotate(0) translate(4 773)">
<title>%3</title>
<polygon fill="white" stroke="none" points="-4,4 -4,-773 1145,-773 1145,4 -4,4"/>
<!-- fopen -->
<g id="node1" class="node"><title>fopen</title>
<ellipse fill="#eeeeee" stroke="black" cx="124.5" cy="-376" rx="30.5947" ry="18"/>
<text text-anchor="middle" x="124.5" y="-372.3" font-family="Times,serif" font-size="14.00">fopen</text>
</g>
<!-- fclose -->
<g id="node2" class="node"><title>fclose</title>
<ellipse fill="#eeeeee" stroke="black" cx="44.5" cy="-376" rx="31.6951" ry="18"/>
<text text-anchor="middle" x="44.5" y="-372.3" font-family="Times,serif" font-size="14.00">fclose</text>
</g>
<!-- malloc -->
<g id="node3" class="node"><title>malloc</title>
<ellipse fill="#eeeeee" stroke="black" cx="394.5" cy="-110" rx="35.194" ry="18"/>
<text text-anchor="middle" x="394.5" y="-106.3" font-family="Times,serif" font-size="14.00">malloc</text>
</g>
<!-- free -->
<g id="node4" class="node"><title>free</title>
<ellipse fill="#eeeeee" stroke="black" cx="426.5" cy="-237.5" rx="27" ry="18"/>
<text text-anchor="middle" x="426.5" y="-233.8" font-family="Times,serif" font-size="14.00">free</text>
</g>
<!-- exit -->
<g id="node5" class="node"><title>exit</title>
<ellipse fill="#eeeeee" stroke="black" cx="338.5" cy="-376" rx="27" ry="18"/>
<text text-anchor="middle" x="338.5" y="-372.3" font-family="Times,serif" font-size="14.00">exit</text>
</g>
<!-- render -->
<g id="node6" class="node"><title>render</title>
<polygon fill="#8dd3c7" stroke="black" points="656.5,-535 602.5,-535 602.5,-475 656.5,-475 656.5,-535"/>
<text text-anchor="middle" x="629.5" y="-501.3" font-family="Times,serif" font-size="14.00">render</text>
</g>
<!-- get_clicked -->
<g id="node7" class="node"><title>get_clicked</title>
<polygon fill="#8dd3c7" stroke="black" points="754,-524 675,-524 675,-486 754,-486 754,-524"/>
<text text-anchor="middle" x="714.5" y="-501.3" font-family="Times,serif" font-size="14.00">get_clicked</text>
</g>
<!-- start -->
<g id="node8" class="node"><title>start</title>
<polygon fill="#8dd3c7" stroke="black" points="466.5,-710 412.5,-710 412.5,-591 466.5,-591 466.5,-710"/>
<text text-anchor="middle" x="439.5" y="-646.8" font-family="Times,serif" font-size="14.00">start</text>
</g>
<!-- start&#45;&gt;exit -->
<g id="edge1" class="edge"><title>start&#45;&gt;exit</title>
<path fill="none" stroke="black" d="M417.709,-590.707C396.127,-532.478 364.069,-445.986 348.168,-403.085"/>
<polygon fill="black" stroke="black" points="351.426,-401.805 344.669,-393.645 344.863,-404.238 351.426,-401.805"/>
</g>
<!-- start&#45;&gt;render -->
<g id="edge5" class="edge"><title>start&#45;&gt;render</title>
<path fill="none" stroke="black" d="M466.698,-636.628C498.985,-620.506 553.373,-590.631 592.5,-555 596.39,-551.457 600.156,-547.459 603.7,-543.313"/>
<polygon fill="black" stroke="black" points="606.661,-545.217 610.218,-535.238 601.214,-540.821 606.661,-545.217"/>
</g>
<!-- start&#45;&gt;get_clicked -->
<g id="edge6" class="edge"><title>start&#45;&gt;get_clicked</title>
<path fill="none" stroke="black" d="M466.572,-641.944C510.749,-628.819 599.979,-598.938 665.5,-555 675.292,-548.433 684.768,-539.714 692.734,-531.452"/>
<polygon fill="black" stroke="black" points="695.352,-533.777 699.592,-524.067 690.222,-529.013 695.352,-533.777"/>
</g>
<!-- ll_add_item -->
<g id="node9" class="node"><title>ll_add_item</title>
<polygon fill="#ffffb3" stroke="black" points="255.5,-399.5 173.5,-399.5 173.5,-352.5 255.5,-352.5 255.5,-399.5"/>
<text text-anchor="middle" x="214.5" y="-372.3" font-family="Times,serif" font-size="14.00">ll_add_item</text>
</g>
<!-- start&#45;&gt;ll_add_item -->
<g id="edge7" class="edge"><title>start&#45;&gt;ll_add_item</title>
<path fill="none" stroke="black" d="M412.296,-644.86C368.64,-635.878 283.583,-611.756 241.5,-555 210.019,-512.543 208.347,-448.509 210.839,-409.929"/>
<polygon fill="black" stroke="black" points="214.344,-410.004 211.631,-399.762 207.365,-409.46 214.344,-410.004"/>
</g>
<!-- ll_remove_item -->
<g id="node10" class="node"><title>ll_remove_item</title>
<polygon fill="#ffffb3" stroke="black" points="700.5,-398 596.5,-398 596.5,-354 700.5,-354 700.5,-398"/>
<text text-anchor="middle" x="648.5" y="-372.3" font-family="Times,serif" font-size="14.00">ll_remove_item</text>
</g>
<!-- start&#45;&gt;ll_remove_item -->
<g id="edge8" class="edge"><title>start&#45;&gt;ll_remove_item</title>
<path fill="none" stroke="black" d="M466.543,-592.707C472.074,-580.381 477.674,-567.338 482.5,-555 499.55,-511.414 484.888,-490.403 515.5,-455 538.901,-427.937 556.691,-437.189 587.5,-419 595.219,-414.443 603.258,-409.252 610.871,-404.112"/>
<polygon fill="black" stroke="black" points="613.303,-406.688 619.566,-398.142 609.341,-400.917 613.303,-406.688"/>
</g>
<!-- ll_free_list -->
<g id="node11" class="node"><title>ll_free_list</title>
<polygon fill="#ffffb3" stroke="black" points="459,-390 384,-390 384,-362 459,-362 459,-390"/>
<text text-anchor="middle" x="421.5" y="-372.3" font-family="Times,serif" font-size="14.00">ll_free_list</text>
</g>
<!-- start&#45;&gt;ll_free_list -->
<g id="edge11" class="edge"><title>start&#45;&gt;ll_free_list</title>
<path fill="none" stroke="black" d="M435.616,-590.707C431.679,-531.103 425.786,-441.884 423.027,-400.118"/>
<polygon fill="black" stroke="black" points="426.518,-399.861 422.366,-390.113 419.533,-400.322 426.518,-399.861"/>
</g>
<!-- read_heightmap -->
<g id="node13" class="node"><title>read_heightmap</title>
<polygon fill="#fb8072" stroke="black" points="354.5,-543 250.5,-543 250.5,-467 354.5,-467 354.5,-543"/>
<text text-anchor="middle" x="302.5" y="-501.3" font-family="Times,serif" font-size="14.00">read_heightmap</text>
</g>
<!-- start&#45;&gt;read_heightmap -->
<g id="edge2" class="edge"><title>start&#45;&gt;read_heightmap</title>
<path fill="none" stroke="black" d="M412.433,-621.149C393.153,-600.954 366.859,-573.412 344.82,-550.328"/>
<polygon fill="black" stroke="black" points="347.265,-547.82 337.828,-543.004 342.202,-552.654 347.265,-547.82"/>
</g>
<!-- free_heightmap -->
<g id="node14" class="node"><title>free_heightmap</title>
<polygon fill="#fb8072" stroke="black" points="578.5,-398.5 476.5,-398.5 476.5,-353.5 578.5,-353.5 578.5,-398.5"/>
<text text-anchor="middle" x="527.5" y="-372.3" font-family="Times,serif" font-size="14.00">free_heightmap</text>
</g>
<!-- start&#45;&gt;free_heightmap -->
<g id="edge12" class="edge"><title>start&#45;&gt;free_heightmap</title>
<path fill="none" stroke="black" d="M447.69,-590.688C454.321,-551.379 465.411,-499.004 482.5,-455 488.907,-438.503 498.447,-421.343 507.096,-407.333"/>
<polygon fill="black" stroke="black" points="510.22,-408.942 512.61,-398.62 504.305,-405.199 510.22,-408.942"/>
</g>
<!-- heightmap_to_surface -->
<g id="node15" class="node"><title>heightmap_to_surface</title>
<polygon fill="#fb8072" stroke="black" points="909,-555 772,-555 772,-455 909,-455 909,-555"/>
<text text-anchor="middle" x="840.5" y="-501.3" font-family="Times,serif" font-size="14.00">heightmap_to_surface</text>
</g>
<!-- start&#45;&gt;heightmap_to_surface -->
<g id="edge3" class="edge"><title>start&#45;&gt;heightmap_to_surface</title>
<path fill="none" stroke="black" d="M466.767,-644.192C523.526,-632.573 657.799,-602.104 762.5,-555 762.596,-554.957 762.691,-554.914 762.787,-554.871"/>
<polygon fill="black" stroke="black" points="764.227,-558.062 771.731,-550.582 761.201,-551.75 764.227,-558.062"/>
</g>
<!-- read_capitals -->
<g id="node16" class="node"><title>read_capitals</title>
<polygon fill="#fb8072" stroke="black" points="194.5,-532.5 106.5,-532.5 106.5,-477.5 194.5,-477.5 194.5,-532.5"/>
<text text-anchor="middle" x="150.5" y="-501.3" font-family="Times,serif" font-size="14.00">read_capitals</text>
</g>
<!-- start&#45;&gt;read_capitals -->
<g id="edge4" class="edge"><title>start&#45;&gt;read_capitals</title>
<path fill="none" stroke="black" d="M412.231,-641.426C367.648,-627.565 277.237,-596.662 208.5,-555 200.965,-550.433 193.41,-544.91 186.36,-539.242"/>
<polygon fill="black" stroke="black" points="188.272,-536.279 178.347,-532.57 183.793,-541.658 188.272,-536.279"/>
</g>
<!-- save_capitals -->
<g id="node17" class="node"><title>save_capitals</title>
<polygon fill="#fb8072" stroke="black" points="89,-528 7.10543e-15,-528 7.10543e-15,-482 89,-482 89,-528"/>
<text text-anchor="middle" x="44.5" y="-501.3" font-family="Times,serif" font-size="14.00">save_capitals</text>
</g>
<!-- start&#45;&gt;save_capitals -->
<g id="edge9" class="edge"><title>start&#45;&gt;save_capitals</title>
<path fill="none" stroke="black" d="M412.116,-646.398C351.856,-638.651 204.61,-614.617 97.5,-555 88.1382,-549.789 79.1179,-542.593 71.2552,-535.32"/>
<polygon fill="black" stroke="black" points="73.4217,-532.545 63.8086,-528.091 68.5458,-537.567 73.4217,-532.545"/>
</g>
<!-- voronoi -->
<g id="node28" class="node"><title>voronoi</title>
<polygon fill="#fdb462" stroke="black" points="584,-551 525,-551 525,-459 584,-459 584,-551"/>
<text text-anchor="middle" x="554.5" y="-501.3" font-family="Times,serif" font-size="14.00">voronoi</text>
</g>
<!-- start&#45;&gt;voronoi -->
<g id="edge10" class="edge"><title>start&#45;&gt;voronoi</title>
<path fill="none" stroke="black" d="M466.753,-615.493C482.243,-596.164 501.826,-571.727 518.561,-550.846"/>
<polygon fill="black" stroke="black" points="521.298,-553.027 524.82,-543.035 515.836,-548.65 521.298,-553.027"/>
</g>
<!-- ll_add_item&#45;&gt;malloc -->
<g id="edge13" class="edge"><title>ll_add_item&#45;&gt;malloc</title>
<path fill="none" stroke="black" d="M215.207,-352.344C217.556,-312.791 227.535,-230.374 269.5,-178 291.329,-150.757 327.321,-133.139 355.092,-122.841"/>
<polygon fill="black" stroke="black" points="356.275,-126.135 364.535,-119.5 353.941,-119.536 356.275,-126.135"/>
</g>
<!-- ll_remove_item&#45;&gt;free -->
<g id="edge14" class="edge"><title>ll_remove_item&#45;&gt;free</title>
<path fill="none" stroke="black" d="M622.008,-353.992C611.686,-346.566 599.472,-338.661 587.5,-333 535.235,-308.286 508.532,-331.978 462.5,-297 451.521,-288.658 443.116,-275.917 437.199,-264.454"/>
<polygon fill="black" stroke="black" points="440.274,-262.77 432.812,-255.249 433.955,-265.782 440.274,-262.77"/>
</g>
<!-- ll_free_list&#45;&gt;free -->
<g id="edge15" class="edge"><title>ll_free_list&#45;&gt;free</title>
<path fill="none" stroke="black" d="M421.979,-361.912C422.786,-339.901 424.429,-295.027 425.497,-265.886"/>
<polygon fill="black" stroke="black" points="429.006,-265.689 425.875,-255.568 422.011,-265.433 429.006,-265.689"/>
</g>
<!-- main -->
<g id="node12" class="node"><title>main</title>
<polygon fill="#bebada" stroke="black" points="466.5,-769 412.5,-769 412.5,-746 466.5,-746 466.5,-769"/>
<text text-anchor="middle" x="439.5" y="-753.8" font-family="Times,serif" font-size="14.00">main</text>
</g>
<!-- main&#45;&gt;start -->
<g id="edge16" class="edge"><title>main&#45;&gt;start</title>
<path fill="none" stroke="black" d="M439.5,-745.659C439.5,-739.203 439.5,-730.402 439.5,-720.759"/>
<polygon fill="black" stroke="black" points="443,-720.467 439.5,-710.467 436,-720.467 443,-720.467"/>
</g>
<!-- read_heightmap&#45;&gt;fopen -->
<g id="edge17" class="edge"><title>read_heightmap&#45;&gt;fopen</title>
<path fill="none" stroke="black" d="M250.246,-476.088C223.498,-460.761 191.064,-440.522 164.5,-419 157.679,-413.473 150.864,-406.84 144.843,-400.494"/>
<polygon fill="black" stroke="black" points="147.041,-397.713 137.699,-392.715 141.885,-402.448 147.041,-397.713"/>
</g>
<!-- read_heightmap&#45;&gt;fclose -->
<g id="edge20" class="edge"><title>read_heightmap&#45;&gt;fclose</title>
<path fill="none" stroke="black" d="M250.314,-476.155C235.418,-468.762 219.015,-461.137 203.5,-455 152.118,-434.675 131.556,-447.965 84.5,-419 76.6109,-414.144 69.2261,-407.354 63.002,-400.647"/>
<polygon fill="black" stroke="black" points="65.4809,-398.164 56.2679,-392.933 60.2075,-402.768 65.4809,-398.164"/>
</g>
<!-- read_heightmap&#45;&gt;malloc -->
<g id="edge19" class="edge"><title>read_heightmap&#45;&gt;malloc</title>
<path fill="none" stroke="black" d="M298.362,-466.9C295.438,-431.985 293.461,-378.422 302.5,-333 317.426,-257.996 358.146,-176.582 380.068,-136.393"/>
<polygon fill="black" stroke="black" points="383.183,-137.992 384.955,-127.547 377.056,-134.607 383.183,-137.992"/>
</g>
<!-- read_heightmap&#45;&gt;exit -->
<g id="edge18" class="edge"><title>read_heightmap&#45;&gt;exit</title>
<path fill="none" stroke="black" d="M313.009,-466.925C318.761,-446.634 325.755,-421.961 330.961,-403.596"/>
<polygon fill="black" stroke="black" points="334.363,-404.427 333.723,-393.851 327.629,-402.518 334.363,-404.427"/>
</g>
<!-- free_heightmap&#45;&gt;free -->
<g id="edge21" class="edge"><title>free_heightmap&#45;&gt;free</title>
<path fill="none" stroke="black" d="M508.14,-353.482C494.734,-338.182 476.8,-316.896 462.5,-297 454.802,-286.29 447.036,-273.915 440.698,-263.312"/>
<polygon fill="black" stroke="black" points="443.622,-261.38 435.533,-254.538 437.589,-264.931 443.622,-261.38"/>
</g>
<!-- read_capitals&#45;&gt;fopen -->
<g id="edge22" class="edge"><title>read_capitals&#45;&gt;fopen</title>
<path fill="none" stroke="black" d="M145.05,-477.377C140.647,-455.874 134.478,-425.739 130.05,-404.108"/>
<polygon fill="black" stroke="black" points="133.466,-403.342 128.031,-394.248 126.608,-404.746 133.466,-403.342"/>
</g>
<!-- read_capitals&#45;&gt;fclose -->
<g id="edge24" class="edge"><title>read_capitals&#45;&gt;fclose</title>
<path fill="none" stroke="black" d="M128.279,-477.377C109.33,-454.674 82.3494,-422.348 64.1714,-400.569"/>
<polygon fill="black" stroke="black" points="66.7655,-398.214 57.6706,-392.78 61.3914,-402.7 66.7655,-398.214"/>
</g>
<!-- read_capitals&#45;&gt;ll_add_item -->
<g id="edge23" class="edge"><title>read_capitals&#45;&gt;ll_add_item</title>
<path fill="none" stroke="black" d="M163.916,-477.377C173.961,-457.445 187.743,-430.095 198.385,-408.977"/>
<polygon fill="black" stroke="black" points="201.654,-410.268 203.029,-399.762 195.403,-407.117 201.654,-410.268"/>
</g>
<!-- save_capitals&#45;&gt;fopen -->
<g id="edge25" class="edge"><title>save_capitals&#45;&gt;fopen</title>
<path fill="none" stroke="black" d="M58.4349,-481.878C72.5043,-459.543 94.1937,-425.111 108.847,-401.849"/>
<polygon fill="black" stroke="black" points="111.908,-403.556 114.277,-393.23 105.985,-399.826 111.908,-403.556"/>
</g>
<!-- save_capitals&#45;&gt;fclose -->
<g id="edge26" class="edge"><title>save_capitals&#45;&gt;fclose</title>
<path fill="none" stroke="black" d="M44.5,-481.878C44.5,-460.405 44.5,-427.752 44.5,-404.591"/>
<polygon fill="black" stroke="black" points="48.0001,-404.384 44.5,-394.384 41.0001,-404.384 48.0001,-404.384"/>
</g>
<!-- pq_switch -->
<g id="node18" class="node"><title>pq_switch</title>
<polygon fill="#80b1d3" stroke="black" points="666.5,-42 594.5,-42 594.5,-0 666.5,-0 666.5,-42"/>
<text text-anchor="middle" x="630.5" y="-17.3" font-family="Times,serif" font-size="14.00">pq_switch</text>
</g>
<!-- pq_heapify -->
<g id="node19" class="node"><title>pq_heapify</title>
<polygon fill="#80b1d3" stroke="black" points="736,-142 659,-142 659,-78 736,-78 736,-142"/>
<text text-anchor="middle" x="697.5" y="-106.3" font-family="Times,serif" font-size="14.00">pq_heapify</text>
</g>
<!-- pq_heapify&#45;&gt;pq_switch -->
<g id="edge27" class="edge"><title>pq_heapify&#45;&gt;pq_switch</title>
<path fill="none" stroke="black" d="M673.311,-77.591C666.437,-68.665 658.995,-59.0012 652.274,-50.2733"/>
<polygon fill="black" stroke="black" points="654.967,-48.034 646.092,-42.2467 649.421,-52.3051 654.967,-48.034"/>
</g>
<!-- pq_create -->
<g id="node20" class="node"><title>pq_create</title>
<polygon fill="#80b1d3" stroke="black" points="541,-252 472,-252 472,-223 541,-223 541,-252"/>
<text text-anchor="middle" x="506.5" y="-233.8" font-family="Times,serif" font-size="14.00">pq_create</text>
</g>
<!-- pq_create&#45;&gt;malloc -->
<g id="edge28" class="edge"><title>pq_create&#45;&gt;malloc</title>
<path fill="none" stroke="black" d="M496.913,-222.578C488.347,-210.435 475.22,-192.537 462.5,-178 448.724,-162.256 432.001,-145.749 418.586,-133.059"/>
<polygon fill="black" stroke="black" points="420.809,-130.345 411.118,-126.063 416.023,-135.454 420.809,-130.345"/>
</g>
<!-- pq_node -->
<g id="node21" class="node"><title>pq_node</title>
<polygon fill="#80b1d3" stroke="black" points="804,-251.5 741,-251.5 741,-223.5 804,-223.5 804,-251.5"/>
<text text-anchor="middle" x="772.5" y="-233.8" font-family="Times,serif" font-size="14.00">pq_node</text>
</g>
<!-- pq_root_node -->
<g id="node22" class="node"><title>pq_root_node</title>
<polygon fill="#80b1d3" stroke="black" points="914.5,-250 822.5,-250 822.5,-225 914.5,-225 914.5,-250"/>
<text text-anchor="middle" x="868.5" y="-233.8" font-family="Times,serif" font-size="14.00">pq_root_node</text>
</g>
<!-- pq_insert -->
<g id="node23" class="node"><title>pq_insert</title>
<polygon fill="#80b1d3" stroke="black" points="626,-270.5 559,-270.5 559,-204.5 626,-204.5 626,-270.5"/>
<text text-anchor="middle" x="592.5" y="-233.8" font-family="Times,serif" font-size="14.00">pq_insert</text>
</g>
<!-- pq_insert&#45;&gt;malloc -->
<g id="edge29" class="edge"><title>pq_insert&#45;&gt;malloc</title>
<path fill="none" stroke="black" d="M573.555,-204.433C566.853,-195.019 558.67,-185.302 549.5,-178 515.207,-150.693 468.093,-132.427 434.835,-121.957"/>
<polygon fill="black" stroke="black" points="435.574,-118.524 424.988,-118.957 433.534,-125.22 435.574,-118.524"/>
</g>
<!-- pq_insert&#45;&gt;pq_switch -->
<g id="edge30" class="edge"><title>pq_insert&#45;&gt;pq_switch</title>
<path fill="none" stroke="black" d="M596.444,-204.468C600.613,-172.343 607.784,-121.526 616.5,-78 618.207,-69.4772 620.364,-60.3013 622.471,-51.8932"/>
<polygon fill="black" stroke="black" points="625.885,-52.6698 624.981,-42.1135 619.104,-50.929 625.885,-52.6698"/>
</g>
<!-- pq_remove -->
<g id="node24" class="node"><title>pq_remove</title>
<polygon fill="#80b1d3" stroke="black" points="722.5,-252 644.5,-252 644.5,-223 722.5,-223 722.5,-252"/>
<text text-anchor="middle" x="683.5" y="-233.8" font-family="Times,serif" font-size="14.00">pq_remove</text>
</g>
<!-- pq_remove&#45;&gt;pq_switch -->
<g id="edge31" class="edge"><title>pq_remove&#45;&gt;pq_switch</title>
<path fill="none" stroke="black" d="M677.72,-222.981C670.188,-204.863 657.084,-171.555 649.5,-142 641.782,-111.923 636.657,-76.7548 633.696,-52.2974"/>
<polygon fill="black" stroke="black" points="637.153,-51.7236 632.522,-42.1944 630.199,-52.5316 637.153,-51.7236"/>
</g>
<!-- pq_remove&#45;&gt;pq_heapify -->
<g id="edge32" class="edge"><title>pq_remove&#45;&gt;pq_heapify</title>
<path fill="none" stroke="black" d="M685.052,-222.59C686.933,-205.726 690.188,-176.545 692.898,-152.253"/>
<polygon fill="black" stroke="black" points="696.39,-152.518 694.02,-142.191 689.433,-151.742 696.39,-152.518"/>
</g>
<!-- reset_distances -->
<g id="node25" class="node"><title>reset_distances</title>
<polygon fill="#fdb462" stroke="black" points="1030.5,-261 932.5,-261 932.5,-214 1030.5,-214 1030.5,-261"/>
<text text-anchor="middle" x="981.5" y="-233.8" font-family="Times,serif" font-size="14.00">reset_distances</text>
</g>
<!-- get_neighbors -->
<g id="node26" class="node"><title>get_neighbors</title>
<polygon fill="#fdb462" stroke="black" points="1141,-297 1048,-297 1048,-178 1141,-178 1141,-297"/>
<text text-anchor="middle" x="1094.5" y="-233.8" font-family="Times,serif" font-size="14.00">get_neighbors</text>
</g>
<!-- generate_distances -->
<g id="node27" class="node"><title>generate_distances</title>
<polygon fill="#fdb462" stroke="black" points="838,-419 719,-419 719,-333 838,-333 838,-419"/>
<text text-anchor="middle" x="778.5" y="-372.3" font-family="Times,serif" font-size="14.00">generate_distances</text>
</g>
<!-- generate_distances&#45;&gt;free -->
<g id="edge40" class="edge"><title>generate_distances&#45;&gt;free</title>
<path fill="none" stroke="black" d="M718.612,-336.673C715.581,-335.329 712.535,-334.093 709.5,-333 605.128,-295.402 555.177,-357.976 462.5,-297 450.825,-289.319 442.295,-276.411 436.478,-264.672"/>
<polygon fill="black" stroke="black" points="439.52,-262.904 432.219,-255.226 433.138,-265.781 439.52,-262.904"/>
</g>
<!-- generate_distances&#45;&gt;pq_create -->
<g id="edge34" class="edge"><title>generate_distances&#45;&gt;pq_create</title>
<path fill="none" stroke="black" d="M718.894,-337.145C715.762,-335.655 712.621,-334.261 709.5,-333 641.921,-305.69 610.504,-336.892 549.5,-297 536.049,-288.204 525.331,-273.659 517.959,-261.273"/>
<polygon fill="black" stroke="black" points="520.912,-259.382 512.985,-252.353 514.799,-262.792 520.912,-259.382"/>
</g>
<!-- generate_distances&#45;&gt;pq_node -->
<g id="edge35" class="edge"><title>generate_distances&#45;&gt;pq_node</title>
<path fill="none" stroke="black" d="M776.651,-332.932C775.621,-309.511 774.379,-281.242 773.523,-261.774"/>
<polygon fill="black" stroke="black" points="777.016,-261.527 773.08,-251.691 770.022,-261.835 777.016,-261.527"/>
</g>
<!-- generate_distances&#45;&gt;pq_root_node -->
<g id="edge37" class="edge"><title>generate_distances&#45;&gt;pq_root_node</title>
<path fill="none" stroke="black" d="M806.237,-332.932C822.556,-308.181 842.445,-278.016 855.283,-258.545"/>
<polygon fill="black" stroke="black" points="858.228,-260.438 860.81,-250.163 852.384,-256.585 858.228,-260.438"/>
</g>
<!-- generate_distances&#45;&gt;pq_insert -->
<g id="edge36" class="edge"><title>generate_distances&#45;&gt;pq_insert</title>
<path fill="none" stroke="black" d="M718.862,-338.228C715.711,-336.433 712.577,-334.68 709.5,-333 677.399,-315.472 663.594,-320.418 635.5,-297 629.237,-291.779 623.393,-285.462 618.157,-278.935"/>
<polygon fill="black" stroke="black" points="620.691,-276.483 611.864,-270.623 615.11,-280.708 620.691,-276.483"/>
</g>
<!-- generate_distances&#45;&gt;pq_remove -->
<g id="edge38" class="edge"><title>generate_distances&#45;&gt;pq_remove</title>
<path fill="none" stroke="black" d="M749.222,-332.932C732.485,-308.884 712.192,-279.726 698.624,-260.23"/>
<polygon fill="black" stroke="black" points="701.485,-258.214 692.9,-252.006 695.739,-262.213 701.485,-258.214"/>
</g>
<!-- generate_distances&#45;&gt;reset_distances -->
<g id="edge33" class="edge"><title>generate_distances&#45;&gt;reset_distances</title>
<path fill="none" stroke="black" d="M838.04,-347.984C865.229,-334.412 897.165,-316.674 923.5,-297 934.53,-288.76 945.466,-278.445 954.819,-268.781"/>
<polygon fill="black" stroke="black" points="957.634,-270.897 961.952,-261.222 952.543,-266.093 957.634,-270.897"/>
</g>
<!-- generate_distances&#45;&gt;get_neighbors -->
<g id="edge39" class="edge"><title>generate_distances&#45;&gt;get_neighbors</title>
<path fill="none" stroke="black" d="M838.13,-366.34C893.543,-356.254 976.732,-335.77 1039.5,-297 1039.59,-296.945 1039.68,-296.89 1039.77,-296.835"/>
<polygon fill="black" stroke="black" points="1041.64,-299.792 1047.87,-291.222 1037.66,-294.037 1041.64,-299.792"/>
</g>
<!-- voronoi&#45;&gt;get_neighbors -->
<g id="edge42" class="edge"><title>voronoi&#45;&gt;get_neighbors</title>
<path fill="none" stroke="black" d="M584.129,-461.724C587.069,-459.18 590.198,-456.891 593.5,-455 692.067,-398.571 739.907,-458.215 846.5,-419 941.738,-383.963 961.233,-361.592 1039.5,-297 1039.76,-296.784 1040.02,-296.566 1040.29,-296.348"/>
<polygon fill="black" stroke="black" points="1042.63,-298.944 1047.86,-289.726 1038.02,-293.676 1042.63,-298.944"/>
</g>
<!-- voronoi&#45;&gt;generate_distances -->
<g id="edge41" class="edge"><title>voronoi&#45;&gt;generate_distances</title>
<path fill="none" stroke="black" d="M584.245,-462.529C587.175,-459.766 590.269,-457.209 593.5,-455 638.061,-424.532 660.296,-441.201 709.5,-419 709.596,-418.957 709.692,-418.913 709.788,-418.87"/>
<polygon fill="black" stroke="black" points="711.271,-422.041 718.765,-414.551 708.236,-415.733 711.271,-422.041"/>
</g>
</g>
</svg>
