<?xml version="1.0" encoding="UTF-8" standalone="no"?>
<!DOCTYPE svg PUBLIC "-//W3C//DTD SVG 1.1//EN"
 "http://www.w3.org/Graphics/SVG/1.1/DTD/svg11.dtd">
<!-- Generated by graphviz version 2.38.0 (20140413.2041)
 -->
<!-- Title: %3 Pages: 1 -->
<svg width="1751pt" height="634pt"
 viewBox="0.00 0.00 1750.50 634.00" xmlns="http://www.w3.org/2000/svg" xmlns:xlink="http://www.w3.org/1999/xlink">
<g id="graph0" class="graph" transform="scale(1 1) rotate(0) translate(4 630)">
<title>%3</title>
<polygon fill="white" stroke="none" points="-4,4 -4,-630 1746.5,-630 1746.5,4 -4,4"/>
<!-- fopen -->
<g id="node1" class="node"><title>fopen</title>
<ellipse fill="#eeeeee" stroke="black" cx="631" cy="-265.5" rx="30.5947" ry="18"/>
<text text-anchor="middle" x="631" y="-261.8" font-family="Times,serif" font-size="14.00">fopen</text>
</g>
<!-- fclose -->
<g id="node2" class="node"><title>fclose</title>
<ellipse fill="#eeeeee" stroke="black" cx="551" cy="-265.5" rx="31.6951" ry="18"/>
<text text-anchor="middle" x="551" y="-261.8" font-family="Times,serif" font-size="14.00">fclose</text>
</g>
<!-- malloc -->
<g id="node3" class="node"><title>malloc</title>
<ellipse fill="#eeeeee" stroke="black" cx="326" cy="-265.5" rx="35.194" ry="18"/>
<text text-anchor="middle" x="326" y="-261.8" font-family="Times,serif" font-size="14.00">malloc</text>
</g>
<!-- free -->
<g id="node4" class="node"><title>free</title>
<defs>
<radialGradient id="r_0" cx="50%" cy="50%" r="75%" fx="50%" fy="50%">
<stop offset="0" style="stop-color:white;stop-opacity:1.;"/>
<stop offset="1" style="stop-color:#eeeeee;stop-opacity:1.;"/>
</radialGradient>
</defs>
<ellipse fill="url(#r_0)" stroke="black" stroke-dasharray="5,2" cx="853" cy="-368" rx="27" ry="18"/>
<text text-anchor="middle" x="853" y="-364.3" font-family="Times,serif" font-size="14.00">free</text>
</g>
<!-- exit -->
<g id="node5" class="node"><title>exit</title>
<ellipse fill="#eeeeee" stroke="black" cx="516" cy="-483.5" rx="27" ry="18"/>
<text text-anchor="middle" x="516" y="-479.8" font-family="Times,serif" font-size="14.00">exit</text>
</g>
<!-- initGame -->
<g id="node6" class="node"><title>initGame</title>
<polygon fill="#8dd3c7" stroke="black" points="712,-380.5 644,-380.5 644,-355.5 712,-355.5 712,-380.5"/>
<text text-anchor="middle" x="678" y="-364.3" font-family="Times,serif" font-size="14.00">initGame</text>
</g>
<!-- updateGame -->
<g id="node7" class="node"><title>updateGame</title>
<defs>
<radialGradient id="r_1" cx="50%" cy="50%" r="75%" fx="50%" fy="50%">
<stop offset="0" style="stop-color:white;stop-opacity:1.;"/>
<stop offset="1" style="stop-color:#8dd3c7;stop-opacity:1.;"/>
</radialGradient>
</defs>
<polygon fill="url(#r_1)" stroke="black" stroke-dasharray="5,2" points="1241,-612 1155,-612 1155,-575 1241,-575 1241,-612"/>
<text text-anchor="middle" x="1198" y="-589.8" font-family="Times,serif" font-size="14.00">updateGame</text>
</g>
<!-- UpdateAndDraw -->
<g id="node22" class="node"><title>UpdateAndDraw</title>
<defs>
<radialGradient id="r_2" cx="50%" cy="50%" r="75%" fx="50%" fy="50%">
<stop offset="0" style="stop-color:white;stop-opacity:1.;"/>
<stop offset="1" style="stop-color:#bebada;stop-opacity:1.;"/>
</radialGradient>
</defs>
<polygon fill="url(#r_2)" stroke="black" stroke-dasharray="5,2" points="1252.5,-517.5 1143.5,-517.5 1143.5,-449.5 1252.5,-449.5 1252.5,-517.5"/>
<text text-anchor="middle" x="1198" y="-479.8" font-family="Times,serif" font-size="14.00">UpdateAndDraw</text>
</g>
<!-- updateGame&#45;&gt;UpdateAndDraw -->
<g id="edge1" class="edge"><title>updateGame&#45;&gt;UpdateAndDraw</title>
<path fill="none" stroke="black" d="M1198,-574.666C1198,-561.986 1198,-544.383 1198,-528.092"/>
<polygon fill="black" stroke="black" points="1201.5,-527.642 1198,-517.642 1194.5,-527.642 1201.5,-527.642"/>
</g>
<!-- LoadMap -->
<g id="node8" class="node"><title>LoadMap</title>
<polygon fill="#ffffb3" stroke="black" points="626,-400 556,-400 556,-336 626,-336 626,-400"/>
<text text-anchor="middle" x="591" y="-364.3" font-family="Times,serif" font-size="14.00">LoadMap</text>
</g>
<!-- LoadMap&#45;&gt;fopen -->
<g id="edge2" class="edge"><title>LoadMap&#45;&gt;fopen</title>
<path fill="none" stroke="black" d="M603.437,-335.752C608.956,-321.885 615.376,-305.754 620.631,-292.551"/>
<polygon fill="black" stroke="black" points="623.942,-293.697 624.389,-283.111 617.439,-291.108 623.942,-293.697"/>
</g>
<!-- LoadMap&#45;&gt;fclose -->
<g id="edge4" class="edge"><title>LoadMap&#45;&gt;fclose</title>
<path fill="none" stroke="black" d="M578.563,-335.752C573.044,-321.885 566.624,-305.754 561.369,-292.551"/>
<polygon fill="black" stroke="black" points="564.561,-291.108 557.611,-283.111 558.058,-293.697 564.561,-291.108"/>
</g>
<!-- LoadMap&#45;&gt;malloc -->
<g id="edge3" class="edge"><title>LoadMap&#45;&gt;malloc</title>
<path fill="none" stroke="black" d="M555.819,-335.923C552.606,-333.756 549.311,-331.743 546,-330 488.605,-299.785 415.005,-282.291 369.171,-273.576"/>
<polygon fill="black" stroke="black" points="369.736,-270.121 359.267,-271.747 368.465,-277.005 369.736,-270.121"/>
</g>
<!-- addPlayerToList -->
<g id="node9" class="node"><title>addPlayerToList</title>
<polygon fill="#bebada" stroke="black" points="442.5,-383.5 335.5,-383.5 335.5,-352.5 442.5,-352.5 442.5,-383.5"/>
<text text-anchor="middle" x="389" y="-364.3" font-family="Times,serif" font-size="14.00">addPlayerToList</text>
</g>
<!-- addPlayerToList&#45;&gt;malloc -->
<g id="edge5" class="edge"><title>addPlayerToList&#45;&gt;malloc</title>
<path fill="none" stroke="black" d="M379.704,-352.171C369.717,-336.239 353.671,-310.641 341.715,-291.57"/>
<polygon fill="black" stroke="black" points="344.66,-289.678 336.383,-283.064 338.729,-293.396 344.66,-289.678"/>
</g>
<!-- CreatePlayer -->
<g id="node10" class="node"><title>CreatePlayer</title>
<polygon fill="#bebada" stroke="black" points="190,-394 104,-394 104,-342 190,-342 190,-394"/>
<text text-anchor="middle" x="147" y="-364.3" font-family="Times,serif" font-size="14.00">CreatePlayer</text>
</g>
<!-- CreatePlayer&#45;&gt;malloc -->
<g id="edge6" class="edge"><title>CreatePlayer&#45;&gt;malloc</title>
<path fill="none" stroke="black" d="M180.618,-341.944C186.633,-337.791 192.922,-333.652 199,-330 228.979,-311.988 264.735,-294.437 290.658,-282.368"/>
<polygon fill="black" stroke="black" points="292.465,-285.389 300.079,-278.022 289.533,-279.033 292.465,-285.389"/>
</g>
<!-- SetOthersideCircleOrigo -->
<g id="node11" class="node"><title>SetOthersideCircleOrigo</title>
<defs>
<radialGradient id="r_3" cx="50%" cy="50%" r="75%" fx="50%" fy="50%">
<stop offset="0" style="stop-color:white;stop-opacity:1.;"/>
<stop offset="1" style="stop-color:#bebada;stop-opacity:1.;"/>
</radialGradient>
</defs>
<polygon fill="url(#r_3)" stroke="black" stroke-dasharray="5,2" points="1221.5,-156.5 1070.5,-156.5 1070.5,-106.5 1221.5,-106.5 1221.5,-156.5"/>
<text text-anchor="middle" x="1146" y="-127.8" font-family="Times,serif" font-size="14.00">SetOthersideCircleOrigo</text>
</g>
<!-- SetSpeed -->
<g id="node12" class="node"><title>SetSpeed</title>
<defs>
<radialGradient id="r_4" cx="50%" cy="50%" r="75%" fx="50%" fy="50%">
<stop offset="0" style="stop-color:white;stop-opacity:1.;"/>
<stop offset="1" style="stop-color:#bebada;stop-opacity:1.;"/>
</radialGradient>
</defs>
<polygon fill="url(#r_4)" stroke="black" stroke-dasharray="5,2" points="1326.5,-608.5 1259.5,-608.5 1259.5,-578.5 1326.5,-578.5 1326.5,-608.5"/>
<text text-anchor="middle" x="1293" y="-589.8" font-family="Times,serif" font-size="14.00">SetSpeed</text>
</g>
<!-- PressKey -->
<g id="node13" class="node"><title>PressKey</title>
<defs>
<radialGradient id="r_5" cx="50%" cy="50%" r="75%" fx="50%" fy="50%">
<stop offset="0" style="stop-color:white;stop-opacity:1.;"/>
<stop offset="1" style="stop-color:#bebada;stop-opacity:1.;"/>
</radialGradient>
</defs>
<polygon fill="url(#r_5)" stroke="black" stroke-dasharray="5,2" points="1413,-618 1345,-618 1345,-569 1413,-569 1413,-618"/>
<text text-anchor="middle" x="1379" y="-589.8" font-family="Times,serif" font-size="14.00">PressKey</text>
</g>
<!-- ReleaseKey -->
<g id="node14" class="node"><title>ReleaseKey</title>
<defs>
<radialGradient id="r_6" cx="50%" cy="50%" r="75%" fx="50%" fy="50%">
<stop offset="0" style="stop-color:white;stop-opacity:1.;"/>
<stop offset="1" style="stop-color:#bebada;stop-opacity:1.;"/>
</radialGradient>
</defs>
<polygon fill="url(#r_6)" stroke="black" stroke-dasharray="5,2" points="1512.5,-615 1431.5,-615 1431.5,-572 1512.5,-572 1512.5,-615"/>
<text text-anchor="middle" x="1472" y="-589.8" font-family="Times,serif" font-size="14.00">ReleaseKey</text>
</g>
<!-- atlo -->
<g id="node15" class="node"><title>atlo</title>
<defs>
<radialGradient id="r_7" cx="50%" cy="50%" r="75%" fx="50%" fy="50%">
<stop offset="0" style="stop-color:white;stop-opacity:1.;"/>
<stop offset="1" style="stop-color:#bebada;stop-opacity:1.;"/>
</radialGradient>
</defs>
<polygon fill="url(#r_7)" stroke="black" stroke-dasharray="5,2" points="1386,-26 1332,-26 1332,-0 1386,-0 1386,-26"/>
<text text-anchor="middle" x="1359" y="-9.3" font-family="Times,serif" font-size="14.00">atlo</text>
</g>
<!-- RightCircleMove -->
<g id="node16" class="node"><title>RightCircleMove</title>
<defs>
<radialGradient id="r_8" cx="50%" cy="50%" r="75%" fx="50%" fy="50%">
<stop offset="0" style="stop-color:white;stop-opacity:1.;"/>
<stop offset="1" style="stop-color:#bebada;stop-opacity:1.;"/>
</radialGradient>
</defs>
<polygon fill="url(#r_8)" stroke="black" stroke-dasharray="5,2" points="1352,-201 1240,-201 1240,-62 1352,-62 1352,-201"/>
<text text-anchor="middle" x="1296" y="-127.8" font-family="Times,serif" font-size="14.00">RightCircleMove</text>
</g>
<!-- RightCircleMove&#45;&gt;atlo -->
<g id="edge7" class="edge"><title>RightCircleMove&#45;&gt;atlo</title>
<path fill="none" stroke="black" d="M1333.19,-61.7212C1338.44,-52.0224 1343.47,-42.7266 1347.67,-34.9577"/>
<polygon fill="black" stroke="black" points="1350.82,-36.4796 1352.5,-26.0185 1344.67,-33.1499 1350.82,-36.4796"/>
</g>
<!-- LeftCircleMove -->
<g id="node17" class="node"><title>LeftCircleMove</title>
<defs>
<radialGradient id="r_9" cx="50%" cy="50%" r="75%" fx="50%" fy="50%">
<stop offset="0" style="stop-color:white;stop-opacity:1.;"/>
<stop offset="1" style="stop-color:#bebada;stop-opacity:1.;"/>
</radialGradient>
</defs>
<polygon fill="url(#r_9)" stroke="black" stroke-dasharray="5,2" points="1474,-201 1370,-201 1370,-62 1474,-62 1474,-201"/>
<text text-anchor="middle" x="1422" y="-127.8" font-family="Times,serif" font-size="14.00">LeftCircleMove</text>
</g>
<!-- LeftCircleMove&#45;&gt;atlo -->
<g id="edge8" class="edge"><title>LeftCircleMove&#45;&gt;atlo</title>
<path fill="none" stroke="black" d="M1384.81,-61.7212C1379.56,-52.0224 1374.53,-42.7266 1370.33,-34.9577"/>
<polygon fill="black" stroke="black" points="1373.33,-33.1499 1365.5,-26.0185 1367.18,-36.4796 1373.33,-33.1499"/>
</g>
<!-- PlayerMoveForward -->
<g id="node18" class="node"><title>PlayerMoveForward</title>
<defs>
<radialGradient id="r_10" cx="50%" cy="50%" r="75%" fx="50%" fy="50%">
<stop offset="0" style="stop-color:white;stop-opacity:1.;"/>
<stop offset="1" style="stop-color:#bebada;stop-opacity:1.;"/>
</radialGradient>
</defs>
<polygon fill="url(#r_10)" stroke="black" stroke-dasharray="5,2" points="1144.5,-294 1015.5,-294 1015.5,-237 1144.5,-237 1144.5,-294"/>
<text text-anchor="middle" x="1080" y="-261.8" font-family="Times,serif" font-size="14.00">PlayerMoveForward</text>
</g>
<!-- PlayerMoveCircle -->
<g id="node19" class="node"><title>PlayerMoveCircle</title>
<defs>
<radialGradient id="r_11" cx="50%" cy="50%" r="75%" fx="50%" fy="50%">
<stop offset="0" style="stop-color:white;stop-opacity:1.;"/>
<stop offset="1" style="stop-color:#bebada;stop-opacity:1.;"/>
</radialGradient>
</defs>
<polygon fill="url(#r_11)" stroke="black" stroke-dasharray="5,2" points="1279,-280 1163,-280 1163,-251 1279,-251 1279,-280"/>
<text text-anchor="middle" x="1221" y="-261.8" font-family="Times,serif" font-size="14.00">PlayerMoveCircle</text>
</g>
<!-- PlayerMoveCircle&#45;&gt;SetOthersideCircleOrigo -->
<g id="edge10" class="edge"><title>PlayerMoveCircle&#45;&gt;SetOthersideCircleOrigo</title>
<path fill="none" stroke="black" d="M1213.26,-250.871C1201.89,-230.868 1180.35,-192.952 1164.7,-165.409"/>
<polygon fill="black" stroke="black" points="1167.62,-163.473 1159.64,-156.507 1161.54,-166.931 1167.62,-163.473"/>
</g>
<!-- PlayerMoveCircle&#45;&gt;RightCircleMove -->
<g id="edge9" class="edge"><title>PlayerMoveCircle&#45;&gt;RightCircleMove</title>
<path fill="none" stroke="black" d="M1228.74,-250.871C1234.55,-240.644 1243.02,-225.736 1252.01,-209.926"/>
<polygon fill="black" stroke="black" points="1255.14,-211.497 1257.04,-201.074 1249.05,-208.039 1255.14,-211.497"/>
</g>
<!-- PlayerMove -->
<g id="node20" class="node"><title>PlayerMove</title>
<defs>
<radialGradient id="r_12" cx="50%" cy="50%" r="75%" fx="50%" fy="50%">
<stop offset="0" style="stop-color:white;stop-opacity:1.;"/>
<stop offset="1" style="stop-color:#bebada;stop-opacity:1.;"/>
</radialGradient>
</defs>
<polygon fill="url(#r_12)" stroke="black" stroke-dasharray="5,2" points="1192.5,-388 1109.5,-388 1109.5,-348 1192.5,-348 1192.5,-388"/>
<text text-anchor="middle" x="1151" y="-364.3" font-family="Times,serif" font-size="14.00">PlayerMove</text>
</g>
<!-- PlayerMove&#45;&gt;PlayerMoveForward -->
<g id="edge11" class="edge"><title>PlayerMove&#45;&gt;PlayerMoveForward</title>
<path fill="none" stroke="black" d="M1137.31,-347.623C1128.27,-334.821 1116.14,-317.654 1105.37,-302.41"/>
<polygon fill="black" stroke="black" points="1108.18,-300.326 1099.55,-294.178 1102.47,-304.365 1108.18,-300.326"/>
</g>
<!-- PlayerMove&#45;&gt;PlayerMoveCircle -->
<g id="edge12" class="edge"><title>PlayerMove&#45;&gt;PlayerMoveCircle</title>
<path fill="none" stroke="black" d="M1164.5,-347.623C1176.27,-330.719 1193.34,-306.207 1205.64,-288.556"/>
<polygon fill="black" stroke="black" points="1208.73,-290.234 1211.58,-280.028 1202.99,-286.233 1208.73,-290.234"/>
</g>
<!-- Collision -->
<g id="node21" class="node"><title>Collision</title>
<defs>
<radialGradient id="r_13" cx="50%" cy="50%" r="75%" fx="50%" fy="50%">
<stop offset="0" style="stop-color:white;stop-opacity:1.;"/>
<stop offset="1" style="stop-color:#bebada;stop-opacity:1.;"/>
</radialGradient>
</defs>
<polygon fill="url(#r_13)" stroke="black" stroke-dasharray="5,2" points="1277,-387.5 1211,-387.5 1211,-348.5 1277,-348.5 1277,-387.5"/>
<text text-anchor="middle" x="1244" y="-364.3" font-family="Times,serif" font-size="14.00">Collision</text>
</g>
<!-- UpdateAndDraw&#45;&gt;PlayerMove -->
<g id="edge13" class="edge"><title>UpdateAndDraw&#45;&gt;PlayerMove</title>
<path fill="none" stroke="black" d="M1184.28,-449.366C1177.46,-432.894 1169.3,-413.19 1162.77,-397.416"/>
<polygon fill="black" stroke="black" points="1166,-396.066 1158.94,-388.165 1159.53,-398.744 1166,-396.066"/>
</g>
<!-- UpdateAndDraw&#45;&gt;Collision -->
<g id="edge14" class="edge"><title>UpdateAndDraw&#45;&gt;Collision</title>
<path fill="none" stroke="black" d="M1211.43,-449.366C1218.19,-432.677 1226.3,-412.671 1232.74,-396.795"/>
<polygon fill="black" stroke="black" points="1235.99,-398.093 1236.5,-387.51 1229.5,-395.463 1235.99,-398.093"/>
</g>
<!-- addProfileToList -->
<g id="node23" class="node"><title>addProfileToList</title>
<polygon fill="#fb8072" stroke="black" points="317.5,-383 208.5,-383 208.5,-353 317.5,-353 317.5,-383"/>
<text text-anchor="middle" x="263" y="-364.3" font-family="Times,serif" font-size="14.00">addProfileToList</text>
</g>
<!-- addProfileToList&#45;&gt;malloc -->
<g id="edge15" class="edge"><title>addProfileToList&#45;&gt;malloc</title>
<path fill="none" stroke="black" d="M272.026,-352.601C282.013,-336.67 298.287,-310.708 310.358,-291.452"/>
<polygon fill="black" stroke="black" points="313.39,-293.206 315.736,-282.874 307.459,-289.488 313.39,-293.206"/>
</g>
<!-- freeProfileList -->
<g id="node24" class="node"><title>freeProfileList</title>
<defs>
<radialGradient id="r_14" cx="50%" cy="50%" r="75%" fx="50%" fy="50%">
<stop offset="0" style="stop-color:white;stop-opacity:1.;"/>
<stop offset="1" style="stop-color:#fb8072;stop-opacity:1.;"/>
</radialGradient>
</defs>
<polygon fill="url(#r_14)" stroke="black" stroke-dasharray="5,2" points="900.5,-495 805.5,-495 805.5,-472 900.5,-472 900.5,-495"/>
<text text-anchor="middle" x="853" y="-479.8" font-family="Times,serif" font-size="14.00">freeProfileList</text>
</g>
<!-- freeProfileList&#45;&gt;free -->
<g id="edge16" class="edge"><title>freeProfileList&#45;&gt;free</title>
<path fill="none" stroke="black" d="M853,-471.617C853,-454.488 853,-420.707 853,-396.583"/>
<polygon fill="black" stroke="black" points="856.5,-396.273 853,-386.273 849.5,-396.273 856.5,-396.273"/>
</g>
<!-- freeProfileList&#45;&gt;freeProfileList -->
<g id="edge17" class="edge"><title>freeProfileList&#45;&gt;freeProfileList</title>
<path fill="none" stroke="red" stroke-width="2" d="M865.54,-495.03C888.271,-510.224 918.5,-506.381 918.5,-483.5 918.5,-463.479 895.356,-458.034 874.341,-467.165"/>
<polygon fill="red" stroke="red" stroke-width="2" points="872.639,-464.106 865.54,-471.97 875.994,-470.25 872.639,-464.106"/>
</g>
<!-- freeProfileListWithProfiles -->
<g id="node25" class="node"><title>freeProfileListWithProfiles</title>
<defs>
<radialGradient id="r_15" cx="50%" cy="50%" r="75%" fx="50%" fy="50%">
<stop offset="0" style="stop-color:white;stop-opacity:1.;"/>
<stop offset="1" style="stop-color:#fb8072;stop-opacity:1.;"/>
</radialGradient>
</defs>
<polygon fill="url(#r_15)" stroke="black" stroke-dasharray="5,2" points="897.5,-606 732.5,-606 732.5,-581 897.5,-581 897.5,-606"/>
<text text-anchor="middle" x="815" y="-589.8" font-family="Times,serif" font-size="14.00">freeProfileListWithProfiles</text>
</g>
<!-- freeProfileListWithProfiles&#45;&gt;free -->
<g id="edge18" class="edge"><title>freeProfileListWithProfiles&#45;&gt;free</title>
<path fill="none" stroke="black" d="M810.057,-580.809C799.886,-555.009 778.945,-491.556 796,-442 802.824,-422.173 817.486,-403.603 830.231,-390.154"/>
<polygon fill="black" stroke="black" points="832.902,-392.431 837.439,-382.857 827.922,-387.512 832.902,-392.431"/>
</g>
<!-- freeProfileListWithProfiles&#45;&gt;freeProfileList -->
<g id="edge19" class="edge"><title>freeProfileListWithProfiles&#45;&gt;freeProfileList</title>
<path fill="none" stroke="black" d="M819.067,-580.942C825.48,-562.715 838.025,-527.061 845.934,-504.582"/>
<polygon fill="black" stroke="black" points="849.283,-505.61 849.3,-495.015 842.68,-503.287 849.283,-505.61"/>
</g>
<!-- removeProfileFromeProfileList -->
<g id="node26" class="node"><title>removeProfileFromeProfileList</title>
<defs>
<radialGradient id="r_16" cx="50%" cy="50%" r="75%" fx="50%" fy="50%">
<stop offset="0" style="stop-color:white;stop-opacity:1.;"/>
<stop offset="1" style="stop-color:#fb8072;stop-opacity:1.;"/>
</radialGradient>
</defs>
<polygon fill="url(#r_16)" stroke="black" stroke-dasharray="5,2" points="1125,-501 937,-501 937,-466 1125,-466 1125,-501"/>
<text text-anchor="middle" x="1031" y="-479.8" font-family="Times,serif" font-size="14.00">removeProfileFromeProfileList</text>
</g>
<!-- removeProfileFromeProfileList&#45;&gt;free -->
<g id="edge20" class="edge"><title>removeProfileFromeProfileList&#45;&gt;free</title>
<path fill="none" stroke="black" d="M1005.12,-465.996C971.837,-444.775 914.297,-408.085 880.33,-386.427"/>
<polygon fill="black" stroke="black" points="882.136,-383.428 871.823,-381.002 878.373,-389.33 882.136,-383.428"/>
</g>
<!-- createProfile -->
<g id="node27" class="node"><title>createProfile</title>
<defs>
<radialGradient id="r_17" cx="50%" cy="50%" r="75%" fx="50%" fy="50%">
<stop offset="0" style="stop-color:white;stop-opacity:1.;"/>
<stop offset="1" style="stop-color:#fb8072;stop-opacity:1.;"/>
</radialGradient>
</defs>
<polygon fill="url(#r_17)" stroke="black" stroke-dasharray="5,2" points="86,-391.5 0,-391.5 0,-344.5 86,-344.5 86,-391.5"/>
<text text-anchor="middle" x="43" y="-364.3" font-family="Times,serif" font-size="14.00">createProfile</text>
</g>
<!-- createProfile&#45;&gt;malloc -->
<g id="edge21" class="edge"><title>createProfile&#45;&gt;malloc</title>
<path fill="none" stroke="black" d="M71.0378,-344.358C78.5082,-339.094 86.7929,-333.897 95,-330 157.129,-300.496 235.381,-282.613 283.002,-273.648"/>
<polygon fill="black" stroke="black" points="283.767,-277.066 292.971,-271.817 282.503,-270.181 283.767,-277.066"/>
</g>
<!-- saveProfile -->
<g id="node28" class="node"><title>saveProfile</title>
<defs>
<radialGradient id="r_18" cx="50%" cy="50%" r="75%" fx="50%" fy="50%">
<stop offset="0" style="stop-color:white;stop-opacity:1.;"/>
<stop offset="1" style="stop-color:#fb8072;stop-opacity:1.;"/>
</radialGradient>
</defs>
<polygon fill="url(#r_18)" stroke="black" stroke-dasharray="5,2" points="807.5,-403.5 730.5,-403.5 730.5,-332.5 807.5,-332.5 807.5,-403.5"/>
<text text-anchor="middle" x="769" y="-364.3" font-family="Times,serif" font-size="14.00">saveProfile</text>
</g>
<!-- saveProfile&#45;&gt;fopen -->
<g id="edge22" class="edge"><title>saveProfile&#45;&gt;fopen</title>
<path fill="none" stroke="black" d="M730.334,-336.971C727.188,-334.596 724.048,-332.249 721,-330 700.237,-314.684 676.361,-297.874 658.42,-285.399"/>
<polygon fill="black" stroke="black" points="660.341,-282.472 650.129,-279.648 656.352,-288.224 660.341,-282.472"/>
</g>
<!-- saveProfile&#45;&gt;fclose -->
<g id="edge23" class="edge"><title>saveProfile&#45;&gt;fclose</title>
<path fill="none" stroke="black" d="M730.258,-335.219C727.209,-333.319 724.106,-331.552 721,-330 667.371,-303.2 645.338,-319.331 591,-294 586.465,-291.886 581.882,-289.273 577.517,-286.507"/>
<polygon fill="black" stroke="black" points="579.195,-283.417 568.949,-280.723 575.279,-289.219 579.195,-283.417"/>
</g>
<!-- removeProfile -->
<g id="node29" class="node"><title>removeProfile</title>
<defs>
<radialGradient id="r_19" cx="50%" cy="50%" r="75%" fx="50%" fy="50%">
<stop offset="0" style="stop-color:white;stop-opacity:1.;"/>
<stop offset="1" style="stop-color:#fb8072;stop-opacity:1.;"/>
</radialGradient>
</defs>
<polygon fill="url(#r_19)" stroke="black" stroke-dasharray="5,2" points="1625.5,-605 1530.5,-605 1530.5,-582 1625.5,-582 1625.5,-605"/>
<text text-anchor="middle" x="1578" y="-589.8" font-family="Times,serif" font-size="14.00">removeProfile</text>
</g>
<!-- loadProfile -->
<g id="node30" class="node"><title>loadProfile</title>
<polygon fill="#fb8072" stroke="black" points="537.5,-406 460.5,-406 460.5,-330 537.5,-330 537.5,-406"/>
<text text-anchor="middle" x="499" y="-364.3" font-family="Times,serif" font-size="14.00">loadProfile</text>
</g>
<!-- loadProfile&#45;&gt;fopen -->
<g id="edge24" class="edge"><title>loadProfile&#45;&gt;fopen</title>
<path fill="none" stroke="black" d="M537.749,-337.081C540.876,-334.682 543.989,-332.298 547,-330 566.304,-315.264 588.193,-298.722 604.786,-286.217"/>
<polygon fill="black" stroke="black" points="607.056,-288.889 612.938,-280.077 602.845,-283.297 607.056,-288.889"/>
</g>
<!-- loadProfile&#45;&gt;fclose -->
<g id="edge25" class="edge"><title>loadProfile&#45;&gt;fclose</title>
<path fill="none" stroke="black" d="M518.215,-329.863C524.725,-317.282 531.844,-303.522 537.781,-292.049"/>
<polygon fill="black" stroke="black" points="540.963,-293.515 542.45,-283.025 534.746,-290.298 540.963,-293.515"/>
</g>
<!-- loadProfile&#45;&gt;malloc -->
<g id="edge26" class="edge"><title>loadProfile&#45;&gt;malloc</title>
<path fill="none" stroke="black" d="M460.407,-336.283C457.273,-334.087 454.114,-331.967 451,-330 421.803,-311.558 386.576,-294.054 360.97,-282.112"/>
<polygon fill="black" stroke="black" points="362.206,-278.828 351.66,-277.818 359.274,-285.184 362.206,-278.828"/>
</g>
<!-- loadAllProfiles -->
<g id="node31" class="node"><title>loadAllProfiles</title>
<defs>
<radialGradient id="r_20" cx="50%" cy="50%" r="75%" fx="50%" fy="50%">
<stop offset="0" style="stop-color:white;stop-opacity:1.;"/>
<stop offset="1" style="stop-color:#fb8072;stop-opacity:1.;"/>
</radialGradient>
</defs>
<polygon fill="url(#r_20)" stroke="black" stroke-dasharray="5,2" points="1742.5,-605 1643.5,-605 1643.5,-582 1742.5,-582 1742.5,-605"/>
<text text-anchor="middle" x="1693" y="-589.8" font-family="Times,serif" font-size="14.00">loadAllProfiles</text>
</g>
<!-- idozit -->
<g id="node32" class="node"><title>idozit</title>
<polygon fill="#80b1d3" stroke="black" points="615,-495.5 561,-495.5 561,-471.5 615,-471.5 615,-495.5"/>
<text text-anchor="middle" x="588" y="-479.8" font-family="Times,serif" font-size="14.00">idozit</text>
</g>
<!-- init -->
<g id="node33" class="node"><title>init</title>
<polygon fill="#80b1d3" stroke="black" points="471,-525 417,-525 417,-442 471,-442 471,-525"/>
<text text-anchor="middle" x="444" y="-479.8" font-family="Times,serif" font-size="14.00">init</text>
</g>
<!-- init&#45;&gt;initGame -->
<g id="edge32" class="edge"><title>init&#45;&gt;initGame</title>
<path fill="none" stroke="black" d="M471.17,-448.385C473.973,-446.003 476.927,-443.826 480,-442 540.798,-405.871 571.926,-437.99 635,-406 644.159,-401.355 652.992,-394.354 660.244,-387.688"/>
<polygon fill="black" stroke="black" points="662.693,-390.189 667.433,-380.714 657.819,-385.165 662.693,-390.189"/>
</g>
<!-- init&#45;&gt;LoadMap -->
<g id="edge28" class="edge"><title>init&#45;&gt;LoadMap</title>
<path fill="none" stroke="black" d="M471.347,-449.659C474.151,-446.941 477.055,-444.342 480,-442 506.154,-421.205 518.305,-424.694 546,-406 546.511,-405.655 547.023,-405.306 547.536,-404.952"/>
<polygon fill="black" stroke="black" points="549.812,-407.626 555.862,-398.928 545.709,-401.954 549.812,-407.626"/>
</g>
<!-- init&#45;&gt;addPlayerToList -->
<g id="edge31" class="edge"><title>init&#45;&gt;addPlayerToList</title>
<path fill="none" stroke="black" d="M424.299,-441.844C416.335,-425.41 407.42,-407.011 400.541,-392.817"/>
<polygon fill="black" stroke="black" points="403.652,-391.21 396.141,-383.737 397.353,-394.263 403.652,-391.21"/>
</g>
<!-- init&#45;&gt;CreatePlayer -->
<g id="edge30" class="edge"><title>init&#45;&gt;CreatePlayer</title>
<path fill="none" stroke="black" d="M416.839,-476.975C370.482,-466.909 273.845,-443.132 199,-406 195.204,-404.116 191.381,-401.97 187.624,-399.681"/>
<polygon fill="black" stroke="black" points="189.324,-396.612 179.022,-394.138 185.532,-402.497 189.324,-396.612"/>
</g>
<!-- init&#45;&gt;addProfileToList -->
<g id="edge29" class="edge"><title>init&#45;&gt;addProfileToList</title>
<path fill="none" stroke="black" d="M416.902,-465.508C384.04,-444.901 328.764,-410.239 294.169,-388.545"/>
<polygon fill="black" stroke="black" points="295.752,-385.407 285.42,-383.059 292.033,-391.337 295.752,-385.407"/>
</g>
<!-- init&#45;&gt;loadProfile -->
<g id="edge27" class="edge"><title>init&#45;&gt;loadProfile</title>
<path fill="none" stroke="black" d="M463.701,-441.844C467.821,-433.343 472.195,-424.316 476.41,-415.617"/>
<polygon fill="black" stroke="black" points="479.691,-416.873 480.902,-406.347 473.392,-413.82 479.691,-416.873"/>
</g>
<!-- main -->
<g id="node34" class="node"><title>main</title>
<polygon fill="#80b1d3" stroke="black" points="543,-626 489,-626 489,-561 543,-561 543,-626"/>
<text text-anchor="middle" x="516" y="-589.8" font-family="Times,serif" font-size="14.00">main</text>
</g>
<!-- main&#45;&gt;exit -->
<g id="edge33" class="edge"><title>main&#45;&gt;exit</title>
<path fill="none" stroke="black" d="M516,-560.972C516,-545.44 516,-526.891 516,-511.95"/>
<polygon fill="black" stroke="black" points="519.5,-511.804 516,-501.804 512.5,-511.804 519.5,-511.804"/>
</g>
<!-- main&#45;&gt;idozit -->
<g id="edge35" class="edge"><title>main&#45;&gt;idozit</title>
<path fill="none" stroke="black" stroke-dasharray="5,2" d="M537.019,-560.972C549.302,-542.547 564.417,-519.875 574.987,-504.02"/>
<polygon fill="black" stroke="black" points="577.995,-505.818 580.629,-495.556 572.17,-501.935 577.995,-505.818"/>
</g>
<!-- main&#45;&gt;init -->
<g id="edge34" class="edge"><title>main&#45;&gt;init</title>
<path fill="none" stroke="black" d="M494.981,-560.972C489.261,-552.391 482.926,-542.89 476.723,-533.584"/>
<polygon fill="black" stroke="black" points="479.543,-531.505 471.084,-525.126 473.719,-535.388 479.543,-531.505"/>
</g>
</g>
</svg>
